<?xml version="1.0" encoding="utf-8"?>
<!-- Generator: Adobe Illustrator 26.0.0, SVG Export Plug-In . SVG Version: 6.00 Build 0)  -->
<svg version="1.1" id="图层_1" xmlns="http://www.w3.org/2000/svg" xmlns:xlink="http://www.w3.org/1999/xlink" x="0px" y="0px"
	 viewBox="0 0 720 900" style="enable-background:new 0 0 720 900;" xml:space="preserve">
<path d="M300,582h-42V438h42c9.9,0,18-8.1,18-18s-8.1-18-18-18h-42V300c0-9.9-8.1-18-18-18s-18,8.1-18,18v102h-84V300
	c0-9.9-8.1-18-18-18s-18,8.1-18,18v102H60c-9.9,0-18,8.1-18,18s8.1,18,18,18h42v144H60c-9.9,0-18,8.1-18,18s8.1,18,18,18h42v102
	c0,9.9,8.1,18,18,18s18-8.1,18-18V618h84v102c0,9.9,8.1,18,18,18s18-8.1,18-18V618h42c9.9,0,18-8.1,18-18S309.9,582,300,582z
	 M138,582V438h84v144H138z"/>
</svg>
