<?xml version="1.0" encoding="utf-8"?>
<!-- Generator: Adobe Illustrator 26.0.0, SVG Export Plug-In . SVG Version: 6.00 Build 0)  -->
<svg version="1.1" id="图层_1" xmlns="http://www.w3.org/2000/svg" xmlns:xlink="http://www.w3.org/1999/xlink" x="0px" y="0px"
	 viewBox="0 0 720 900" style="enable-background:new 0 0 720 900;" xml:space="preserve">
<path d="M198,523.2V319.6c47.7,8.5,84,50.3,84,100.4c0,9.9,8.1,18,18,18s18-8.1,18-18c0-70-52.4-128-120-136.8V240
	c0-9.9-8.1-18-18-18s-18,8.1-18,18v43.2C94.4,292,42,350,42,420c0,70,52.4,128,120,136.8v203.6c-47.7-8.5-84-50.3-84-100.4
	c0-9.9-8.1-18-18-18s-18,8.1-18,18c0,70,52.4,128,120,136.8V840c0,9.9,8.1,18,18,18s18-8.1,18-18v-43.2C265.6,788,318,730,318,660
	S265.6,532,198,523.2z M78,420c0-50.1,36.3-91.9,84-100.4v200.8C114.3,511.9,78,470.1,78,420z M198,760.4V559.6
	c47.7,8.5,84,50.3,84,100.4S245.7,751.9,198,760.4z"/>
</svg>
