<?xml version="1.0" encoding="utf-8"?>
<!-- Generator: Adobe Illustrator 26.0.0, SVG Export Plug-In . SVG Version: 6.00 Build 0)  -->
<svg version="1.1" id="图层_1" xmlns="http://www.w3.org/2000/svg" xmlns:xlink="http://www.w3.org/1999/xlink" x="0px" y="0px"
	 viewBox="0 0 720 900" style="enable-background:new 0 0 720 900;" xml:space="preserve">
<g>
	<path d="M120,498c43,0,78-35,78-78c0-43-35-78-78-78s-78,35-78,78C42,463,77,498,120,498z M120,378c23.2,0,42,18.8,42,42
		s-18.8,42-42,42s-42-18.8-42-42S96.8,378,120,378z"/>
	<path d="M240,702c-43,0-78,35-78,78s35,78,78,78s78-35,78-78S283,702,240,702z M240,822c-23.2,0-42-18.8-42-42s18.8-42,42-42
		s42,18.8,42,42S263.2,822,240,822z"/>
	<path d="M310,405c-8.3-5.5-19.4-3.3-25,5L45,770c-5.5,8.3-3.3,19.4,5,25c3.1,2,6.5,3,10,3c5.8,0,11.5-2.8,15-8l240-360
		C320.5,421.7,318.3,410.5,310,405z"/>
</g>
</svg>
