<?xml version="1.0" encoding="utf-8"?>
<!-- Generator: Adobe Illustrator 26.0.0, SVG Export Plug-In . SVG Version: 6.00 Build 0)  -->
<svg version="1.1" id="图层_1" xmlns="http://www.w3.org/2000/svg" xmlns:xlink="http://www.w3.org/1999/xlink" x="0px" y="0px"
	 viewBox="0 0 720 900" style="enable-background:new 0 0 720 900;" xml:space="preserve">
<path d="M316.5,832.9l-34.4-80.2c22.3-24.5,35.8-57,35.8-92.7v-60c0-9.9-8.1-18-18-18s-18,8.1-18,18v60c0,20.2-5.9,39-16,54.9
	l-67.7-158.1C265.7,547.9,318,489.9,318,420c0-76.1-61.9-138-138-138h-60c-9.9,0-18,8.1-18,18s8.1,18,18,18h60
	c56.2,0,102,45.8,102,102c0,55.1-44,100.2-98.7,101.9l-46.7-109c-3.9-9.1-14.5-13.4-23.6-9.5c-9.1,3.9-13.4,14.5-9.5,23.6l42.5,99.2
	C86.3,541.5,42,595.7,42,660c0,76.1,61.9,138,138,138c26.9,0,52.1-7.8,73.3-21.2l30.1,70.3c2.9,6.8,9.6,10.9,16.6,10.9
	c2.4,0,4.8-0.5,7.1-1.5C316.2,852.6,320.5,842,316.5,832.9z M180,762c-56.2,0-102-45.8-102-102c0-49.5,35.5-90.9,82.4-100.1
	l78.6,183.3C222.3,755,201.9,762,180,762z"/>
</svg>
