<?xml version="1.0" encoding="utf-8"?>
<!-- Generator: Adobe Illustrator 26.0.0, SVG Export Plug-In . SVG Version: 6.00 Build 0)  -->
<svg version="1.1" id="图层_1" xmlns="http://www.w3.org/2000/svg" xmlns:xlink="http://www.w3.org/1999/xlink" x="0px" y="0px"
	 viewBox="0 0 720 900" style="enable-background:new 0 0 720 900;" xml:space="preserve">
<path d="M205.5,480l107.3-107.3c7-7,7-18.4,0-25.5c-7-7-18.4-7-25.5,0L198,436.5V300c0-9.9-8.1-18-18-18s-18,8.1-18,18v136.5
	l-89.3-89.3c-7-7-18.4-7-25.5,0c-7,7-7,18.4,0,25.5L154.5,480L47.3,587.3c-7,7-7,18.4,0,25.5c3.5,3.5,8.1,5.3,12.7,5.3
	s9.2-1.8,12.7-5.3l89.3-89.3V660c0,9.9,8.1,18,18,18s18-8.1,18-18V523.5l89.3,89.3c3.5,3.5,8.1,5.3,12.7,5.3s9.2-1.8,12.7-5.3
	c7-7,7-18.4,0-25.5L205.5,480z"/>
</svg>
