<?xml version="1.0" encoding="utf-8"?>
<!-- Generator: Adobe Illustrator 26.0.0, SVG Export Plug-In . SVG Version: 6.00 Build 0)  -->
<svg version="1.1" id="图层_1" xmlns="http://www.w3.org/2000/svg" xmlns:xlink="http://www.w3.org/1999/xlink" x="0px" y="0px"
	 viewBox="0 0 720 900" style="enable-background:new 0 0 720 900;" xml:space="preserve">
<g>
	<path d="M676.5,330L418.9,72.4c-32.7-32.7-86-32.7-118.7,0L42.5,330c-9.4,9.4-9.4,24.6,0,33.9c9.4,9.4,24.6,9.4,33.9,0l257.6-257.6
		c14-14,36.8-14,50.9,0l257.6,257.6c4.7,4.7,10.8,7,17,7s12.3-2.3,17-7C685.8,354.6,685.8,339.4,676.5,330z"/>
	<path d="M479.5,491c46.3,0,84-37.7,84-84v-60c0-13.3-10.7-24-24-24s-24,10.7-24,24v60c0,19.9-16.1,36-36,36h-96V311h96
		c13.3,0,24-10.7,24-24s-10.7-24-24-24h-240c-13.3,0-24,10.7-24,24s10.7,24,24,24h96v132h-96c-19.9,0-36-16.1-36-36v-60
		c0-13.3-10.7-24-24-24s-24,10.7-24,24v60c0,46.3,37.7,84,84,84h96v336c0,13.3,10.7,24,24,24s24-10.7,24-24V491H479.5z"/>
	<path d="M119.5,563c-13.3,0-24,10.7-24,24s10.7,24,24,24c52.9,0,96,43.1,96,96s-43.1,96-96,96c-13.3,0-24,10.7-24,24s10.7,24,24,24
		c79.4,0,144-64.6,144-144S198.9,563,119.5,563z"/>
	<path d="M599.5,611c13.3,0,24-10.7,24-24s-10.7-24-24-24c-79.4,0-144,64.6-144,144s64.6,144,144,144c13.3,0,24-10.7,24-24
		s-10.7-24-24-24c-52.9,0-96-43.1-96-96S546.6,611,599.5,611z"/>
</g>
</svg>
