<?xml version="1.0" encoding="utf-8"?>
<!-- Generator: Adobe Illustrator 26.0.0, SVG Export Plug-In . SVG Version: 6.00 Build 0)  -->
<svg version="1.1" id="图层_1" xmlns="http://www.w3.org/2000/svg" xmlns:xlink="http://www.w3.org/1999/xlink" x="0px" y="0px"
	 viewBox="0 0 720 900" style="enable-background:new 0 0 720 900;" xml:space="preserve">
<g>
	<path d="M672.7,287.3L492.9,107.6c-73.3-73.3-192.6-73.3-266,0L47.3,287.3c-7,7-7,18.4,0,25.5c3.5,3.5,8.1,5.3,12.7,5.3
		s9.2-1.8,12.7-5.3L252.4,133c59.3-59.3,155.8-59.3,215,0l179.8,179.7c7,7,18.4,7,25.5,0C679.8,305.7,679.8,294.3,672.7,287.3z"/>
	<path d="M480,498c43,0,78-35,78-78v-60c0-9.9-8.1-18-18-18s-18,8.1-18,18v60c0,23.2-18.8,42-42,42H378V318h102c9.9,0,18-8.1,18-18
		s-8.1-18-18-18H240c-9.9,0-18,8.1-18,18s8.1,18,18,18h102v144H240c-23.2,0-42-18.8-42-42v-60c0-9.9-8.1-18-18-18s-18,8.1-18,18v60
		c0,43,35,78,78,78h102v342c0,9.9,8.1,18,18,18c9.9,0,18-8.1,18-18V498H480z"/>
	<path d="M120,582c-9.9,0-18,8.1-18,18s8.1,18,18,18c56.2,0,102,45.8,102,102s-45.8,102-102,102c-9.9,0-18,8.1-18,18s8.1,18,18,18
		c76.1,0,138-61.9,138-138S196.1,582,120,582z"/>
	<path d="M600,618c9.9,0,18-8.1,18-18s-8.1-18-18-18c-76.1,0-138,61.9-138,138s61.9,138,138,138c9.9,0,18-8.1,18-18s-8.1-18-18-18
		c-56.2,0-102-45.8-102-102S543.8,618,600,618z"/>
</g>
</svg>
