<?xml version="1.0" encoding="utf-8"?>
<!-- Generator: Adobe Illustrator 26.0.0, SVG Export Plug-In . SVG Version: 6.00 Build 0)  -->
<svg version="1.1" id="图层_1" xmlns="http://www.w3.org/2000/svg" xmlns:xlink="http://www.w3.org/1999/xlink" x="0px" y="0px"
	 viewBox="0 0 720 900" style="enable-background:new 0 0 720 900;" xml:space="preserve">
<g>
	<path d="M258,240V138h42c9.9,0,18-8.1,18-18s-8.1-18-18-18H198V60c0-9.9-8.1-18-18-18s-18,8.1-18,18v42H60c-9.9,0-18,8.1-18,18
		s8.1,18,18,18h42v102c0,36.8,25.6,67.7,60,75.9v84.5c-47.7-8.5-84-50.3-84-100.4c0-9.9-8.1-18-18-18s-18,8.1-18,18
		c0,70,52.4,128,120,136.8V522H60c-9.9,0-18,8.1-18,18s8.1,18,18,18h102v85.2C94.4,652,42,710,42,780v60c0,9.9,8.1,18,18,18
		s18-8.1,18-18v-60c0-50.1,36.3-91.9,84-100.4V840c0,9.9,8.1,18,18,18s18-8.1,18-18V679.6c47.7,8.5,84,50.3,84,100.4v60
		c0,9.9,8.1,18,18,18s18-8.1,18-18v-60c0-70-52.4-128-120-136.8V558h102c9.9,0,18-8.1,18-18s-8.1-18-18-18H198v-85.2
		C265.6,428,318,370,318,300c0-9.9-8.1-18-18-18s-18,8.1-18,18c0,50.1-36.3,91.9-84,100.4v-84.5C232.4,307.7,258,276.8,258,240z
		 M138,240V138h84v102c0,23.2-18.8,42-42,42S138,263.2,138,240z"/>
	<path d="M660,282H438V180c0-23.2,18.8-42,42-42h120c43,0,78-35,78-78c0-9.9-8.1-18-18-18s-18,8.1-18,18c0,23.2-18.8,42-42,42H480
		c-43,0-78,35-78,78v660c0,9.9,8.1,18,18,18s18-8.1,18-18V318h222c9.9,0,18-8.1,18-18S669.9,282,660,282z"/>
	<path d="M600,402c-9.9,0-18,8.1-18,18v420c0,9.9,8.1,18,18,18s18-8.1,18-18V420C618,410.1,609.9,402,600,402z"/>
</g>
</svg>
