<?xml version="1.0" encoding="utf-8"?>
<!-- Generator: Adobe Illustrator 26.0.0, SVG Export Plug-In . SVG Version: 6.00 Build 0)  -->
<svg version="1.1" id="图层_1" xmlns="http://www.w3.org/2000/svg" xmlns:xlink="http://www.w3.org/1999/xlink" x="0px" y="0px"
	 viewBox="0 0 720 900" style="enable-background:new 0 0 720 900;" xml:space="preserve">
<g>
	<path d="M201.5,83.4h98c13.3,0,24-10.7,24-24s-10.7-24-24-24h-120c-13.3,0-24,10.7-24,24c0,52.9-43.1,96-96,96
		c-13.3,0-24,10.7-24,24s10.7,24,24,24C130.7,203.4,190,151.4,201.5,83.4z"/>
	<path d="M479.5,755.4c-13.3,0-24,10.7-24,24s10.7,24,24,24c19.9,0,36,16.1,36,36c0,13.3,10.7,24,24,24s24-10.7,24-24
		C563.5,793.1,525.8,755.4,479.5,755.4z"/>
	<path d="M239.5,755.4c-46.3,0-84,37.7-84,84c0,13.3,10.7,24,24,24s24-10.7,24-24c0-19.9,16.1-36,36-36c13.3,0,24-10.7,24-24
		S252.8,755.4,239.5,755.4z"/>
	<path d="M539.5,635.4h-156v-72h96c13.3,0,24-10.7,24-24s-10.7-24-24-24h-96v-36c0-13.3-10.7-24-24-24s-24,10.7-24,24v36h-96
		c-19.9,0-36-16.1-36-36c0-13.3-10.7-24-24-24s-24,10.7-24,24c0,46.3,37.7,84,84,84h96v72h-96c-19.9,0-36-16.1-36-36
		c0-13.3-10.7-24-24-24s-24,10.7-24,24c0,46.3,37.7,84,84,84h96v156c0,13.3,10.7,24,24,24s24-10.7,24-24v-156h156
		c13.3,0,24-10.7,24-24S552.8,635.4,539.5,635.4z"/>
	<path d="M275.5,383.4v36c0,13.3,10.7,24,24,24s24-10.7,24-24v-36h36c13.3,0,24-10.7,24-24s-10.7-24-24-24h-36v-180h-84
		c-13.3,0-24,10.7-24,24s10.7,24,24,24h36v132h-96c-19.9,0-36-16.1-36-36c0-13.3-10.7-24-24-24s-24,10.7-24,24c0,46.3,37.7,84,84,84
		H275.5z"/>
	<path d="M162.5,256.4l60,60c4.7,4.7,10.8,7,17,7s12.3-2.3,17-7c9.4-9.4,9.4-24.6,0-33.9l-60-60c-9.4-9.4-24.6-9.4-33.9,0
		C153.2,231.8,153.2,247,162.5,256.4z"/>
	<path d="M659.5,35.4h-60c-46.3,0-84,37.7-84,84v36h-96c-13.3,0-24,10.7-24,24s10.7,24,24,24h156v36c0,29.2-8.1,56.6-22.1,80
		c-14.2-26.2-42-44-73.9-44h-60c-13.3,0-24,10.7-24,24s10.7,24,24,24h60c19.9,0,36,16.1,36,36v2.9c-26.5,20.7-59.8,33.1-96,33.1
		c-13.3,0-24,10.7-24,24s10.7,24,24,24c34.7,0,67.4-8.7,96-24v0c0,46.3,37.7,84,84,84c13.3,0,24-10.7,24-24s-10.7-24-24-24
		c-19.9,0-36-16.1-36-36v-35.6c37-37,60-88,60-144.4v-84h-60v-36c0-19.9,16.1-36,36-36h60c13.3,0,24-10.7,24-24
		S672.8,35.4,659.5,35.4z"/>
</g>
</svg>
