<?xml version="1.0" encoding="utf-8"?>
<!-- Generator: Adobe Illustrator 26.0.0, SVG Export Plug-In . SVG Version: 6.00 Build 0)  -->
<svg version="1.1" id="图层_1" xmlns="http://www.w3.org/2000/svg" xmlns:xlink="http://www.w3.org/1999/xlink" x="0px" y="0px"
	 viewBox="0 0 720 900" style="enable-background:new 0 0 720 900;" xml:space="preserve">
<g>
	<path d="M196.8,78H300c9.9,0,18-8.1,18-18s-8.1-18-18-18H180c-9.9,0-18,8.1-18,18c0,56.2-45.8,102-102,102c-9.9,0-18,8.1-18,18
		s8.1,18,18,18C130,198,188,145.6,196.8,78z"/>
	<path d="M480,762c-9.9,0-18,8.1-18,18s8.1,18,18,18c23.2,0,42,18.8,42,42c0,9.9,8.1,18,18,18s18-8.1,18-18C558,797,523,762,480,762
		z"/>
	<path d="M240,762c-43,0-78,35-78,78c0,9.9,8.1,18,18,18s18-8.1,18-18c0-23.2,18.8-42,42-42c9.9,0,18-8.1,18-18S249.9,762,240,762z"
		/>
	<path d="M540,642H378v-84h102c9.9,0,18-8.1,18-18s-8.1-18-18-18H378v-42c0-9.9-8.1-18-18-18c-9.9,0-18,8.1-18,18v42H240
		c-23.2,0-42-18.8-42-42c0-9.9-8.1-18-18-18s-18,8.1-18,18c0,43,35,78,78,78h102v84H240c-23.2,0-42-18.8-42-42c0-9.9-8.1-18-18-18
		s-18,8.1-18,18c0,43,35,78,78,78h102v162c0,9.9,8.1,18,18,18c9.9,0,18-8.1,18-18V678h162c9.9,0,18-8.1,18-18S549.9,642,540,642z"/>
	<path d="M282,378v42c0,9.9,8.1,18,18,18s18-8.1,18-18v-42h42c9.9,0,18-8.1,18-18s-8.1-18-18-18h-42V180c0-9.9-8.1-18-18-18h-60
		c-9.9,0-18,8.1-18,18s8.1,18,18,18h42v144H180c-23.2,0-42-18.8-42-42c0-9.9-8.1-18-18-18s-18,8.1-18,18c0,43,35,78,78,78H282z"/>
	<path d="M167.3,252.7l60,60c3.5,3.5,8.1,5.3,12.7,5.3s9.2-1.8,12.7-5.3c7-7,7-18.4,0-25.5l-60-60c-7-7-18.4-7-25.5,0
		C160.2,234.3,160.2,245.7,167.3,252.7z"/>
	<path d="M660,42h-60c-43,0-78,35-78,78v42H420c-9.9,0-18,8.1-18,18s8.1,18,18,18h162v42c0,34.3-10.7,66.2-29,92.4
		C541.8,303,513.3,282,480,282h-60c-9.9,0-18,8.1-18,18s8.1,18,18,18h60c23.2,0,42,18.8,42,42v5.8c-27.9,22.6-63.4,36.2-102,36.2
		c-9.9,0-18,8.1-18,18s8.1,18,18,18c37.3,0,72.2-10.4,102-28.4V420c0,43,35,78,78,78c9.9,0,18-8.1,18-18s-8.1-18-18-18
		c-23.2,0-42-18.8-42-42v-38.2c37-36,60-86.3,60-141.8v-60c0-9.9-8.1-18-18-18h-42v-42c0-23.2,18.8-42,42-42h60c9.9,0,18-8.1,18-18
		S669.9,42,660,42z"/>
</g>
</svg>
