<?xml version="1.0" encoding="utf-8"?>
<!-- Generator: Adobe Illustrator 26.0.0, SVG Export Plug-In . SVG Version: 6.00 Build 0)  -->
<svg version="1.1" id="图层_1" xmlns="http://www.w3.org/2000/svg" xmlns:xlink="http://www.w3.org/1999/xlink" x="0px" y="0px"
	 viewBox="0 0 720 900" style="enable-background:new 0 0 720 900;" xml:space="preserve">
<style type="text/css">
	.st0{fill:none;stroke:#000000;stroke-width:48;stroke-linecap:round;stroke-linejoin:round;stroke-miterlimit:10;}
</style>
<line class="st0" x1="540" y1="120" x2="660" y2="120"/>
<line class="st0" x1="300" y1="120" x2="420" y2="120"/>
<line class="st0" x1="360" y1="60" x2="360" y2="180"/>
<line class="st0" x1="600" y1="60" x2="600" y2="180"/>
<path class="st0" d="M180,180v360c0,33.1-26.9,60-60,60s-60-26.9-60-60V180"/>
<line class="st0" x1="60" y1="240" x2="180" y2="240"/>
<path class="st0" d="M600,840V600c0-66.3-53.7-120-120-120h-60c-66.3,0-120-53.7-120-120V240"/>
<path class="st0" d="M360,840V600c0-66.3,53.7-120,120-120h60c66.3,0,120-53.7,120-120V240"/>
</svg>
