<?xml version="1.0" encoding="utf-8"?>
<!-- Generator: Adobe Illustrator 26.0.0, SVG Export Plug-In . SVG Version: 6.00 Build 0)  -->
<svg version="1.1" id="图层_1" xmlns="http://www.w3.org/2000/svg" xmlns:xlink="http://www.w3.org/1999/xlink" x="0px" y="0px"
	 viewBox="0 0 720 900" style="enable-background:new 0 0 720 900;" xml:space="preserve">
<style type="text/css">
	.st0{fill:none;stroke:#000000;stroke-width:48;stroke-linecap:round;stroke-linejoin:round;stroke-miterlimit:10;}
</style>
<line class="st0" x1="480" y1="60" x2="480" y2="120"/>
<path class="st0" d="M300,480V180c0-33.1,26.9-60,60-60h240c33.1,0,60,26.9,60,60v300"/>
<path class="st0" d="M420,240c0-33.1-26.9-60-60-60"/>
<path class="st0" d="M420,360c0,33.1-26.9,60-60,60"/>
<path class="st0" d="M540,240c0-33.1,26.9-60,60-60"/>
<path class="st0" d="M540,360c0,33.1,26.9,60,60,60"/>
<line class="st0" x1="360" y1="300" x2="600" y2="300"/>
<line class="st0" x1="480" y1="180" x2="480" y2="420"/>
<path class="st0" d="M300,840c0-99.4,80.6-180,180-180s180,80.6,180,180"/>
<line class="st0" x1="300" y1="600" x2="660" y2="600"/>
<line class="st0" x1="480" y1="480" x2="480" y2="660"/>
<path class="st0" d="M120,180c-33.1,0-60,26.9-60,60v60"/>
<path class="st0" d="M120,360c33.1,0,60-26.9,60-60v-60"/>
<line class="st0" x1="120" y1="60" x2="120" y2="840"/>
</svg>
