<?xml version="1.0" encoding="utf-8"?>
<!-- Generator: Adobe Illustrator 26.0.0, SVG Export Plug-In . SVG Version: 6.00 Build 0)  -->
<svg version="1.1" id="图层_1" xmlns="http://www.w3.org/2000/svg" xmlns:xlink="http://www.w3.org/1999/xlink" x="0px" y="0px"
	 viewBox="0 0 720 900" style="enable-background:new 0 0 720 900;" xml:space="preserve">
<style type="text/css">
	.st0{fill:none;stroke:#000000;stroke-width:48;stroke-linecap:round;stroke-linejoin:round;stroke-miterlimit:10;}
</style>
<path class="st0" d="M660,60c0,33.2-26.8,60-60,60H300"/>
<line class="st0" x1="360" y1="180" x2="360" y2="240"/>
<line class="st0" x1="480" y1="180" x2="480" y2="240"/>
<line class="st0" x1="600" y1="180" x2="600" y2="240"/>
<path class="st0" d="M660,360c0-33.1-26.9-60-60-60H300"/>
<line class="st0" x1="660" y1="420" x2="300" y2="420"/>
<path class="st0" d="M300,840c33.1,0,60-26.8,60-60V360"/>
<path class="st0" d="M420,840h60c66.3,0,120-53.7,120-120V600c0-33.1-26.9-60-60-60H360"/>
<path class="st0" d="M180,180v360c0,33.1-26.9,60-60,60s-60-26.9-60-60V180"/>
<line class="st0" x1="60" y1="180" x2="180" y2="180"/>
<line class="st0" x1="60" y1="360" x2="180" y2="360"/>
<path class="st0" d="M420,660c33.1,0,60,26.9,60,60c0,66.3,53.7,120,120,120h60"/>
</svg>
