<?xml version="1.0" encoding="utf-8"?>
<!-- Generator: Adobe Illustrator 26.0.0, SVG Export Plug-In . SVG Version: 6.00 Build 0)  -->
<svg version="1.1" id="图层_1" xmlns="http://www.w3.org/2000/svg" xmlns:xlink="http://www.w3.org/1999/xlink" x="0px" y="0px"
	 viewBox="0 0 720 900" style="enable-background:new 0 0 720 900;" xml:space="preserve">
<style type="text/css">
	.st0{fill:none;stroke:#000000;stroke-width:48;stroke-linecap:round;stroke-linejoin:round;stroke-miterlimit:10;}
</style>
<path class="st0" d="M420,780h60c66.3,0,120-53.7,120-120V420c0-33.1-26.9-60-60-60H360"/>
<path class="st0" d="M420,480c33.1,0,60,26.9,60,60v180c0,66.3,53.7,120,120,120h60"/>
<path class="st0" d="M300,840c33.1,0,60-26.9,60-60V240c0-66.3,53.7-120,120-120h120.2c33.1,0,59.9-26.7,60-59.8"/>
<line class="st0" x1="60" y1="60" x2="60" y2="840"/>
<path class="st0" d="M180,60v240c0,33.1-26.9,60-60,60H60"/>
<path class="st0" d="M180,780V540c0-33.1-26.9-60-60-60H60"/>
</svg>
