<?xml version="1.0" encoding="utf-8"?>
<!-- Generator: Adobe Illustrator 26.0.0, SVG Export Plug-In . SVG Version: 6.00 Build 0)  -->
<svg version="1.1" id="图层_1" xmlns="http://www.w3.org/2000/svg" xmlns:xlink="http://www.w3.org/1999/xlink" x="0px" y="0px"
	 viewBox="0 0 720 900" style="enable-background:new 0 0 720 900;" xml:space="preserve">
<style type="text/css">
	.st0{fill:none;stroke:#000000;stroke-width:48;stroke-linecap:round;stroke-linejoin:round;stroke-miterlimit:10;}
</style>
<path class="st0" d="M120,120L120,120c-33.1,0-60,26.9-60,60v180h120V180C180,146.9,153.1,120,120,120z"/>
<path class="st0" d="M300,60h60c33.1,0,60,26.9,60,60v720"/>
<path class="st0" d="M420,240c0,66.3-53.7,120-120,120"/>
<path class="st0" d="M420,480c0,66.3-53.7,120-120,120"/>
<path class="st0" d="M540,60h60c33.1,0,60,26.9,60,60v720"/>
<path class="st0" d="M660,240c0,66.3-53.7,120-120,120"/>
<path class="st0" d="M660,480c0,66.3-53.7,120-120,120"/>
<line class="st0" x1="120" y1="60" x2="120" y2="120"/>
<line class="st0" x1="60" y1="240" x2="180" y2="240"/>
<path class="st0" d="M180,480c0,0-26.9,0-60,0s-60,0-60,0s26.9,0,60,0S180,480,180,480z"/>
<path class="st0" d="M60,600c0-33.1,26.9-60,60-60s60,26.9,60,60"/>
<line class="st0" x1="120" y1="360" x2="120" y2="540"/>
<line class="st0" x1="60" y1="720" x2="180" y2="720"/>
<line class="st0" x1="120" y1="660" x2="120" y2="840"/>
</svg>
