<?xml version="1.0" encoding="utf-8"?>
<!-- Generator: Adobe Illustrator 26.0.0, SVG Export Plug-In . SVG Version: 6.00 Build 0)  -->
<svg version="1.1" id="图层_1" xmlns="http://www.w3.org/2000/svg" xmlns:xlink="http://www.w3.org/1999/xlink" x="0px" y="0px"
	 viewBox="0 0 720 900" style="enable-background:new 0 0 720 900;" xml:space="preserve">
<style type="text/css">
	.st0{fill:none;stroke:#000000;stroke-width:48;stroke-linecap:round;stroke-linejoin:round;stroke-miterlimit:10;}
</style>
<path class="st0" d="M660,240v-60c0-33.1-26.9-60-60-60H360c-33.1,0-60,26.9-60,60v60"/>
<line class="st0" x1="480" y1="60" x2="480" y2="120"/>
<path class="st0" d="M420,240v420c0,99.4,80.6,180,180,180h60"/>
<path class="st0" d="M540,480v180c0,99.4-80.6,180-180,180h-60"/>
<line class="st0" x1="300" y1="360" x2="660" y2="360"/>
<path class="st0" d="M60,780V60h0c66.3,0,120,53.7,120,120v600c0,33.1-26.9,60-60,60"/>
<line class="st0" x1="60" y1="360" x2="180" y2="360"/>
<line class="st0" x1="60" y1="600" x2="180" y2="600"/>
</svg>
