<?xml version="1.0" encoding="utf-8"?>
<!-- Generator: Adobe Illustrator 26.0.0, SVG Export Plug-In . SVG Version: 6.00 Build 0)  -->
<svg version="1.1" id="图层_1" xmlns="http://www.w3.org/2000/svg" xmlns:xlink="http://www.w3.org/1999/xlink" x="0px" y="0px"
	 viewBox="0 0 720 900" style="enable-background:new 0 0 720 900;" xml:space="preserve">
<style type="text/css">
	.st0{fill:none;stroke:#000000;stroke-width:48;stroke-linecap:round;stroke-linejoin:round;stroke-miterlimit:10;}
</style>
<polyline class="st0" points="600,180 660,180 300,180 "/>
<path class="st0" d="M420,60v300c0,66.3-53.7,120-120,120"/>
<line class="st0" x1="660" y1="120" x2="660" y2="240"/>
<path class="st0" d="M120,300L120,300c-33.1,0-60-26.9-60-60V60h60h60v180C180,273.1,153.1,300,120,300z"/>
<line class="st0" x1="120" y1="300" x2="120" y2="840"/>
<path class="st0" d="M60,780c0,33.1,26.9,60,60,60h60"/>
<path class="st0" d="M180,420c0,33.1-26.9,60-60,60"/>
<path class="st0" d="M300,780h180c66.3,0,120-53.7,120-120V420c0-33.1-26.9-60-60-60H420"/>
<path class="st0" d="M360,540c33.1,0,60,26.9,60,60c0,0,0,120,0,120c0,66.3,53.7,120,120,120h120"/>
</svg>
