<?xml version="1.0" encoding="utf-8"?>
<!-- Generator: Adobe Illustrator 26.0.0, SVG Export Plug-In . SVG Version: 6.00 Build 0)  -->
<svg version="1.1" id="图层_1" xmlns="http://www.w3.org/2000/svg" xmlns:xlink="http://www.w3.org/1999/xlink" x="0px" y="0px"
	 viewBox="0 0 720 900" style="enable-background:new 0 0 720 900;" xml:space="preserve">
<path d="M300,588h-48V432h48c6.6,0,12-5.4,12-12s-5.4-12-12-12h-48V300c0-6.6-5.4-12-12-12s-12,5.4-12,12v108h-96V300
	c0-6.6-5.4-12-12-12s-12,5.4-12,12v108H60c-6.6,0-12,5.4-12,12s5.4,12,12,12h48v156H60c-6.6,0-12,5.4-12,12s5.4,12,12,12h48v108
	c0,6.6,5.4,12,12,12s12-5.4,12-12V612h96v108c0,6.6,5.4,12,12,12s12-5.4,12-12V612h48c6.6,0,12-5.4,12-12S306.6,588,300,588z
	 M132,588V432h96v156H132z"/>
</svg>
