<?xml version="1.0" encoding="utf-8"?>
<!-- Generator: Adobe Illustrator 26.0.0, SVG Export Plug-In . SVG Version: 6.00 Build 0)  -->
<svg version="1.1" id="图层_1" xmlns="http://www.w3.org/2000/svg" xmlns:xlink="http://www.w3.org/1999/xlink" x="0px" y="0px"
	 viewBox="0 0 720 900" style="enable-background:new 0 0 720 900;" xml:space="preserve">
<path d="M192,528.6V312.7c53.9,6,96,51.8,96,107.3c0,6.6,5.4,12,12,12s12-5.4,12-12c0-68.7-52.8-125.4-120-131.4V240
	c0-6.6-5.4-12-12-12s-12,5.4-12,12v48.6C100.8,294.6,48,351.3,48,420s52.8,125.4,120,131.4v215.9c-53.9-6-96-51.8-96-107.3
	c0-6.6-5.4-12-12-12s-12,5.4-12,12c0,68.7,52.8,125.4,120,131.4V840c0,6.6,5.4,12,12,12s12-5.4,12-12v-48.6
	c67.2-6.1,120-62.7,120-131.4S259.2,534.6,192,528.6z M72,420c0-55.5,42.1-101.3,96-107.3v214.7C114.1,521.3,72,475.5,72,420z
	 M192,767.3V552.7c53.9,6,96,51.8,96,107.3S245.9,761.3,192,767.3z"/>
</svg>
