<?xml version="1.0" encoding="utf-8"?>
<!-- Generator: Adobe Illustrator 26.0.0, SVG Export Plug-In . SVG Version: 6.00 Build 0)  -->
<svg version="1.1" id="图层_1" xmlns="http://www.w3.org/2000/svg" xmlns:xlink="http://www.w3.org/1999/xlink" x="0px" y="0px"
	 viewBox="0 0 720 900" style="enable-background:new 0 0 720 900;" xml:space="preserve">
<g>
	<path d="M120,492c39.7,0,72-32.3,72-72s-32.3-72-72-72s-72,32.3-72,72S80.3,492,120,492z M120,372c26.5,0,48,21.5,48,48
		s-21.5,48-48,48s-48-21.5-48-48S93.5,372,120,372z"/>
	<path d="M240,708c-39.7,0-72,32.3-72,72s32.3,72,72,72s72-32.3,72-72S279.7,708,240,708z M240,828c-26.5,0-48-21.5-48-48
		s21.5-48,48-48s48,21.5,48,48S266.5,828,240,828z"/>
	<path d="M306.7,410c-5.5-3.7-13-2.2-16.6,3.3l-240,360c-3.7,5.5-2.2,13,3.3,16.6c2,1.4,4.4,2,6.6,2c3.9,0,7.7-1.9,10-5.3l240-360
		C313.7,421.1,312.2,413.7,306.7,410z"/>
</g>
</svg>
