<?xml version="1.0" encoding="utf-8"?>
<!-- Generator: Adobe Illustrator 26.0.0, SVG Export Plug-In . SVG Version: 6.00 Build 0)  -->
<svg version="1.1" id="图层_1" xmlns="http://www.w3.org/2000/svg" xmlns:xlink="http://www.w3.org/1999/xlink" x="0px" y="0px"
	 viewBox="0 0 720 900" style="enable-background:new 0 0 720 900;" xml:space="preserve">
<path d="M311,835.3l-35.9-83.8c22.8-23.7,36.9-56,36.9-91.4v-60c0-6.6-5.4-12-12-12s-12,5.4-12,12v60c0,25.3-8.7,48.6-23.4,67
	l-75.2-175.4C257.9,546.8,312,489.6,312,420c0-72.8-59.2-132-132-132h-60c-6.6,0-12,5.4-12,12s5.4,12,12,12h60
	c59.6,0,108,48.4,108,108c0,59.6-48.4,108-108,108c-0.2,0-0.4,0-0.7,0L131,415.3c-2.6-6.1-9.7-8.9-15.8-6.3
	c-6.1,2.6-8.9,9.7-6.3,15.8l45.3,105.8C93.8,542.5,48,596,48,660c0,72.8,59.2,132,132,132c28.3,0,54.5-8.9,76-24.2l32.9,76.9
	c2,4.6,6.4,7.3,11,7.3c1.6,0,3.2-0.3,4.7-1C310.8,848.4,313.6,841.4,311,835.3z M180,768c-59.6,0-108-48.4-108-108
	c0-54.1,40-99.1,92-106.8l82.3,192C228,759.5,205,768,180,768z"/>
</svg>
