<?xml version="1.0" encoding="utf-8"?>
<!-- Generator: Adobe Illustrator 26.0.0, SVG Export Plug-In . SVG Version: 6.00 Build 0)  -->
<svg version="1.1" id="图层_1" xmlns="http://www.w3.org/2000/svg" xmlns:xlink="http://www.w3.org/1999/xlink" x="0px" y="0px"
	 viewBox="0 0 720 900" style="enable-background:new 0 0 720 900;" xml:space="preserve">
<path d="M197,480l111.5-111.5c4.7-4.7,4.7-12.3,0-17c-4.7-4.7-12.3-4.7-17,0L192,451V300c0-6.6-5.4-12-12-12s-12,5.4-12,12v151
	l-99.5-99.5c-4.7-4.7-12.3-4.7-17,0c-4.7,4.7-4.7,12.3,0,17L163,480L51.5,591.5c-4.7,4.7-4.7,12.3,0,17c2.3,2.3,5.4,3.5,8.5,3.5
	s6.1-1.2,8.5-3.5L168,509v151c0,6.6,5.4,12,12,12s12-5.4,12-12V509l99.5,99.5c2.3,2.3,5.4,3.5,8.5,3.5s6.1-1.2,8.5-3.5
	c4.7-4.7,4.7-12.3,0-17L197,480z"/>
</svg>
