<?xml version="1.0" encoding="utf-8"?>
<!-- Generator: Adobe Illustrator 26.0.0, SVG Export Plug-In . SVG Version: 6.00 Build 0)  -->
<svg version="1.1" id="图层_1" xmlns="http://www.w3.org/2000/svg" xmlns:xlink="http://www.w3.org/1999/xlink" x="0px" y="0px"
	 viewBox="0 0 720 900" style="enable-background:new 0 0 720 900;" xml:space="preserve">
<g>
	<path d="M668.5,351.5L410.9,93.9c-28.1-28.1-73.7-28.1-101.8,0L51.5,351.5c-4.7,4.7-4.7,12.3,0,17c2.3,2.3,5.4,3.5,8.5,3.5
		s6.1-1.2,8.5-3.5l257.6-257.6c18.7-18.7,49.1-18.7,67.8,0l257.6,257.6c4.7,4.7,12.3,4.7,17,0S673.2,356.2,668.5,351.5z"/>
	<path d="M480,492c39.7,0,72-32.3,72-72v-60c0-6.6-5.4-12-12-12s-12,5.4-12,12v60c0,26.5-21.5,48-48,48H372V312h108
		c6.6,0,12-5.4,12-12s-5.4-12-12-12H240c-6.6,0-12,5.4-12,12s5.4,12,12,12h108v156H240c-26.5,0-48-21.5-48-48v-60
		c0-6.6-5.4-12-12-12s-12,5.4-12,12v60c0,39.7,32.3,72,72,72h108v348c0,6.6,5.4,12,12,12c6.6,0,12-5.4,12-12V492H480z"/>
	<path d="M120,588c-6.6,0-12,5.4-12,12s5.4,12,12,12c59.6,0,108,48.4,108,108s-48.4,108-108,108c-6.6,0-12,5.4-12,12s5.4,12,12,12
		c72.8,0,132-59.2,132-132S192.8,588,120,588z"/>
	<path d="M600,612c6.6,0,12-5.4,12-12s-5.4-12-12-12c-72.8,0-132,59.2-132,132s59.2,132,132,132c6.6,0,12-5.4,12-12s-5.4-12-12-12
		c-59.6,0-108-48.4-108-108S540.4,612,600,612z"/>
</g>
</svg>
