<?xml version="1.0" encoding="utf-8"?>
<!-- Generator: Adobe Illustrator 26.0.0, SVG Export Plug-In . SVG Version: 6.00 Build 0)  -->
<svg version="1.1" id="图层_1" xmlns="http://www.w3.org/2000/svg" xmlns:xlink="http://www.w3.org/1999/xlink" x="0px" y="0px"
	 viewBox="0 0 720 900" style="enable-background:new 0 0 720 900;" xml:space="preserve">
<g>
	<path d="M252,240V132h48c6.6,0,12-5.4,12-12s-5.4-12-12-12H192V60c0-6.6-5.4-12-12-12s-12,5.4-12,12v48H60c-6.6,0-12,5.4-12,12
		s5.4,12,12,12h48v108c0,35.6,26,65.2,60,71v96.3c-53.9-6-96-51.8-96-107.3c0-6.6-5.4-12-12-12s-12,5.4-12,12
		c0,68.7,52.8,125.4,120,131.4V528H60c-6.6,0-12,5.4-12,12s5.4,12,12,12h108v96.6C100.8,654.6,48,711.3,48,780v60
		c0,6.6,5.4,12,12,12s12-5.4,12-12v-60c0-55.5,42.1-101.3,96-107.3V840c0,6.6,5.4,12,12,12s12-5.4,12-12V672.7
		c53.9,6,96,51.8,96,107.3v60c0,6.6,5.4,12,12,12s12-5.4,12-12v-60c0-68.7-52.8-125.4-120-131.4V552h108c6.6,0,12-5.4,12-12
		s-5.4-12-12-12H192v-96.6c67.2-6.1,120-62.7,120-131.4c0-6.6-5.4-12-12-12s-12,5.4-12,12c0,55.5-42.1,101.3-96,107.3V311
		C226,305.2,252,275.6,252,240z M132,240V132h96v108c0,26.5-21.5,48-48,48S132,266.5,132,240z"/>
	<path d="M660,288H432V180c0-26.5,21.5-48,48-48h120c39.7,0,72-32.3,72-72c0-6.6-5.4-12-12-12s-12,5.4-12,12c0,26.5-21.5,48-48,48
		H480c-39.7,0-72,32.3-72,72v660c0,6.6,5.4,12,12,12s12-5.4,12-12V312h228c6.6,0,12-5.4,12-12S666.6,288,660,288z"/>
	<path d="M600,408c-6.6,0-12,5.4-12,12v420c0,6.6,5.4,12,12,12s12-5.4,12-12V420C612,413.4,606.6,408,600,408z"/>
</g>
</svg>
