<?xml version="1.0" encoding="utf-8"?>
<!-- Generator: Adobe Illustrator 26.0.0, SVG Export Plug-In . SVG Version: 6.00 Build 0)  -->
<svg version="1.1" id="图层_1" xmlns="http://www.w3.org/2000/svg" xmlns:xlink="http://www.w3.org/1999/xlink" x="0px" y="0px"
	 viewBox="0 0 720 900" style="enable-background:new 0 0 720 900;" xml:space="preserve">
<g>
	<path d="M191.4,72H300c6.6,0,12-5.4,12-12s-5.4-12-12-12H180c-6.6,0-12,5.4-12,12c0,59.6-48.4,108-108,108c-6.6,0-12,5.4-12,12
		s5.4,12,12,12C128.7,192,185.4,139.2,191.4,72z"/>
	<path d="M480,768c-6.6,0-12,5.4-12,12s5.4,12,12,12c26.5,0,48,21.5,48,48c0,6.6,5.4,12,12,12s12-5.4,12-12
		C552,800.3,519.7,768,480,768z"/>
	<path d="M240,768c-39.7,0-72,32.3-72,72c0,6.6,5.4,12,12,12s12-5.4,12-12c0-26.5,21.5-48,48-48c6.6,0,12-5.4,12-12
		S246.6,768,240,768z"/>
	<path d="M540,648H372v-96h108c6.6,0,12-5.4,12-12s-5.4-12-12-12H372v-48c0-6.6-5.4-12-12-12c-6.6,0-12,5.4-12,12v48H240
		c-26.5,0-48-21.5-48-48c0-6.6-5.4-12-12-12s-12,5.4-12,12c0,39.7,32.3,72,72,72h108v96H240c-26.5,0-48-21.5-48-48
		c0-6.6-5.4-12-12-12s-12,5.4-12,12c0,39.7,32.3,72,72,72h108v168c0,6.6,5.4,12,12,12c6.6,0,12-5.4,12-12V672h168
		c6.6,0,12-5.4,12-12S546.6,648,540,648z"/>
	<path d="M288,372v48c0,6.6,5.4,12,12,12s12-5.4,12-12v-48h48c6.6,0,12-5.4,12-12s-5.4-12-12-12h-48V168h-72c-6.6,0-12,5.4-12,12
		s5.4,12,12,12h48v156H180c-26.5,0-48-21.5-48-48c0-6.6-5.4-12-12-12s-12,5.4-12,12c0,39.7,32.3,72,72,72H288z"/>
	<path d="M171.5,248.5l60,60c2.3,2.3,5.4,3.5,8.5,3.5s6.1-1.2,8.5-3.5c4.7-4.7,4.7-12.3,0-17l-60-60c-4.7-4.7-12.3-4.7-17,0
		C166.8,236.2,166.8,243.8,171.5,248.5z"/>
	<path d="M660,48h-60c-39.7,0-72,32.3-72,72v48H420c-6.6,0-12,5.4-12,12s5.4,12,12,12h168v48c0,40-14,76.7-37.4,105.6
		c-6.7-32.8-35.8-57.6-70.6-57.6h-60c-6.6,0-12,5.4-12,12s5.4,12,12,12h60c26.5,0,48,21.5,48,48v8.6c-29.2,24.6-66.9,39.4-108,39.4
		c-6.6,0-12,5.4-12,12s5.4,12,12,12c40,0,77.2-12.3,108-33.3V420c0,39.7,32.3,72,72,72c6.6,0,12-5.4,12-12s-5.4-12-12-12
		c-26.5,0-48-21.5-48-48v-40.7c36.9-35,60-84.5,60-139.3v-72h-60v-48c0-26.5,21.5-48,48-48h60c6.6,0,12-5.4,12-12S666.6,48,660,48z"
		/>
</g>
</svg>
