<?xml version="1.0" encoding="utf-8"?>
<!-- Generator: Adobe Illustrator 26.0.0, SVG Export Plug-In . SVG Version: 6.00 Build 0)  -->
<svg version="1.1" id="图层_1" xmlns="http://www.w3.org/2000/svg" xmlns:xlink="http://www.w3.org/1999/xlink" x="0px" y="0px"
	 viewBox="0 0 720 900" style="enable-background:new 0 0 720 900;" xml:space="preserve">
<g>
	<path d="M120,78h120c9.9,0,18-8.1,18-18s-8.1-18-18-18H120c-9.9,0-18,8.1-18,18S110.1,78,120,78z"/>
	<path d="M300,162H60c-9.9,0-18,8.1-18,18s8.1,18,18,18h240c9.9,0,18-8.1,18-18S309.9,162,300,162z"/>
	<path d="M300,282H60c-9.9,0-18,8.1-18,18s8.1,18,18,18h240c9.9,0,18-8.1,18-18S309.9,282,300,282z"/>
	<path d="M300,402H60c-9.9,0-18,8.1-18,18s8.1,18,18,18h240c9.9,0,18-8.1,18-18S309.9,402,300,402z"/>
	<path d="M660,402h-42V240c0-43-35-78-78-78h-42V78h162c9.9,0,18-8.1,18-18s-8.1-18-18-18H420c-9.9,0-18,8.1-18,18s8.1,18,18,18h42
		v84h-42c-9.9,0-18,8.1-18,18s8.1,18,18,18h42v204h-42c-9.9,0-18,8.1-18,18s8.1,18,18,18h240c9.9,0,18-8.1,18-18S669.9,402,660,402z
		 M498,198h42c23.2,0,42,18.8,42,42v162h-84V198z"/>
	<path d="M240,522c-9.9,0-18,8.1-18,18v42h-84v-42c0-9.9-8.1-18-18-18s-18,8.1-18,18v240c0,43,35,78,78,78s78-35,78-78V540
		C258,530.1,249.9,522,240,522z M180,822c-23.2,0-42-18.8-42-42V618h84v162C222,803.2,203.2,822,180,822z"/>
	<path d="M660,522c-9.9,0-18,8.1-18,18v42H438v-42c0-9.9-8.1-18-18-18s-18,8.1-18,18v240c0,43,35,78,78,78h120c43,0,78-35,78-78V540
		C678,530.1,669.9,522,660,522z M600,822H480c-23.2,0-42-18.8-42-42V618h204v162C642,803.2,623.2,822,600,822z"/>
</g>
</svg>
