<?xml version="1.0" encoding="utf-8"?>
<!-- Generator: Adobe Illustrator 26.0.0, SVG Export Plug-In . SVG Version: 6.00 Build 0)  -->
<svg version="1.1" id="图层_1" xmlns="http://www.w3.org/2000/svg" xmlns:xlink="http://www.w3.org/1999/xlink" x="0px" y="0px"
	 viewBox="0 0 720 900" style="enable-background:new 0 0 720 900;" xml:space="preserve">
<g>
	<path d="M120,72h120c6.6,0,12-5.4,12-12s-5.4-12-12-12H120c-6.6,0-12,5.4-12,12S113.4,72,120,72z"/>
	<path d="M300,168H60c-6.6,0-12,5.4-12,12s5.4,12,12,12h240c6.6,0,12-5.4,12-12S306.6,168,300,168z"/>
	<path d="M300,288H60c-6.6,0-12,5.4-12,12s5.4,12,12,12h240c6.6,0,12-5.4,12-12S306.6,288,300,288z"/>
	<path d="M300,408H60c-6.6,0-12,5.4-12,12s5.4,12,12,12h240c6.6,0,12-5.4,12-12S306.6,408,300,408z"/>
	<path d="M660,408h-48V240c0-39.7-32.3-72-72-72h-48V72h168c6.6,0,12-5.4,12-12s-5.4-12-12-12H420c-6.6,0-12,5.4-12,12s5.4,12,12,12
		h48v96h-48c-6.6,0-12,5.4-12,12s5.4,12,12,12h48v216h-48c-6.6,0-12,5.4-12,12s5.4,12,12,12h240c6.6,0,12-5.4,12-12
		S666.6,408,660,408z M492,192h48c26.5,0,48,21.5,48,48v168h-96V192z"/>
	<path d="M240,528c-6.6,0-12,5.4-12,12v48h-96v-48c0-6.6-5.4-12-12-12s-12,5.4-12,12v240c0,39.7,32.3,72,72,72s72-32.3,72-72V540
		C252,533.4,246.6,528,240,528z M180,828c-26.5,0-48-21.5-48-48V612h96v168C228,806.5,206.5,828,180,828z"/>
	<path d="M660,528c-6.6,0-12,5.4-12,12v48H432v-48c0-6.6-5.4-12-12-12s-12,5.4-12,12v240c0,39.7,32.3,72,72,72h120
		c39.7,0,72-32.3,72-72V540C672,533.4,666.6,528,660,528z M600,828H480c-26.5,0-48-21.5-48-48V612h216v168
		C648,806.5,626.5,828,600,828z"/>
</g>
</svg>
