<?xml version="1.0" encoding="utf-8"?>
<!-- Generator: Adobe Illustrator 26.0.0, SVG Export Plug-In . SVG Version: 6.00 Build 0)  -->
<svg version="1.1" id="图层_1" xmlns="http://www.w3.org/2000/svg" xmlns:xlink="http://www.w3.org/1999/xlink" x="0px" y="0px"
	 viewBox="0 0 720 900" style="enable-background:new 0 0 720 900;" xml:space="preserve">
<style type="text/css">
	.st0{fill:none;stroke:#000000;stroke-width:48;stroke-linecap:round;stroke-linejoin:round;stroke-miterlimit:10;}
</style>
<line class="st0" x1="300" y1="300" x2="660" y2="300"/>
<path class="st0" d="M300,780h120c33.1,0,60-26.9,60-60V420"/>
<path class="st0" d="M300,420h180c33.1,0,60-26.9,60-60v-60"/>
<line class="st0" x1="480" y1="540" x2="300" y2="540"/>
<path class="st0" d="M660,780v-60c0-33.1-26.9-60-60-60H300"/>
<path class="st0" d="M420,60v60c0,33.1-26.9,60-60,60h-60"/>
<path class="st0" d="M540,60v60c0,33.1,26.9,60,60,60h60"/>
</svg>
