<?xml version="1.0" encoding="utf-8"?>
<!-- Generator: Adobe Illustrator 26.0.0, SVG Export Plug-In . SVG Version: 6.00 Build 0)  -->
<svg version="1.1" id="图层_1" xmlns="http://www.w3.org/2000/svg" xmlns:xlink="http://www.w3.org/1999/xlink" x="0px" y="0px"
	 viewBox="0 0 720 900" style="enable-background:new 0 0 720 900;" xml:space="preserve">
<style type="text/css">
	.st0{fill:none;stroke:#000000;stroke-width:48;stroke-linecap:round;stroke-linejoin:round;stroke-miterlimit:10;}
</style>
<path class="st0" d="M60,720v60c0,33.1,26.9,60,60,60h240c33.1,0,60-26.9,60-60v-60"/>
<line class="st0" x1="240" y1="840" x2="240" y2="300"/>
<path class="st0" d="M60,480c0-66.3,53.7-120,120-120h240"/>
<line class="st0" x1="60" y1="600" x2="420" y2="600"/>
<line class="st0" x1="240" y1="60" x2="240" y2="179.9"/>
<path class="st0" d="M60,179.9c33.1,0,59.8-26.8,59.8-59.9l0,0c0-33.1,26.9-60,60-60H420"/>
<path class="st0" d="M420,180.1c-33.1,0-60-26.9-60-60.1V60"/>
</svg>
