<?xml version="1.0" encoding="utf-8"?>
<!-- Generator: Adobe Illustrator 26.0.0, SVG Export Plug-In . SVG Version: 6.00 Build 0)  -->
<svg version="1.1" id="图层_1" xmlns="http://www.w3.org/2000/svg" xmlns:xlink="http://www.w3.org/1999/xlink" x="0px" y="0px"
	 viewBox="0 0 720 900" style="enable-background:new 0 0 720 900;" xml:space="preserve">
<style type="text/css">
	.st0{fill:none;stroke:#000000;stroke-width:48;stroke-linecap:round;stroke-linejoin:round;stroke-miterlimit:10;}
</style>
<path class="st0" d="M120,60v60c0,33.1,26.9,60,60,60h360c33.1,0,60-26.9,60-60V60"/>
<line class="st0" x1="360" y1="60" x2="360" y2="840"/>
<path class="st0" d="M540,540H180c-33.1,0-60-26.9-60-60V360c0-33.1,26.9-60,60-60h360c33.1,0,60,26.9,60,60v120
	C600,513.1,573.1,540,540,540z"/>
<path class="st0" d="M120,840c0-99.4,80.6-180,180-180h120c99.4,0,180,80.6,180,180"/>
<line class="st0" x1="120" y1="420" x2="600" y2="420"/>
</svg>
