<?xml version="1.0" encoding="utf-8"?>
<!-- Generator: Adobe Illustrator 26.0.0, SVG Export Plug-In . SVG Version: 6.00 Build 0)  -->
<svg version="1.1" id="图层_1" xmlns="http://www.w3.org/2000/svg" xmlns:xlink="http://www.w3.org/1999/xlink" x="0px" y="0px"
	 viewBox="0 0 720 900" style="enable-background:new 0 0 720 900;" xml:space="preserve">
<style type="text/css">
	.st0{fill:none;stroke:#000000;stroke-width:48;stroke-linecap:round;stroke-linejoin:round;stroke-miterlimit:10;}
</style>
<line class="st0" x1="480" y1="480" x2="480" y2="840"/>
<path class="st0" d="M300,540c0,33.1,26.9,60,60,60h240c33.1,0,60-26.9,60-60"/>
<path class="st0" d="M660,840c0-66.3-53.7-120-120-120H420c-66.3,0-120,53.7-120,120"/>
<line class="st0" x1="600" y1="480" x2="600" y2="60"/>
<path class="st0" d="M600,120c33.1,0,60,26.9,60,60l0,0c0,33.1-26.9,60-60,60"/>
<path class="st0" d="M600,300c33.1,0,60,26.9,60,60l0,0c0,33.1-26.9,60-60,60"/>
<line class="st0" x1="360" y1="480" x2="360" y2="60"/>
<path class="st0" d="M360,120c-33.1,0-60,26.9-60,60l0,0c0,33.1,26.9,60,60,60"/>
<path class="st0" d="M360,300c-33.1,0-60,26.9-60,60l0,0c0,33.1,26.9,60,60,60"/>
<line class="st0" x1="480" y1="60" x2="480" y2="120"/>
<path class="st0" d="M480,480L480,480c-33.1,0-60-26.9-60-60V180c0-33.1,26.9-60,60-60h0c33.1,0,60,26.9,60,60v240
	C540,453.1,513.1,480,480,480z"/>
<line class="st0" x1="420" y1="300" x2="540" y2="300"/>
</svg>
