<?xml version="1.0" encoding="utf-8"?>
<!-- Generator: Adobe Illustrator 26.0.0, SVG Export Plug-In . SVG Version: 6.00 Build 0)  -->
<svg version="1.1" id="图层_1" xmlns="http://www.w3.org/2000/svg" xmlns:xlink="http://www.w3.org/1999/xlink" x="0px" y="0px"
	 viewBox="0 0 720 900" style="enable-background:new 0 0 720 900;" xml:space="preserve">
<style type="text/css">
	.st0{fill:none;stroke:#000000;stroke-width:48;stroke-linecap:round;stroke-linejoin:round;stroke-miterlimit:10;}
</style>
<line class="st0" x1="360" y1="480" x2="360" y2="840"/>
<path class="st0" d="M120,420v60c0,33.1,26.9,60,60,60h360c33.1,0,60-26.9,60-60v-60"/>
<path class="st0" d="M600,840c0-99.4-80.6-180-180-180H300c-99.4,0-180,80.6-180,180"/>
<path class="st0" d="M120,240L120,240c-33.1,0-60-26.9-60-60l0,0c0-33.1,26.9-60,60-60l0,0c33.1,0,60,26.9,60,60l0,0
	C180,213.1,153.1,240,120,240z"/>
<path class="st0" d="M120,420L120,420c-33.1,0-60-26.9-60-60l0,0c0-33.1,26.9-60,60-60l0,0c33.1,0,60,26.9,60,60l0,0
	C180,393.1,153.1,420,120,420z"/>
<line class="st0" x1="120" y1="300" x2="120" y2="240"/>
<line class="st0" x1="120" y1="120" x2="120" y2="60"/>
<path class="st0" d="M600,240L600,240c-33.1,0-60-26.9-60-60l0,0c0-33.1,26.9-60,60-60l0,0c33.1,0,60,26.9,60,60l0,0
	C660,213.1,633.1,240,600,240z"/>
<path class="st0" d="M600,420L600,420c-33.1,0-60-26.9-60-60l0,0c0-33.1,26.9-60,60-60l0,0c33.1,0,60,26.9,60,60l0,0
	C660,393.1,633.1,420,600,420z"/>
<line class="st0" x1="600" y1="300" x2="600" y2="240"/>
<line class="st0" x1="600" y1="120" x2="600" y2="60"/>
<path class="st0" d="M360,480L360,480c-33.1,0-60-26.9-60-60V180c0-33.1,26.9-60,60-60l0,0c33.1,0,60,26.9,60,60v240
	C420,453.1,393.1,480,360,480z"/>
<line class="st0" x1="300" y1="300" x2="420" y2="300"/>
<line class="st0" x1="360" y1="120" x2="360" y2="60"/>
</svg>
