<?xml version="1.0" encoding="utf-8"?>
<!-- Generator: Adobe Illustrator 26.0.0, SVG Export Plug-In . SVG Version: 6.00 Build 0)  -->
<svg version="1.1" id="图层_1" xmlns="http://www.w3.org/2000/svg" xmlns:xlink="http://www.w3.org/1999/xlink" x="0px" y="0px"
	 viewBox="0 0 720 900" style="enable-background:new 0 0 720 900;" xml:space="preserve">
<style type="text/css">
	.st0{fill:none;stroke:#000000;stroke-width:48;stroke-linecap:round;stroke-linejoin:round;stroke-miterlimit:10;}
</style>
<line class="st0" x1="60" y1="840" x2="420" y2="840"/>
<circle class="st0" cx="240" cy="660" r="120"/>
<line class="st0" x1="180" y1="660" x2="300" y2="660"/>
<line class="st0" x1="240" y1="60" x2="240" y2="120"/>
<line class="st0" x1="60" y1="120" x2="420" y2="120"/>
<path class="st0" d="M300,480H180c-33.1,0-60-26.9-60-60V240c0-33.1,26.9-60,60-60h120c33.1,0,60,26.9,60,60v180
	C360,453.1,333.1,480,300,480z"/>
<path class="st0" d="M240,420L240,420c-33.1,0-60-26.9-60-60v-60c0-33.1,26.9-60,60-60h0c33.1,0,60,26.9,60,60v60
	C300,393.1,273.1,420,240,420z"/>
</svg>
