<?xml version="1.0" encoding="utf-8"?>
<!-- Generator: Adobe Illustrator 26.0.0, SVG Export Plug-In . SVG Version: 6.00 Build 0)  -->
<svg version="1.1" id="图层_1" xmlns="http://www.w3.org/2000/svg" xmlns:xlink="http://www.w3.org/1999/xlink" x="0px" y="0px"
	 viewBox="0 0 720 900" style="enable-background:new 0 0 720 900;" xml:space="preserve">
<style type="text/css">
	.st0{fill:none;stroke:#000000;stroke-width:48;stroke-linecap:round;stroke-linejoin:round;stroke-miterlimit:10;}
</style>
<path class="st0" d="M240,240c33.2,0,60-26.9,60-60V60"/>
<path class="st0" d="M300,180c33.1,0,60,26.9,60,60s-26.9,60-60,60v540"/>
<line class="st0" x1="420" y1="60" x2="660" y2="60"/>
<path class="st0" d="M420,480V240c0-33.1,26.9-60,60-60h120c33.1,0,60,26.9,60,60v240"/>
<path class="st0" d="M540,240c0,66.2,53.8,120,120,120"/>
<path class="st0" d="M540,60v180c0,66.2-53.8,120-120,120"/>
<path class="st0" d="M480,480h120v120c0,66.3-53.7,120-120,120h-60"/>
<path class="st0" d="M420,600c33.1,0,60,26.9,60,60v60c0,66.3,53.7,120,120,120h60"/>
<line class="st0" x1="540" y1="480" x2="540" y2="360"/>
</svg>
