<?xml version="1.0" encoding="utf-8"?>
<!-- Generator: Adobe Illustrator 26.0.0, SVG Export Plug-In . SVG Version: 6.00 Build 0)  -->
<svg version="1.1" id="图层_1" xmlns="http://www.w3.org/2000/svg" xmlns:xlink="http://www.w3.org/1999/xlink" x="0px" y="0px"
	 viewBox="0 0 720 900" style="enable-background:new 0 0 720 900;" xml:space="preserve">
<style type="text/css">
	.st0{fill:none;stroke:#000000;stroke-width:48;stroke-linecap:round;stroke-linejoin:round;stroke-miterlimit:10;}
</style>
<path class="st0" d="M240,240c33.2,0,60-26.9,60-60V60"/>
<path class="st0" d="M300,180c33.1,0,60,26.9,60,60s-26.9,60-60,60v540"/>
<path class="st0" d="M420,60v180c0,33.1,26.9,60,60,60h120c33.1,0,60-26.9,60-60V60"/>
<line class="st0" x1="420" y1="120" x2="660" y2="120"/>
<path class="st0" d="M420,780V660c0-66.2,53.8-120,120-120l0,0c66.2,0,120,53.8,120,120v120"/>
<line class="st0" x1="540" y1="300" x2="540" y2="840"/>
<line class="st0" x1="420" y1="420" x2="660" y2="420"/>
</svg>
