<?xml version="1.0" encoding="utf-8"?>
<!-- Generator: Adobe Illustrator 26.0.0, SVG Export Plug-In . SVG Version: 6.00 Build 0)  -->
<svg version="1.1" id="图层_1" xmlns="http://www.w3.org/2000/svg" xmlns:xlink="http://www.w3.org/1999/xlink" x="0px" y="0px"
	 viewBox="0 0 720 900" style="enable-background:new 0 0 720 900;" xml:space="preserve">
<style type="text/css">
	.st0{fill:none;stroke:#000000;stroke-width:48;stroke-linecap:round;stroke-linejoin:round;stroke-miterlimit:10;}
</style>
<path class="st0" d="M120,240c33.2,0,60-26.9,60-60V60"/>
<path class="st0" d="M180,180c33.1,0,60,26.9,60,60s-26.9,60-60,60v180"/>
<line class="st0" x1="480" y1="240" x2="480" y2="480"/>
<path class="st0" d="M360,480c0-66.3,53.7-120,120-120l0,0c66.3,0,120,53.7,120,120"/>
<line class="st0" x1="360" y1="300" x2="600" y2="300"/>
<path class="st0" d="M360,60v120c0,33.1,26.9,60,60,60h120c33.1,0,60-26.9,60-60V60"/>
<line class="st0" x1="360" y1="120" x2="600" y2="120"/>
</svg>
