<?xml version="1.0" encoding="utf-8"?>
<!-- Generator: Adobe Illustrator 26.0.0, SVG Export Plug-In . SVG Version: 6.00 Build 0)  -->
<svg version="1.1" id="图层_1" xmlns="http://www.w3.org/2000/svg" xmlns:xlink="http://www.w3.org/1999/xlink" x="0px" y="0px"
	 viewBox="0 0 720 900" style="enable-background:new 0 0 720 900;" xml:space="preserve">
<style type="text/css">
	.st0{fill:none;stroke:#000000;stroke-width:48;stroke-linecap:round;stroke-linejoin:round;stroke-miterlimit:10;}
</style>
<line class="st0" x1="240" y1="360" x2="240" y2="480"/>
<line class="st0" x1="420" y1="420" x2="60" y2="420"/>
<path class="st0" d="M300,600H180c-33.1,0-60-26.9-60-60v0c0-33.1,26.9-60,60-60h120c33.1,0,60,26.9,60,60v0
	C360,573.1,333.1,600,300,600z"/>
<path class="st0" d="M420,840h-60c-33.1,0-60-26.9-60-60v-60c0-33.1-26.9-60-60-60h0c-33.1,0-60,26.9-60,60v60c0,33.1-26.9,60-60,60
	H60"/>
</svg>
