<?xml version="1.0" encoding="utf-8"?>
<!-- Generator: Adobe Illustrator 26.0.0, SVG Export Plug-In . SVG Version: 6.00 Build 0)  -->
<svg version="1.1" id="图层_1" xmlns="http://www.w3.org/2000/svg" xmlns:xlink="http://www.w3.org/1999/xlink" x="0px" y="0px"
	 viewBox="0 0 720 900" style="enable-background:new 0 0 720 900;" xml:space="preserve">
<style type="text/css">
	.st0{fill:none;stroke:#000000;stroke-width:48;stroke-linecap:round;stroke-linejoin:round;stroke-miterlimit:10;}
</style>
<path class="st0" d="M360,300L360,300c-66.3,0-120,53.7-120,120v120c0,33.1,26.9,60,60,60h120c33.1,0,60-26.9,60-60V420
	C480,353.7,426.3,300,360,300z"/>
<line class="st0" x1="240" y1="480" x2="480" y2="480"/>
<line class="st0" x1="360" y1="240" x2="360" y2="300"/>
<path class="st0" d="M120,840h60c33.1,0,60-26.9,60-60V660"/>
<path class="st0" d="M420,660c33.1,0,60,26.8,60,60v60c0,33.1,26.9,60,60,60h60"/>
<path class="st0" d="M180,360h-60c-33.1,0-60,26.9-60,60v60c0,33.1,26.9,60,60,60h60"/>
<path class="st0" d="M540,360h60c33.1,0,60,26.9,60,60v60c0,33.1-26.9,60-60,60h-60"/>
</svg>
