<?xml version="1.0" encoding="utf-8"?>
<!-- Generator: Adobe Illustrator 26.0.0, SVG Export Plug-In . SVG Version: 6.00 Build 0)  -->
<svg version="1.1" id="图层_1" xmlns="http://www.w3.org/2000/svg" xmlns:xlink="http://www.w3.org/1999/xlink" x="0px" y="0px"
	 viewBox="0 0 720 900" style="enable-background:new 0 0 720 900;" xml:space="preserve">
<style type="text/css">
	.st0{fill:none;stroke:#000000;stroke-width:48;stroke-linecap:round;stroke-linejoin:round;stroke-miterlimit:10;}
</style>
<line class="st0" x1="360" y1="240" x2="360" y2="60"/>
<line class="st0" x1="60" y1="120" x2="420" y2="120"/>
<line class="st0" x1="360" y1="480" x2="360" y2="600"/>
<path class="st0" d="M360,480L360,480c-33.1,0-60-26.9-60-60V300c0-33.1,26.9-60,60-60h0c33.1,0,60,26.9,60,60v120
	C420,453.1,393.1,480,360,480z"/>
<path class="st0" d="M360,840L360,840c-33.1,0-60-26.9-60-60V660c0-33.1,26.9-60,60-60h0c33.1,0,60,26.9,60,60v120
	C420,813.1,393.1,840,360,840z"/>
<line class="st0" x1="120" y1="240" x2="120" y2="60"/>
<line class="st0" x1="120" y1="480" x2="120" y2="600"/>
<path class="st0" d="M120,480L120,480c-33.1,0-60-26.9-60-60V300c0-33.1,26.9-60,60-60h0c33.1,0,60,26.9,60,60v120
	C180,453.1,153.1,480,120,480z"/>
<path class="st0" d="M120,840L120,840c-33.1,0-60-26.9-60-60V660c0-33.1,26.9-60,60-60h0c33.1,0,60,26.9,60,60v120
	C180,813.1,153.1,840,120,840z"/>
</svg>
