<?xml version="1.0" encoding="utf-8"?>
<!-- Generator: Adobe Illustrator 26.0.0, SVG Export Plug-In . SVG Version: 6.00 Build 0)  -->
<svg version="1.1" id="图层_1" xmlns="http://www.w3.org/2000/svg" xmlns:xlink="http://www.w3.org/1999/xlink" x="0px" y="0px"
	 viewBox="0 0 720 900" style="enable-background:new 0 0 720 900;" xml:space="preserve">
<style type="text/css">
	.st0{fill:none;stroke:#000000;stroke-width:48;stroke-linecap:round;stroke-linejoin:round;stroke-miterlimit:10;}
</style>
<path class="st0" d="M600,660H360c-33.1,0-60-26.9-60-60V480c0-33.1,26.9-60,60-60h240c33.1,0,60,26.9,60,60v120
	C660,633.1,633.1,660,600,660z"/>
<line class="st0" x1="660" y1="540" x2="300" y2="540"/>
<line class="st0" x1="480" y1="420" x2="480" y2="660"/>
<line class="st0" x1="300" y1="720" x2="660" y2="720"/>
<line class="st0" x1="300" y1="780" x2="660" y2="780"/>
<path class="st0" d="M420,660v120c0,33.1-26.9,60-60,60h-60"/>
<path class="st0" d="M540,660v120c0,33.1,26.9,60,60,60h60"/>
<path class="st0" d="M540,60v180c0,33.1,26.9,60,60,60h60"/>
<path class="st0" d="M300,300h60c33.1,0,60-26.9,60-60V60"/>
<path class="st0" d="M300,180h120"/>
<path class="st0" d="M540,180h120"/>
</svg>
