<?xml version="1.0" encoding="utf-8"?>
<!-- Generator: Adobe Illustrator 26.0.0, SVG Export Plug-In . SVG Version: 6.00 Build 0)  -->
<svg version="1.1" id="图层_1" xmlns="http://www.w3.org/2000/svg" xmlns:xlink="http://www.w3.org/1999/xlink" x="0px" y="0px"
	 viewBox="0 0 720 900" style="enable-background:new 0 0 720 900;" xml:space="preserve">
<style type="text/css">
	.st0{fill:none;stroke:#000000;stroke-width:48;stroke-linecap:round;stroke-linejoin:round;stroke-miterlimit:10;}
</style>
<path class="st0" d="M360,60h240c33.1,0,60,26.9,60,60l0,0c0,33.1-26.9,60-60,60H420c-33.1,0-60,26.9-60,60v600"/>
<line class="st0" x1="420" y1="480" x2="660" y2="480"/>
<line class="st0" x1="420" y1="360" x2="660" y2="360"/>
<line class="st0" x1="480" y1="300" x2="480" y2="480"/>
<line class="st0" x1="600" y1="300" x2="600" y2="480"/>
<path class="st0" d="M420,660c0-33.2,26.9-60,60-60v180c0,33.1,26.9,60,60,60h60"/>
<path class="st0" d="M540,720c33.1,0,60-26.9,60-60v-60c33.2,0,60,26.8,60,60"/>
<path class="st0" d="M240,540H120c-33.1,0-60-26.9-60-60V240c0-33.1,26.9-60,60-60h120c33.1,0,60,26.9,60,60v240
	C300,513.1,273.1,540,240,540z"/>
<line class="st0" x1="120" y1="180" x2="120" y2="60"/>
<line class="st0" x1="240" y1="60" x2="240" y2="180"/>
<line class="st0" x1="180" y1="180" x2="180" y2="840"/>
<line class="st0" x1="60" y1="360" x2="300" y2="360"/>
<line class="st0" x1="60" y1="660" x2="300" y2="660"/>
</svg>
