<?xml version="1.0" encoding="utf-8"?>
<!-- Generator: Adobe Illustrator 26.0.0, SVG Export Plug-In . SVG Version: 6.00 Build 0)  -->
<svg version="1.1" id="图层_1" xmlns="http://www.w3.org/2000/svg" xmlns:xlink="http://www.w3.org/1999/xlink" x="0px" y="0px"
	 viewBox="0 0 720 900" style="enable-background:new 0 0 720 900;" xml:space="preserve">
<style type="text/css">
	.st0{fill:none;stroke:#000000;stroke-width:48;stroke-linecap:round;stroke-linejoin:round;stroke-miterlimit:10;}
</style>
<circle class="st0" cx="240" cy="600" r="120"/>
<path class="st0" d="M60,300V120c0-33.1,26.9-60,60-60h240c33.1,0,60,26.9,60,60v180"/>
<line class="st0" x1="120" y1="180" x2="360" y2="180"/>
<line class="st0" x1="120" y1="240" x2="360" y2="240"/>
<path class="st0" d="M240,840L240,840c-66.3,0-120-53.7-120-120V480c0-66.3,53.7-120,120-120h0c66.3,0,120,53.7,120,120v240
	C360,786.3,306.3,840,240,840z"/>
</svg>
