<?xml version="1.0" encoding="utf-8"?>
<!-- Generator: Adobe Illustrator 26.0.0, SVG Export Plug-In . SVG Version: 6.00 Build 0)  -->
<svg version="1.1" id="图层_1" xmlns="http://www.w3.org/2000/svg" xmlns:xlink="http://www.w3.org/1999/xlink" x="0px" y="0px"
	 viewBox="0 0 720 900" style="enable-background:new 0 0 720 900;" xml:space="preserve">
<style type="text/css">
	.st0{fill:none;stroke:#000000;stroke-width:48;stroke-linecap:round;stroke-linejoin:round;stroke-miterlimit:10;}
</style>
<path class="st0" d="M60,180h180c33.1,0,60,26.9,60,60v180"/>
<line class="st0" x1="180" y1="420" x2="180" y2="60"/>
<path class="st0" d="M60,600h60c33.1,0,60,26.9,60,60v180"/>
<line class="st0" x1="120" y1="840" x2="120" y2="480"/>
<path class="st0" d="M240,600h60c33.1,0,60,26.9,60,60v180"/>
<line class="st0" x1="300" y1="840" x2="300" y2="480"/>
<path class="st0" d="M600,420H480c-33.1,0-60-26.9-60-60V120c0-33.1,26.9-60,60-60h120c33.1,0,60,26.9,60,60v240
	C660,393.1,633.1,420,600,420z"/>
<path class="st0" d="M540,540c33.1,0,60,26.8,60,60v180"/>
<line class="st0" x1="420" y1="600" x2="420" y2="780"/>
<line class="st0" x1="660" y1="600" x2="660" y2="780"/>
<path class="st0" d="M480,540v240c0,33.1,26.9,60,60,60h60"/>
<path class="st0" d="M480,180c0,33.1,26.9,60,60,60s60-26.9,60-60"/>
<path class="st0" d="M480,300c0-33.1,26.9-60,60-60s60,26.9,60,60"/>
</svg>
