<?xml version="1.0" encoding="utf-8"?>
<!-- Generator: Adobe Illustrator 26.0.0, SVG Export Plug-In . SVG Version: 6.00 Build 0)  -->
<svg version="1.1" id="图层_1" xmlns="http://www.w3.org/2000/svg" xmlns:xlink="http://www.w3.org/1999/xlink" x="0px" y="0px"
	 viewBox="0 0 720 900" style="enable-background:new 0 0 720 900;" xml:space="preserve">
<style type="text/css">
	.st0{fill:none;stroke:#000000;stroke-width:48;stroke-linecap:round;stroke-linejoin:round;stroke-miterlimit:10;}
</style>
<path class="st0" d="M240,420H120c-33.1,0-60,26.9-60,60v360"/>
<path class="st0" d="M180,600h360"/>
<path class="st0" d="M480,360v60c0,66.2-53.8,120-120,120s-120-53.8-120-120v-60"/>
<path class="st0" d="M180,720h360"/>
<path class="st0" d="M480,420h120c33.1,0,60,26.9,60,60v360"/>
<path class="st0" d="M360,600v240"/>
<path class="st0" d="M120,60v60c0,33.1,26.9,60,60,60h360c33.1,0,60-26.9,60-60V60"/>
<path class="st0" d="M360,60v240"/>
</svg>
