<?xml version="1.0" encoding="utf-8"?>
<!-- Generator: Adobe Illustrator 26.0.0, SVG Export Plug-In . SVG Version: 6.00 Build 0)  -->
<svg version="1.1" id="图层_1" xmlns="http://www.w3.org/2000/svg" xmlns:xlink="http://www.w3.org/1999/xlink" x="0px" y="0px"
	 viewBox="0 0 720 900" style="enable-background:new 0 0 720 900;" xml:space="preserve">
<style type="text/css">
	.st0{fill:none;stroke:#000000;stroke-width:48;stroke-linecap:round;stroke-linejoin:round;stroke-miterlimit:10;}
</style>
<path class="st0" d="M300,420H180c-33.1,0-60,26.9-60,60v360"/>
<line class="st0" x1="240" y1="600" x2="480" y2="600"/>
<path class="st0" d="M420,360v180c0,33.1-26.9,60-60,60s-60-26.9-60-60V360"/>
<line class="st0" x1="240" y1="720" x2="480" y2="720"/>
<path class="st0" d="M420,420h120c33.1,0,60,26.9,60,60v360"/>
<line class="st0" x1="360" y1="600" x2="360" y2="840"/>
<path class="st0" d="M180,60v60c0,33.1,26.9,60,60,60h240c33.1,0,60-26.9,60-60V60"/>
<line class="st0" x1="360" y1="60" x2="360" y2="300"/>
</svg>
