<?xml version="1.0" encoding="utf-8"?>
<!-- Generator: Adobe Illustrator 26.0.0, SVG Export Plug-In . SVG Version: 6.00 Build 0)  -->
<svg version="1.1" id="图层_1" xmlns="http://www.w3.org/2000/svg" xmlns:xlink="http://www.w3.org/1999/xlink" x="0px" y="0px"
	 viewBox="0 0 720 900" style="enable-background:new 0 0 720 900;" xml:space="preserve">
<style type="text/css">
	.st0{fill:none;stroke:#000000;stroke-width:48;stroke-linecap:round;stroke-linejoin:round;stroke-miterlimit:10;}
</style>
<line class="st0" x1="360" y1="240" x2="360" y2="60"/>
<line class="st0" x1="360" y1="120" x2="480" y2="120"/>
<path class="st0" d="M480,840H240c-66.3,0-120-53.7-120-120V360c0-66.3,53.7-120,120-120h240c66.3,0,120,53.7,120,120v360
	C600,786.3,546.3,840,480,840z"/>
<path class="st0" d="M360,300v60c0,66.3-53.7,120-120,120h-60"/>
<path class="st0" d="M360,360c0,66.3,53.7,120,120,120h60"/>
<path class="st0" d="M360,540v60c0,66.3-53.7,120-120,120h-60"/>
<path class="st0" d="M360,600c0,66.3,53.7,120,120,120h60"/>
</svg>
