<?xml version="1.0" encoding="utf-8"?>
<!-- Generator: Adobe Illustrator 26.0.0, SVG Export Plug-In . SVG Version: 6.00 Build 0)  -->
<svg version="1.1" id="图层_1" xmlns="http://www.w3.org/2000/svg" xmlns:xlink="http://www.w3.org/1999/xlink" x="0px" y="0px"
	 viewBox="0 0 720 900" style="enable-background:new 0 0 720 900;" xml:space="preserve">
<style type="text/css">
	.st0{fill:none;stroke:#000000;stroke-width:48;stroke-linecap:round;stroke-linejoin:round;stroke-miterlimit:10;}
</style>
<path class="st0" d="M540,300H180c-66.3,0-120,53.7-120,120v300c0,66.3,53.7,120,120,120h360c66.3,0,120-53.7,120-120V420
	C660,353.7,606.3,300,540,300z"/>
<line class="st0" x1="360" y1="60" x2="360" y2="300"/>
<line class="st0" x1="360" y1="180" x2="480" y2="180"/>
<path class="st0" d="M180,300c0,232,188,420,420,420h60"/>
<line class="st0" x1="300" y1="780" x2="420" y2="780"/>
<line class="st0" x1="180" y1="540" x2="180" y2="660"/>
<line class="st0" x1="540" y1="540" x2="540" y2="660"/>
<line class="st0" x1="300" y1="420" x2="420" y2="420"/>
<path class="st0" d="M540,300c0,232-188,420-420,420H60"/>
</svg>
