<?xml version="1.0" encoding="utf-8"?>
<!-- Generator: Adobe Illustrator 26.0.0, SVG Export Plug-In . SVG Version: 6.00 Build 0)  -->
<svg version="1.1" id="图层_1" xmlns="http://www.w3.org/2000/svg" xmlns:xlink="http://www.w3.org/1999/xlink" x="0px" y="0px"
	 viewBox="0 0 720 900" style="enable-background:new 0 0 720 900;" xml:space="preserve">
<style type="text/css">
	.st0{fill:none;stroke:#000000;stroke-width:48;stroke-linecap:round;stroke-linejoin:round;stroke-miterlimit:10;}
</style>
<path class="st0" d="M300,780h180c33.1,0,60-26.9,60-60l0,0c0-33.1-26.9-60-60-60H240"/>
<path class="st0" d="M540,840H300c-33.1,0-60-26.9-60-60v-60"/>
<line class="st0" x1="120" y1="540" x2="600" y2="540"/>
<line class="st0" x1="60" y1="600" x2="660" y2="600"/>
<path class="st0" d="M360,600V480"/>
<path class="st0" d="M180,600c0,33.2-26.9,60-60,60H60"/>
<path class="st0" d="M540,600c0,33.2,26.8,60,60,60h60"/>
<line class="st0" x1="240" y1="480" x2="240" y2="540"/>
<line class="st0" x1="480" y1="480" x2="480" y2="540"/>
</svg>
