<?xml version="1.0" encoding="utf-8"?>
<!-- Generator: Adobe Illustrator 26.0.0, SVG Export Plug-In . SVG Version: 6.00 Build 0)  -->
<svg version="1.1" id="图层_1" xmlns="http://www.w3.org/2000/svg" xmlns:xlink="http://www.w3.org/1999/xlink" x="0px" y="0px"
	 viewBox="0 0 720 900" style="enable-background:new 0 0 720 900;" xml:space="preserve">
<style type="text/css">
	.st0{fill:none;stroke:#000000;stroke-width:48;stroke-linecap:round;stroke-linejoin:round;stroke-miterlimit:10;}
</style>
<path class="st0" d="M600,840H180c-33.1,0-60-26.9-60-60v0c0-33.1,26.9-60,60-60h359.1c32.9,0,60.4-26.2,60.9-59.1
	c0.5-33.5-26.6-60.9-60-60.9H120"/>
<path class="st0" d="M180,360h60c66.3,0,120-53.7,120-120V120"/>
<path class="st0" d="M540,360h-60c-66.3,0-120-53.7-120-120"/>
<path class="st0" d="M120,60h480c33.1,0,60,26.9,60,60s-26.9,60-60,60H360"/>
<path class="st0" d="M60,420c33.1,0,60-26.9,60-60V240"/>
<path class="st0" d="M240,300H60"/>
<path class="st0" d="M660,420c-33.1,0-60-26.9-60-60V240"/>
<path class="st0" d="M480,300h180"/>
<path class="st0" d="M120,480h480"/>
<line class="st0" x1="360" y1="600" x2="360" y2="720"/>
</svg>
