<?xml version="1.0" encoding="utf-8"?>
<!-- Generator: Adobe Illustrator 26.0.0, SVG Export Plug-In . SVG Version: 6.00 Build 0)  -->
<svg version="1.1" id="图层_1" xmlns="http://www.w3.org/2000/svg" xmlns:xlink="http://www.w3.org/1999/xlink" x="0px" y="0px"
	 viewBox="0 0 720 900" style="enable-background:new 0 0 720 900;" xml:space="preserve">
<style type="text/css">
	.st0{fill:none;stroke:#000000;stroke-width:48;stroke-linecap:round;stroke-linejoin:round;stroke-miterlimit:10;}
</style>
<path class="st0" d="M300,540v240c0,33.1,26.9,60,60,60h60"/>
<line class="st0" x1="300" y1="660" x2="420" y2="660"/>
<path class="st0" d="M420,60v360c0,33.1-26.9,60-60,60l0,0c-33.1,0-60-26.9-60-60V60"/>
<line class="st0" x1="300" y1="300" x2="420" y2="300"/>
<line class="st0" x1="300" y1="120" x2="420" y2="120"/>
<path class="st0" d="M180,840V600c0-33.1-26.9-60-60-60h0c-33.1,0-60-26.9-60-60V180c0-33.1,26.9-60,60-60l60,0
	c33.1,0,60-26.9,60-60"/>
<line class="st0" x1="180" y1="120" x2="180" y2="420"/>
<path class="st0" d="M540,840V600c0-33.1,26.9-60,60-60h0c33.1,0,60-26.9,60-60V180c0-33.1-26.9-60-60-60l-60,0
	c-33.1,0-60-26.9-60-60"/>
<line class="st0" x1="540" y1="120" x2="540" y2="420"/>
</svg>
