<?xml version="1.0" encoding="utf-8"?>
<!-- Generator: Adobe Illustrator 26.0.0, SVG Export Plug-In . SVG Version: 6.00 Build 0)  -->
<svg version="1.1" id="图层_1" xmlns="http://www.w3.org/2000/svg" xmlns:xlink="http://www.w3.org/1999/xlink" x="0px" y="0px"
	 viewBox="0 0 720 900" style="enable-background:new 0 0 720 900;" xml:space="preserve">
<style type="text/css">
	.st0{fill:none;stroke:#000000;stroke-width:48;stroke-linecap:round;stroke-linejoin:round;stroke-miterlimit:10;}
</style>
<line class="st0" x1="360" y1="360" x2="480" y2="360"/>
<path class="st0" d="M360,480v120c0,33.1,26.9,60,60,60l0,0c33.1,0,60-26.9,60-60V480"/>
<path class="st0" d="M360,180v60c0,33.1,26.9,60,60,60l0,0c33.1,0,60-26.9,60-60v-60"/>
<path class="st0" d="M420,360v420c0,33.2-26.9,60-60,60"/>
<path class="st0" d="M660,240h-60"/>
<path class="st0" d="M600,840V360"/>
<path class="st0" d="M540,300c33.2,0,60-26.9,60-60v-60"/>
<path class="st0" d="M660,840V540c0-33.1-26.9-60-60-60"/>
<path class="st0" d="M660,60H420c-66.3,0-120,53.7-120,120v600c0,33.2-26.9,60-60,60"/>
</svg>
