<?xml version="1.0" encoding="utf-8"?>
<!-- Generator: Adobe Illustrator 26.0.0, SVG Export Plug-In . SVG Version: 6.00 Build 0)  -->
<svg version="1.1" id="图层_1" xmlns="http://www.w3.org/2000/svg" xmlns:xlink="http://www.w3.org/1999/xlink" x="0px" y="0px"
	 viewBox="0 0 720 900" style="enable-background:new 0 0 720 900;" xml:space="preserve">
<style type="text/css">
	.st0{fill:none;stroke:#000000;stroke-width:48;stroke-linecap:round;stroke-linejoin:round;stroke-miterlimit:10;}
</style>
<line class="st0" x1="420" y1="180" x2="420" y2="360"/>
<path class="st0" d="M360,180v60c0,33.1,26.9,60,60,60l0,0c33.1,0,60-26.9,60-60v-60"/>
<line class="st0" x1="360" y1="360" x2="480" y2="360"/>
<path class="st0" d="M420,540L420,540c-33.1,0-60-26.9-60-60l0,0c0-33.1,26.9-60,60-60l0,0c33.1,0,60,26.9,60,60l0,0
	C480,513.1,453.1,540,420,540z"/>
<line class="st0" x1="360" y1="840" x2="480" y2="840"/>
<path class="st0" d="M480,600v120c0,33.1-26.9,60-60,60l0,0c-33.1,0-60-26.9-60-60V600"/>
<line class="st0" x1="540" y1="360" x2="660" y2="360"/>
<line class="st0" x1="600" y1="180" x2="600" y2="840"/>
<line class="st0" x1="540" y1="480" x2="540" y2="540"/>
<path class="st0" d="M660,60H360c-33.1,0-60,26.9-60,60v660c0,33.2-26.9,60-60,60"/>
</svg>
