<?xml version="1.0" encoding="utf-8"?>
<!-- Generator: Adobe Illustrator 26.0.0, SVG Export Plug-In . SVG Version: 6.00 Build 0)  -->
<svg version="1.1" id="图层_1" xmlns="http://www.w3.org/2000/svg" xmlns:xlink="http://www.w3.org/1999/xlink" x="0px" y="0px"
	 viewBox="0 0 720 900" style="enable-background:new 0 0 720 900;" xml:space="preserve">
<style type="text/css">
	.st0{fill:none;stroke:#000000;stroke-width:48;stroke-linecap:round;stroke-linejoin:round;stroke-miterlimit:10;}
</style>
<path class="st0" d="M240,360H120c-33.1,0-60,26.9-60,60v0c0,33.1,26.9,60,60,60h120c33.1,0,60-26.9,60-60v0
	C300,386.9,273.1,360,240,360z"/>
<path class="st0" d="M600,360H480c-33.1,0-60,26.9-60,60v0c0,33.1,26.9,60,60,60h120c33.1,0,60-26.9,60-60v0
	C660,386.9,633.1,360,600,360z"/>
<path class="st0" d="M540,120H180c-33.1,0-60,26.9-60,60v0c0,33.1,26.9,60,60,60h360c33.1,0,60-26.9,60-60v0
	C600,146.9,573.1,120,540,120z"/>
<line class="st0" x1="360" y1="120" x2="360" y2="60"/>
<line class="st0" x1="180" y1="360" x2="180" y2="300"/>
<line class="st0" x1="540" y1="360" x2="540" y2="300"/>
</svg>
