<?xml version="1.0" encoding="utf-8"?>
<!-- Generator: Adobe Illustrator 26.0.0, SVG Export Plug-In . SVG Version: 6.00 Build 0)  -->
<svg version="1.1" id="图层_1" xmlns="http://www.w3.org/2000/svg" xmlns:xlink="http://www.w3.org/1999/xlink" x="0px" y="0px"
	 viewBox="0 0 720 900" style="enable-background:new 0 0 720 900;" xml:space="preserve">
<style type="text/css">
	.st0{fill:none;stroke:#000000;stroke-width:48;stroke-linecap:round;stroke-linejoin:round;stroke-miterlimit:10;}
</style>
<path class="st0" d="M300,120l17.5-17.5c56.6-56.6,148.4-56.6,205.1,0L540,120"/>
<path class="st0" d="M300,240h240"/>
<path class="st0" d="M300,360v60c0,33.1,26.9,60,60,60h120c33.1,0,60-26.9,60-60v-60"/>
<path class="st0" d="M420,240v600"/>
<path class="st0" d="M360,600v180c0,33.1-26.9,60-60,60"/>
<path class="st0" d="M480,600v180c0,33.1,26.9,60,60,60"/>
<path class="st0" d="M600,120h60v480c0,33.1-26.8,60-60,60"/>
<path class="st0" d="M600,300v480c0,33.2,26.8,60,60,60"/>
</svg>
