<?xml version="1.0" encoding="utf-8"?>
<!-- Generator: Adobe Illustrator 26.0.0, SVG Export Plug-In . SVG Version: 6.00 Build 0)  -->
<svg version="1.1" id="图层_1" xmlns="http://www.w3.org/2000/svg" xmlns:xlink="http://www.w3.org/1999/xlink" x="0px" y="0px"
	 viewBox="0 0 720 900" style="enable-background:new 0 0 720 900;" xml:space="preserve">
<style type="text/css">
	.st0{fill:none;stroke:#000000;stroke-width:48;stroke-linecap:round;stroke-linejoin:round;stroke-miterlimit:10;}
</style>
<path class="st0" d="M60,300h180c33.1,0,60,26.9,60,60l0,0c0,33.1-26.9,60-60,60H120c-33.1,0-60,26.9-60,60v360"/>
<line class="st0" x1="60" y1="540" x2="300" y2="540"/>
<line class="st0" x1="60" y1="720" x2="300" y2="720"/>
<path class="st0" d="M420,300h180c33.1,0,60,26.9,60,60l0,0c0,33.1-26.9,60-60,60H420"/>
<path class="st0" d="M420,540h240v60c0,66.3-53.7,120-120,120H420"/>
<path class="st0" d="M480,660v60c0,66.3,53.7,120,120,120h60"/>
</svg>
