<?xml version="1.0" encoding="utf-8"?>
<!-- Generator: Adobe Illustrator 26.0.0, SVG Export Plug-In . SVG Version: 6.00 Build 0)  -->
<svg version="1.1" id="图层_1" xmlns="http://www.w3.org/2000/svg" xmlns:xlink="http://www.w3.org/1999/xlink" x="0px" y="0px"
	 viewBox="0 0 720 900" style="enable-background:new 0 0 720 900;" xml:space="preserve">
<style type="text/css">
	.st0{fill:none;stroke:#000000;stroke-width:48;stroke-linecap:round;stroke-linejoin:round;stroke-miterlimit:10;}
</style>
<line class="st0" x1="420" y1="180" x2="300" y2="180"/>
<line class="st0" x1="540" y1="180" x2="660" y2="180"/>
<path class="st0" d="M420,60c-66.3,0-120,53.7-120,120l0,0c0,66.3,53.7,120,120,120h120c66.3,0,120-53.7,120-120l0,0
	c0-66.3-53.7-120-120-120"/>
<line class="st0" x1="480" y1="120" x2="480" y2="420"/>
<path class="st0" d="M360,480h240v60c0,33.1-26.9,60-60,60H300"/>
<path class="st0" d="M360,540v60c0,66.3,53.7,120,120,120h180"/>
</svg>
