<?xml version="1.0" encoding="utf-8"?>
<!-- Generator: Adobe Illustrator 26.0.0, SVG Export Plug-In . SVG Version: 6.00 Build 0)  -->
<svg version="1.1" id="图层_1" xmlns="http://www.w3.org/2000/svg" xmlns:xlink="http://www.w3.org/1999/xlink" x="0px" y="0px"
	 viewBox="0 0 720 900" style="enable-background:new 0 0 720 900;" xml:space="preserve">
<style type="text/css">
	.st0{fill:none;stroke:#000000;stroke-width:48;stroke-linecap:round;stroke-linejoin:round;stroke-miterlimit:10;}
</style>
<path class="st0" d="M480,360H240c-66.3,0-120-53.7-120-120v-60c0-66.3,53.7-120,120-120h240c66.3,0,120,53.7,120,120v60
	C600,306.3,546.3,360,480,360z"/>
<path class="st0" d="M420,540h60c66.3,0,120,53.7,120,120v60c0,66.3-53.7,120-120,120H240c-66.3,0-120-53.7-120-120v-60
	c0-66.3,53.7-120,120-120h60c33.1,0,60-26.9,60-60V360"/>
</svg>
