<?xml version="1.0" encoding="utf-8"?>
<!-- Generator: Adobe Illustrator 26.0.0, SVG Export Plug-In . SVG Version: 6.00 Build 0)  -->
<svg version="1.1" id="图层_1" xmlns="http://www.w3.org/2000/svg" xmlns:xlink="http://www.w3.org/1999/xlink" x="0px" y="0px"
	 viewBox="0 0 720 900" style="enable-background:new 0 0 720 900;" xml:space="preserve">
<style type="text/css">
	.st0{fill:none;stroke:#000000;stroke-width:48;stroke-linecap:round;stroke-linejoin:round;stroke-miterlimit:10;}
</style>
<path class="st0" d="M540,480H180c-33.1,0-60-26.9-60-60v-60c0-33.1,26.9-60,60-60h360c33.1,0,60,26.9,60,60v60
	C600,453.1,573.1,480,540,480z"/>
<path class="st0" d="M420,600h120c33.1,0,60,26.9,60,60v120c0,33.1-26.9,60-60,60H180c-33.1,0-60-26.9-60-60V660
	c0-33.1,26.9-60,60-60h120c33.1,0,60-26.9,60-60v-60"/>
</svg>
