<?xml version="1.0" encoding="utf-8"?>
<!-- Generator: Adobe Illustrator 26.0.0, SVG Export Plug-In . SVG Version: 6.00 Build 0)  -->
<svg version="1.1" id="图层_1" xmlns="http://www.w3.org/2000/svg" xmlns:xlink="http://www.w3.org/1999/xlink" x="0px" y="0px"
	 viewBox="0 0 720 900" style="enable-background:new 0 0 720 900;" xml:space="preserve">
<style type="text/css">
	.st0{fill:none;stroke:#000000;stroke-width:48;stroke-linecap:round;stroke-linejoin:round;stroke-miterlimit:10;}
</style>
<path class="st0" d="M480,720H240c-33.1,0-60-26.9-60-60V480c0-33.1,26.9-60,60-60h240c33.1,0,60,26.9,60,60v180
	C540,693.1,513.1,720,480,720z"/>
<line class="st0" x1="180" y1="540" x2="540" y2="540"/>
<line class="st0" x1="180" y1="600" x2="540" y2="600"/>
<path class="st0" d="M180,780h60c33.1,0,60-26.9,60-60"/>
<path class="st0" d="M540,780h-60c-33.1,0-60-26.9-60-60"/>
<path class="st0" d="M420,360H300c-66.3,0-120-53.7-120-120v0c0-66.3,53.7-120,120-120h120c66.3,0,120,53.7,120,120v0
	C540,306.3,486.3,360,420,360z"/>
</svg>
