<?xml version="1.0" encoding="utf-8"?>
<!-- Generator: Adobe Illustrator 26.0.0, SVG Export Plug-In . SVG Version: 6.00 Build 0)  -->
<svg version="1.1" id="图层_1" xmlns="http://www.w3.org/2000/svg" xmlns:xlink="http://www.w3.org/1999/xlink" x="0px" y="0px"
	 viewBox="0 0 720 900" style="enable-background:new 0 0 720 900;" xml:space="preserve">
<style type="text/css">
	.st0{fill:none;stroke:#000000;stroke-width:48;stroke-linecap:round;stroke-linejoin:round;stroke-miterlimit:10;}
</style>
<path class="st0" d="M60,300l197.5-197.5c56.6-56.6,148.4-56.6,205.1,0L660,300"/>
<line class="st0" x1="240" y1="300" x2="480" y2="300"/>
<path class="st0" d="M120,420v180c0,33.1,26.9,60,60,60h60c33.1,0,60-26.9,60-60V420"/>
<line class="st0" x1="120" y1="480" x2="300" y2="480"/>
<path class="st0" d="M420,420h180c33.1,0,60,26.9,60,60v0c0,33.1-26.9,60-60,60H480c-33.1,0-60,26.9-60,60l0,0c0,33.1,26.9,60,60,60
	h60c33.1,0,60,26.9,60,60v120"/>
<line class="st0" x1="480" y1="420" x2="480" y2="540"/>
</svg>
