<?xml version="1.0" encoding="utf-8"?>
<!-- Generator: Adobe Illustrator 26.0.0, SVG Export Plug-In . SVG Version: 6.00 Build 0)  -->
<svg version="1.1" id="图层_1" xmlns="http://www.w3.org/2000/svg" xmlns:xlink="http://www.w3.org/1999/xlink" x="0px" y="0px"
	 viewBox="0 0 720 900" style="enable-background:new 0 0 720 900;" xml:space="preserve">
<style type="text/css">
	.st0{fill:none;stroke:#000000;stroke-width:48;stroke-linecap:round;stroke-linejoin:round;stroke-miterlimit:10;}
</style>
<line class="st0" x1="480" y1="60" x2="480" y2="420"/>
<line class="st0" x1="300" y1="120" x2="660" y2="120"/>
<path class="st0" d="M300,300c33.1,0,60-26.9,60-60"/>
<path class="st0" d="M660,300c-33.1,0-60-26.9-60-60"/>
<path class="st0" d="M360,180v60c0,33.1,26.9,60,60,60h120c33.1,0,60-26.9,60-60v-60"/>
<line class="st0" x1="300" y1="420" x2="660" y2="420"/>
<path class="st0" d="M480,780L480,780c-33.1,0-60-26.9-60-60v-60c0-33.1,26.9-60,60-60l0,0c33.1,0,60,26.9,60,60v60
	C540,753.1,513.1,780,480,780z"/>
<path class="st0" d="M600,840H360c-33.1,0-60-26.9-60-60V600c0-33.1,26.9-60,60-60h240c33.1,0,60,26.9,60,60v180
	C660,813.1,633.1,840,600,840z"/>
</svg>
