<?xml version="1.0" encoding="utf-8"?>
<!-- Generator: Adobe Illustrator 26.0.0, SVG Export Plug-In . SVG Version: 6.00 Build 0)  -->
<svg version="1.1" id="图层_1" xmlns="http://www.w3.org/2000/svg" xmlns:xlink="http://www.w3.org/1999/xlink" x="0px" y="0px"
	 viewBox="0 0 720 900" style="enable-background:new 0 0 720 900;" xml:space="preserve">
<style type="text/css">
	.st0{fill:none;stroke:#000000;stroke-width:48;stroke-linecap:round;stroke-linejoin:round;stroke-miterlimit:10;}
</style>
<path class="st0" d="M120,60h120c33.1,0,60,26.9,60,60"/>
<path class="st0" d="M120,540h120c33.1,0,60-26.9,60-60"/>
<path class="st0" d="M600,540H480c-33.1,0-60-26.9-60-60"/>
<path class="st0" d="M600,60H480c-33.1,0-60,26.9-60,60"/>
<line class="st0" x1="60" y1="120" x2="660" y2="120"/>
<path class="st0" d="M240,180v180c0,33.1,26.9,60,60,60h120c33.1,0,60-26.9,60-60V180"/>
<line class="st0" x1="240" y1="240" x2="480" y2="240"/>
<line class="st0" x1="360" y1="240" x2="360" y2="120"/>
<line class="st0" x1="240" y1="300" x2="480" y2="300"/>
<line class="st0" x1="240" y1="360" x2="480" y2="360"/>
<line class="st0" x1="120" y1="660" x2="540" y2="660"/>
<path class="st0" d="M60,780h420c33.1,0,60-26.9,60-60V600"/>
<path class="st0" d="M240,600v180c0,33.1,26.9,60,60,60h360"/>
<line class="st0" x1="120" y1="180" x2="120" y2="420"/>
<path class="st0" d="M60,300v60c0,33.1,26.9,60,60,60h60"/>
<line class="st0" x1="120" y1="300" x2="180" y2="300"/>
<path class="st0" d="M600,300c34.1,0,61.5-28.4,59.9-62.8c-1.4-30.7-26.4-55.7-57.1-57.1c-34.4-1.6-62.8,25.9-62.8,59.9v120
	c0,33.1,26.9,60,60,60h60"/>
</svg>
