<?xml version="1.0" encoding="utf-8"?>
<!-- Generator: Adobe Illustrator 26.0.0, SVG Export Plug-In . SVG Version: 6.00 Build 0)  -->
<svg version="1.1" id="图层_1" xmlns="http://www.w3.org/2000/svg" xmlns:xlink="http://www.w3.org/1999/xlink" x="0px" y="0px"
	 viewBox="0 0 720 900" style="enable-background:new 0 0 720 900;" xml:space="preserve">
<style type="text/css">
	.st0{fill:none;stroke:#000000;stroke-width:48;stroke-linecap:round;stroke-linejoin:round;stroke-miterlimit:10;}
</style>
<path class="st0" d="M420,60h120c66.3,0,120,53.7,120,120l0,0c0,66.3-53.7,120-120,120h-60c-33.1,0-60,26.9-60,60v0
	c0,33.1,26.9,60,60,60h180"/>
<line class="st0" x1="540" y1="60" x2="540" y2="300"/>
<line class="st0" x1="180" y1="60" x2="180" y2="300"/>
<path class="st0" d="M60,420c0-66.3,53.7-120,120-120s120-53.7,120-120l0,0c0-66.3-53.7-120-120-120S60,113.7,60,180"/>
</svg>
