<?xml version="1.0" encoding="utf-8"?>
<!-- Generator: Adobe Illustrator 26.0.0, SVG Export Plug-In . SVG Version: 6.00 Build 0)  -->
<svg version="1.1" id="图层_1" xmlns="http://www.w3.org/2000/svg" xmlns:xlink="http://www.w3.org/1999/xlink" x="0px" y="0px"
	 viewBox="0 0 720 900" style="enable-background:new 0 0 720 900;" xml:space="preserve">
<style type="text/css">
	.st0{fill:none;stroke:#000000;stroke-width:48;stroke-linecap:round;stroke-linejoin:round;stroke-miterlimit:10;}
</style>
<path class="st0" d="M60,120h180"/>
<path class="st0" d="M240,60v120"/>
<path class="st0" d="M480,60v120"/>
<path class="st0" d="M660,120H480"/>
<path class="st0" d="M600,300H120c-33.1,0-60-26.9-60-60s26.9-60,60-60h480c33.1,0,60,26.9,60,60S633.1,300,600,300z"/>
<path class="st0" d="M360,180c33.1,0,60,26.9,60,60s-26.9,60-60,60s-60-26.9-60-60S326.9,180,360,180z"/>
<path class="st0" d="M60,420c0-33.1,26.9-60,60-60h480c33.1,0,60,26.9,60,60"/>
</svg>
