<?xml version="1.0" encoding="utf-8"?>
<!-- Generator: Adobe Illustrator 26.0.0, SVG Export Plug-In . SVG Version: 6.00 Build 0)  -->
<svg version="1.1" id="图层_1" xmlns="http://www.w3.org/2000/svg" xmlns:xlink="http://www.w3.org/1999/xlink" x="0px" y="0px"
	 viewBox="0 0 720 900" style="enable-background:new 0 0 720 900;" xml:space="preserve">
<style type="text/css">
	.st0{fill:none;stroke:#000000;stroke-width:48;stroke-linecap:round;stroke-linejoin:round;stroke-miterlimit:10;}
</style>
<path class="st0" d="M360,360c33.1,0,60-26.9,60-60v-60"/>
<path class="st0" d="M300,600V480c0-33.1,26.9-60,60-60h240c33.1,0,60,26.9,60,60v120"/>
<path class="st0" d="M480,480v60c0,33.1-26.9,60-60,60h-60"/>
<path class="st0" d="M480,540c0,33.1,26.9,60,60,60h60"/>
<line class="st0" x1="300" y1="720" x2="660" y2="720"/>
<path class="st0" d="M540,720v60c0,33.2,26.8,60,60,60h60"/>
<path class="st0" d="M420,660v120c0,33.2-26.9,60-60,60h-60"/>
<path class="st0" d="M420,300h180v60c0,33.1-26.8,60-60,60"/>
</svg>
