<?xml version="1.0" encoding="utf-8"?>
<!-- Generator: Adobe Illustrator 26.0.0, SVG Export Plug-In . SVG Version: 6.00 Build 0)  -->
<svg version="1.1" id="图层_1" xmlns="http://www.w3.org/2000/svg" xmlns:xlink="http://www.w3.org/1999/xlink" x="0px" y="0px"
	 viewBox="0 0 720 900" style="enable-background:new 0 0 720 900;" xml:space="preserve">
<style type="text/css">
	.st0{fill:none;stroke:#000000;stroke-width:48;stroke-linecap:round;stroke-linejoin:round;stroke-miterlimit:10;}
</style>
<line class="st0" x1="360" y1="60" x2="360" y2="240"/>
<path class="st0" d="M120.2,179.9c33.1,0,59.8-26.8,59.8-59.9l0,0c0-33.1,26.9-60,60-60h360"/>
<path class="st0" d="M600,180.1c-33.1,0-60-26.9-60-60.1V60"/>
<path class="st0" d="M240,420h240c33.1,0,60,26.9,60,60v0c0,33.1-26.9,60-60,60H240c-33.1,0-60-26.9-60-60v0
	C180,446.9,206.9,420,240,420z"/>
<path class="st0" d="M240,240h240c33.1,0,60,26.9,60,60v0c0,33.1-26.9,60-60,60H240c-33.1,0-60-26.9-60-60v0
	C180,266.9,206.9,240,240,240z"/>
<line class="st0" x1="360" y1="360" x2="360" y2="420"/>
<line class="st0" x1="360" y1="540" x2="360" y2="660"/>
<line class="st0" x1="60" y1="660" x2="660" y2="660"/>
<path class="st0" d="M240,660v120c0,33.1-26.9,60-60,60"/>
<path class="st0" d="M480,660v120c0,33.1,26.9,60,60,60"/>
</svg>
