<?xml version="1.0" encoding="utf-8"?>
<!-- Generator: Adobe Illustrator 26.0.0, SVG Export Plug-In . SVG Version: 6.00 Build 0)  -->
<svg version="1.1" id="图层_1" xmlns="http://www.w3.org/2000/svg" xmlns:xlink="http://www.w3.org/1999/xlink" x="0px" y="0px"
	 viewBox="0 0 720 900" style="enable-background:new 0 0 720 900;" xml:space="preserve">
<style type="text/css">
	.st0{fill:none;stroke:#000000;stroke-width:48;stroke-linecap:round;stroke-linejoin:round;stroke-miterlimit:10;}
</style>
<line class="st0" x1="540" y1="60" x2="540" y2="240"/>
<path class="st0" d="M420,180l-0.2-60c0-33.1,26.9-60,60-60H660"/>
<path class="st0" d="M480,420h120c33.1,0,60,26.9,60,60v0c0,33.1-26.9,60-60,60H480c-33.1,0-60-26.9-60-60v0
	C420,446.9,446.9,420,480,420z"/>
<path class="st0" d="M480,240h120c33.1,0,60,26.9,60,60v0c0,33.1-26.9,60-60,60H480c-33.1,0-60-26.9-60-60v0
	C420,266.9,446.9,240,480,240z"/>
<line class="st0" x1="540" y1="360" x2="540" y2="420"/>
<line class="st0" x1="540" y1="540" x2="540" y2="660"/>
<line class="st0" x1="420" y1="660" x2="660" y2="660"/>
<path class="st0" d="M480,660v120c0,33.1-26.9,60-60,60"/>
<path class="st0" d="M600,660v120c0,33.1,26.9,60,60,60"/>
<line class="st0" x1="660" y1="120" x2="660" y2="180"/>
</svg>
