<?xml version="1.0" encoding="utf-8"?>
<!-- Generator: Adobe Illustrator 26.0.0, SVG Export Plug-In . SVG Version: 6.00 Build 0)  -->
<svg version="1.1" id="图层_1" xmlns="http://www.w3.org/2000/svg" xmlns:xlink="http://www.w3.org/1999/xlink" x="0px" y="0px"
	 viewBox="0 0 720 900" style="enable-background:new 0 0 720 900;" xml:space="preserve">
<style type="text/css">
	.st0{fill:none;stroke:#000000;stroke-width:48;stroke-linecap:round;stroke-linejoin:round;stroke-miterlimit:10;}
</style>
<path class="st0" d="M120,540V240c0-66.3,53.7-120,120-120h240c66.3,0,120,53.7,120,120v300"/>
<line class="st0" x1="360" y1="60" x2="360" y2="120"/>
<line class="st0" x1="180" y1="360" x2="540" y2="360"/>
<path class="st0" d="M240,420v60c0,33.1-26.9,60-60,60"/>
<path class="st0" d="M480,420v60c0,33.1,26.9,60,60,60"/>
<path class="st0" d="M240,300c0-33.1-26.9-60-60-60"/>
<path class="st0" d="M480,300c0-33.1,26.9-60,60-60"/>
<path class="st0" d="M360,540V240c0-33.1,26.9-60,60-60"/>
</svg>
