<?xml version="1.0" encoding="utf-8"?>
<!-- Generator: Adobe Illustrator 26.0.0, SVG Export Plug-In . SVG Version: 6.00 Build 0)  -->
<svg version="1.1" id="图层_1" xmlns="http://www.w3.org/2000/svg" xmlns:xlink="http://www.w3.org/1999/xlink" x="0px" y="0px"
	 viewBox="0 0 720 900" style="enable-background:new 0 0 720 900;" xml:space="preserve">
<style type="text/css">
	.st0{fill:none;stroke:#000000;stroke-width:48;stroke-linecap:round;stroke-linejoin:round;stroke-miterlimit:10;}
</style>
<line class="st0" x1="120" y1="120" x2="360" y2="120"/>
<path class="st0" d="M300,180v60c0,33.2-26.9,60-60,60s-60,26.8-60,60v60"/>
<path class="st0" d="M180,60v180c0,33.2,26.9,60,60,60s60,26.8,60,60v60"/>
<path class="st0" d="M420,120h180v120c0,33.1-26.9,60-60,60H420"/>
<path class="st0" d="M420,180c33.1,0,60,26.9,60,60v60c0,66.3,53.7,120,120,120h0"/>
</svg>
