<?xml version="1.0" encoding="utf-8"?>
<!-- Generator: Adobe Illustrator 26.0.0, SVG Export Plug-In . SVG Version: 6.00 Build 0)  -->
<svg version="1.1" id="图层_1" xmlns="http://www.w3.org/2000/svg" xmlns:xlink="http://www.w3.org/1999/xlink" x="0px" y="0px"
	 viewBox="0 0 720 900" style="enable-background:new 0 0 720 900;" xml:space="preserve">
<style type="text/css">
	.st0{fill:none;stroke:#000000;stroke-width:48;stroke-linecap:round;stroke-linejoin:round;stroke-miterlimit:10;}
</style>
<path class="st0" d="M300,420h360"/>
<path class="st0" d="M600,480v60c0,66.3-53.7,120-120,120s-120,53.7-120,120v60"/>
<path class="st0" d="M360,360v180c0,66.3,53.7,120,120,120s120,53.7,120,120v60"/>
<path class="st0" d="M480,60v239.9"/>
<path class="st0" d="M300,299.9c33.1,0,59.8-26.8,59.8-59.9V120c0-33.1,26.9-60,60-60H660"/>
<path class="st0" d="M660,300.1c-33.1,0-60-26.9-60-60.1V60"/>
</svg>
