<?xml version="1.0" encoding="utf-8"?>
<!-- Generator: Adobe Illustrator 26.0.0, SVG Export Plug-In . SVG Version: 6.00 Build 0)  -->
<svg version="1.1" id="图层_1" xmlns="http://www.w3.org/2000/svg" xmlns:xlink="http://www.w3.org/1999/xlink" x="0px" y="0px"
	 viewBox="0 0 720 900" style="enable-background:new 0 0 720 900;" xml:space="preserve">
<style type="text/css">
	.st0{fill:none;stroke:#000000;stroke-width:48;stroke-linecap:round;stroke-linejoin:round;stroke-miterlimit:10;}
</style>
<path class="st0" d="M120,240h360c66.3,0,120,53.7,120,120l0,0c0,66.3-53.7,120-120,120H120"/>
<line class="st0" x1="660" y1="360" x2="60" y2="360"/>
<line class="st0" x1="360" y1="60" x2="360" y2="540"/>
<line class="st0" x1="120" y1="120" x2="600" y2="120"/>
<line class="st0" x1="60" y1="600" x2="660" y2="600"/>
<path class="st0" d="M480,600c0,66.3-53.7,120-120,120s-120,53.7-120,120"/>
<path class="st0" d="M240,540v60c0,66.3,53.7,120,120,120s120,53.7,120,120"/>
</svg>
