<?xml version="1.0" encoding="utf-8"?>
<!-- Generator: Adobe Illustrator 26.0.0, SVG Export Plug-In . SVG Version: 6.00 Build 0)  -->
<svg version="1.1" id="图层_1" xmlns="http://www.w3.org/2000/svg" xmlns:xlink="http://www.w3.org/1999/xlink" x="0px" y="0px"
	 viewBox="0 0 720 900" style="enable-background:new 0 0 720 900;" xml:space="preserve">
<style type="text/css">
	.st0{fill:none;stroke:#000000;stroke-width:48;stroke-linecap:round;stroke-linejoin:round;stroke-miterlimit:10;}
</style>
<path class="st0" d="M60,300v60c0,33.1,26.9,60,60,60"/>
<path class="st0" d="M120,60c-33.1,0-60,26.9-60,60v60"/>
<line class="st0" x1="60" y1="240" x2="300" y2="240"/>
<line class="st0" x1="180" y1="60" x2="180" y2="420"/>
<line class="st0" x1="300" y1="60" x2="300" y2="180"/>
<line class="st0" x1="300" y1="300" x2="300" y2="420"/>
<line class="st0" x1="60" y1="540" x2="300" y2="540"/>
<path class="st0" d="M240,600v60c0,33.2-26.9,60-60,60s-60,26.8-60,60v60"/>
<path class="st0" d="M120,480v180c0,33.2,26.9,60,60,60s60,26.8,60,60v60"/>
</svg>
