<?xml version="1.0" encoding="utf-8"?>
<!-- Generator: Adobe Illustrator 26.0.0, SVG Export Plug-In . SVG Version: 6.00 Build 0)  -->
<svg version="1.1" id="图层_1" xmlns="http://www.w3.org/2000/svg" xmlns:xlink="http://www.w3.org/1999/xlink" x="0px" y="0px"
	 viewBox="0 0 720 900" style="enable-background:new 0 0 720 900;" xml:space="preserve">
<style type="text/css">
	.st0{fill:none;stroke:#000000;stroke-width:48;stroke-linecap:round;stroke-linejoin:round;stroke-miterlimit:10;}
</style>
<path class="st0" d="M60,600h360"/>
<path class="st0" d="M360,600c0,66.3-53.7,120-120,120s-120,53.7-120,120"/>
<path class="st0" d="M120,540v60c0,66.3,53.7,120,120,120s120,53.7,120,120"/>
<path class="st0" d="M120,360L120,360c-33.1,0-60-26.9-60-60V120c0-33.1,26.9-60,60-60l0,0c33.1,0,60,26.9,60,60v180
	C180,333.1,153.1,360,120,360z"/>
<path class="st0" d="M60,180h120"/>
<path class="st0" d="M60,240h120"/>
<line class="st0" x1="60" y1="420" x2="60" y2="480"/>
<line class="st0" x1="180" y1="420" x2="180" y2="480"/>
<path class="st0" d="M360,360L360,360c-33.1,0-60-26.9-60-60V120c0-33.1,26.9-60,60-60l0,0c33.1,0,60,26.9,60,60v180
	C420,333.1,393.1,360,360,360z"/>
<path class="st0" d="M300,180h120"/>
<path class="st0" d="M300,240h120"/>
<line class="st0" x1="300" y1="420" x2="300" y2="480"/>
<line class="st0" x1="420" y1="420" x2="420" y2="480"/>
</svg>
