<?xml version="1.0" encoding="utf-8"?>
<!-- Generator: Adobe Illustrator 26.0.0, SVG Export Plug-In . SVG Version: 6.00 Build 0)  -->
<svg version="1.1" id="图层_1" xmlns="http://www.w3.org/2000/svg" xmlns:xlink="http://www.w3.org/1999/xlink" x="0px" y="0px"
	 viewBox="0 0 720 900" style="enable-background:new 0 0 720 900;" xml:space="preserve">
<style type="text/css">
	.st0{fill:none;stroke:#000000;stroke-width:48;stroke-linecap:round;stroke-linejoin:round;stroke-miterlimit:10;}
</style>
<path class="st0" d="M120,420L120,420c-33.1,0-60-26.9-60-60V120c0-33.1,26.9-60,60-60l0,0c33.1,0,60,26.9,60,60v240
	C180,393.1,153.1,420,120,420z"/>
<line class="st0" x1="60" y1="240" x2="180" y2="240"/>
<line class="st0" x1="120" y1="60" x2="120" y2="840"/>
<path class="st0" d="M60,540h60c33.1,0,60,26.9,60,60v240"/>
<path class="st0" d="M600,420L600,420c-33.1,0-60-26.9-60-60V120c0-33.1,26.9-60,60-60l0,0c33.1,0,60,26.9,60,60v240
	C660,393.1,633.1,420,600,420z"/>
<line class="st0" x1="540" y1="240" x2="660" y2="240"/>
<line class="st0" x1="600" y1="60" x2="600" y2="840"/>
<path class="st0" d="M540,540h60c33.1,0,60,26.9,60,60v240"/>
<line class="st0" x1="240" y1="240" x2="480" y2="240"/>
<path class="st0" d="M420,360v120c0,33.2-26.9,60-60,60s-60,26.8-60,60v240"/>
<path class="st0" d="M300,60v420c0,33.2,26.9,60,60,60s60,26.8,60,60v240"/>
</svg>
