<?xml version="1.0" encoding="utf-8"?>
<!-- Generator: Adobe Illustrator 26.0.0, SVG Export Plug-In . SVG Version: 6.00 Build 0)  -->
<svg version="1.1" id="图层_1" xmlns="http://www.w3.org/2000/svg" xmlns:xlink="http://www.w3.org/1999/xlink" x="0px" y="0px"
	 viewBox="0 0 720 900" style="enable-background:new 0 0 720 900;" xml:space="preserve">
<style type="text/css">
	.st0{fill:none;stroke:#000000;stroke-width:48;stroke-linecap:round;stroke-linejoin:round;stroke-miterlimit:10;}
</style>
<path class="st0" d="M360,300v60c0,33.1,26.9,60,60,60h120c33.1,0,60-26.9,60-60v-60"/>
<path class="st0" d="M420,300h120"/>
<path class="st0" d="M540,600v60c0,33.2-26.9,60-60,60s-60,26.8-60,60v60"/>
<path class="st0" d="M420,480v180c0,33.2,26.9,60,60,60s60,26.8,60,60v60"/>
<path class="st0" d="M480,60v60"/>
<path class="st0" d="M300,120h360"/>
<path class="st0" d="M600,240H420c-33.1,0-60-26.9-60-60v-60"/>
<polyline class="st0" points="600,840 600,480 660,480 660,840 "/>
<line class="st0" x1="600" y1="660" x2="660" y2="660"/>
<polyline class="st0" points="300,840 300,480 360,480 360,840 "/>
<line class="st0" x1="300" y1="600" x2="360" y2="600"/>
<line class="st0" x1="300" y1="720" x2="360" y2="720"/>
<line class="st0" x1="420" y1="540" x2="540" y2="540"/>
</svg>
