<?xml version="1.0" encoding="utf-8"?>
<!-- Generator: Adobe Illustrator 26.0.0, SVG Export Plug-In . SVG Version: 6.00 Build 0)  -->
<svg version="1.1" id="图层_1" xmlns="http://www.w3.org/2000/svg" xmlns:xlink="http://www.w3.org/1999/xlink" x="0px" y="0px"
	 viewBox="0 0 720 900" style="enable-background:new 0 0 720 900;" xml:space="preserve">
<style type="text/css">
	.st0{fill:none;stroke:#000000;stroke-width:48;stroke-linecap:round;stroke-linejoin:round;stroke-miterlimit:10;}
</style>
<line class="st0" x1="360" y1="480" x2="660" y2="480"/>
<path class="st0" d="M360,660c0-33.1,26.9-60,60-60s60,26.9,60,60s-26.9,60-60,60v120"/>
<line class="st0" x1="360" y1="780" x2="480" y2="780"/>
<path class="st0" d="M540,660c0-33.1,26.9-60,60-60s60,26.9,60,60s-26.9,60-60,60v120"/>
<line class="st0" x1="540" y1="780" x2="660" y2="780"/>
<path class="st0" d="M420,360L420,360c0-33.1,26.9-60,60-60h60c33.1,0,60,26.9,60,60v0c0,33.1-26.9,60-60,60h0
	c-33.1,0-60,26.9-60,60v60"/>
<path class="st0" d="M300,60h300c33.1,0,60,26.9,60,60l0,0c0,33.1-26.9,60-60,60H420c-66.3,0-120,53.7-120,120v480
	c0,33.2-26.9,60-60,60"/>
</svg>
