<?xml version="1.0" encoding="utf-8"?>
<!-- Generator: Adobe Illustrator 26.0.0, SVG Export Plug-In . SVG Version: 6.00 Build 0)  -->
<svg version="1.1" id="图层_1" xmlns="http://www.w3.org/2000/svg" xmlns:xlink="http://www.w3.org/1999/xlink" x="0px" y="0px"
	 viewBox="0 0 720 900" style="enable-background:new 0 0 720 900;" xml:space="preserve">
<style type="text/css">
	.st0{fill:none;stroke:#000000;stroke-width:48;stroke-linecap:round;stroke-linejoin:round;stroke-miterlimit:10;}
</style>
<line class="st0" x1="540" y1="60" x2="540" y2="299.9"/>
<path class="st0" d="M420,300l-0.2-180c0-33.1,26.9-60,60-60H660"/>
<path class="st0" d="M480,480c-33.1,0-60-26.9-60-60l0,0c0-33.1,26.9-60,60-60h120c33.1,0,60,26.9,60,60l0,0c0,33.1-26.9,60-60,60
	l0,0c-33.1,0-60,26.9-60,60v240c0,33.1-26.9,60-60,60"/>
<path class="st0" d="M660,600c0,33.1-26.9,60-60,60H480c-33.1,0-60-26.9-60-60"/>
<line class="st0" x1="660" y1="120" x2="660" y2="300"/>
<line class="st0" x1="300" y1="420" x2="300" y2="300"/>
<line class="st0" x1="240" y1="60" x2="240" y2="840"/>
<path class="st0" d="M240,600h60c33.1,0,60-26.9,60-60V180c0-33.1-26.9-60-60-60h-60"/>
<line class="st0" x1="120" y1="300" x2="120" y2="420"/>
<line class="st0" x1="180" y1="60" x2="180" y2="840"/>
<path class="st0" d="M180,600h-60c-33.1,0-60-26.9-60-60V180c0-33.1,26.9-60,60-60h60"/>
</svg>
