<?xml version="1.0" encoding="utf-8"?>
<!-- Generator: Adobe Illustrator 26.0.0, SVG Export Plug-In . SVG Version: 6.00 Build 0)  -->
<svg version="1.1" id="图层_1" xmlns="http://www.w3.org/2000/svg" xmlns:xlink="http://www.w3.org/1999/xlink" x="0px" y="0px"
	 viewBox="0 0 720 900" style="enable-background:new 0 0 720 900;" xml:space="preserve">
<style type="text/css">
	.st0{fill:none;stroke:#000000;stroke-width:48;stroke-linecap:round;stroke-linejoin:round;stroke-miterlimit:10;}
</style>
<line class="st0" x1="300" y1="300" x2="420" y2="300"/>
<line class="st0" x1="360" y1="240" x2="360" y2="360"/>
<line class="st0" x1="540" y1="300" x2="660" y2="300"/>
<line class="st0" x1="600" y1="240" x2="600" y2="360"/>
<path class="st0" d="M420,660v120c0,33.1-26.9,60-60,60h-60"/>
<path class="st0" d="M540,660v120c0,33.1,26.9,60,60,60h60"/>
<line class="st0" x1="480" y1="60" x2="480" y2="120"/>
<path class="st0" d="M300,180c0-33.1,26.9-60,60-60h240c33.1,0,60,26.9,60,60"/>
<path class="st0" d="M540,660H420c-66.3,0-120-53.7-120-120v0c0-66.3,53.7-120,120-120h120c66.3,0,120,53.7,120,120v0
	C660,606.3,606.3,660,540,660z"/>
<circle class="st0" cx="480" cy="540" r="60"/>
</svg>
