<?xml version="1.0" encoding="utf-8"?>
<!-- Generator: Adobe Illustrator 26.0.0, SVG Export Plug-In . SVG Version: 6.00 Build 0)  -->
<svg version="1.1" id="图层_1" xmlns="http://www.w3.org/2000/svg" xmlns:xlink="http://www.w3.org/1999/xlink" x="0px" y="0px"
	 viewBox="0 0 720 900" style="enable-background:new 0 0 720 900;" xml:space="preserve">
<style type="text/css">
	.st0{fill:none;stroke:#000000;stroke-width:48;stroke-linecap:round;stroke-linejoin:round;stroke-miterlimit:10;}
</style>
<path class="st0" d="M480,60v60"/>
<path class="st0" d="M300,180c0-33.1,26.9-60,60-60h240c33.1,0,60,26.9,60,60"/>
<path class="st0" d="M540,300h120"/>
<path class="st0" d="M600,420c-33.1,0-60,26.9-60,60v300c0,33.1,26.9,60,60,60l0,0c33.1,0,60-26.9,60-60V480
	C660,446.9,633.1,420,600,420L600,420z"/>
<path class="st0" d="M540,660h120"/>
<path class="st0" d="M300,480c33.2,0,60-26.9,60-60V300"/>
<path class="st0" d="M360,420c33.1,0,60,26.9,60,60s-26.9,60-60,60v300"/>
<line class="st0" x1="600" y1="420" x2="600" y2="300"/>
</svg>
