<?xml version="1.0" encoding="utf-8"?>
<!-- Generator: Adobe Illustrator 26.0.0, SVG Export Plug-In . SVG Version: 6.00 Build 0)  -->
<svg version="1.1" id="图层_1" xmlns="http://www.w3.org/2000/svg" xmlns:xlink="http://www.w3.org/1999/xlink" x="0px" y="0px"
	 viewBox="0 0 720 900" style="enable-background:new 0 0 720 900;" xml:space="preserve">
<style type="text/css">
	.st0{fill:none;stroke:#000000;stroke-width:48;stroke-linecap:round;stroke-linejoin:round;stroke-miterlimit:10;}
</style>
<path class="st0" d="M360,240v60"/>
<path class="st0" d="M60,360c0-33.1,26.9-60,60-60h480c33.1,0,60,26.9,60,60"/>
<path class="st0" d="M360,420h240"/>
<path class="st0" d="M480,540c-66.3,0-120,53.7-120,120v120c0,33.1,26.9,60,60,60h120c33.1,0,60-26.9,60-60V660
	C600,593.7,546.3,540,480,540z"/>
<path class="st0" d="M480,420v120"/>
<path class="st0" d="M360,720h240"/>
<path class="st0" d="M120,600c33.2,0,60-26.9,60-60V420"/>
<path class="st0" d="M180,540c33.1,0,60,26.9,60,60s-26.9,60-60,60v180"/>
</svg>
