<?xml version="1.0" encoding="utf-8"?>
<!-- Generator: Adobe Illustrator 26.0.0, SVG Export Plug-In . SVG Version: 6.00 Build 0)  -->
<svg version="1.1" id="图层_1" xmlns="http://www.w3.org/2000/svg" xmlns:xlink="http://www.w3.org/1999/xlink" x="0px" y="0px"
	 viewBox="0 0 720 900" style="enable-background:new 0 0 720 900;" xml:space="preserve">
<style type="text/css">
	.st0{fill:none;stroke:#000000;stroke-width:48;stroke-linecap:round;stroke-linejoin:round;stroke-miterlimit:10;}
</style>
<path class="st0" d="M180,720h300c33.1,0,60,26.9,60,60v60"/>
<line class="st0" x1="300" y1="720" x2="300" y2="840"/>
<path class="st0" d="M120,660h60c66.3,0,120-53.7,120-120"/>
<path class="st0" d="M600,660h-60c-66.3,0-120-53.7-120-120"/>
<path class="st0" d="M540,360H420c-33.1,0-60-26.9-60-60"/>
<path class="st0" d="M480,540c33.1,0,60-26.9,60-60V300"/>
<path class="st0" d="M180,300v180c0,33.1,26.9,60,60,60"/>
<line class="st0" x1="180" y1="420" x2="540" y2="420"/>
<line class="st0" x1="180" y1="480" x2="540" y2="480"/>
<line class="st0" x1="120" y1="240" x2="600" y2="240"/>
<path class="st0" d="M180,360h120c33.1,0,60-26.9,60-60v-60"/>
<line class="st0" x1="60" y1="540" x2="660" y2="540"/>
</svg>
