<?xml version="1.0" encoding="utf-8"?>
<!-- Generator: Adobe Illustrator 26.0.0, SVG Export Plug-In . SVG Version: 6.00 Build 0)  -->
<svg version="1.1" id="图层_1" xmlns="http://www.w3.org/2000/svg" xmlns:xlink="http://www.w3.org/1999/xlink" x="0px" y="0px"
	 viewBox="0 0 720 900" style="enable-background:new 0 0 720 900;" xml:space="preserve">
<style type="text/css">
	.st0{fill:none;stroke:#000000;stroke-width:48;stroke-linecap:round;stroke-linejoin:round;stroke-miterlimit:10;}
</style>
<path class="st0" d="M60,60h300c33.1,0,60,26.9,60,60v0c0,33.1-26.9,60-60,60H180c-66.3,0-120,53.7-120,120v540"/>
<line class="st0" x1="180" y1="60" x2="180" y2="180"/>
<line class="st0" x1="180" y1="300" x2="420" y2="300"/>
<line class="st0" x1="180" y1="420" x2="420" y2="420"/>
<path class="st0" d="M300,480v300c0,33.1-26.9,60-60,60h-60"/>
<path class="st0" d="M300,780c0,33.1,26.9,60,60,60h60"/>
<line class="st0" x1="180" y1="540" x2="180" y2="720"/>
<line class="st0" x1="420" y1="540" x2="420" y2="720"/>
</svg>
