<?xml version="1.0" encoding="utf-8"?>
<!-- Generator: Adobe Illustrator 26.0.0, SVG Export Plug-In . SVG Version: 6.00 Build 0)  -->
<svg version="1.1" id="图层_1" xmlns="http://www.w3.org/2000/svg" xmlns:xlink="http://www.w3.org/1999/xlink" x="0px" y="0px"
	 viewBox="0 0 720 900" style="enable-background:new 0 0 720 900;" xml:space="preserve">
<style type="text/css">
	.st0{fill:none;stroke:#000000;stroke-width:48;stroke-linecap:round;stroke-linejoin:round;stroke-miterlimit:10;}
</style>
<path class="st0" d="M120,60v60c0,33.1,26.9,60,60,60h120c33.1,0,60-26.9,60-60V60"/>
<path class="st0" d="M240,60v180c0,66.3-53.7,120-120,120H60"/>
<path class="st0" d="M240,240c0,66.3,53.7,120,120,120h60"/>
<line class="st0" x1="60" y1="240" x2="60" y2="300"/>
<line class="st0" x1="420" y1="240" x2="420" y2="300"/>
<path class="st0" d="M240,660v60c0,66.3-53.7,120-120,120"/>
<path class="st0" d="M240,720c0,66.3,53.7,120,120,120"/>
<line class="st0" x1="60" y1="660" x2="60" y2="840"/>
<line class="st0" x1="420" y1="660" x2="420" y2="840"/>
<line class="st0" x1="180" y1="540" x2="300" y2="540"/>
<circle class="st0" cx="240" cy="540" r="120"/>
</svg>
