<?xml version="1.0" encoding="utf-8"?>
<!-- Generator: Adobe Illustrator 26.0.0, SVG Export Plug-In . SVG Version: 6.00 Build 0)  -->
<svg version="1.1" id="图层_1" xmlns="http://www.w3.org/2000/svg" xmlns:xlink="http://www.w3.org/1999/xlink" x="0px" y="0px"
	 viewBox="0 0 720 900" style="enable-background:new 0 0 720 900;" xml:space="preserve">
<style type="text/css">
	.st0{fill:none;stroke:#000000;stroke-width:48;stroke-linecap:round;stroke-linejoin:round;stroke-miterlimit:10;}
</style>
<path class="st0" d="M420,840h240"/>
<path class="st0" d="M540,600v240"/>
<path class="st0" d="M420,720h240"/>
<path class="st0" d="M420,300c132.5,0,240,107.5,240,240c0,33.1-26.9,60-60,60H480c-33.1,0-60-26.9-60-60c0-132.5,107.5-240,240-240
	"/>
<path class="st0" d="M300,60h360c33.1,0,60,26.9,60,60s-26.9,60-60,60H420c-66.3,0-120,53.7-120,120v480c0,33.2-26.9,60-60,60"/>
</svg>
