<?xml version="1.0" encoding="utf-8"?>
<!-- Generator: Adobe Illustrator 26.0.0, SVG Export Plug-In . SVG Version: 6.00 Build 0)  -->
<svg version="1.1" id="图层_1" xmlns="http://www.w3.org/2000/svg" xmlns:xlink="http://www.w3.org/1999/xlink" x="0px" y="0px"
	 viewBox="0 0 720 900" style="enable-background:new 0 0 720 900;" xml:space="preserve">
<style type="text/css">
	.st0{fill:none;stroke:#000000;stroke-width:48;stroke-linecap:round;stroke-linejoin:round;stroke-miterlimit:10;}
</style>
<path class="st0" d="M60,660h240"/>
<path class="st0" d="M120,300c0,33.1,26.9,60,60,60l0,0c33.1,0,60-26.9,60-60"/>
<path class="st0" d="M120,540v-60c0-33.1,26.8-60,60-60l0,0c33.1,0,60,26.9,60,60v60"/>
<path class="st0" d="M240,240c-33.1,0-60,26.9-60,60v240"/>
<path class="st0" d="M120,840c0-33.1,26.9-60,60-60s60,26.9,60,60"/>
<path class="st0" d="M240,720c0,33.1-26.9,60-60,60s-60-26.9-60-60V600"/>
<path class="st0" d="M540,540H420c-33.1,0-60-26.9-60-60V360c0-33.1,26.9-60,60-60h120c33.1,0,60,26.9,60,60v120
	C600,513.1,573.1,540,540,540z"/>
<line class="st0" x1="360" y1="420" x2="600" y2="420"/>
<line class="st0" x1="600" y1="600" x2="600" y2="660"/>
<path class="st0" d="M480,240v480c0,66.3-53.7,120-120,120"/>
<circle class="st0" cx="600" cy="720" r="60"/>
<line class="st0" x1="540" y1="840" x2="660" y2="840"/>
</svg>
