<?xml version="1.0" encoding="utf-8"?>
<!-- Generator: Adobe Illustrator 26.0.0, SVG Export Plug-In . SVG Version: 6.00 Build 0)  -->
<svg version="1.1" id="图层_1" xmlns="http://www.w3.org/2000/svg" xmlns:xlink="http://www.w3.org/1999/xlink" x="0px" y="0px"
	 viewBox="0 0 720 900" style="enable-background:new 0 0 720 900;" xml:space="preserve">
<style type="text/css">
	.st0{fill:none;stroke:#000000;stroke-width:48;stroke-linecap:round;stroke-linejoin:round;stroke-miterlimit:10;}
</style>
<path class="st0" d="M600,240v180c0,33.1-26.9,60-60,60H419.8c-33.1,0-60-26.9-60-60V240H600z"/>
<line class="st0" x1="359.8" y1="360" x2="600" y2="360"/>
<line class="st0" x1="479.9" y1="480" x2="479.9" y2="240"/>
<line class="st0" x1="479.9" y1="180" x2="479.9" y2="60"/>
<path class="st0" d="M600,180v-60.1c0-33.1,26.8-59.9,59.9-60"/>
<path class="st0" d="M359.8,180v-60.1c0-33.1-26.8-59.9-59.9-60"/>
<line class="st0" x1="479.9" y1="540" x2="479.9" y2="840"/>
<path class="st0" d="M599.9,840c0-66.3-53.7-120-120-120s-120,53.7-120,120"/>
<line class="st0" x1="299.8" y1="600" x2="660" y2="600"/>
</svg>
