<?xml version="1.0" encoding="utf-8"?>
<!-- Generator: Adobe Illustrator 26.0.0, SVG Export Plug-In . SVG Version: 6.00 Build 0)  -->
<svg version="1.1" id="图层_1" xmlns="http://www.w3.org/2000/svg" xmlns:xlink="http://www.w3.org/1999/xlink" x="0px" y="0px"
	 viewBox="0 0 720 900" style="enable-background:new 0 0 720 900;" xml:space="preserve">
<style type="text/css">
	.st0{fill:none;stroke:#000000;stroke-width:48;stroke-linecap:round;stroke-linejoin:round;stroke-miterlimit:10;}
</style>
<path class="st0" d="M300,480v240c0,33.1,26.9,60,60,60h60"/>
<line class="st0" x1="300" y1="540" x2="420" y2="540"/>
<line class="st0" x1="300" y1="660" x2="420" y2="660"/>
<path class="st0" d="M480,480v240c0,33.1,26.9,60,60,60h60"/>
<line class="st0" x1="660" y1="480" x2="660" y2="780"/>
<line class="st0" x1="480" y1="540" x2="600" y2="540"/>
<line class="st0" x1="480" y1="660" x2="600" y2="660"/>
<path class="st0" d="M420,180c0,99.4,80.6,180,180,180h60"/>
<path class="st0" d="M600,180H360c-33.1,0-60,26.9-60,60v120c0,33.1,26.9,60,60,60h240c33.1,0,60-26.9,60-60V240
	C660,206.9,633.1,180,600,180z"/>
<line class="st0" x1="300" y1="60" x2="300" y2="120"/>
<line class="st0" x1="480" y1="60" x2="480" y2="120"/>
<line class="st0" x1="660" y1="60" x2="660" y2="120"/>
<path class="st0" d="M540,180c0,99.4-80.6,180-180,180h-60"/>
</svg>
