<?xml version="1.0" encoding="utf-8"?>
<!-- Generator: Adobe Illustrator 26.0.0, SVG Export Plug-In . SVG Version: 6.00 Build 0)  -->
<svg version="1.1" id="图层_1" xmlns="http://www.w3.org/2000/svg" xmlns:xlink="http://www.w3.org/1999/xlink" x="0px" y="0px"
	 viewBox="0 0 720 900" style="enable-background:new 0 0 720 900;" xml:space="preserve">
<style type="text/css">
	.st0{fill:none;stroke:#000000;stroke-width:48;stroke-linecap:round;stroke-linejoin:round;stroke-miterlimit:10;}
</style>
<path class="st0" d="M480,300h120c33.1,0,60,26.9,60,60v480"/>
<path class="st0" d="M540,840V60"/>
<path class="st0" d="M360,180V60"/>
<path class="st0" d="M360,600V420"/>
<path class="st0" d="M360,420L360,420c-33.1,0-60-26.9-60-60V240c0-33.1,26.9-60,60-60h0c33.1,0,60,26.9,60,60v120
	C420,393.1,393.1,420,360,420z"/>
<path class="st0" d="M360,840L360,840c-33.1,0-60-26.9-60-60V660c0-33.1,26.9-60,60-60h0c33.1,0,60,26.9,60,60v120
	C420,813.1,393.1,840,360,840z"/>
</svg>
