<?xml version="1.0" encoding="utf-8"?>
<!-- Generator: Adobe Illustrator 26.0.0, SVG Export Plug-In . SVG Version: 6.00 Build 0)  -->
<svg version="1.1" id="图层_1" xmlns="http://www.w3.org/2000/svg" xmlns:xlink="http://www.w3.org/1999/xlink" x="0px" y="0px"
	 viewBox="0 0 720 900" style="enable-background:new 0 0 720 900;" xml:space="preserve">
<style type="text/css">
	.st0{fill:none;stroke:#000000;stroke-width:48;stroke-linecap:round;stroke-linejoin:round;stroke-miterlimit:10;}
</style>
<path class="st0" d="M60,300v480c0,33.1,26.9,60,60,60h480c33.1,0,60-26.9,60-60V300"/>
<path class="st0" d="M360,660c0,99.4,80.6,180,180,180"/>
<path class="st0" d="M360,60v600c0,99.4-80.6,180-180,180"/>
<line class="st0" x1="180" y1="120" x2="180" y2="60"/>
<line class="st0" x1="180" y1="240" x2="180" y2="300"/>
<line class="st0" x1="180" y1="420" x2="180" y2="720"/>
<path class="st0" d="M120,660l0.6-120.3c0-33,26.7-59.7,59.7-59.7s59.7,26.7,59.7,59.7V660"/>
<circle class="st0" cx="180" cy="180" r="60"/>
<circle class="st0" cx="180" cy="360" r="60"/>
<line class="st0" x1="539.7" y1="120" x2="539.7" y2="60"/>
<line class="st0" x1="539.7" y1="240" x2="539.7" y2="300"/>
<line class="st0" x1="539.7" y1="420" x2="539.7" y2="720"/>
<path class="st0" d="M479.7,660l0.6-120.3c0-33,26.7-59.7,59.7-59.7s59.7,26.7,59.7,59.7V660"/>
<circle class="st0" cx="539.7" cy="180" r="60"/>
<circle class="st0" cx="539.7" cy="360" r="60"/>
</svg>
