<?xml version="1.0" encoding="utf-8"?>
<!-- Generator: Adobe Illustrator 26.0.0, SVG Export Plug-In . SVG Version: 6.00 Build 0)  -->
<svg version="1.1" id="图层_1" xmlns="http://www.w3.org/2000/svg" xmlns:xlink="http://www.w3.org/1999/xlink" x="0px" y="0px"
	 viewBox="0 0 720 900" style="enable-background:new 0 0 720 900;" xml:space="preserve">
<style type="text/css">
	.st0{fill:none;stroke:#000000;stroke-width:48;stroke-linecap:round;stroke-linejoin:round;stroke-miterlimit:10;}
</style>
<line class="st0" x1="540" y1="60" x2="540" y2="120"/>
<line class="st0" x1="420" y1="240" x2="660" y2="240"/>
<path class="st0" d="M420,480h180c33.1,0,60,26.9,60,60v60c0,66.3-53.7,120-120,120H420"/>
<path class="st0" d="M480,180v180c0,33.1,26.9,60,60,60l0,0c33.1,0,60-26.9,60-60V180"/>
<path class="st0" d="M420,600c33.1,0,60,26.9,60,60v60c0,66.3,53.7,120,120,120h60"/>
<path class="st0" d="M660,120H420c-66.3,0-120,53.7-120,120v540c0,33.2-26.9,60-60,60"/>
</svg>
