<?xml version="1.0" encoding="utf-8"?>
<!-- Generator: Adobe Illustrator 26.0.0, SVG Export Plug-In . SVG Version: 6.00 Build 0)  -->
<svg version="1.1" id="图层_1" xmlns="http://www.w3.org/2000/svg" xmlns:xlink="http://www.w3.org/1999/xlink" x="0px" y="0px"
	 viewBox="0 0 720 900" style="enable-background:new 0 0 720 900;" xml:space="preserve">
<style type="text/css">
	.st0{fill:none;stroke:#000000;stroke-width:48;stroke-linecap:round;stroke-linejoin:round;stroke-miterlimit:10;}
</style>
<path class="st0" d="M480,60v240c0,33.1,26.9,60,60,60l0,0c33.1,0,60-26.9,60-60V60"/>
<line class="st0" x1="480" y1="120" x2="600" y2="120"/>
<path class="st0" d="M600,600H480c-33.1,0-60-26.9-60-60l0,0c0-33.1,26.9-60,60-60h120c33.1,0,60,26.9,60,60l0,0
	C660,573.1,633.1,600,600,600z"/>
<path class="st0" d="M660,780L660,780c0,33.1-26.9,60-60,60H480c-33.1,0-60-26.9-60-60l0,0c0-33.1,26.9-60,60-60l0,0
	c33.1,0,60-26.9,60-60V420"/>
<line class="st0" x1="300" y1="120" x2="360" y2="120"/>
<path class="st0" d="M360,60v300h-60v240h60v180c0,33.1-26.9,60-60,60"/>
</svg>
