<?xml version="1.0" encoding="utf-8"?>
<!-- Generator: Adobe Illustrator 26.0.0, SVG Export Plug-In . SVG Version: 6.00 Build 0)  -->
<svg version="1.1" id="图层_1" xmlns="http://www.w3.org/2000/svg" xmlns:xlink="http://www.w3.org/1999/xlink" x="0px" y="0px"
	 viewBox="0 0 720 900" style="enable-background:new 0 0 720 900;" xml:space="preserve">
<style type="text/css">
	.st0{fill:none;stroke:#000000;stroke-width:48;stroke-linecap:round;stroke-linejoin:round;stroke-miterlimit:10;}
</style>
<line class="st0" x1="300" y1="540" x2="600" y2="540"/>
<path class="st0" d="M300,720h240c33.1,0,60-26.9,60-60V480"/>
<path class="st0" d="M420,480v240c0,66.3,53.7,120,120,120h120"/>
<line class="st0" x1="480" y1="300" x2="480" y2="240"/>
<path class="st0" d="M600,420H360c-33.1,0-60-26.9-60-60v0c0-33.1,26.9-60,60-60h240c33.1,0,60,26.9,60,60v0
	C660,393.1,633.1,420,600,420z"/>
<line class="st0" x1="480" y1="120" x2="480" y2="60"/>
<path class="st0" d="M600,240H360c-33.1,0-60-26.9-60-60v0c0-33.1,26.9-60,60-60h240c33.1,0,60,26.9,60,60v0
	C660,213.1,633.1,240,600,240z"/>
</svg>
