<?xml version="1.0" encoding="utf-8"?>
<!-- Generator: Adobe Illustrator 26.0.0, SVG Export Plug-In . SVG Version: 6.00 Build 0)  -->
<svg version="1.1" id="图层_1" xmlns="http://www.w3.org/2000/svg" xmlns:xlink="http://www.w3.org/1999/xlink" x="0px" y="0px"
	 viewBox="0 0 720 900" style="enable-background:new 0 0 720 900;" xml:space="preserve">
<style type="text/css">
	.st0{fill:none;stroke:#000000;stroke-width:48;stroke-linecap:round;stroke-linejoin:round;stroke-miterlimit:10;}
</style>
<line class="st0" x1="420" y1="720" x2="660" y2="720"/>
<path class="st0" d="M420,780h180c33.1,0,60-26.9,60-60v-60"/>
<path class="st0" d="M480,660v120c0,33.1,26.9,60,60,60h120"/>
<path class="st0" d="M420,420c0-33.1,26.9-60,60-60h180"/>
<path class="st0" d="M480,480h120c33.1,0,60,26.9,60,60l0,0c0,33.1-26.9,60-60,60H480c-33.1,0-60-26.9-60-60l0,0
	C420,506.9,446.9,480,480,480z"/>
<line class="st0" x1="420" y1="540" x2="660" y2="540"/>
<line class="st0" x1="540" y1="360" x2="540" y2="300"/>
<line class="st0" x1="300" y1="540" x2="300" y2="840"/>
<path class="st0" d="M240,540h60c33.1,0,60-26.9,60-60"/>
<path class="st0" d="M240,420h60c33.1,0,60-26.9,60-60v-60"/>
</svg>
