<?xml version="1.0" encoding="utf-8"?>
<!-- Generator: Adobe Illustrator 26.0.0, SVG Export Plug-In . SVG Version: 6.00 Build 0)  -->
<svg version="1.1" id="图层_1" xmlns="http://www.w3.org/2000/svg" xmlns:xlink="http://www.w3.org/1999/xlink" x="0px" y="0px"
	 viewBox="0 0 720 900" style="enable-background:new 0 0 720 900;" xml:space="preserve">
<style type="text/css">
	.st0{fill:none;stroke:#000000;stroke-width:48;stroke-linecap:round;stroke-linejoin:round;stroke-miterlimit:10;}
</style>
<path class="st0" d="M360,120h240c33.1,0,60,26.9,60,60v180c0,33.1-26.9,60-60,60"/>
<path class="st0" d="M540,120v240c0,33.1-26.9,60-60,60"/>
<path class="st0" d="M420,120v240c0,33.1-26.9,60-60,60"/>
<path class="st0" d="M360,60v120c0,33.1-26.9,60-60,60"/>
<path class="st0" d="M419.7,600v180c0,33.1,26.9,60,60,60h120"/>
<path class="st0" d="M599.7,779.7c33.3,0.2,60.3-26.7,60.3-60V600c0-33.1-26.9-60-60-60"/>
<path class="st0" d="M359.7,779.7c-33.3,0.2-60.3-26.7-60.3-60V600c0-33.1,26.9-60,60-60"/>
<path class="st0" d="M480,540c33,0,59.7,26.7,59.7,59.7v180"/>
</svg>
