<?xml version="1.0" encoding="utf-8"?>
<!-- Generator: Adobe Illustrator 26.0.0, SVG Export Plug-In . SVG Version: 6.00 Build 0)  -->
<svg version="1.1" id="图层_1" xmlns="http://www.w3.org/2000/svg" xmlns:xlink="http://www.w3.org/1999/xlink" x="0px" y="0px"
	 viewBox="0 0 720 900" style="enable-background:new 0 0 720 900;" xml:space="preserve">
<style type="text/css">
	.st0{fill:none;stroke:#000000;stroke-width:48;stroke-linecap:round;stroke-linejoin:round;stroke-miterlimit:10;}
</style>
<line class="st0" x1="360" y1="300" x2="360" y2="540"/>
<path class="st0" d="M480,300c0,33.1,26.9,60,60,60h60c33.1,0,60,26.9,60,60v120"/>
<line class="st0" x1="540" y1="540" x2="540" y2="360"/>
<path class="st0" d="M480,660c33.1,0,60,26.8,60,60v60"/>
<line class="st0" x1="300" y1="660" x2="300" y2="780"/>
<line class="st0" x1="660" y1="660" x2="660" y2="780"/>
<path class="st0" d="M360,660v120c0,33.1,26.9,60,60,60h180"/>
<line class="st0" x1="300" y1="360" x2="420" y2="360"/>
<line class="st0" x1="300" y1="420" x2="420" y2="420"/>
<line class="st0" x1="300" y1="480" x2="420" y2="480"/>
</svg>
