<?xml version="1.0" encoding="utf-8"?>
<!-- Generator: Adobe Illustrator 26.0.0, SVG Export Plug-In . SVG Version: 6.00 Build 0)  -->
<svg version="1.1" id="图层_1" xmlns="http://www.w3.org/2000/svg" xmlns:xlink="http://www.w3.org/1999/xlink" x="0px" y="0px"
	 viewBox="0 0 720 900" style="enable-background:new 0 0 720 900;" xml:space="preserve">
<style type="text/css">
	.st0{fill:none;stroke:#000000;stroke-width:48;stroke-linecap:round;stroke-linejoin:round;stroke-miterlimit:10;}
</style>
<line class="st0" x1="360" y1="180" x2="600" y2="180"/>
<path class="st0" d="M480,120v180"/>
<path class="st0" d="M540,420v-60c0-33.1-26.9-60-60-60s-60,26.9-60,60v60"/>
<path class="st0" d="M600,480H360c-33.1,0-60-26.9-60-60V120c0-33.1,26.9-60,60-60h240c33.1,0,60,26.9,60,60v300
	C660,453.1,633.1,480,600,480z"/>
<path class="st0" d="M480,600c33.1,0,60,26.8,60,60v60"/>
<line class="st0" x1="300" y1="660" x2="300" y2="780"/>
<line class="st0" x1="660" y1="660" x2="660" y2="780"/>
<path class="st0" d="M360,600v120c0,66.3,53.7,120,120,120h120"/>
</svg>
