<?xml version="1.0" encoding="utf-8"?>
<!-- Generator: Adobe Illustrator 26.0.0, SVG Export Plug-In . SVG Version: 6.00 Build 0)  -->
<svg version="1.1" id="图层_1" xmlns="http://www.w3.org/2000/svg" xmlns:xlink="http://www.w3.org/1999/xlink" x="0px" y="0px"
	 viewBox="0 0 720 900" style="enable-background:new 0 0 720 900;" xml:space="preserve">
<style type="text/css">
	.st0{fill:none;stroke:#000000;stroke-width:48;stroke-linecap:round;stroke-linejoin:round;stroke-miterlimit:10;}
</style>
<line class="st0" x1="240" y1="420" x2="480" y2="420"/>
<path class="st0" d="M360,360v120"/>
<path class="st0" d="M420,540c0-33.1-26.9-60-60-60s-60,26.9-60,60"/>
<path class="st0" d="M480,600H240c-33.1,0-60-26.9-60-60V360c0-33.1,26.9-60,60-60h240c33.1,0,60,26.9,60,60v180
	C540,573.1,513.1,600,480,600z"/>
<path class="st0" d="M240,660v120c0,33.1,26.9,60,60,60h180"/>
<path class="st0" d="M420,660c33.1,0,60,26.8,60,60v60"/>
<path class="st0" d="M600,780c33.1,0,60-26.9,60-60s-26.9-60-60-60"/>
<path class="st0" d="M120,660c-33.1,0-60,26.9-60,60s26.9,60,60,60"/>
</svg>
