<?xml version="1.0" encoding="utf-8"?>
<!-- Generator: Adobe Illustrator 26.0.0, SVG Export Plug-In . SVG Version: 6.00 Build 0)  -->
<svg version="1.1" id="图层_1" xmlns="http://www.w3.org/2000/svg" xmlns:xlink="http://www.w3.org/1999/xlink" x="0px" y="0px"
	 viewBox="0 0 720 900" style="enable-background:new 0 0 720 900;" xml:space="preserve">
<style type="text/css">
	.st0{fill:none;stroke:#000000;stroke-width:48;stroke-linecap:round;stroke-linejoin:round;stroke-miterlimit:10;}
</style>
<line class="st0" x1="480" y1="120" x2="480" y2="60"/>
<path class="st0" d="M300,420V180c0-33.1,26.9-60,60-60h240c33.1,0,60,26.9,60,60v240c0,33.1-26.9,60-60,60H360
	C326.9,480,300,453.1,300,420z"/>
<path class="st0" d="M420,660v120c0,33.1,26.9,60,60,60h60"/>
<path class="st0" d="M480,600c33.1,0,60,26.8,60,60v120"/>
<path class="st0" d="M600,780c33.1,0,60-26.9,60-60s-26.9-60-60-60"/>
<path class="st0" d="M360,660c-33.1,0-60,26.9-60,60s26.9,60,60,60"/>
<path class="st0" d="M420,120v180c0,66.2-53.8,120-120,120"/>
<path class="st0" d="M660,300l-240,0c-66.2,0-120-53.8-120-120"/>
<path class="st0" d="M540,120v240c0,66.2-53.8,120-120,120"/>
</svg>
