<?xml version="1.0" encoding="utf-8"?>
<!-- Generator: Adobe Illustrator 26.0.0, SVG Export Plug-In . SVG Version: 6.00 Build 0)  -->
<svg version="1.1" id="图层_1" xmlns="http://www.w3.org/2000/svg" xmlns:xlink="http://www.w3.org/1999/xlink" x="0px" y="0px"
	 viewBox="0 0 720 900" style="enable-background:new 0 0 720 900;" xml:space="preserve">
<style type="text/css">
	.st0{fill:none;stroke:#000000;stroke-width:48;stroke-linecap:round;stroke-linejoin:round;stroke-miterlimit:10;}
</style>
<line class="st0" x1="300" y1="480" x2="660" y2="480"/>
<line class="st0" x1="300" y1="120" x2="660" y2="120"/>
<line class="st0" x1="480" y1="240" x2="480" y2="60"/>
<circle class="st0" cx="480" cy="300" r="60"/>
<path class="st0" d="M600,360H360c-33.1,0-60-26.9-60-60v0c0-33.1,26.9-60,60-60h240c33.1,0,60,26.9,60,60v0
	C660,333.1,633.1,360,600,360z"/>
<path class="st0" d="M419.7,660v120.3c0,33.1,26.9,60,60,60H540"/>
<path class="st0" d="M599.7,780c33.3,0.2,60.3-26.7,60.3-60v-60c0-33.1-26.9-60-60-60"/>
<path class="st0" d="M359.7,780c-33.3,0.2-60.3-26.7-60.3-60v-60c0-33.1,26.9-60,60-60"/>
<path class="st0" d="M480,540.3c33,0,59.7,26.7,59.7,59.7v120.3"/>
</svg>
