<?xml version="1.0" encoding="utf-8"?>
<!-- Generator: Adobe Illustrator 26.0.0, SVG Export Plug-In . SVG Version: 6.00 Build 0)  -->
<svg version="1.1" id="图层_1" xmlns="http://www.w3.org/2000/svg" xmlns:xlink="http://www.w3.org/1999/xlink" x="0px" y="0px"
	 viewBox="0 0 720 900" style="enable-background:new 0 0 720 900;" xml:space="preserve">
<style type="text/css">
	.st0{fill:none;stroke:#000000;stroke-width:48;stroke-linecap:round;stroke-linejoin:round;stroke-miterlimit:10;}
</style>
<path class="st0" d="M660,420L660,420c0,33.1-26.9,60-60,60H360c-33.1,0-60-26.9-60-60l0,0c0-33.1,26.9-60,60-60h60
	c33.1,0,60-26.9,60-60V60"/>
<path class="st0" d="M600,300H360c-33.1,0-60-26.9-60-60v0c0-33.1,26.9-60,60-60h240c33.1,0,60,26.9,60,60v0
	C660,273.1,633.1,300,600,300z"/>
<line class="st0" x1="300" y1="120" x2="660" y2="120"/>
<line class="st0" x1="360" y1="240" x2="600" y2="240"/>
<path class="st0" d="M420,600v180c0,33.1,26.9,60,60,60h60"/>
<path class="st0" d="M480,600c33.1,0,60,26.8,60,60v60"/>
<path class="st0" d="M600,780c33.1,0,60-26.9,60-60s-26.9-60-60-60"/>
<path class="st0" d="M360,660c-33.1,0-60,26.9-60,60s26.9,60,60,60"/>
</svg>
