<?xml version="1.0" encoding="utf-8"?>
<!-- Generator: Adobe Illustrator 26.0.0, SVG Export Plug-In . SVG Version: 6.00 Build 0)  -->
<svg version="1.1" id="图层_1" xmlns="http://www.w3.org/2000/svg" xmlns:xlink="http://www.w3.org/1999/xlink" x="0px" y="0px"
	 viewBox="0 0 720 900" style="enable-background:new 0 0 720 900;" xml:space="preserve">
<style type="text/css">
	.st0{fill:none;stroke:#000000;stroke-width:48;stroke-linecap:round;stroke-linejoin:round;stroke-miterlimit:10;}
</style>
<path class="st0" d="M180,60v120c0,33.1-26.9,60-60,60H60"/>
<line class="st0" x1="60" y1="120" x2="300" y2="120"/>
<path class="st0" d="M180,180c0,33.1,26.9,60,60,60h60"/>
<path class="st0" d="M60,420c0-33.1,26.9-60,60-60h120c33.1,0,60,26.9,60,60"/>
<line class="st0" x1="60" y1="480" x2="300" y2="480"/>
<line class="st0" x1="60" y1="840" x2="300" y2="840"/>
<line class="st0" x1="120" y1="720" x2="120" y2="840"/>
<line class="st0" x1="240" y1="720" x2="240" y2="840"/>
<path class="st0" d="M240,540H120c-33.1,0-60,26.9-60,60v60c0,33.1,26.9,60,60,60h120c33.1,0,60-26.9,60-60v-60
	C300,566.9,273.1,540,240,540z"/>
<path class="st0" d="M480,660v120c0,33.1,26.9,60,60,60h120"/>
<path class="st0" d="M540,600c33.1,0,60,26.8,60,60v60"/>
<path class="st0" d="M540,120h60c33.1,0,60,26.9,60,60"/>
<path class="st0" d="M540,300c33.1,0,60,26.9,60,60v60c0,33.2,26.8,60,60,60"/>
<path class="st0" d="M480,480c33.1,0,60-26.8,60-60V240"/>
<path class="st0" d="M480,180c33.1,0,60-26.9,60-60V60"/>
<path class="st0" d="M420,180l0-60"/>
<path class="st0" d="M420,360l0-60"/>
<line class="st0" x1="420" y1="660" x2="420" y2="780"/>
<line class="st0" x1="660" y1="660" x2="660" y2="780"/>
</svg>
