<?xml version="1.0" encoding="utf-8"?>
<!-- Generator: Adobe Illustrator 26.0.0, SVG Export Plug-In . SVG Version: 6.00 Build 0)  -->
<svg version="1.1" id="图层_1" xmlns="http://www.w3.org/2000/svg" xmlns:xlink="http://www.w3.org/1999/xlink" x="0px" y="0px"
	 viewBox="0 0 720 900" style="enable-background:new 0 0 720 900;" xml:space="preserve">
<style type="text/css">
	.st0{fill:none;stroke:#000000;stroke-width:48;stroke-linecap:round;stroke-linejoin:round;stroke-miterlimit:10;}
</style>
<path class="st0" d="M480,300v420c0,66.3,53.7,120,120,120h60"/>
<path class="st0" d="M660,300v60c0,33.1-26.9,60-60,60H480"/>
<line class="st0" x1="60" y1="540" x2="660" y2="540"/>
<path class="st0" d="M360,840c0-66.3,53.7-120,120-120h180"/>
<line class="st0" x1="180" y1="360" x2="180" y2="840"/>
<path class="st0" d="M300,720H180c-66.3,0-120,53.7-120,120"/>
<path class="st0" d="M60,360c0,0,180,0,180,0c33.1,0,60-26.9,60-60"/>
</svg>
