<?xml version="1.0" encoding="utf-8"?>
<!-- Generator: Adobe Illustrator 26.0.0, SVG Export Plug-In . SVG Version: 6.00 Build 0)  -->
<svg version="1.1" id="图层_1" xmlns="http://www.w3.org/2000/svg" xmlns:xlink="http://www.w3.org/1999/xlink" x="0px" y="0px"
	 viewBox="0 0 720 900" style="enable-background:new 0 0 720 900;" xml:space="preserve">
<style type="text/css">
	.st0{fill:none;stroke:#000000;stroke-width:48;stroke-linecap:round;stroke-linejoin:round;stroke-miterlimit:10;}
</style>
<path class="st0" d="M660,300H420c-66.3,0-120-53.7-120-120"/>
<line class="st0" x1="660" y1="600" x2="600" y2="600"/>
<line class="st0" x1="660" y1="180" x2="660" y2="120"/>
<path class="st0" d="M420,660h-60c-33.1,0-60-26.9-60-60V480c0-33.1,26.9-60,60-60h60c33.1,0,60,26.9,60,60v120
	C480,633.1,453.1,660,420,660z"/>
<line class="st0" x1="300" y1="780" x2="480" y2="780"/>
<path class="st0" d="M600,60v720c0,33.2,26.8,60,60,60"/>
</svg>
