<?xml version="1.0" encoding="utf-8"?>
<!-- Generator: Adobe Illustrator 26.0.0, SVG Export Plug-In . SVG Version: 6.00 Build 0)  -->
<svg version="1.1" id="图层_1" xmlns="http://www.w3.org/2000/svg" xmlns:xlink="http://www.w3.org/1999/xlink" x="0px" y="0px"
	 viewBox="0 0 720 900" style="enable-background:new 0 0 720 900;" xml:space="preserve">
<style type="text/css">
	.st0{fill:none;stroke:#000000;stroke-width:48;stroke-linecap:round;stroke-linejoin:round;stroke-miterlimit:10;}
</style>
<path class="st0" d="M180,420v60c0,33.1-26.9,60-60,60s-60-26.9-60-60v-60"/>
<path class="st0" d="M180,300c-33.1,0-60,26.9-60,60v420c0,33.1-26.9,60-60,60"/>
<path class="st0" d="M180,600v60c0,33.1-26.9,60-60,60H60"/>
<path class="st0" d="M300,720h360"/>
<path class="st0" d="M360,540v60c0,33.1,26.9,60,60,60h120c33.1,0,60-26.9,60-60v-60"/>
<path class="st0" d="M480,660v180"/>
<path class="st0" d="M300,540h120c33.1,0,60-26.9,60-60v-60"/>
<path class="st0" d="M660,540H540c-33.1,0-60-26.9-60-60"/>
<path class="st0" d="M300,480h360"/>
<path class="st0" d="M360,780h240"/>
<path class="st0" d="M600,420H360c-33.1,0-60-26.9-60-60s26.9-60,60-60h240c33.1,0,60,26.9,60,60S633.1,420,600,420z"/>
<path class="st0" d="M480,300c33.1,0,60,26.9,60,60s-26.9,60-60,60s-60-26.9-60-60S446.9,300,480,300z"/>
</svg>
