<?xml version="1.0" encoding="utf-8"?>
<!-- Generator: Adobe Illustrator 26.0.0, SVG Export Plug-In . SVG Version: 6.00 Build 0)  -->
<svg version="1.1" id="图层_1" xmlns="http://www.w3.org/2000/svg" xmlns:xlink="http://www.w3.org/1999/xlink" x="0px" y="0px"
	 viewBox="0 0 720 900" style="enable-background:new 0 0 720 900;" xml:space="preserve">
<style type="text/css">
	.st0{fill:none;stroke:#000000;stroke-width:48;stroke-linecap:round;stroke-linejoin:round;stroke-miterlimit:10;}
</style>
<path class="st0" d="M420,300v-60c0-33.1-26.9-60-60-60l0,0c-33.1,0-60,26.9-60,60v60"/>
<line class="st0" x1="360" y1="60" x2="360" y2="360"/>
<line class="st0" x1="300" y1="420" x2="660" y2="420"/>
<path class="st0" d="M540,420c0,33.1,26.8,60,60,60h60"/>
<line class="st0" x1="300" y1="120" x2="420" y2="120"/>
<path class="st0" d="M660,300v-60c0-33.1-26.9-60-60-60l0,0c-33.1,0-60,26.9-60,60v60"/>
<line class="st0" x1="600" y1="60" x2="600" y2="360"/>
<line class="st0" x1="540" y1="120" x2="660" y2="120"/>
<path class="st0" d="M420,360v60c0,33.1-26.9,60-60,60h-60"/>
<line class="st0" x1="480" y1="60" x2="480" y2="180"/>
<line class="st0" x1="480" y1="240" x2="480" y2="360"/>
<path class="st0" d="M540,540c-33.1,0-60,26.9-60,60v240"/>
<path class="st0" d="M300,780h300c33.1,0,60-26.9,60-60"/>
<path class="st0" d="M360,600c0,33.1,26.9,60,60,60h120c33.1,0,60-26.9,60-60"/>
</svg>
