<?xml version="1.0" encoding="utf-8"?>
<!-- Generator: Adobe Illustrator 26.0.0, SVG Export Plug-In . SVG Version: 6.00 Build 0)  -->
<svg version="1.1" id="图层_1" xmlns="http://www.w3.org/2000/svg" xmlns:xlink="http://www.w3.org/1999/xlink" x="0px" y="0px"
	 viewBox="0 0 720 900" style="enable-background:new 0 0 720 900;" xml:space="preserve">
<style type="text/css">
	.st0{fill:none;stroke:#000000;stroke-width:48;stroke-linecap:round;stroke-linejoin:round;stroke-miterlimit:10;}
</style>
<path class="st0" d="M60,60v360c0,33.1,26.9,60,60,60h120"/>
<path class="st0" d="M420,60v120c0,33.1-26.9,60-60,60H60"/>
<line class="st0" x1="60" y1="360" x2="420" y2="360"/>
<line class="st0" x1="60" y1="120" x2="420" y2="120"/>
<line class="st0" x1="600" y1="60" x2="600" y2="180"/>
<line class="st0" x1="660" y1="120" x2="600" y2="120"/>
<path class="st0" d="M540,180h120v60"/>
<path class="st0" d="M540,240v120.1c0,66.2,53.7,119.9,119.9,120"/>
<path class="st0" d="M660,240c0,66.3-53.7,120-120,120"/>
<path class="st0" d="M300,240v180c0,33.1,26.9,60,60,60h60"/>
</svg>
