<?xml version="1.0" encoding="utf-8"?>
<!-- Generator: Adobe Illustrator 26.0.0, SVG Export Plug-In . SVG Version: 6.00 Build 0)  -->
<svg version="1.1" id="图层_1" xmlns="http://www.w3.org/2000/svg" xmlns:xlink="http://www.w3.org/1999/xlink" x="0px" y="0px"
	 viewBox="0 0 720 900" style="enable-background:new 0 0 720 900;" xml:space="preserve">
<style type="text/css">
	.st0{fill:none;stroke:#000000;stroke-width:48;stroke-linecap:round;stroke-linejoin:round;stroke-miterlimit:10;}
</style>
<path class="st0" d="M60,420l77.5-77.5c56.6-56.6,148.4-56.6,205.1,0L420,420"/>
<line class="st0" x1="120" y1="480" x2="360" y2="480"/>
<path class="st0" d="M60,540v120c0,33.1,26.9,60,60,60l0,0c33.1,0,60-26.9,60-60V540"/>
<line class="st0" x1="60" y1="600" x2="180" y2="600"/>
<path class="st0" d="M300,540v120c0,33.1,26.9,60,60,60l0,0c33.1,0,60-26.9,60-60V540"/>
<line class="st0" x1="300" y1="600" x2="420" y2="600"/>
<path class="st0" d="M180,840c-33.1,0-60-26.9-60-60c0,33.1-26.9,60-60,60"/>
<path class="st0" d="M420,840c-33.1,0-60-26.9-60-60c0,33.1-26.9,60-60,60"/>
<line class="st0" x1="600" y1="300" x2="600" y2="480"/>
<line class="st0" x1="660" y1="360" x2="600" y2="360"/>
<path class="st0" d="M540,480h120v120c0,66.3-53.7,120-120,120"/>
<path class="st0" d="M540,600v120.1c0,66.2,53.7,119.9,119.9,120"/>
</svg>
