<?xml version="1.0" encoding="utf-8"?>
<!-- Generator: Adobe Illustrator 26.0.0, SVG Export Plug-In . SVG Version: 6.00 Build 0)  -->
<svg version="1.1" id="图层_1" xmlns="http://www.w3.org/2000/svg" xmlns:xlink="http://www.w3.org/1999/xlink" x="0px" y="0px"
	 viewBox="0 0 720 900" style="enable-background:new 0 0 720 900;" xml:space="preserve">
<style type="text/css">
	.st0{fill:none;stroke:#000000;stroke-width:48;stroke-linecap:round;stroke-linejoin:round;stroke-miterlimit:10;}
</style>
<path class="st0" d="M420,420V300c0-33.1-26.9-60-60-60l0,0c-33.1,0-60,26.9-60,60v120"/>
<line class="st0" x1="360" y1="60" x2="360" y2="420"/>
<path class="st0" d="M300,60v60c0,33.1,26.9,60,60,60s60-26.9,60-60V60"/>
<path class="st0" d="M180,420V300c0-33.1-26.9-60-60-60l0,0c-33.1,0-60,26.9-60,60v120"/>
<line class="st0" x1="120" y1="60" x2="120" y2="420"/>
<path class="st0" d="M60,60v60c0,33.1,26.9,60,60,60s60-26.9,60-60V60"/>
<path class="st0" d="M120,840V600c0-66.3,53.7-120,120-120h0c66.3,0,120,53.7,120,120v240"/>
<path class="st0" d="M120,600h120c33.1,0,60,26.8,60,60"/>
<path class="st0" d="M120,720h120c33.1,0,60,26.8,60,60"/>
</svg>
