<?xml version="1.0" encoding="utf-8"?>
<!-- Generator: Adobe Illustrator 26.0.0, SVG Export Plug-In . SVG Version: 6.00 Build 0)  -->
<svg version="1.1" id="图层_1" xmlns="http://www.w3.org/2000/svg" xmlns:xlink="http://www.w3.org/1999/xlink" x="0px" y="0px"
	 viewBox="0 0 720 900" style="enable-background:new 0 0 720 900;" xml:space="preserve">
<style type="text/css">
	.st0{fill:none;stroke:#000000;stroke-width:48;stroke-linecap:round;stroke-linejoin:round;stroke-miterlimit:10;}
</style>
<line class="st0" x1="60" y1="120" x2="300" y2="120"/>
<line class="st0" x1="180" y1="60" x2="180" y2="120"/>
<rect x="60" y="180" class="st0" width="240" height="60"/>
<line class="st0" x1="60" y1="480" x2="300" y2="480"/>
<path class="st0" d="M420,240h180c33.1,0,60,26.9,60,60v60c0,66.3-53.7,120-120,120H420"/>
<line class="st0" x1="480" y1="240" x2="480" y2="60"/>
<path class="st0" d="M420,300c33.1,0,60,26.9,60,60v59c0,66.8,54.2,121,121,121h59"/>
<line class="st0" x1="480" y1="120" x2="660" y2="120"/>
<path class="st0" d="M120,420c-33.4,0-60.5-27.4-60-60.9c0.5-32.9,28-59.1,60.9-59.1H240c33.1,0,60,26.9,60,60v0l0,0
	c0,33.1-26.9,60-60,60h-60v120"/>
</svg>
