<?xml version="1.0" encoding="utf-8"?>
<!-- Generator: Adobe Illustrator 26.0.0, SVG Export Plug-In . SVG Version: 6.00 Build 0)  -->
<svg version="1.1" id="图层_1" xmlns="http://www.w3.org/2000/svg" xmlns:xlink="http://www.w3.org/1999/xlink" x="0px" y="0px"
	 viewBox="0 0 720 900" style="enable-background:new 0 0 720 900;" xml:space="preserve">
<style type="text/css">
	.st0{fill:none;stroke:#000000;stroke-width:48;stroke-linecap:round;stroke-linejoin:round;stroke-miterlimit:10;}
</style>
<path class="st0" d="M360,120L360,120c-33.1,0-60,26.9-60,60v120c0,33.1,26.9,60,60,60l0,0c33.1,0,60-26.9,60-60V180
	C420,146.9,393.1,120,360,120z"/>
<line class="st0" x1="300" y1="240" x2="420" y2="240"/>
<line class="st0" x1="360" y1="120" x2="360" y2="60"/>
<path class="st0" d="M240,480h240"/>
<path class="st0" d="M420,720V600c0-33.1-26.9-60-60-60"/>
<line class="st0" x1="600" y1="60" x2="600" y2="240"/>
<line class="st0" x1="660" y1="120" x2="600" y2="120"/>
<path class="st0" d="M540,240h120v240c0,66.3-53.7,120-120,120"/>
<path class="st0" d="M540,360v240.1c0,66.2,53.7,119.9,119.9,120"/>
<path class="st0" d="M360,420v240c0,33.1-26.9,60-60,60"/>
</svg>
