<?xml version="1.0" encoding="utf-8"?>
<!-- Generator: Adobe Illustrator 26.0.0, SVG Export Plug-In . SVG Version: 6.00 Build 0)  -->
<svg version="1.1" id="图层_1" xmlns="http://www.w3.org/2000/svg" xmlns:xlink="http://www.w3.org/1999/xlink" x="0px" y="0px"
	 viewBox="0 0 720 900" style="enable-background:new 0 0 720 900;" xml:space="preserve">
<style type="text/css">
	.st0{fill:none;stroke:#000000;stroke-width:48;stroke-linecap:round;stroke-linejoin:round;stroke-miterlimit:10;}
</style>
<path class="st0" d="M420,420h180c33.1,0,60,26.9,60,60v120c0,66.3-53.7,120-120,120H420"/>
<path class="st0" d="M480,420V240"/>
<path class="st0" d="M480,300h180"/>
<path class="st0" d="M420,540c33.1,0,60,26.9,60,60v120c0,66.3,53.7,120,120,120h60"/>
<path class="st0" d="M60,360h240"/>
<path class="st0" d="M180,240v240"/>
<path class="st0" d="M60,600h240"/>
<path class="st0" d="M240,660c0,33.2-26.9,60-60,60s-60,26.8-60,60v60"/>
<path class="st0" d="M120,540v120c0,33.2,26.9,60,60,60s60,26.8,60,60v60"/>
<line class="st0" x1="60" y1="300" x2="120" y2="300"/>
<line class="st0" x1="60" y1="420" x2="120" y2="420"/>
<line class="st0" x1="240" y1="300" x2="300" y2="300"/>
<line class="st0" x1="240" y1="420" x2="300" y2="420"/>
</svg>
