<?xml version="1.0" encoding="utf-8"?>
<!-- Generator: Adobe Illustrator 26.0.0, SVG Export Plug-In . SVG Version: 6.00 Build 0)  -->
<svg version="1.1" id="图层_1" xmlns="http://www.w3.org/2000/svg" xmlns:xlink="http://www.w3.org/1999/xlink" x="0px" y="0px"
	 viewBox="0 0 720 900" style="enable-background:new 0 0 720 900;" xml:space="preserve">
<style type="text/css">
	.st0{fill:none;stroke:#000000;stroke-width:48;stroke-linecap:round;stroke-linejoin:round;stroke-miterlimit:10;}
</style>
<path class="st0" d="M660,240c0,33.1-26.9,60-60,60H480c-33.1,0-60,26.9-60,60v480"/>
<line class="st0" x1="480" y1="480" x2="660" y2="480"/>
<line class="st0" x1="600" y1="480" x2="600" y2="840"/>
<path class="st0" d="M60,300v180c0,33.1,26.9,60,60,60h180"/>
<line class="st0" x1="180" y1="300" x2="180" y2="540"/>
<line class="st0" x1="180" y1="600" x2="180" y2="840"/>
<path class="st0" d="M60,600v180c0,33.1,26.9,60,60,60h180"/>
<line class="st0" x1="120" y1="300" x2="120" y2="420"/>
<line class="st0" x1="240" y1="300" x2="240" y2="420"/>
<line class="st0" x1="120" y1="600" x2="120" y2="720"/>
<line class="st0" x1="240" y1="600" x2="240" y2="720"/>
</svg>
