<?xml version="1.0" encoding="utf-8"?>
<!-- Generator: Adobe Illustrator 26.0.0, SVG Export Plug-In . SVG Version: 6.00 Build 0)  -->
<svg version="1.1" id="图层_1" xmlns="http://www.w3.org/2000/svg" xmlns:xlink="http://www.w3.org/1999/xlink" x="0px" y="0px"
	 viewBox="0 0 720 900" style="enable-background:new 0 0 720 900;" xml:space="preserve">
<style type="text/css">
	.st0{fill:none;stroke:#000000;stroke-width:48;stroke-linecap:round;stroke-linejoin:round;stroke-miterlimit:10;}
</style>
<line class="st0" x1="180" y1="60" x2="540" y2="60"/>
<line class="st0" x1="60" y1="180" x2="660" y2="180"/>
<path class="st0" d="M60,480v-60c0-33.1,26.9-60,60-60h480c33.1,0,60,26.9,60,60v60"/>
<path class="st0" d="M480,840c33.1,0,60-26.9,60-60v-60c0-33.1-26.9-60-60-60H240"/>
<line class="st0" x1="600" y1="540" x2="120" y2="540"/>
<line class="st0" x1="240" y1="180" x2="240" y2="360"/>
<line class="st0" x1="480" y1="180" x2="480" y2="360"/>
<path class="st0" d="M240,480v240c0,66.2-53.8,120-120,120"/>
</svg>
