<?xml version="1.0" encoding="utf-8"?>
<!-- Generator: Adobe Illustrator 26.0.0, SVG Export Plug-In . SVG Version: 6.00 Build 0)  -->
<svg version="1.1" id="图层_1" xmlns="http://www.w3.org/2000/svg" xmlns:xlink="http://www.w3.org/1999/xlink" x="0px" y="0px"
	 viewBox="0 0 720 900" style="enable-background:new 0 0 720 900;" xml:space="preserve">
<style type="text/css">
	.st0{fill:none;stroke:#000000;stroke-width:48;stroke-linecap:round;stroke-linejoin:round;stroke-miterlimit:10;}
</style>
<path class="st0" d="M420,480v300c0,33.1,26.9,60,60,60h60"/>
<line class="st0" x1="420" y1="660" x2="540" y2="660"/>
<path class="st0" d="M600,480v300c0,33.1,26.9,60,60,60"/>
<line class="st0" x1="600" y1="660" x2="660" y2="660"/>
<path class="st0" d="M540,60L540,60c-66.3,0-120,53.7-120,120v120c0,66.3,53.7,120,120,120h0c66.3,0,120-53.7,120-120V180
	C660,113.7,606.3,60,540,60z"/>
<line class="st0" x1="480" y1="240" x2="600" y2="240"/>
</svg>
