<?xml version="1.0" encoding="utf-8"?>
<!-- Generator: Adobe Illustrator 26.0.0, SVG Export Plug-In . SVG Version: 6.00 Build 0)  -->
<svg version="1.1" id="图层_1" xmlns="http://www.w3.org/2000/svg" xmlns:xlink="http://www.w3.org/1999/xlink" x="0px" y="0px"
	 viewBox="0 0 720 900" style="enable-background:new 0 0 720 900;" xml:space="preserve">
<style type="text/css">
	.st0{fill:none;stroke:#000000;stroke-width:48;stroke-linecap:round;stroke-linejoin:round;stroke-miterlimit:10;}
</style>
<path class="st0" d="M420,480V60h60c99.4,0,180,80.6,180,180v120c0,66.3-53.7,120-120,120"/>
<line class="st0" x1="420" y1="240" x2="600" y2="240"/>
<line class="st0" x1="420" y1="360" x2="600" y2="360"/>
<line class="st0" x1="120" y1="240" x2="240" y2="240"/>
<path class="st0" d="M180,420L180,420c-66.3,0-120-53.7-120-120V180c0-66.3,53.7-120,120-120l0,0c66.3,0,120,53.7,120,120v120
	C300,366.3,246.3,420,180,420z"/>
</svg>
