<?xml version="1.0" encoding="utf-8"?>
<!-- Generator: Adobe Illustrator 26.0.0, SVG Export Plug-In . SVG Version: 6.00 Build 0)  -->
<svg version="1.1" id="图层_1" xmlns="http://www.w3.org/2000/svg" xmlns:xlink="http://www.w3.org/1999/xlink" x="0px" y="0px"
	 viewBox="0 0 720 900" style="enable-background:new 0 0 720 900;" xml:space="preserve">
<style type="text/css">
	.st0{fill:none;stroke:#000000;stroke-width:48;stroke-linecap:round;stroke-linejoin:round;stroke-miterlimit:10;}
</style>
<path class="st0" d="M300,540h300c33.1,0,60,26.9,60,60v180c0,33.1-26.9,60-60,60"/>
<path class="st0" d="M540,540v240c0,33.1-26.9,60-60,60"/>
<path class="st0" d="M420,540v240c0,33.1-26.9,60-60,60"/>
<path class="st0" d="M300,420v240c0,33.1-26.9,60-60,60"/>
<line class="st0" x1="240" y1="420" x2="660" y2="420"/>
<path class="st0" d="M480,300h-60c-66.3,0-120-53.7-120-120v0c0-66.3,53.7-120,120-120h60c66.3,0,120,53.7,120,120v0
	C600,246.3,546.3,300,480,300z"/>
<line class="st0" x1="360" y1="180" x2="540" y2="180"/>
</svg>
