<?xml version="1.0" encoding="utf-8"?>
<!-- Generator: Adobe Illustrator 26.0.0, SVG Export Plug-In . SVG Version: 6.00 Build 0)  -->
<svg version="1.1" id="图层_1" xmlns="http://www.w3.org/2000/svg" xmlns:xlink="http://www.w3.org/1999/xlink" x="0px" y="0px"
	 viewBox="0 0 720 900" style="enable-background:new 0 0 720 900;" xml:space="preserve">
<style type="text/css">
	.st0{fill:none;stroke:#000000;stroke-width:48;stroke-linecap:round;stroke-linejoin:round;stroke-miterlimit:10;}
</style>
<path class="st0" d="M300,60v360c0,33.1,26.9,60,60,60h120"/>
<path class="st0" d="M660,60v120c0,33.1-26.9,60-60,60H300"/>
<path class="st0" d="M540,240v180c0,66.3,53.7,120,120,120"/>
<line class="st0" x1="300" y1="360" x2="660" y2="360"/>
<line class="st0" x1="300" y1="120" x2="660" y2="120"/>
<path class="st0" d="M540,840H420c-66.3,0-120-53.7-120-120v0c0-66.3,53.7-120,120-120h120c66.3,0,120,53.7,120,120v0
	C660,786.3,606.3,840,540,840z"/>
<line class="st0" x1="420" y1="720" x2="540" y2="720"/>
</svg>
