<?xml version="1.0" encoding="utf-8"?>
<!-- Generator: Adobe Illustrator 26.0.0, SVG Export Plug-In . SVG Version: 6.00 Build 0)  -->
<svg version="1.1" id="图层_1" xmlns="http://www.w3.org/2000/svg" xmlns:xlink="http://www.w3.org/1999/xlink" x="0px" y="0px"
	 viewBox="0 0 720 900" style="enable-background:new 0 0 720 900;" xml:space="preserve">
<style type="text/css">
	.st0{fill:none;stroke:#000000;stroke-width:48;stroke-linecap:round;stroke-linejoin:round;stroke-miterlimit:10;}
</style>
<path class="st0" d="M480,240h120"/>
<path class="st0" d="M540,840V480"/>
<path class="st0" d="M420,480h240"/>
<path class="st0" d="M660,600c0,33.2-26.8,60-60,60h-60"/>
<path class="st0" d="M420,780c0,33.2,26.8,60,60,60h180"/>
<path class="st0" d="M420,660v120c0,33.2-26.9,60-60,60"/>
<path class="st0" d="M540,420L540,420c-66.3,0-120-53.7-120-120V180c0-66.3,53.7-120,120-120h0c66.3,0,120,53.7,120,120v120
	C660,366.3,606.3,420,540,420z"/>
</svg>
