<?xml version="1.0" encoding="utf-8"?>
<!-- Generator: Adobe Illustrator 26.0.0, SVG Export Plug-In . SVG Version: 6.00 Build 0)  -->
<svg version="1.1" id="图层_1" xmlns="http://www.w3.org/2000/svg" xmlns:xlink="http://www.w3.org/1999/xlink" x="0px" y="0px"
	 viewBox="0 0 720 900" style="enable-background:new 0 0 720 900;" xml:space="preserve">
<style type="text/css">
	.st0{fill:none;stroke:#000000;stroke-width:48;stroke-linecap:round;stroke-linejoin:round;stroke-miterlimit:10;}
</style>
<line class="st0" x1="60" y1="420" x2="420" y2="420"/>
<line class="st0" x1="240" y1="360" x2="240" y2="420"/>
<path class="st0" d="M360,600H120c-33.1,0-60-26.9-60-60l0,0c0-33.1,26.9-60,60-60h240c33.1,0,60,26.9,60,60l0,0
	C420,573.1,393.1,600,360,600z"/>
<line class="st0" x1="240" y1="600" x2="240" y2="840"/>
<path class="st0" d="M60,840v-60c0-33.1,26.9-60,60-60h60"/>
<path class="st0" d="M420,840v-60c0-33.1-26.9-60-60-60h-60"/>
<path class="st0" d="M300,300H180c-66.3,0-120-53.7-120-120l0,0c0-66.3,53.7-120,120-120h120c66.3,0,120,53.7,120,120l0,0
	C420,246.3,366.3,300,300,300z"/>
<line class="st0" x1="180" y1="180" x2="300" y2="180"/>
</svg>
