<?xml version="1.0" encoding="utf-8"?>
<!-- Generator: Adobe Illustrator 26.0.0, SVG Export Plug-In . SVG Version: 6.00 Build 0)  -->
<svg version="1.1" id="图层_1" xmlns="http://www.w3.org/2000/svg" xmlns:xlink="http://www.w3.org/1999/xlink" x="0px" y="0px"
	 viewBox="0 0 720 900" style="enable-background:new 0 0 720 900;" xml:space="preserve">
<style type="text/css">
	.st0{fill:none;stroke:#000000;stroke-width:48;stroke-linecap:round;stroke-linejoin:round;stroke-miterlimit:10;}
</style>
<path class="st0" d="M420,180c0,33.1,26.9,60,60,60h180"/>
<path class="st0" d="M420,60c0,33.1,26.9,60,60,60h180"/>
<path class="st0" d="M540,120v180c0,66.3-53.7,120-120,120"/>
<path class="st0" d="M600,300v60c0,33.1,26.9,60,60,60"/>
<path class="st0" d="M60,360c0,33.1,26.9,60,60,60h180"/>
<line class="st0" x1="120" y1="360" x2="300" y2="360"/>
<path class="st0" d="M300,60v180c0,33.1-26.9,60-60,60H120c-33.1,0-60-26.9-60-60V60"/>
<line class="st0" x1="60" y1="180" x2="300" y2="180"/>
<line class="st0" x1="120" y1="60" x2="240" y2="60"/>
<line class="st0" x1="60" y1="840" x2="660" y2="840"/>
<path class="st0" d="M480,780H240c-66.3,0-120-53.7-120-120v0c0-66.3,53.7-120,120-120h240c66.3,0,120,53.7,120,120v0
	C600,726.3,546.3,780,480,780z"/>
<line class="st0" x1="240" y1="660" x2="480" y2="660"/>
</svg>
