<?xml version="1.0" encoding="utf-8"?>
<!-- Generator: Adobe Illustrator 26.0.0, SVG Export Plug-In . SVG Version: 6.00 Build 0)  -->
<svg version="1.1" id="图层_1" xmlns="http://www.w3.org/2000/svg" xmlns:xlink="http://www.w3.org/1999/xlink" x="0px" y="0px"
	 viewBox="0 0 720 900" style="enable-background:new 0 0 720 900;" xml:space="preserve">
<style type="text/css">
	.st0{fill:none;stroke:#000000;stroke-width:48;stroke-linecap:round;stroke-linejoin:round;stroke-miterlimit:10;}
</style>
<path class="st0" d="M540,180H180c-33.1,0-60-26.9-60-60v0c0-33.1,26.9-60,60-60h360c33.1,0,60,26.9,60,60v0
	C600,153.1,573.1,180,540,180z"/>
<path class="st0" d="M600,240L600,240c0,33.1-26.9,60-60,60H180c-33.1,0-60-26.9-60-60v0"/>
<path class="st0" d="M600,360L600,360c0,33.1-26.9,60-60,60H180c-33.1,0-60-26.9-60-60v0"/>
<line class="st0" x1="240" y1="120" x2="480" y2="120"/>
<line class="st0" x1="300" y1="180" x2="300" y2="420"/>
<line class="st0" x1="420" y1="180" x2="420" y2="420"/>
<path class="st0" d="M60,540h60c66.3,0,120-53.7,120-120"/>
<path class="st0" d="M660,540h-60c-66.3,0-120-53.7-120-120"/>
<line class="st0" x1="180" y1="660" x2="540" y2="660"/>
<line class="st0" x1="360" y1="540" x2="360" y2="840"/>
<line class="st0" x1="480" y1="600" x2="480" y2="540"/>
<line class="st0" x1="240" y1="600" x2="240" y2="540"/>
<path class="st0" d="M240,720v60c0,33.1-26.9,60-60,60"/>
<path class="st0" d="M480,720v60c0,33.1,26.9,60,60,60"/>
</svg>
