<?xml version="1.0" encoding="utf-8"?>
<!-- Generator: Adobe Illustrator 26.0.0, SVG Export Plug-In . SVG Version: 6.00 Build 0)  -->
<svg version="1.1" id="图层_1" xmlns="http://www.w3.org/2000/svg" xmlns:xlink="http://www.w3.org/1999/xlink" x="0px" y="0px"
	 viewBox="0 0 720 900" style="enable-background:new 0 0 720 900;" xml:space="preserve">
<style type="text/css">
	.st0{fill:none;stroke:#000000;stroke-width:48;stroke-linecap:round;stroke-linejoin:round;stroke-miterlimit:10;}
</style>
<path class="st0" d="M300,719.5h300c33.1,0,60,26.9,60,60"/>
<path class="st0" d="M300,360h300c33.1,0,60,26.9,60,60"/>
<path class="st0" d="M420,240.5c33.1,0,60,26.4,60,59.5l0,0v419.5"/>
<path class="st0" d="M360,240c-33.1,0-60,26.9-60,60v480"/>
<line class="st0" x1="300" y1="600.5" x2="600" y2="600.5"/>
<line class="st0" x1="300" y1="480.5" x2="600" y2="480.5"/>
<line class="st0" x1="420" y1="120" x2="540" y2="120"/>
<path class="st0" d="M600,180H360c-33.1,0-60-26.9-60-60v0c0-33.1,26.9-60,60-60h240c33.1,0,60,26.9,60,60v0
	C660,153.1,633.1,180,600,180z"/>
</svg>
