<?xml version="1.0" encoding="utf-8"?>
<!-- Generator: Adobe Illustrator 26.0.0, SVG Export Plug-In . SVG Version: 6.00 Build 0)  -->
<svg version="1.1" id="图层_1" xmlns="http://www.w3.org/2000/svg" xmlns:xlink="http://www.w3.org/1999/xlink" x="0px" y="0px"
	 viewBox="0 0 720 900" style="enable-background:new 0 0 720 900;" xml:space="preserve">
<style type="text/css">
	.st0{fill:none;stroke:#000000;stroke-width:48;stroke-linecap:round;stroke-linejoin:round;stroke-miterlimit:10;}
</style>
<line class="st0" x1="360" y1="240" x2="360" y2="300"/>
<line class="st0" x1="60" y1="300" x2="660" y2="300"/>
<path class="st0" d="M120,360c0,33.1,26.9,60,60,60h60c33.1,0,60-26.9,60-60"/>
<line class="st0" x1="180" y1="360" x2="240" y2="360"/>
<path class="st0" d="M420,360c0,33.1,26.9,60,60,60h60c33.1,0,60-26.9,60-60"/>
<line class="st0" x1="480" y1="360" x2="540" y2="360"/>
<line class="st0" x1="120" y1="480" x2="600" y2="480"/>
<line class="st0" x1="120" y1="540" x2="600" y2="540"/>
<line class="st0" x1="60" y1="600" x2="660" y2="600"/>
<line class="st0" x1="240" y1="480" x2="240" y2="600"/>
<line class="st0" x1="480" y1="480" x2="480" y2="600"/>
<path class="st0" d="M360,780c66.3,0,120-53.7,120-120h0c66.3,0,120,53.7,120,120"/>
<path class="st0" d="M120,780c0-66.3,53.7-120,120-120l0,0v120c0,33.1,26.9,60,60,60h180"/>
<path class="st0" d="M540,180H180c-33.1,0-60-26.9-60-60v0c0-33.1,26.9-60,60-60h360c33.1,0,60,26.9,60,60v0
	C600,153.1,573.1,180,540,180z"/>
<line class="st0" x1="240" y1="120" x2="480" y2="120"/>
</svg>
