<?xml version="1.0" encoding="utf-8"?>
<!-- Generator: Adobe Illustrator 26.0.0, SVG Export Plug-In . SVG Version: 6.00 Build 0)  -->
<svg version="1.1" id="图层_1" xmlns="http://www.w3.org/2000/svg" xmlns:xlink="http://www.w3.org/1999/xlink" x="0px" y="0px"
	 viewBox="0 0 720 900" style="enable-background:new 0 0 720 900;" xml:space="preserve">
<style type="text/css">
	.st0{fill:none;stroke:#000000;stroke-width:48;stroke-linecap:round;stroke-linejoin:round;stroke-miterlimit:10;}
</style>
<path class="st0" d="M120,60v240c0,33.1,26.9,60,60,60h360c33.1,0,60-26.9,60-60V60"/>
<line class="st0" x1="120" y1="240" x2="600" y2="240"/>
<path class="st0" d="M240,60c0,33.1,26.9,60,60,60h300"/>
<path class="st0" d="M480,780c-66.2,0-120-53.8-120-120"/>
<path class="st0" d="M240,780c66.2,0,120-53.8,120-120V540"/>
<line class="st0" x1="360" y1="480" x2="360" y2="420"/>
<path class="st0" d="M120,660v120c0,33.1,26.9,60,60,60l300,0"/>
<path class="st0" d="M600,840c33.1,0,60-26.9,60-60V600c0-66.3-53.7-120-120-120H180c-66.3,0-120,53.7-120,120"/>
</svg>
