<?xml version="1.0" encoding="utf-8"?>
<!-- Generator: Adobe Illustrator 26.0.0, SVG Export Plug-In . SVG Version: 6.00 Build 0)  -->
<svg version="1.1" id="图层_1" xmlns="http://www.w3.org/2000/svg" xmlns:xlink="http://www.w3.org/1999/xlink" x="0px" y="0px"
	 viewBox="0 0 720 900" style="enable-background:new 0 0 720 900;" xml:space="preserve">
<style type="text/css">
	.st0{fill:none;stroke:#000000;stroke-width:48;stroke-linecap:round;stroke-linejoin:round;stroke-miterlimit:10;}
</style>
<path class="st0" d="M540,480H180c-33.1,0-60-26.9-60-60V300c0-33.1,26.9-60,60-60h360c33.1,0,60,26.9,60,60v120
	C600,453.1,573.1,480,540,480z"/>
<line class="st0" x1="360" y1="240" x2="360" y2="480"/>
<line class="st0" x1="240" y1="300" x2="240" y2="420"/>
<line class="st0" x1="480" y1="300" x2="480" y2="420"/>
<path class="st0" d="M180,540v240c0,33.1,26.9,60,60,60h240c33.1,0,60-26.9,60-60V540"/>
<line class="st0" x1="180" y1="720" x2="540" y2="720"/>
<path class="st0" d="M300,540c0,33.1,26.9,60,60,60h180"/>
<path class="st0" d="M300,60c0,66.3-53.7,120-120,120h-60"/>
<path class="st0" d="M420,60c0,66.3,53.7,120,120,120h60"/>
</svg>
