<?xml version="1.0" encoding="utf-8"?>
<!-- Generator: Adobe Illustrator 26.0.0, SVG Export Plug-In . SVG Version: 6.00 Build 0)  -->
<svg version="1.1" id="图层_1" xmlns="http://www.w3.org/2000/svg" xmlns:xlink="http://www.w3.org/1999/xlink" x="0px" y="0px"
	 viewBox="0 0 720 900" style="enable-background:new 0 0 720 900;" xml:space="preserve">
<style type="text/css">
	.st0{fill:none;stroke:#000000;stroke-width:48;stroke-linecap:round;stroke-linejoin:round;stroke-miterlimit:10;}
</style>
<path class="st0" d="M360,420H120c-33.1,0-60-26.9-60-60v-60c0-33.1,26.9-60,60-60h240c33.1,0,60,26.9,60,60v60
	C420,393.1,393.1,420,360,420z"/>
<line class="st0" x1="240" y1="240" x2="240" y2="420"/>
<line class="st0" x1="180" y1="300" x2="180" y2="360"/>
<line class="st0" x1="300" y1="300" x2="300" y2="360"/>
<path class="st0" d="M120,540v240c0,33.1,26.9,60,60,60h120c33.1,0,60-26.9,60-60V540"/>
<line class="st0" x1="120" y1="720" x2="360" y2="720"/>
<path class="st0" d="M240,540c0,33.1,26.9,60,60,60h60"/>
<path class="st0" d="M60,180h60c33.1,0,60-26.9,60-60V60"/>
<path class="st0" d="M420,180h-60c-33.1,0-60-26.9-60-60V60"/>
</svg>
