<?xml version="1.0" encoding="utf-8"?>
<!-- Generator: Adobe Illustrator 26.0.0, SVG Export Plug-In . SVG Version: 6.00 Build 0)  -->
<svg version="1.1" id="图层_1" xmlns="http://www.w3.org/2000/svg" xmlns:xlink="http://www.w3.org/1999/xlink" x="0px" y="0px"
	 viewBox="0 0 720 900" style="enable-background:new 0 0 720 900;" xml:space="preserve">
<style type="text/css">
	.st0{fill:none;stroke:#000000;stroke-width:48;stroke-linecap:round;stroke-linejoin:round;stroke-miterlimit:10;}
</style>
<path class="st0" d="M480,480h120c33.1,0,60-26.9,60-60v-60c0-33.1-26.9-60-60-60H420"/>
<path class="st0" d="M420,840V360"/>
<path class="st0" d="M480,600h180v60c0,99.4-80.6,180-180,180"/>
<path class="st0" d="M480,660c0,99.4,80.6,180,180,180"/>
<line class="st0" x1="120" y1="480" x2="240" y2="480"/>
<line class="st0" x1="120" y1="660" x2="240" y2="660"/>
<path class="st0" d="M120,360v420c0,33.1-26.9,60-60,60"/>
<path class="st0" d="M120,240c0,33.2,26.9,60,60,60h60c33.1,0,60,26.9,60,60v420c0,33.1-26.9,60-60,60"/>
</svg>
