<?xml version="1.0" encoding="utf-8"?>
<!-- Generator: Adobe Illustrator 26.0.0, SVG Export Plug-In . SVG Version: 6.00 Build 0)  -->
<svg version="1.1" id="图层_1" xmlns="http://www.w3.org/2000/svg" xmlns:xlink="http://www.w3.org/1999/xlink" x="0px" y="0px"
	 viewBox="0 0 720 900" style="enable-background:new 0 0 720 900;" xml:space="preserve">
<style type="text/css">
	.st0{fill:none;stroke:#000000;stroke-width:48;stroke-linecap:round;stroke-linejoin:round;stroke-miterlimit:10;}
</style>
<line class="st0" x1="360" y1="180" x2="360" y2="540"/>
<path class="st0" d="M480,300H240c-33.1,0-60-26.9-60-60l0,0c0-33.1,26.9-60,60-60h240c33.1,0,60,26.9,60,60l0,0
	C540,273.1,513.1,300,480,300z"/>
<path class="st0" d="M180,540c0-66.2,53.8-120,120-120h120c66.2,0,120,53.8,120,120"/>
<line class="st0" x1="180" y1="240" x2="540" y2="240"/>
<line class="st0" x1="120" y1="360" x2="600" y2="360"/>
</svg>
