<?xml version="1.0" encoding="utf-8"?>
<!-- Generator: Adobe Illustrator 26.0.0, SVG Export Plug-In . SVG Version: 6.00 Build 0)  -->
<svg version="1.1" id="图层_1" xmlns="http://www.w3.org/2000/svg" xmlns:xlink="http://www.w3.org/1999/xlink" x="0px" y="0px"
	 viewBox="0 0 720 900" style="enable-background:new 0 0 720 900;" xml:space="preserve">
<style type="text/css">
	.st0{fill:none;stroke:#000000;stroke-width:48;stroke-linecap:round;stroke-linejoin:round;stroke-miterlimit:10;}
</style>
<path class="st0" d="M660,540V360c0-33.1-26.9-60-60-60l0,0c-33.1,0-60,26.9-60,60v180"/>
<line class="st0" x1="600" y1="60" x2="600" y2="600"/>
<path class="st0" d="M540,120v60c0,33.1,26.9,60,60,60s60-26.9,60-60v-60"/>
<path class="st0" d="M180,540V360c0-33.1-26.9-60-60-60l0,0c-33.1,0-60,26.9-60,60v180"/>
<line class="st0" x1="120" y1="60" x2="120" y2="600"/>
<path class="st0" d="M60,120v60c0,33.1,26.9,60,60,60s60-26.9,60-60v-60"/>
<path class="st0" d="M240,240c0,33.1,26.9,60,60,60h120c33.1,0,60,26.9,60,60v60"/>
<path class="st0" d="M240,60h180c33.1,0,60,26.9,60,60l0,0c0,33.1-26.9,60-60,60l0,0c-33.1,0-60,26.9-60,60v360"/>
<path class="st0" d="M240,600v-60c0-33.1,26.9-60,60-60h120"/>
</svg>
