<?xml version="1.0" encoding="utf-8"?>
<!-- Generator: Adobe Illustrator 26.0.0, SVG Export Plug-In . SVG Version: 6.00 Build 0)  -->
<svg version="1.1" id="图层_1" xmlns="http://www.w3.org/2000/svg" xmlns:xlink="http://www.w3.org/1999/xlink" x="0px" y="0px"
	 viewBox="0 0 720 900" style="enable-background:new 0 0 720 900;" xml:space="preserve">
<style type="text/css">
	.st0{fill:none;stroke:#000000;stroke-width:48;stroke-linecap:round;stroke-linejoin:round;stroke-miterlimit:10;}
</style>
<path class="st0" d="M420,300c0-66.3-53.7-120-120-120s-120,53.7-120,120"/>
<path class="st0" d="M300,120v240"/>
<path class="st0" d="M180,360h240"/>
<path class="st0" d="M240,360v60"/>
<path class="st0" d="M360,360v60"/>
<path class="st0" d="M60,60h360"/>
<path class="st0" d="M420,480H180c-33.1,0-60-26.9-60-60V60"/>
<path class="st0" d="M540,240h120v120c0,66.3-53.7,120-120,120"/>
<path class="st0" d="M540,300v60l0,0c0,66.2,53.8,120,120,120"/>
<path class="st0" d="M660,180v-60c0-33.1-26.9-60-60-60l0,0c-33.1,0-60,26.9-60,60v60"/>
</svg>
