<?xml version="1.0" encoding="utf-8"?>
<!-- Generator: Adobe Illustrator 26.0.0, SVG Export Plug-In . SVG Version: 6.00 Build 0)  -->
<svg version="1.1" id="图层_1" xmlns="http://www.w3.org/2000/svg" xmlns:xlink="http://www.w3.org/1999/xlink" x="0px" y="0px"
	 viewBox="0 0 720 900" style="enable-background:new 0 0 720 900;" xml:space="preserve">
<style type="text/css">
	.st0{fill:none;stroke:#000000;stroke-width:48;stroke-linecap:round;stroke-linejoin:round;stroke-miterlimit:10;}
</style>
<path class="st0" d="M660,180v-60c0-33.1-26.9-60-60-60H480c-33.1,0-60,26.9-60,60v60"/>
<path class="st0" d="M60,60h180c33.1,0,60,26.9,60,60l0,0c0,33.1-26.9,60-60,60H120c-33.1,0-60,26.9-60,60v180"/>
<line class="st0" x1="120" y1="300" x2="300" y2="300"/>
<path class="st0" d="M240,240v120c0,33.1,26.9,60,60,60"/>
<path class="st0" d="M180,240v120c0,33.1-26.9,60-60,60"/>
<line class="st0" x1="120" y1="360" x2="300" y2="360"/>
<path class="st0" d="M420,240h240v60c0,33.1-26.9,60-60,60H420"/>
<path class="st0" d="M480,300v60c0,33.1,26.9,60,60,60h120"/>
</svg>
