<?xml version="1.0" encoding="utf-8"?>
<!-- Generator: Adobe Illustrator 26.0.0, SVG Export Plug-In . SVG Version: 6.00 Build 0)  -->
<svg version="1.1" id="图层_1" xmlns="http://www.w3.org/2000/svg" xmlns:xlink="http://www.w3.org/1999/xlink" x="0px" y="0px"
	 viewBox="0 0 720 900" style="enable-background:new 0 0 720 900;" xml:space="preserve">
<style type="text/css">
	.st0{fill:none;stroke:#000000;stroke-width:48;stroke-linecap:round;stroke-linejoin:round;stroke-miterlimit:10;}
</style>
<path class="st0" d="M60,60v120.2"/>
<path class="st0" d="M60,300.2V480"/>
<path class="st0" d="M180,300.2V480"/>
<path class="st0" d="M120,480V60"/>
<path class="st0" d="M300,300h300c33.1,0,60,26.9,60,60v60c0,33.1-26.9,60-60,60"/>
<path class="st0" d="M540,300v120c0,33.1-26.9,60-60,60"/>
<path class="st0" d="M420,300v120c0,33.1-26.9,60-60,60"/>
<path class="st0" d="M300,240v120c0,33.1-26.9,60-60,60"/>
<path class="st0" d="M240,240h420"/>
<path class="st0" d="M360,120h180"/>
<path class="st0" d="M119.8,180c33.2,0.1,60.2-26.8,60.2-60V60"/>
<path class="st0" d="M540,180H360c-33.1,0-60-26.9-60-60v0c0-33.1,26.9-60,60-60h180c33.1,0,60,26.9,60,60v0
	C600,153.1,573.1,180,540,180z"/>
</svg>
