<?xml version="1.0" encoding="utf-8"?>
<!-- Generator: Adobe Illustrator 26.0.0, SVG Export Plug-In . SVG Version: 6.00 Build 0)  -->
<svg version="1.1" id="图层_1" xmlns="http://www.w3.org/2000/svg" xmlns:xlink="http://www.w3.org/1999/xlink" x="0px" y="0px"
	 viewBox="0 0 720 900" style="enable-background:new 0 0 720 900;" xml:space="preserve">
<style type="text/css">
	.st0{fill:none;stroke:#000000;stroke-width:48;stroke-linecap:round;stroke-linejoin:round;stroke-miterlimit:10;}
</style>
<path class="st0" d="M480,840c33.1,0,59.9-26.9,59.9-59.9V120"/>
<line class="st0" x1="600" y1="60" x2="600" y2="300"/>
<line class="st0" x1="660" y1="180" x2="540" y2="180"/>
<line class="st0" x1="660" y1="300" x2="660" y2="120"/>
<line class="st0" x1="300" y1="120" x2="300" y2="360"/>
<line class="st0" x1="300" y1="480" x2="300" y2="840"/>
<path class="st0" d="M360,361.2c32.6-0.7,58.8-27.3,58.8-60V120"/>
<line class="st0" x1="420" y1="480" x2="420" y2="840"/>
<line class="st0" x1="360" y1="840" x2="360" y2="60"/>
<path class="st0" d="M600,420h60v180c0,33.1-26.9,60-60,60"/>
<path class="st0" d="M600,540v240c0,33.1,26.9,60,60,60"/>
</svg>
