<?xml version="1.0" encoding="utf-8"?>
<!-- Generator: Adobe Illustrator 26.0.0, SVG Export Plug-In . SVG Version: 6.00 Build 0)  -->
<svg version="1.1" id="图层_1" xmlns="http://www.w3.org/2000/svg" xmlns:xlink="http://www.w3.org/1999/xlink" x="0px" y="0px"
	 viewBox="0 0 720 900" style="enable-background:new 0 0 720 900;" xml:space="preserve">
<style type="text/css">
	.st0{fill:none;stroke:#000000;stroke-width:48;stroke-linecap:round;stroke-linejoin:round;stroke-miterlimit:10;}
</style>
<path class="st0" d="M600,240c-33.1,0-60,26.9-60,60v360c0,33.1,26.9,60,60,60h60"/>
<path class="st0" d="M660,240v540c0,33.1-26.9,60-60,60h-60"/>
<line class="st0" x1="600" y1="600" x2="600" y2="540"/>
<line class="st0" x1="540" y1="480" x2="660" y2="480"/>
<line class="st0" x1="600" y1="420" x2="600" y2="360"/>
<path class="st0" d="M540,60c0,33.1,26.9,60,60,60h60"/>
<line class="st0" x1="300" y1="60" x2="300" y2="360"/>
<line class="st0" x1="300" y1="480" x2="300" y2="840"/>
<path class="st0" d="M360,361.2c32.6-0.7,58.8-27.3,58.8-60V60"/>
<line class="st0" x1="420" y1="480" x2="420" y2="840"/>
<line class="st0" x1="360" y1="840" x2="360" y2="60"/>
</svg>
