<?xml version="1.0" encoding="utf-8"?>
<!-- Generator: Adobe Illustrator 26.0.0, SVG Export Plug-In . SVG Version: 6.00 Build 0)  -->
<svg version="1.1" id="图层_1" xmlns="http://www.w3.org/2000/svg" xmlns:xlink="http://www.w3.org/1999/xlink" x="0px" y="0px"
	 viewBox="0 0 720 900" style="enable-background:new 0 0 720 900;" xml:space="preserve">
<style type="text/css">
	.st0{fill:none;stroke:#000000;stroke-width:48;stroke-linecap:round;stroke-linejoin:round;stroke-miterlimit:10;}
</style>
<path class="st0" d="M60,60v300"/>
<path class="st0" d="M60,480v360"/>
<path class="st0" d="M178.8,60v241.2c0,32.7-26.1,59.3-58.8,60"/>
<path class="st0" d="M180,480v360"/>
<path class="st0" d="M120,840V60"/>
<path class="st0" d="M240,180v120c0,33.1,26.9,60,60,60h120"/>
<path class="st0" d="M300,180h60c33.1,0,60-26.9,60-60V60"/>
<path class="st0" d="M420,480v180c0,33.1-26.9,60-60,60h-60c-33.1,0-60,26.9-60,60v60"/>
<path class="st0" d="M300,360V60"/>
<path class="st0" d="M300,600L300,600c-33.1,0-60-26.9-60-60v-60"/>
<path class="st0" d="M300,720V420"/>
</svg>
