<?xml version="1.0" encoding="utf-8"?>
<!-- Generator: Adobe Illustrator 26.0.0, SVG Export Plug-In . SVG Version: 6.00 Build 0)  -->
<svg version="1.1" id="图层_1" xmlns="http://www.w3.org/2000/svg" xmlns:xlink="http://www.w3.org/1999/xlink" x="0px" y="0px"
	 viewBox="0 0 720 900" style="enable-background:new 0 0 720 900;" xml:space="preserve">
<style type="text/css">
	.st0{fill:none;stroke:#000000;stroke-width:48;stroke-linecap:round;stroke-linejoin:round;stroke-miterlimit:10;}
</style>
<path class="st0" d="M180,720c0,66.3-53.7,120-120,120"/>
<path class="st0" d="M240,840c33.1,0,60-26.9,60-60v-60"/>
<path class="st0" d="M540,720c0,66.3,53.7,120,120,120"/>
<path class="st0" d="M480,840c-33.1,0-60-26.9-60-60v-60"/>
<path class="st0" d="M360,480v120c0,33.1-26.9,60-60,60H60"/>
<path class="st0" d="M540,420H180c-33.1,0-60-26.9-60-60v-60c0-33.1,26.9-60,60-60h360c33.1,0,60,26.9,60,60v60
	C600,393.1,573.1,420,540,420z"/>
<line class="st0" x1="360" y1="120" x2="360" y2="420"/>
<line class="st0" x1="240" y1="300" x2="240" y2="360"/>
<line class="st0" x1="480" y1="300" x2="480" y2="360"/>
<line class="st0" x1="120" y1="540" x2="300" y2="540"/>
<line class="st0" x1="420" y1="540" x2="600" y2="540"/>
<path class="st0" d="M120,120h420c33.1,0,60-26.9,60-60"/>
<path class="st0" d="M360,600c0,33.1,26.9,60,60,60h240"/>
</svg>
