<?xml version="1.0" encoding="utf-8"?>
<!-- Generator: Adobe Illustrator 26.0.0, SVG Export Plug-In . SVG Version: 6.00 Build 0)  -->
<svg version="1.1" id="图层_1" xmlns="http://www.w3.org/2000/svg" xmlns:xlink="http://www.w3.org/1999/xlink" x="0px" y="0px"
	 viewBox="0 0 720 900" style="enable-background:new 0 0 720 900;" xml:space="preserve">
<style type="text/css">
	.st0{fill:none;stroke:#000000;stroke-width:48;stroke-linecap:round;stroke-linejoin:round;stroke-miterlimit:10;}
</style>
<path class="st0" d="M60,180h120c33.1,0,60-26.9,60-60V60"/>
<line class="st0" x1="180" y1="300" x2="60" y2="300"/>
<path class="st0" d="M300,480v-60c0-33.1-26.9-60-60-60H60"/>
<path class="st0" d="M60,480h60c33.1,0,60-26.9,60-60V180"/>
<line class="st0" x1="60" y1="60" x2="300" y2="60"/>
<path class="st0" d="M420,180h120c33.1,0,60-26.9,60-60V60"/>
<line class="st0" x1="540" y1="300" x2="420" y2="300"/>
<path class="st0" d="M660,480v-60c0-33.1-26.9-60-60-60H420"/>
<path class="st0" d="M420,480h60c33.1,0,60-26.9,60-60V180"/>
<line class="st0" x1="420" y1="60" x2="660" y2="60"/>
</svg>
