<?xml version="1.0" encoding="utf-8"?>
<!-- Generator: Adobe Illustrator 26.0.0, SVG Export Plug-In . SVG Version: 6.00 Build 0)  -->
<svg version="1.1" id="图层_1" xmlns="http://www.w3.org/2000/svg" xmlns:xlink="http://www.w3.org/1999/xlink" x="0px" y="0px"
	 viewBox="0 0 720 900" style="enable-background:new 0 0 720 900;" xml:space="preserve">
<style type="text/css">
	.st0{fill:none;stroke:#000000;stroke-width:48;stroke-linecap:round;stroke-linejoin:round;stroke-miterlimit:10;}
</style>
<line class="st0" x1="360" y1="60" x2="360" y2="239.9"/>
<path class="st0" d="M120.2,239.9c33.1,0,59.8-26.8,59.8-59.9v-60c0-33.1,26.9-60,60-60h360"/>
<path class="st0" d="M600,240.1c-33.1,0-60-26.9-60-60.1V60"/>
<path class="st0" d="M360,540h120c33.1,0,60,26.9,60,60v60c0,66.3-53.7,120-120,120H60"/>
<path class="st0" d="M240,660c33.1,0,60,26.9,60,60v60c0,33.1,26.9,60,60,60h300"/>
<line class="st0" x1="120" y1="300" x2="600" y2="300"/>
<line class="st0" x1="120" y1="420" x2="600" y2="420"/>
<path class="st0" d="M360,300v60c0,99.4-80.6,180-180,180h-60"/>
</svg>
