<?xml version="1.0" encoding="utf-8"?>
<!-- Generator: Adobe Illustrator 26.0.0, SVG Export Plug-In . SVG Version: 6.00 Build 0)  -->
<svg version="1.1" id="图层_1" xmlns="http://www.w3.org/2000/svg" xmlns:xlink="http://www.w3.org/1999/xlink" x="0px" y="0px"
	 viewBox="0 0 720 900" style="enable-background:new 0 0 720 900;" xml:space="preserve">
<style type="text/css">
	.st0{fill:none;stroke:#000000;stroke-width:48;stroke-linecap:round;stroke-linejoin:round;stroke-miterlimit:10;}
</style>
<path class="st0" d="M300,120h300c33.1,0,60-26.9,60-60"/>
<path class="st0" d="M360,120v60c0,33.1-26.9,60-60,60"/>
<path class="st0" d="M600,120v60c0,33.1,26.9,60,60,60"/>
<line class="st0" x1="480" y1="120" x2="480" y2="240"/>
<path class="st0" d="M600,480H360c-33.1,0-60-26.9-60-60v0c0-33.1,26.9-60,60-60h240c33.1,0,60,26.9,60,60v0
	C660,453.1,633.1,480,600,480z"/>
<path class="st0" d="M480,540L480,540c-33.1,0-60-26.9-60-60V360c0-33.1,26.9-60,60-60h0c33.1,0,60,26.9,60,60v120
	C540,513.1,513.1,540,480,540z"/>
<line class="st0" x1="480" y1="660" x2="660" y2="660"/>
<line class="st0" x1="600" y1="600" x2="600" y2="840"/>
<line class="st0" x1="540" y1="720" x2="540" y2="780"/>
<line class="st0" x1="300" y1="780" x2="420" y2="780"/>
<line class="st0" x1="300" y1="660" x2="420" y2="660"/>
<path class="st0" d="M420,840h-60c-33.1,0-60-26.9-60-60V600h120v60c0,33.1-26.9,60-60,60h-60"/>
</svg>
