<?xml version="1.0" encoding="utf-8"?>
<!-- Generator: Adobe Illustrator 26.0.0, SVG Export Plug-In . SVG Version: 6.00 Build 0)  -->
<svg version="1.1" id="图层_1" xmlns="http://www.w3.org/2000/svg" xmlns:xlink="http://www.w3.org/1999/xlink" x="0px" y="0px"
	 viewBox="0 0 720 900" style="enable-background:new 0 0 720 900;" xml:space="preserve">
<style type="text/css">
	.st0{fill:none;stroke:#000000;stroke-width:48;stroke-linecap:round;stroke-linejoin:round;stroke-miterlimit:10;}
</style>
<path class="st0" d="M300,540c0-33.1,26.9-60,60-60h240c33.1,0,60,26.9,60,60v0c0,33.1-26.9,60-60,60H480c-33.1,0-60,26.9-60,60"/>
<line class="st0" x1="480" y1="600" x2="480" y2="480"/>
<path class="st0" d="M300,720c0-33.1,26.9-60,60-60h240c33.1,0,60,26.9,60,60v0c0,33.1-26.9,60-60,60H480c-33.1,0-60,26.9-60,60"/>
<line class="st0" x1="480" y1="780" x2="480" y2="660"/>
<path class="st0" d="M420,60h60c33.1,0,60,26.9,60,60v60c0,99.4-80.6,180-180,180h-60"/>
<path class="st0" d="M300,180h180c99.4,0,180,80.6,180,180v60"/>
<line class="st0" x1="300" y1="60" x2="300" y2="240"/>
</svg>
