<?xml version="1.0" encoding="utf-8"?>
<!-- Generator: Adobe Illustrator 26.0.0, SVG Export Plug-In . SVG Version: 6.00 Build 0)  -->
<svg version="1.1" id="图层_1" xmlns="http://www.w3.org/2000/svg" xmlns:xlink="http://www.w3.org/1999/xlink" x="0px" y="0px"
	 viewBox="0 0 720 900" style="enable-background:new 0 0 720 900;" xml:space="preserve">
<style type="text/css">
	.st0{fill:none;stroke:#000000;stroke-width:48;stroke-linecap:round;stroke-linejoin:round;stroke-miterlimit:10;}
</style>
<path class="st0" d="M120,120h120"/>
<path class="st0" d="M240,60v120"/>
<path class="st0" d="M180,60v180c0,33.1-26.9,60-60,60"/>
<path class="st0" d="M240,480V300c0-33.1-26.9-60-60-60"/>
<path class="st0" d="M360,120h240"/>
<path class="st0" d="M420,60v120"/>
<path class="st0" d="M300,180h360"/>
<path class="st0" d="M360,420h240"/>
<path class="st0" d="M600,300v120c0,33.1-26.9,60-60,60H420c-33.1,0-60-26.9-60-60V300"/>
<path class="st0" d="M360,360h240"/>
<path class="st0" d="M540,60v120c0,33.1-26.9,60-60,60H360"/>
</svg>
