<?xml version="1.0" encoding="utf-8"?>
<!-- Generator: Adobe Illustrator 26.0.0, SVG Export Plug-In . SVG Version: 6.00 Build 0)  -->
<svg version="1.1" id="图层_1" xmlns="http://www.w3.org/2000/svg" xmlns:xlink="http://www.w3.org/1999/xlink" x="0px" y="0px"
	 viewBox="0 0 720 900" style="enable-background:new 0 0 720 900;" xml:space="preserve">
<style type="text/css">
	.st0{fill:none;stroke:#000000;stroke-width:48;stroke-linecap:round;stroke-linejoin:round;stroke-miterlimit:10;}
</style>
<line class="st0" x1="360" y1="60" x2="360" y2="180"/>
<line class="st0" x1="120" y1="120" x2="600" y2="120"/>
<line class="st0" x1="60" y1="600" x2="660" y2="600"/>
<line class="st0" x1="360" y1="480" x2="360" y2="840"/>
<circle class="st0" cx="360" cy="240" r="60"/>
<line class="st0" x1="360" y1="300" x2="360" y2="360"/>
<circle class="st0" cx="360" cy="420" r="60"/>
<path class="st0" d="M480,240h60c33.1,0,60,26.9,60,60"/>
<path class="st0" d="M480,420h60c33.1,0,60,26.9,60,60"/>
<path class="st0" d="M240,240h-60c-33.1,0-60,26.9-60,60"/>
<path class="st0" d="M240,420h-60c-33.1,0-60,26.9-60,60"/>
</svg>
