<?xml version="1.0" encoding="utf-8"?>
<!-- Generator: Adobe Illustrator 26.0.0, SVG Export Plug-In . SVG Version: 6.00 Build 0)  -->
<svg version="1.1" id="图层_1" xmlns="http://www.w3.org/2000/svg" xmlns:xlink="http://www.w3.org/1999/xlink" x="0px" y="0px"
	 viewBox="0 0 720 900" style="enable-background:new 0 0 720 900;" xml:space="preserve">
<style type="text/css">
	.st0{fill:none;stroke:#000000;stroke-width:48;stroke-linecap:round;stroke-linejoin:round;stroke-miterlimit:10;}
</style>
<path class="st0" d="M420,540h180c33.1,0,60,26.9,60,60v240"/>
<path class="st0" d="M420,420v240"/>
<line class="st0" x1="360" y1="420" x2="660" y2="420"/>
<path class="st0" d="M540,300L540,300c-66.3,0-120-53.7-120-120v0c0-66.3,53.7-120,120-120h0c66.3,0,120,53.7,120,120v0
	C660,246.3,606.3,300,540,300z"/>
<line class="st0" x1="480" y1="180" x2="600" y2="180"/>
<path class="st0" d="M480,540v240c0,33.1-26.9,60-60,60"/>
<path class="st0" d="M600,540v240c0,33.1-26.9,60-60,60"/>
<path class="st0" d="M120,600c-33.1,0-60-26.9-60-60V180"/>
<line class="st0" x1="180" y1="60" x2="180" y2="840"/>
<line class="st0" x1="120" y1="240" x2="60" y2="240"/>
<line class="st0" x1="60" y1="420" x2="120" y2="420"/>
<path class="st0" d="M240,600c33.1,0,60-26.9,60-60V180"/>
<line class="st0" x1="240" y1="240" x2="300" y2="240"/>
<line class="st0" x1="300" y1="420" x2="240" y2="420"/>
</svg>
