<?xml version="1.0" encoding="utf-8"?>
<!-- Generator: Adobe Illustrator 26.0.0, SVG Export Plug-In . SVG Version: 6.00 Build 0)  -->
<svg version="1.1" id="图层_1" xmlns="http://www.w3.org/2000/svg" xmlns:xlink="http://www.w3.org/1999/xlink" x="0px" y="0px"
	 viewBox="0 0 720 900" style="enable-background:new 0 0 720 900;" xml:space="preserve">
<style type="text/css">
	.st0{fill:none;stroke:#000000;stroke-width:48;stroke-linecap:round;stroke-linejoin:round;stroke-miterlimit:10;}
</style>
<path class="st0" d="M360,840H120c-33.1,0-60-26.9-60-60V540c0-33.1,26.9-60,60-60h240c33.1,0,60,26.9,60,60v240
	C420,813.1,393.1,840,360,840z"/>
<line class="st0" x1="60" y1="60" x2="420" y2="60"/>
<line class="st0" x1="60" y1="660" x2="420" y2="660"/>
<line class="st0" x1="240" y1="480" x2="240" y2="840"/>
<path class="st0" d="M300,360H180c-33.1,0-60-26.9-60-60v-60c0-33.1,26.9-60,60-60h120c33.1,0,60,26.9,60,60v60
	C360,333.1,333.1,360,300,360z"/>
</svg>
