<?xml version="1.0" encoding="utf-8"?>
<!-- Generator: Adobe Illustrator 26.0.0, SVG Export Plug-In . SVG Version: 6.00 Build 0)  -->
<svg version="1.1" id="图层_1" xmlns="http://www.w3.org/2000/svg" xmlns:xlink="http://www.w3.org/1999/xlink" x="0px" y="0px"
	 viewBox="0 0 720 900" style="enable-background:new 0 0 720 900;" xml:space="preserve">
<style type="text/css">
	.st0{fill:none;stroke:#000000;stroke-width:48;stroke-linecap:round;stroke-linejoin:round;stroke-miterlimit:10;}
</style>
<path class="st0" d="M600,840H360c-33.1,0-60-26.9-60-60V660c0-33.1,26.9-60,60-60h240c33.1,0,60,26.9,60,60v120
	C660,813.1,633.1,840,600,840z"/>
<line class="st0" x1="300" y1="720" x2="660" y2="720"/>
<line class="st0" x1="480" y1="600" x2="480" y2="840"/>
<line class="st0" x1="480" y1="120" x2="480" y2="540"/>
<line class="st0" x1="300" y1="300" x2="660" y2="300"/>
<path class="st0" d="M660,60c0,33.2-26.8,60-60,60H300"/>
<path class="st0" d="M600,240c0-33.1,26.9-60,60-60"/>
<path class="st0" d="M600,360v60c0,33.1,26.9,60,60,60"/>
<path class="st0" d="M360,240c0-33.1-26.9-60-60-60"/>
<path class="st0" d="M360,360v60c0,33.1-26.9,60-60,60"/>
</svg>
