<?xml version="1.0" encoding="utf-8"?>
<!-- Generator: Adobe Illustrator 26.0.0, SVG Export Plug-In . SVG Version: 6.00 Build 0)  -->
<svg version="1.1" id="图层_1" xmlns="http://www.w3.org/2000/svg" xmlns:xlink="http://www.w3.org/1999/xlink" x="0px" y="0px"
	 viewBox="0 0 720 900" style="enable-background:new 0 0 720 900;" xml:space="preserve">
<style type="text/css">
	.st0{fill:none;stroke:#000000;stroke-width:48;stroke-linecap:round;stroke-linejoin:round;stroke-miterlimit:10;}
</style>
<path class="st0" d="M240,240v480c0,66.3-53.7,120-120,120"/>
<path class="st0" d="M600,300H240"/>
<line class="st0" x1="420" y1="300" x2="420" y2="240"/>
<line class="st0" x1="120" y1="360" x2="120" y2="480"/>
<line class="st0" x1="120" y1="720" x2="120" y2="600"/>
<line class="st0" x1="240" y1="420" x2="120" y2="420"/>
<path class="st0" d="M600,540c0-66.3-53.7-120-120-120s-120,53.7-120,120"/>
<line class="st0" x1="480" y1="360" x2="480" y2="660"/>
<line class="st0" x1="120" y1="660" x2="240" y2="660"/>
<line class="st0" x1="360" y1="660" x2="600" y2="660"/>
<line class="st0" x1="420" y1="660" x2="420" y2="840"/>
<line class="st0" x1="540" y1="660" x2="540" y2="840"/>
</svg>
