<?xml version="1.0" encoding="utf-8"?>
<!-- Generator: Adobe Illustrator 26.0.0, SVG Export Plug-In . SVG Version: 6.00 Build 0)  -->
<svg version="1.1" id="图层_1" xmlns="http://www.w3.org/2000/svg" xmlns:xlink="http://www.w3.org/1999/xlink" x="0px" y="0px"
	 viewBox="0 0 720 900" style="enable-background:new 0 0 720 900;" xml:space="preserve">
<style type="text/css">
	.st0{fill:none;stroke:#000000;stroke-width:48;stroke-linecap:round;stroke-linejoin:round;stroke-miterlimit:10;}
</style>
<path class="st0" d="M300,480v-60c0-66.3-53.7-120-120-120S60,353.7,60,420v60"/>
<path class="st0" d="M300,60v60c0,33.1-26.9,60-60,60H120c-33.1,0-60-26.9-60-60V60"/>
<path class="st0" d="M180,60v420"/>
<path class="st0" d="M660,60H480c-33.1,0-60,26.9-60,60v360"/>
<path class="st0" d="M480,240h180"/>
<path class="st0" d="M600,240v240"/>
<line class="st0" x1="120" y1="720" x2="600" y2="720"/>
<line class="st0" x1="360" y1="540" x2="360" y2="600"/>
<path class="st0" d="M540,840H180c-33.1,0-60-26.9-60-60V660c0-33.1,26.9-60,60-60h360c33.1,0,60,26.9,60,60v120
	C600,813.1,573.1,840,540,840z"/>
</svg>
