<?xml version="1.0" encoding="utf-8"?>
<!-- Generator: Adobe Illustrator 26.0.0, SVG Export Plug-In . SVG Version: 6.00 Build 0)  -->
<svg version="1.1" id="图层_1" xmlns="http://www.w3.org/2000/svg" xmlns:xlink="http://www.w3.org/1999/xlink" x="0px" y="0px"
	 viewBox="0 0 720 900" style="enable-background:new 0 0 720 900;" xml:space="preserve">
<style type="text/css">
	.st0{fill:none;stroke:#000000;stroke-width:48;stroke-linecap:round;stroke-linejoin:round;stroke-miterlimit:10;}
</style>
<path class="st0" d="M60,540c0,33.1,26.9,60,60,60h240c33.1,0,60-26.9,60-60"/>
<path class="st0" d="M180,600v240"/>
<path class="st0" d="M300,600v240"/>
<path class="st0" d="M420,660v120"/>
<path class="st0" d="M60,660v120"/>
<path class="st0" d="M60,840h360"/>
<path class="st0" d="M60,60h180c33.1,0,60,26.9,60,60v120c0,33.1,26.9,60,60,60s60,26.9,60,60v120"/>
<path class="st0" d="M120,240h120v60c0,33.1-26.9,60-60,60h-60"/>
<path class="st0" d="M120,180v240c0,33.1,26.9,60,60,60h60"/>
<line class="st0" x1="60" y1="180" x2="60" y2="480"/>
</svg>
