<?xml version="1.0" encoding="utf-8"?>
<!-- Generator: Adobe Illustrator 26.0.0, SVG Export Plug-In . SVG Version: 6.00 Build 0)  -->
<svg version="1.1" id="图层_1" xmlns="http://www.w3.org/2000/svg" xmlns:xlink="http://www.w3.org/1999/xlink" x="0px" y="0px"
	 viewBox="0 0 720 900" style="enable-background:new 0 0 720 900;" xml:space="preserve">
<style type="text/css">
	.st0{fill:none;stroke:#000000;stroke-width:48;stroke-linecap:round;stroke-linejoin:round;stroke-miterlimit:10;}
</style>
<path class="st0" d="M420,120v120c0,33.1-26.9,60-60,60l0,0c-33.1,0-60-26.9-60-60V120"/>
<path class="st0" d="M360,60v780"/>
<path class="st0" d="M600,360c33.1,0,60,26.9,60,60s-26.9,60-60,60s-60-26.9-60-60S566.9,360,600,360z"/>
<path class="st0" d="M420,780V480c0-33.1-26.9-60-60-60s-60,26.9-60,60v300"/>
<path class="st0" d="M600,840L600,840c-33.1,0-60-26.9-60-60V120c0-33.1,26.9-60,60-60h0c33.1,0,60,26.9,60,60v660
	C660,813.1,633.1,840,600,840z"/>
</svg>
