<?xml version="1.0" encoding="utf-8"?>
<!-- Generator: Adobe Illustrator 26.0.0, SVG Export Plug-In . SVG Version: 6.00 Build 0)  -->
<svg version="1.1" id="图层_1" xmlns="http://www.w3.org/2000/svg" xmlns:xlink="http://www.w3.org/1999/xlink" x="0px" y="0px"
	 viewBox="0 0 720 900" style="enable-background:new 0 0 720 900;" xml:space="preserve">
<style type="text/css">
	.st0{fill:none;stroke:#000000;stroke-width:48;stroke-linecap:round;stroke-linejoin:round;stroke-miterlimit:10;}
</style>
<path class="st0" d="M300,780V660c0-66.3-53.7-120-120-120S60,593.7,60,660v120"/>
<path class="st0" d="M300,300v60c0,33.1-26.9,60-60,60H120c-33.1,0-60-26.9-60-60v-60"/>
<path class="st0" d="M180,240v600"/>
<path class="st0" d="M540,840c-66.3,0-120-53.7-120-120V360c0-66.3,53.7-120,120-120s120,53.7,120,120v360
	C660,786.3,606.3,840,540,840z"/>
<path class="st0" d="M540,420c66.3,0,120,53.7,120,120s-53.7,120-120,120s-120-53.7-120-120S473.7,420,540,420z"/>
</svg>
