<?xml version="1.0" encoding="utf-8"?>
<!-- Generator: Adobe Illustrator 26.0.0, SVG Export Plug-In . SVG Version: 6.00 Build 0)  -->
<svg version="1.1" id="图层_1" xmlns="http://www.w3.org/2000/svg" xmlns:xlink="http://www.w3.org/1999/xlink" x="0px" y="0px"
	 viewBox="0 0 720 900" style="enable-background:new 0 0 720 900;" xml:space="preserve">
<style type="text/css">
	.st0{fill:none;stroke:#000000;stroke-width:48;stroke-linecap:round;stroke-linejoin:round;stroke-miterlimit:10;}
</style>
<path class="st0" d="M660,60c0,33.1-26.9,60-60,60H300c-66.3,0-120,53.7-120,120v480c0,66.3-53.7,120-120,120"/>
<line class="st0" x1="300" y1="300" x2="660" y2="300"/>
<line class="st0" x1="480" y1="120" x2="480" y2="420"/>
<path class="st0" d="M480,840L480,840c-99.4,0-180-80.6-180-180V480c0-33.1,26.9-60,60-60h240c33.1,0,60,26.9,60,60v180
	C660,759.4,579.4,840,480,840z"/>
<line class="st0" x1="300" y1="540" x2="660" y2="540"/>
<line class="st0" x1="300" y1="660" x2="660" y2="660"/>
</svg>
