<?xml version="1.0" encoding="utf-8"?>
<!-- Generator: Adobe Illustrator 26.0.0, SVG Export Plug-In . SVG Version: 6.00 Build 0)  -->
<svg version="1.1" id="图层_1" xmlns="http://www.w3.org/2000/svg" xmlns:xlink="http://www.w3.org/1999/xlink" x="0px" y="0px"
	 viewBox="0 0 720 900" style="enable-background:new 0 0 720 900;" xml:space="preserve">
<style type="text/css">
	.st0{fill:none;stroke:#000000;stroke-width:48;stroke-linecap:round;stroke-linejoin:round;stroke-miterlimit:10;}
</style>
<path class="st0" d="M360,840L360,840c-33.1,0-60-26.9-60-60V120c0-33.1,26.9-60,60-60l0,0c33.1,0,60,26.9,60,60v660
	C420,813.1,393.1,840,360,840z"/>
<circle class="st0" cx="360" cy="420" r="60"/>
<line class="st0" x1="600" y1="60" x2="600" y2="600"/>
<path class="st0" d="M660,600h-60c-33.1,0-60,26.9-60,60v180"/>
<path class="st0" d="M480,480c33.1,0,60-26.9,60-60V180"/>
<line class="st0" x1="660" y1="180" x2="660" y2="480"/>
</svg>
