<?xml version="1.0" encoding="utf-8"?>
<!-- Generator: Adobe Illustrator 26.0.0, SVG Export Plug-In . SVG Version: 6.00 Build 0)  -->
<svg version="1.1" id="图层_1" xmlns="http://www.w3.org/2000/svg" xmlns:xlink="http://www.w3.org/1999/xlink" x="0px" y="0px"
	 viewBox="0 0 720 900" style="enable-background:new 0 0 720 900;" xml:space="preserve">
<style type="text/css">
	.st0{fill:none;stroke:#000000;stroke-width:48;stroke-linecap:round;stroke-linejoin:round;stroke-miterlimit:10;}
</style>
<path class="st0" d="M540,420L540,420c-66.3,0-120-53.7-120-120V180c0-66.3,53.7-120,120-120h0c66.3,0,120,53.7,120,120v120
	C660,366.3,606.3,420,540,420z"/>
<circle class="st0" cx="540" cy="240" r="60"/>
<line class="st0" x1="540" y1="480" x2="540" y2="840"/>
<path class="st0" d="M420,600c0-33.1,26.9-60,60-60l0,0"/>
<path class="st0" d="M420,780c0-33.1,26.9-60,60-60l0,0"/>
<path class="st0" d="M660,600c0-33.1-26.9-60-60-60l0,0"/>
<path class="st0" d="M660,780c0-33.1-26.9-60-60-60l0,0"/>
</svg>
