<?xml version="1.0" encoding="utf-8"?>
<!-- Generator: Adobe Illustrator 26.0.0, SVG Export Plug-In . SVG Version: 6.00 Build 0)  -->
<svg version="1.1" id="图层_1" xmlns="http://www.w3.org/2000/svg" xmlns:xlink="http://www.w3.org/1999/xlink" x="0px" y="0px"
	 viewBox="0 0 720 900" style="enable-background:new 0 0 720 900;" xml:space="preserve">
<style type="text/css">
	.st0{fill:none;stroke:#000000;stroke-width:48;stroke-linecap:round;stroke-linejoin:round;stroke-miterlimit:10;}
</style>
<line class="st0" x1="60" y1="720" x2="420" y2="720"/>
<path class="st0" d="M60,180h300c33.1,0,60-26.9,60-60V60"/>
<line class="st0" x1="240" y1="240" x2="240" y2="60"/>
<path class="st0" d="M60,840h60c33.1,0,60-26.9,60-60v-60"/>
<path class="st0" d="M420,840h-60c-33.1,0-60-26.9-60-60v-60"/>
<path class="st0" d="M240,720L240,720c-66.3,0-120-53.7-120-120V360c0-66.3,53.7-120,120-120l0,0c66.3,0,120,53.7,120,120v240
	C360,666.3,306.3,720,240,720z"/>
<circle class="st0" cx="240" cy="480" r="120"/>
</svg>
