<?xml version="1.0" encoding="utf-8"?>
<!-- Generator: Adobe Illustrator 26.0.0, SVG Export Plug-In . SVG Version: 6.00 Build 0)  -->
<svg version="1.1" id="图层_1" xmlns="http://www.w3.org/2000/svg" xmlns:xlink="http://www.w3.org/1999/xlink" x="0px" y="0px"
	 viewBox="0 0 720 900" style="enable-background:new 0 0 720 900;" xml:space="preserve">
<style type="text/css">
	.st0{fill:none;stroke:#000000;stroke-width:48;stroke-linecap:round;stroke-linejoin:round;stroke-miterlimit:10;}
</style>
<path class="st0" d="M360,240v120c0,33.1,26.9,60,60,60h120c33.1,0,60-26.9,60-60V240"/>
<line class="st0" x1="360" y1="300" x2="600" y2="300"/>
<path class="st0" d="M300,720v-60c0-66.3,53.7-120,120-120v240c0,33.1,26.9,60,60,60h60"/>
<path class="st0" d="M480,660c33.1,0,60-26.9,60-60v-60c66.3,0,120,53.7,120,120v60"/>
<path class="st0" d="M600,60H360c-33.1,0-60,26.9-60,60v0c0,33.1,26.9,60,60,60h240c33.1,0,60-26.9,60-60v0
	C660,86.9,633.1,60,600,60z"/>
<circle class="st0" cx="480" cy="120" r="60"/>
</svg>
