<?xml version="1.0" encoding="utf-8"?>
<!-- Generator: Adobe Illustrator 26.0.0, SVG Export Plug-In . SVG Version: 6.00 Build 0)  -->
<svg version="1.1" id="图层_1" xmlns="http://www.w3.org/2000/svg" xmlns:xlink="http://www.w3.org/1999/xlink" x="0px" y="0px"
	 viewBox="0 0 720 900" style="enable-background:new 0 0 720 900;" xml:space="preserve">
<style type="text/css">
	.st0{fill:none;stroke:#000000;stroke-width:48;stroke-linecap:round;stroke-linejoin:round;stroke-miterlimit:10;}
</style>
<path class="st0" d="M360,780L360,780c-33.1,0-60-26.9-60-60V180c0-33.1,26.9-60,60-60l0,0c33.1,0,60,26.9,60,60v540
	C420,753.1,393.1,780,360,780z"/>
<circle class="st0" cx="360" cy="420" r="60"/>
<path class="st0" d="M480,240h120c33.1,0,60,26.9,60,60"/>
<path class="st0" d="M480,420h120c33.1,0,60,26.9,60,60"/>
<path class="st0" d="M480,600h120c33.1,0,60,26.9,60,60"/>
<path class="st0" d="M480,780h120c33.1,0,60,26.9,60,60"/>
<path class="st0" d="M600,120v660"/>
<path class="st0" d="M540,60c-33.1,0-60,26.9-60,60v720"/>
</svg>
