<?xml version="1.0" encoding="utf-8"?>
<!-- Generator: Adobe Illustrator 26.0.0, SVG Export Plug-In . SVG Version: 6.00 Build 0)  -->
<svg version="1.1" id="图层_1" xmlns="http://www.w3.org/2000/svg" xmlns:xlink="http://www.w3.org/1999/xlink" x="0px" y="0px"
	 viewBox="0 0 720 900" style="enable-background:new 0 0 720 900;" xml:space="preserve">
<style type="text/css">
	.st0{fill:none;stroke:#000000;stroke-width:48;stroke-linecap:round;stroke-linejoin:round;stroke-miterlimit:10;}
</style>
<line class="st0" x1="120" y1="660" x2="600" y2="660"/>
<path class="st0" d="M240,480v60c0,33.1,26.9,60,60,60h120c33.1,0,60-26.9,60-60v-60"/>
<line class="st0" x1="360" y1="600" x2="360" y2="840"/>
<path class="st0" d="M60,480h240c33.1,0,60-26.9,60-60V300"/>
<path class="st0" d="M660,480H420c-33.1,0-60-26.9-60-60"/>
<line class="st0" x1="120" y1="360" x2="600" y2="360"/>
<line class="st0" x1="240" y1="780" x2="480" y2="780"/>
<path class="st0" d="M600,240H120c-33.1,0-60-26.9-60-60v0c0-33.1,26.9-60,60-60h480c33.1,0,60,26.9,60,60v0
	C660,213.1,633.1,240,600,240z"/>
<path class="st0" d="M300,240c-33.1,0-60-26.9-60-60s26.9-60,60-60"/>
<path class="st0" d="M420,120c33.1,0,60,26.9,60,60s-26.9,60-60,60"/>
<line class="st0" x1="360" y1="120" x2="360" y2="60"/>
</svg>
