<?xml version="1.0" encoding="utf-8"?>
<!-- Generator: Adobe Illustrator 26.0.0, SVG Export Plug-In . SVG Version: 6.00 Build 0)  -->
<svg version="1.1" id="图层_1" xmlns="http://www.w3.org/2000/svg" xmlns:xlink="http://www.w3.org/1999/xlink" x="0px" y="0px"
	 viewBox="0 0 720 900" style="enable-background:new 0 0 720 900;" xml:space="preserve">
<style type="text/css">
	.st0{fill:none;stroke:#000000;stroke-width:48;stroke-linecap:round;stroke-linejoin:round;stroke-miterlimit:10;}
</style>
<line class="st0" x1="360" y1="60" x2="360" y2="180"/>
<line class="st0" x1="360" y1="120" x2="480" y2="120"/>
<path class="st0" d="M120,360V240c0-33.1,26.9-60,60-60h360c33.1,0,60,26.9,60,60v120"/>
<line class="st0" x1="120" y1="300" x2="600" y2="300"/>
<path class="st0" d="M660,420H540c-33.1,0-60-26.9-60-60"/>
<path class="st0" d="M60,420h120c33.1,0,60-26.9,60-60"/>
<path class="st0" d="M660,540H540c-99.4,0-180-80.6-180-180c0,99.4-80.6,180-180,180H60"/>
<circle class="st0" cx="360" cy="720" r="60"/>
<path class="st0" d="M420,840H300c-66.3,0-120-53.7-120-120v0c0-66.3,53.7-120,120-120h120c66.3,0,120,53.7,120,120v0
	C540,786.3,486.3,840,420,840z"/>
</svg>
