<?xml version="1.0" encoding="utf-8"?>
<!-- Generator: Adobe Illustrator 26.0.0, SVG Export Plug-In . SVG Version: 6.00 Build 0)  -->
<svg version="1.1" id="图层_1" xmlns="http://www.w3.org/2000/svg" xmlns:xlink="http://www.w3.org/1999/xlink" x="0px" y="0px"
	 viewBox="0 0 720 900" style="enable-background:new 0 0 720 900;" xml:space="preserve">
<style type="text/css">
	.st0{fill:none;stroke:#000000;stroke-width:48;stroke-linecap:round;stroke-linejoin:round;stroke-miterlimit:10;}
</style>
<path class="st0" d="M60,779.5h300c33.1,0,60,26.9,60,60"/>
<path class="st0" d="M60,660h300"/>
<path class="st0" d="M60,600h300"/>
<path class="st0" d="M60,480.5h300c33.1,0,60,26.9,60,60"/>
<path class="st0" d="M180,360.5c33.1,0,60,26.9,60,60v60v299"/>
<path class="st0" d="M120,360c-33.1,0-60,26.9-60,60v420"/>
<path class="st0" d="M120,300L120,300c-33.1,0-60-26.9-60-60V120c0-33.1,26.9-60,60-60h0c33.1,0,60,26.9,60,60v120
	C180,273.1,153.1,300,120,300z"/>
<path class="st0" d="M360,300L360,300c-33.1,0-60-26.9-60-60V120c0-33.1,26.9-60,60-60h0c33.1,0,60,26.9,60,60v120
	C420,273.1,393.1,300,360,300z"/>
<line class="st0" x1="120" y1="120" x2="120" y2="240"/>
<line class="st0" x1="360" y1="120" x2="360" y2="240"/>
</svg>
