<?xml version="1.0" encoding="utf-8"?>
<!-- Generator: Adobe Illustrator 26.0.0, SVG Export Plug-In . SVG Version: 6.00 Build 0)  -->
<svg version="1.1" id="图层_1" xmlns="http://www.w3.org/2000/svg" xmlns:xlink="http://www.w3.org/1999/xlink" x="0px" y="0px"
	 viewBox="0 0 720 900" style="enable-background:new 0 0 720 900;" xml:space="preserve">
<style type="text/css">
	.st0{fill:none;stroke:#000000;stroke-width:48;stroke-linecap:round;stroke-linejoin:round;stroke-miterlimit:10;}
</style>
<path class="st0" d="M300,779.5h300c33.1,0,60,26.9,60,60"/>
<path class="st0" d="M300,720h300"/>
<path class="st0" d="M300,660h300"/>
<path class="st0" d="M300,600h300c33.1,0,60,26.9,60,60"/>
<path class="st0" d="M420,480c33.1,0,60,26.9,60,60v60v179.5"/>
<path class="st0" d="M360,479.5c-33.1,0-60,26.9-60,60V840"/>
<path class="st0" d="M360,419.5L360,419.5c-33.1,0-60-26.9-60-60V300c0-33.1,26.9-60,60-60h0c33.1,0,60,26.9,60,60v59.5
	C420,392.6,393.1,419.5,360,419.5z"/>
<path class="st0" d="M600,419.5L600,419.5c-33.1,0-60-26.9-60-60V300c0-33.1,26.9-60,60-60h0c33.1,0,60,26.9,60,60v59.5
	C660,392.6,633.1,419.5,600,419.5z"/>
<line class="st0" x1="360" y1="300" x2="360" y2="359.5"/>
<line class="st0" x1="600" y1="300" x2="600" y2="359.5"/>
</svg>
