<?xml version="1.0" encoding="utf-8"?>
<!-- Generator: Adobe Illustrator 26.0.0, SVG Export Plug-In . SVG Version: 6.00 Build 0)  -->
<svg version="1.1" id="图层_1" xmlns="http://www.w3.org/2000/svg" xmlns:xlink="http://www.w3.org/1999/xlink" x="0px" y="0px"
	 viewBox="0 0 720 900" style="enable-background:new 0 0 720 900;" xml:space="preserve">
<style type="text/css">
	.st0{fill:none;stroke:#000000;stroke-width:48;stroke-linecap:round;stroke-linejoin:round;stroke-miterlimit:10;}
</style>
<path class="st0" d="M240,779.5h180c33.1,0,60,26.9,60,60"/>
<path class="st0" d="M240,420h180c33.1,0,60,26.9,60,60"/>
<path class="st0" d="M240,540h180c33.1,0,60,26.9,60,60"/>
<path class="st0" d="M240,660h180c33.1,0,60,26.9,60,60"/>
<path class="st0" d="M360,360v419.5"/>
<path class="st0" d="M300,360c-33.1,0-60,26.9-60,60v420"/>
<path class="st0" d="M300,300L300,300c-33.1,0-60-26.9-60-60V120c0-33.1,26.9-60,60-60h0c33.1,0,60,26.9,60,60v120
	C360,273.1,333.1,300,300,300z"/>
<path class="st0" d="M360,120c0-33.1,26.9-60,60-60h0c33.1,0,60,26.9,60,60v120c0,33.1-26.9,60-60,60h0c-33.1,0-60-26.9-60-60"/>
<line class="st0" x1="300" y1="120" x2="300" y2="240"/>
<line class="st0" x1="420" y1="120" x2="420" y2="240"/>
</svg>
