<?xml version="1.0" encoding="utf-8"?>
<!-- Generator: Adobe Illustrator 26.0.0, SVG Export Plug-In . SVG Version: 6.00 Build 0)  -->
<svg version="1.1" id="图层_1" xmlns="http://www.w3.org/2000/svg" xmlns:xlink="http://www.w3.org/1999/xlink" x="0px" y="0px"
	 viewBox="0 0 720 900" style="enable-background:new 0 0 720 900;" xml:space="preserve">
<style type="text/css">
	.st0{fill:none;stroke:#000000;stroke-width:48;stroke-linecap:round;stroke-linejoin:round;stroke-miterlimit:10;}
</style>
<line class="st0" x1="120" y1="540" x2="600" y2="540"/>
<line class="st0" x1="360" y1="840" x2="360" y2="540"/>
<line class="st0" x1="240" y1="420" x2="480" y2="420"/>
<path class="st0" d="M60,60h120c66.3,0,120,53.7,120,120l0,0c0,66.3-53.7,120-120,120h-60c-33.1,0-60,26.9-60,60v120"/>
<line class="st0" x1="120" y1="120" x2="120" y2="240"/>
<line class="st0" x1="180" y1="120" x2="180" y2="240"/>
<path class="st0" d="M60,240"/>
<path class="st0" d="M420,180h60c99.4,0,180,80.6,180,180v120"/>
<path class="st0" d="M420,60h120c66.3,0,120,53.7,120,120l0,0c0,66.3-53.7,120-120,120H420"/>
<path class="st0" d="M180,660v120c0,33.1-26.9,60-60,60"/>
<path class="st0" d="M540,660v120c0,33.1,26.9,60,60,60"/>
</svg>
