<?xml version="1.0" encoding="utf-8"?>
<!-- Generator: Adobe Illustrator 26.0.0, SVG Export Plug-In . SVG Version: 6.00 Build 0)  -->
<svg version="1.1" id="图层_1" xmlns="http://www.w3.org/2000/svg" xmlns:xlink="http://www.w3.org/1999/xlink" x="0px" y="0px"
	 viewBox="0 0 720 900" style="enable-background:new 0 0 720 900;" xml:space="preserve">
<style type="text/css">
	.st0{fill:none;stroke:#000000;stroke-width:48;stroke-linecap:round;stroke-linejoin:round;stroke-miterlimit:10;}
</style>
<line class="st0" x1="480" y1="60" x2="480" y2="120"/>
<line class="st0" x1="300" y1="120" x2="660" y2="120"/>
<path class="st0" d="M300,540c0,33.1,26.9,60,60,60h240c33.1,0,60-26.9,60-60"/>
<path class="st0" d="M300,840c0-99.4,80.6-180,180-180s180,80.6,180,180"/>
<path class="st0" d="M540,480c-33.1,0-60,26.9-60,60v300"/>
<path class="st0" d="M600,420H360c-33.1,0-60-26.9-60-60V240c0-33.1,26.9-60,60-60h240c33.1,0,60,26.9,60,60v120
	C660,393.1,633.1,420,600,420z"/>
<rect x="420" y="240" class="st0" width="120" height="120"/>
</svg>
