<?xml version="1.0" encoding="utf-8"?>
<!-- Generator: Adobe Illustrator 26.0.0, SVG Export Plug-In . SVG Version: 6.00 Build 0)  -->
<svg version="1.1" id="图层_1" xmlns="http://www.w3.org/2000/svg" xmlns:xlink="http://www.w3.org/1999/xlink" x="0px" y="0px"
	 viewBox="0 0 720 900" style="enable-background:new 0 0 720 900;" xml:space="preserve">
<style type="text/css">
	.st0{fill:none;stroke:#000000;stroke-width:48;stroke-linecap:round;stroke-linejoin:round;stroke-miterlimit:10;}
</style>
<path class="st0" d="M300,360v120c0,33.1,26.9,60,60,60h240c33.1,0,60-26.9,60-60V360"/>
<path class="st0" d="M420,360c0,66.3,53.7,120,120,120h60"/>
<path class="st0" d="M540,360c0,66.3-53.7,120-120,120h-60"/>
<line class="st0" x1="300" y1="600" x2="300" y2="840"/>
<path class="st0" d="M300,660h300c33.1,0,60,26.9,60,60v120"/>
<path class="st0" d="M480,540v120c0,33.1-26.9,60-60,60h0c-33.1,0-60,26.9-60,60v0c0,33.1,26.9,60,60,60h120c33.1,0,60-26.9,60-60"
	/>
<path class="st0" d="M300,180l77.5-77.6c56.6-56.6,148.4-56.6,205.1,0L660,180"/>
<line class="st0" x1="420" y1="180" x2="540" y2="180"/>
<path class="st0" d="M360,240h180c33.1,0,60,26.9,60,60"/>
</svg>
