<?xml version="1.0" encoding="utf-8"?>
<!-- Generator: Adobe Illustrator 26.0.0, SVG Export Plug-In . SVG Version: 6.00 Build 0)  -->
<svg version="1.1" id="图层_1" xmlns="http://www.w3.org/2000/svg" xmlns:xlink="http://www.w3.org/1999/xlink" x="0px" y="0px"
	 viewBox="0 0 720 900" style="enable-background:new 0 0 720 900;" xml:space="preserve">
<style type="text/css">
	.st0{fill:none;stroke:#000000;stroke-width:48;stroke-linecap:round;stroke-linejoin:round;stroke-miterlimit:10;}
</style>
<path class="st0" d="M180,120c0,33.1,26.9,60,60,60h240c33.1,0,60-26.9,60-60"/>
<path class="st0" d="M180,840c0-99.4,80.6-180,180-180s180,80.6,180,180"/>
<path class="st0" d="M420,60c-33.1,0-60,26.9-60,60v720"/>
<path class="st0" d="M180,300h300c33.1,0,60,26.9,60,60v120c0,33.1-26.9,60-60,60H180"/>
<path class="st0" d="M60,420h480c66.3,0,120,53.7,120,120"/>
</svg>
