<?xml version="1.0" encoding="utf-8"?>
<!-- Generator: Adobe Illustrator 26.0.0, SVG Export Plug-In . SVG Version: 6.00 Build 0)  -->
<svg version="1.1" id="图层_1" xmlns="http://www.w3.org/2000/svg" xmlns:xlink="http://www.w3.org/1999/xlink" x="0px" y="0px"
	 viewBox="0 0 720 900" style="enable-background:new 0 0 720 900;" xml:space="preserve">
<style type="text/css">
	.st0{fill:none;stroke:#000000;stroke-width:48;stroke-linecap:round;stroke-linejoin:round;stroke-miterlimit:10;}
</style>
<path class="st0" d="M540,840V360c0-33.1,26.9-60,60-60l0,0c33.1,0,60,26.9,60,60v420c0,33.1-26.9,60-60,60"/>
<path class="st0" d="M540,480c33.1,0,60,26.8,60,60"/>
<path class="st0" d="M540,660c33.1,0,60,26.8,60,60"/>
<path class="st0" d="M600,60v240"/>
<path class="st0" d="M300,780V540c0-33.1,26.9-60,60-60s60,26.9,60,60v240"/>
<path class="st0" d="M300,180v120c0,33.1,26.9,60,60,60s60-26.9,60-60V180"/>
<path class="st0" d="M420,60c-33.1,0-60,26.9-60,60v720"/>
<line class="st0" x1="540" y1="60" x2="540" y2="180"/>
<line class="st0" x1="660" y1="60" x2="660" y2="180"/>
</svg>
