<?xml version="1.0" encoding="utf-8"?>
<!-- Generator: Adobe Illustrator 26.0.0, SVG Export Plug-In . SVG Version: 6.00 Build 0)  -->
<svg version="1.1" id="图层_1" xmlns="http://www.w3.org/2000/svg" xmlns:xlink="http://www.w3.org/1999/xlink" x="0px" y="0px"
	 viewBox="0 0 720 900" style="enable-background:new 0 0 720 900;" xml:space="preserve">
<style type="text/css">
	.st0{fill:none;stroke:#000000;stroke-width:48;stroke-linecap:round;stroke-linejoin:round;stroke-miterlimit:10;}
</style>
<line class="st0" x1="180.1" y1="420" x2="180.1" y2="720"/>
<path class="st0" d="M300.1,840V600c0-33.1-26.9-60-60-60"/>
<circle class="st0" cx="180" cy="780" r="60"/>
<path class="st0" d="M60,840V540c0-66.3,53.7-120,120-120h60c66.3,0,120-53.7,120-120"/>
<line class="st0" x1="540" y1="420" x2="540" y2="720"/>
<path class="st0" d="M660,840V600c0-33.1-26.9-60-60-60"/>
<circle class="st0" cx="539.9" cy="780" r="60"/>
<path class="st0" d="M659.9,420h-120c-66.3,0-120,53.7-120,120v300"/>
</svg>
