<?xml version="1.0" encoding="utf-8"?>
<!-- Generator: Adobe Illustrator 26.0.0, SVG Export Plug-In . SVG Version: 6.00 Build 0)  -->
<svg version="1.1" id="图层_1" xmlns="http://www.w3.org/2000/svg" xmlns:xlink="http://www.w3.org/1999/xlink" x="0px" y="0px"
	 viewBox="0 0 720 900" style="enable-background:new 0 0 720 900;" xml:space="preserve">
<style type="text/css">
	.st0{fill:none;stroke:#000000;stroke-width:48;stroke-linecap:round;stroke-linejoin:round;stroke-miterlimit:10;}
</style>
<path class="st0" d="M600,600H360c-33.1,0-60-26.9-60-60V420c0-33.1,26.9-60,60-60h240c33.1,0,60,26.9,60,60v120
	C660,573.1,633.1,600,600,600z"/>
<line class="st0" x1="300" y1="480" x2="660" y2="480"/>
<line class="st0" x1="300" y1="720" x2="660" y2="720"/>
<line class="st0" x1="300" y1="840" x2="660" y2="840"/>
<line class="st0" x1="360" y1="60" x2="600" y2="60"/>
<line class="st0" x1="300" y1="180" x2="660" y2="180"/>
<path class="st0" d="M360,180c0,66.3,53.7,120,120,120l0,0c66.3,0,120-53.7,120-120"/>
<line class="st0" x1="480" y1="300" x2="480" y2="840"/>
</svg>
