<?xml version="1.0" encoding="utf-8"?>
<!-- Generator: Adobe Illustrator 26.0.0, SVG Export Plug-In . SVG Version: 6.00 Build 0)  -->
<svg version="1.1" id="图层_1" xmlns="http://www.w3.org/2000/svg" xmlns:xlink="http://www.w3.org/1999/xlink" x="0px" y="0px"
	 viewBox="0 0 720 900" style="enable-background:new 0 0 720 900;" xml:space="preserve">
<style type="text/css">
	.st0{fill:none;stroke:#000000;stroke-width:48;stroke-linecap:round;stroke-linejoin:round;stroke-miterlimit:10;}
</style>
<line class="st0" x1="60" y1="720" x2="360" y2="720"/>
<line class="st0" x1="60" y1="360" x2="360" y2="360"/>
<line class="st0" x1="300" y1="840" x2="300" y2="300"/>
<line class="st0" x1="120" y1="300" x2="120" y2="840"/>
<line class="st0" x1="120" y1="480" x2="300" y2="480"/>
<line class="st0" x1="120" y1="600" x2="300" y2="600"/>
<path class="st0" d="M540.1,300v120c0,33.1-26.9,60-60,60H420"/>
<path class="st0" d="M480,600h180v60c0,33.1-26.9,60-60,60H480"/>
<path class="st0" d="M540,660v120c0,33.1,26.9,60,60,60h60"/>
<path class="st0" d="M360,839.9c33.1,0,59.9-26.9,59.9-59.9V300"/>
<path class="st0" d="M660,480V360H420"/>
</svg>
