<?xml version="1.0" encoding="utf-8"?>
<!-- Generator: Adobe Illustrator 26.0.0, SVG Export Plug-In . SVG Version: 6.00 Build 0)  -->
<svg version="1.1" id="图层_1" xmlns="http://www.w3.org/2000/svg" xmlns:xlink="http://www.w3.org/1999/xlink" x="0px" y="0px"
	 viewBox="0 0 720 900" style="enable-background:new 0 0 720 900;" xml:space="preserve">
<style type="text/css">
	.st0{fill:none;stroke:#000000;stroke-width:48;stroke-linecap:round;stroke-linejoin:round;stroke-miterlimit:10;}
</style>
<path class="st0" d="M240,300v60c0,33.1-26.9,60-60,60H60"/>
<path class="st0" d="M240,60v60c0,66.3-53.7,120-120,120H60"/>
<line class="st0" x1="120" y1="60" x2="120" y2="180"/>
<line class="st0" x1="120" y1="300" x2="120" y2="360"/>
<line class="st0" x1="360" y1="60" x2="360" y2="180"/>
<line class="st0" x1="360" y1="360" x2="360" y2="300"/>
<path class="st0" d="M240,360c0,33.1,26.9,60,60,60h120"/>
<path class="st0" d="M240,120c0,66.3,53.7,120,120,120h60"/>
<line class="st0" x1="420" y1="600" x2="240" y2="600"/>
<path class="st0" d="M420,780h-60c-33.1,0-60-26.9-60-60V600"/>
<line class="st0" x1="360" y1="480" x2="360" y2="840"/>
<path class="st0" d="M180,660v120c0,33.1-26.9,60-60,60H60"/>
<path class="st0" d="M180,480l0,60c0,33.1-26.9,60-60,60H60"/>
<line class="st0" x1="120" y1="540" x2="120" y2="780"/>
<line class="st0" x1="540" y1="60" x2="540" y2="840"/>
<line class="st0" x1="660" y1="60" x2="660" y2="840"/>
</svg>
