<?xml version="1.0" encoding="utf-8"?>
<!-- Generator: Adobe Illustrator 26.0.0, SVG Export Plug-In . SVG Version: 6.00 Build 0)  -->
<svg version="1.1" id="图层_1" xmlns="http://www.w3.org/2000/svg" xmlns:xlink="http://www.w3.org/1999/xlink" x="0px" y="0px"
	 viewBox="0 0 720 900" style="enable-background:new 0 0 720 900;" xml:space="preserve">
<style type="text/css">
	.st0{fill:none;stroke:#000000;stroke-width:48;stroke-linecap:round;stroke-linejoin:round;stroke-miterlimit:10;}
</style>
<path class="st0" d="M360,720v120"/>
<path class="st0" d="M480,600H240c-33.1,0-60,26.9-60,60s26.9,60,60,60h240c33.1,0,60-26.9,60-60S513.1,600,480,600z"/>
<path class="st0" d="M480,420H240c-33.1,0-60,26.9-60,60s26.9,60,60,60h240c33.1,0,60-26.9,60-60S513.1,420,480,420z"/>
<path class="st0" d="M360,540v60"/>
<path class="st0" d="M240,780v60"/>
<path class="st0" d="M480,780v60"/>
<path class="st0" d="M360,360v60"/>
</svg>
