<?xml version="1.0" encoding="utf-8"?>
<!-- Generator: Adobe Illustrator 26.0.0, SVG Export Plug-In . SVG Version: 6.00 Build 0)  -->
<svg version="1.1" id="图层_1" xmlns="http://www.w3.org/2000/svg" xmlns:xlink="http://www.w3.org/1999/xlink" x="0px" y="0px"
	 viewBox="0 0 720 900" style="enable-background:new 0 0 720 900;" xml:space="preserve">
<style type="text/css">
	.st0{fill:none;stroke:#000000;stroke-width:48;stroke-linecap:round;stroke-linejoin:round;stroke-miterlimit:10;}
</style>
<path class="st0" d="M240,480H120c-33.1,0-60-26.9-60-60v0c0-33.1,26.9-60,60-60h120c33.1,0,60,26.9,60,60v0
	C300,453.1,273.1,480,240,480z"/>
<path class="st0" d="M240,240H120c-33.1,0-60-26.9-60-60v0c0-33.1,26.9-60,60-60h120c33.1,0,60,26.9,60,60v0
	C300,213.1,273.1,240,240,240z"/>
<line class="st0" x1="180" y1="120" x2="180" y2="60"/>
<line class="st0" x1="180" y1="240" x2="180" y2="360"/>
<line class="st0" x1="180" y1="480" x2="180" y2="840"/>
<path class="st0" d="M60,780l1.3-60.6c0-65.9,53.4-119.4,119.4-119.4S300,653.4,300,719.4V780"/>
</svg>
