<?xml version="1.0" encoding="utf-8"?>
<!-- Generator: Adobe Illustrator 26.0.0, SVG Export Plug-In . SVG Version: 6.00 Build 0)  -->
<svg version="1.1" id="图层_1" xmlns="http://www.w3.org/2000/svg" xmlns:xlink="http://www.w3.org/1999/xlink" x="0px" y="0px"
	 viewBox="0 0 720 900" style="enable-background:new 0 0 720 900;" xml:space="preserve">
<style type="text/css">
	.st0{fill:none;stroke:#000000;stroke-width:48;stroke-linecap:round;stroke-linejoin:round;stroke-miterlimit:10;}
</style>
<path class="st0" d="M600,480H480c-33.1,0-60-26.9-60-60v0c0-33.1,26.9-60,60-60h120c33.1,0,60,26.9,60,60v0
	C660,453.1,633.1,480,600,480z"/>
<path class="st0" d="M600,240H480c-33.1,0-60-26.9-60-60v0c0-33.1,26.9-60,60-60h120c33.1,0,60,26.9,60,60v0
	C660,213.1,633.1,240,600,240z"/>
<line class="st0" x1="540" y1="120" x2="540" y2="60"/>
<line class="st0" x1="540" y1="240" x2="540" y2="360"/>
<line class="st0" x1="540" y1="480" x2="540" y2="840"/>
<path class="st0" d="M420,780l1.3-60.6c0-65.9,53.4-119.4,119.4-119.4S660,653.4,660,719.4V780"/>
</svg>
