<?xml version="1.0" encoding="utf-8"?>
<!-- Generator: Adobe Illustrator 26.0.0, SVG Export Plug-In . SVG Version: 6.00 Build 0)  -->
<svg version="1.1" id="图层_1" xmlns="http://www.w3.org/2000/svg" xmlns:xlink="http://www.w3.org/1999/xlink" x="0px" y="0px"
	 viewBox="0 0 720 900" style="enable-background:new 0 0 720 900;" xml:space="preserve">
<style type="text/css">
	.st0{fill:none;stroke:#000000;stroke-width:48;stroke-linecap:round;stroke-linejoin:round;stroke-miterlimit:10;}
</style>
<line class="st0" x1="360" y1="780" x2="360" y2="840"/>
<path class="st0" d="M480,660H240c-33.1,0-60,26.9-60,60l0,0c0,33.1,26.9,60,60,60h240c33.1,0,60-26.9,60-60l0,0
	C540,686.9,513.1,660,480,660z"/>
<path class="st0" d="M480,480H240c-33.1,0-60,26.9-60,60l0,0c0,33.1,26.9,60,60,60h240c33.1,0,60-26.9,60-60l0,0
	C540,506.9,513.1,480,480,480z"/>
<line class="st0" x1="360" y1="600" x2="360" y2="660"/>
<line class="st0" x1="240" y1="780" x2="240" y2="840"/>
<line class="st0" x1="480" y1="780" x2="480" y2="840"/>
</svg>
