<?xml version="1.0" encoding="utf-8"?>
<!-- Generator: Adobe Illustrator 26.0.0, SVG Export Plug-In . SVG Version: 6.00 Build 0)  -->
<svg version="1.1" id="图层_1" xmlns="http://www.w3.org/2000/svg" xmlns:xlink="http://www.w3.org/1999/xlink" x="0px" y="0px"
	 viewBox="0 0 720 900" style="enable-background:new 0 0 720 900;" xml:space="preserve">
<style type="text/css">
	.st0{fill:none;stroke:#000000;stroke-width:48;stroke-linecap:round;stroke-linejoin:round;stroke-miterlimit:10;}
</style>
<path class="st0" d="M420,120h180c33.1,0,60-26.9,60-60"/>
<path class="st0" d="M600,360H480c-33.1,0-60-26.9-60-60l0,0c0-33.1,26.9-60,60-60h120c33.1,0,60,26.9,60,60l0,0
	C660,333.1,633.1,360,600,360z"/>
<path class="st0" d="M600,600H480c-33.1,0-60-26.9-60-60l0,0c0-33.1,26.9-60,60-60h120c33.1,0,60,26.9,60,60l0,0
	C660,573.1,633.1,600,600,600z"/>
<line class="st0" x1="540" y1="840" x2="540" y2="600"/>
<line class="st0" x1="540" y1="480" x2="540" y2="360"/>
<line class="st0" x1="540" y1="240" x2="540" y2="120"/>
<path class="st0" d="M600,840V720c0-33.2-26.8-60-60-60s-60,26.8-60,60v120"/>
</svg>
