<?xml version="1.0" encoding="utf-8"?>
<!-- Generator: Adobe Illustrator 26.0.0, SVG Export Plug-In . SVG Version: 6.00 Build 0)  -->
<svg version="1.1" id="图层_1" xmlns="http://www.w3.org/2000/svg" xmlns:xlink="http://www.w3.org/1999/xlink" x="0px" y="0px"
	 viewBox="0 0 720 900" style="enable-background:new 0 0 720 900;" xml:space="preserve">
<style type="text/css">
	.st0{fill:none;stroke:#000000;stroke-width:48;stroke-linecap:round;stroke-linejoin:round;stroke-miterlimit:10;}
</style>
<line class="st0" x1="360" y1="780" x2="360" y2="840"/>
<path class="st0" d="M180,780h300c33.1,0,60-26.9,60-60l0,0c0-33.1-26.9-60-60-60H300"/>
<line class="st0" x1="240" y1="780" x2="240" y2="840"/>
<line class="st0" x1="480" y1="780" x2="480" y2="840"/>
<path class="st0" d="M540,600H240c-33.1,0-60,26.9-60,60l0,0c0,33.1,26.9,60,60,60h180"/>
<line class="st0" x1="360" y1="600" x2="360" y2="540"/>
<path class="st0" d="M600,540h-60c-33.1,0-60-26.9-60-60v-60"/>
<path class="st0" d="M660,300H480c-33.1,0-60,26.9-60,60"/>
<path class="st0" d="M420,480h120c33.1,0,60-26.9,60-60V300"/>
<line class="st0" x1="540" y1="240" x2="540" y2="300"/>
<path class="st0" d="M120,360v60c0,33.1,26.9,60,60,60h120"/>
<path class="st0" d="M300,540V420c0-33.1-26.9-60-60-60h-60"/>
<path class="st0" d="M59,359c0.5-32.7,27.2-59,60-59h181"/>
<line class="st0" x1="180" y1="300" x2="180" y2="240"/>
<line class="st0" x1="180" y1="420" x2="240" y2="420"/>
</svg>
