<?xml version="1.0" encoding="utf-8"?>
<!-- Generator: Adobe Illustrator 26.0.0, SVG Export Plug-In . SVG Version: 6.00 Build 0)  -->
<svg version="1.1" id="图层_1" xmlns="http://www.w3.org/2000/svg" xmlns:xlink="http://www.w3.org/1999/xlink" x="0px" y="0px"
	 viewBox="0 0 720 900" style="enable-background:new 0 0 720 900;" xml:space="preserve">
<style type="text/css">
	.st0{fill:none;stroke:#000000;stroke-width:48;stroke-linecap:round;stroke-linejoin:round;stroke-miterlimit:10;}
</style>
<path class="st0" d="M660,300H180c-33.1,0-60,26.9-60,60l0,0c0,33.1,26.9,60,60,60h480"/>
<path class="st0" d="M540,300v180"/>
<line class="st0" x1="60" y1="360" x2="660" y2="360"/>
<line class="st0" x1="360" y1="480" x2="360" y2="300"/>
<line class="st0" x1="60" y1="180" x2="660" y2="180"/>
<line class="st0" x1="360" y1="60" x2="360" y2="240"/>
<path class="st0" d="M120,60c0,33.1,26.9,60,60,60h360c33.1,0,60-26.9,60-60"/>
<line class="st0" x1="120" y1="240" x2="600" y2="240"/>
<path class="st0" d="M60,720V600c0-33.1,26.9-60,60-60h120c33.1,0,60,26.9,60,60v120"/>
<line class="st0" x1="120" y1="660" x2="240" y2="660"/>
<line class="st0" x1="60" y1="780" x2="300" y2="780"/>
<line class="st0" x1="120" y1="600" x2="240" y2="600"/>
<line class="st0" x1="120" y1="720" x2="240" y2="720"/>
<line class="st0" x1="180" y1="720" x2="180" y2="840"/>
<line class="st0" x1="120" y1="780" x2="120" y2="840"/>
<line class="st0" x1="240" y1="780" x2="240" y2="840"/>
<path class="st0" d="M660,780H480c-33.1,0-60-26.9-60-60v0c0-33.1,26.9-60,60-60h120c33.1,0,60-26.9,60-60"/>
<line class="st0" x1="480" y1="780" x2="480" y2="840"/>
<line class="st0" x1="540" y1="780" x2="540" y2="840"/>
<line class="st0" x1="600" y1="780" x2="600" y2="840"/>
<path class="st0" d="M420,600c0-33.1,26.9-60,60-60h180"/>
</svg>
