<?xml version="1.0" encoding="utf-8"?>
<!-- Generator: Adobe Illustrator 26.0.0, SVG Export Plug-In . SVG Version: 6.00 Build 0)  -->
<svg version="1.1" id="图层_1" xmlns="http://www.w3.org/2000/svg" xmlns:xlink="http://www.w3.org/1999/xlink" x="0px" y="0px"
	 viewBox="0 0 720 900" style="enable-background:new 0 0 720 900;" xml:space="preserve">
<style type="text/css">
	.st0{fill:none;stroke:#000000;stroke-width:48;stroke-linecap:round;stroke-linejoin:round;stroke-miterlimit:10;}
</style>
<path class="st0" d="M180,480L180,480c-33.1,0-60-26.9-60-60s26.9-60,60-60l0,0c33.1,0,60,26.9,60,60S213.1,480,180,480z"/>
<path class="st0" d="M180,660L180,660c-33.1,0-60-26.9-60-60s26.9-60,60-60l0,0c33.1,0,60,26.9,60,60S213.1,660,180,660z"/>
<path class="st0" d="M240,840v-60c0-33.2-26.9-60-60-60s-60,26.8-60,60v60"/>
<path class="st0" d="M180,840V660"/>
<path class="st0" d="M180,540v-60"/>
<path class="st0" d="M180,360v-60"/>
<path class="st0" d="M420,360v-60"/>
<path class="st0" d="M540,840c33.1,0,60-26.9,60-60V480c0-66.3-53.7-120-120-120H300"/>
<path class="st0" d="M360,600h120"/>
</svg>
