<?xml version="1.0" encoding="utf-8"?>
<!-- Generator: Adobe Illustrator 26.0.0, SVG Export Plug-In . SVG Version: 6.00 Build 0)  -->
<svg version="1.1" id="图层_1" xmlns="http://www.w3.org/2000/svg" xmlns:xlink="http://www.w3.org/1999/xlink" x="0px" y="0px"
	 viewBox="0 0 720 900" style="enable-background:new 0 0 720 900;" xml:space="preserve">
<style type="text/css">
	.st0{fill:none;stroke:#000000;stroke-width:48;stroke-linecap:round;stroke-linejoin:round;stroke-miterlimit:10;}
</style>
<path class="st0" d="M300,600c0,33.1,26.9,60,60,60h240c33.1,0,60-26.9,60-60"/>
<line class="st0" x1="420" y1="660" x2="420" y2="840"/>
<line class="st0" x1="540" y1="660" x2="540" y2="840"/>
<line class="st0" x1="660" y1="720" x2="660" y2="780"/>
<line class="st0" x1="300" y1="720" x2="300" y2="780"/>
<line class="st0" x1="300" y1="840" x2="660" y2="840"/>
<path class="st0" d="M600,300H360c-33.1,0-60,26.9-60,60v120c0,33.1,26.9,60,60,60h240c33.1,0,60-26.9,60-60V360
	C660,326.9,633.1,300,600,300z"/>
<path class="st0" d="M480,360v60c0,33.1-26.9,60-60,60h-60"/>
<path class="st0" d="M480,420c0,33.1,26.9,60,60,60h60"/>
<line class="st0" x1="120" y1="300.3" x2="120" y2="240.3"/>
<line class="st0" x1="120" y1="420.3" x2="120" y2="480.3"/>
<line class="st0" x1="120" y1="600.3" x2="120" y2="840"/>
<path class="st0" d="M60,780l0.6-60c0-33,26.7-59.7,59.7-59.7S180,687,180,720v60"/>
<circle class="st0" cx="120" cy="360.3" r="60"/>
<circle class="st0" cx="120" cy="540.3" r="60"/>
</svg>
