<?xml version="1.0" encoding="utf-8"?>
<!-- Generator: Adobe Illustrator 26.0.0, SVG Export Plug-In . SVG Version: 6.00 Build 0)  -->
<svg version="1.1" id="图层_1" xmlns="http://www.w3.org/2000/svg" xmlns:xlink="http://www.w3.org/1999/xlink" x="0px" y="0px"
	 viewBox="0 0 720 900" style="enable-background:new 0 0 720 900;" xml:space="preserve">
<style type="text/css">
	.st0{fill:none;stroke:#000000;stroke-width:48;stroke-linecap:round;stroke-linejoin:round;stroke-miterlimit:10;}
</style>
<path class="st0" d="M360,120V60"/>
<path class="st0" d="M360,240v120"/>
<path class="st0" d="M360,480v360"/>
<path class="st0" d="M300,780l0.6-120.3c0-33,26.7-59.7,59.7-59.7s59.7,26.7,59.7,59.7V780"/>
<path class="st0" d="M360,120c33.1,0,60,26.9,60,60s-26.9,60-60,60s-60-26.9-60-60S326.9,120,360,120z"/>
<path class="st0" d="M360,360c33.1,0,60,26.9,60,60s-26.9,60-60,60s-60-26.9-60-60S326.9,360,360,360z"/>
<path class="st0" d="M480,420h180"/>
<path class="st0" d="M480,60v180c0,33.1,26.9,60,60,60h120"/>
<path class="st0" d="M480,120h180"/>
<path class="st0" d="M480,540h120c33.1,0,60-26.9,60-60V180"/>
<path class="st0" d="M600,660H480"/>
<path class="st0" d="M660,840v-60c0-33.1-26.9-60-60-60H480"/>
<path class="st0" d="M480,840h60c33.1,0,60-26.9,60-60V540"/>
</svg>
