<?xml version="1.0" encoding="utf-8"?>
<!-- Generator: Adobe Illustrator 26.0.0, SVG Export Plug-In . SVG Version: 6.00 Build 0)  -->
<svg version="1.1" id="图层_1" xmlns="http://www.w3.org/2000/svg" xmlns:xlink="http://www.w3.org/1999/xlink" x="0px" y="0px"
	 viewBox="0 0 720 900" style="enable-background:new 0 0 720 900;" xml:space="preserve">
<style type="text/css">
	.st0{fill:none;stroke:#000000;stroke-width:48;stroke-linecap:round;stroke-linejoin:round;stroke-miterlimit:10;}
</style>
<path class="st0" d="M660,300H480c-33.1,0-60,26.9-60,60v180c0,33.1,26.9,60,60,60h120c33.1,0,60,26.9,60,60v120"/>
<path class="st0" d="M660,840c-33.1,0-60-26.9-60-60V660"/>
<path class="st0" d="M540,840c-33.1,0-60-26.9-60-60V660"/>
<line class="st0" x1="420" y1="420" x2="660" y2="420"/>
<line class="st0" x1="420" y1="480" x2="660" y2="480"/>
<line class="st0" x1="540" y1="300" x2="540" y2="540"/>
<line class="st0" x1="540" y1="660" x2="540" y2="780"/>
<line class="st0" x1="420" y1="660" x2="420" y2="780"/>
<path class="st0" d="M120,300v120c0,33.1,26.9,60,60,60l0,0c33.1,0,60-26.9,60-60V300"/>
<line class="st0" x1="60" y1="360" x2="300" y2="360"/>
<path class="st0" d="M60,480v120c0,33.1,26.9,60,60,60h120c33.1,0,60-26.9,60-60V480"/>
<line class="st0" x1="60" y1="540" x2="300" y2="540"/>
<line class="st0" x1="180" y1="480" x2="180" y2="840"/>
<line class="st0" x1="60" y1="780" x2="300" y2="780"/>
</svg>
