<?xml version="1.0" encoding="utf-8"?>
<!-- Generator: Adobe Illustrator 26.0.0, SVG Export Plug-In . SVG Version: 6.00 Build 0)  -->
<svg version="1.1" id="图层_1" xmlns="http://www.w3.org/2000/svg" xmlns:xlink="http://www.w3.org/1999/xlink" x="0px" y="0px"
	 viewBox="0 0 720 900" style="enable-background:new 0 0 720 900;" xml:space="preserve">
<style type="text/css">
	.st0{fill:none;stroke:#000000;stroke-width:48;stroke-linecap:round;stroke-linejoin:round;stroke-miterlimit:10;}
</style>
<path class="st0" d="M480,480v240c0,66.3,53.7,120,120,120h60"/>
<line class="st0" x1="60" y1="540" x2="660" y2="540"/>
<line class="st0" x1="180" y1="480" x2="180" y2="720"/>
<path class="st0" d="M360,840c0-66.3,53.7-120,120-120h180"/>
<path class="st0" d="M60,480h240"/>
<line class="st0" x1="600" y1="540" x2="600" y2="480"/>
<path class="st0" d="M60,720c33.1,0,60-26.9,60-60"/>
<path class="st0" d="M300,720c-33.1,0-60-26.9-60-60"/>
<line class="st0" x1="60" y1="780" x2="300" y2="780"/>
<line class="st0" x1="60" y1="600" x2="300" y2="600"/>
<path class="st0" d="M120,780L120,780c0,33.1,26.9,60,60,60h60"/>
</svg>
