<?xml version="1.0" encoding="utf-8"?>
<!-- Generator: Adobe Illustrator 26.0.0, SVG Export Plug-In . SVG Version: 6.00 Build 0)  -->
<svg version="1.1" id="图层_1" xmlns="http://www.w3.org/2000/svg" xmlns:xlink="http://www.w3.org/1999/xlink" x="0px" y="0px"
	 viewBox="0 0 720 900" style="enable-background:new 0 0 720 900;" xml:space="preserve">
<style type="text/css">
	.st0{fill:none;stroke:#000000;stroke-width:48;stroke-linecap:round;stroke-linejoin:round;stroke-miterlimit:10;}
</style>
<path class="st0" d="M60,180h120c66.3,0,120,53.7,120,120"/>
<path class="st0" d="M60,300h120c66.3,0,120,53.7,120,120V180c0-66.3-53.7-120-120-120H60"/>
<path class="st0" d="M420,180h120c66.3,0,120,53.7,120,120"/>
<path class="st0" d="M420,300h120c66.3,0,120,53.7,120,120V180c0-66.3-53.7-120-120-120H420"/>
<path class="st0" d="M540,600H180c-66.3,0-120,53.7-120,120v0c0,66.3,53.7,120,120,120h360c66.3,0,120-53.7,120-120v0
	C660,653.7,606.3,600,540,600z"/>
<line class="st0" x1="360" y1="480" x2="360" y2="600"/>
<line class="st0" x1="180" y1="720" x2="540" y2="720"/>
</svg>
