<?xml version="1.0" encoding="utf-8"?>
<!-- Generator: Adobe Illustrator 26.0.0, SVG Export Plug-In . SVG Version: 6.00 Build 0)  -->
<svg version="1.1" id="图层_1" xmlns="http://www.w3.org/2000/svg" xmlns:xlink="http://www.w3.org/1999/xlink" x="0px" y="0px"
	 viewBox="0 0 720 900" style="enable-background:new 0 0 720 900;" xml:space="preserve">
<style type="text/css">
	.st0{fill:none;stroke:#000000;stroke-width:48;stroke-linecap:round;stroke-linejoin:round;stroke-miterlimit:10;}
</style>
<path class="st0" d="M300,840V720c0-33.1-26.9-60-60-60H60"/>
<path class="st0" d="M660,840V720c0-33.1-26.9-60-60-60H420"/>
<path class="st0" d="M660,720H420"/>
<path class="st0" d="M660,780H420"/>
<path class="st0" d="M300,720H60"/>
<path class="st0" d="M300,780H60"/>
<path class="st0" d="M60,360h60c66.3,0,120-53.7,120-120"/>
<path class="st0" d="M660,360h-60c-66.3,0-120-53.7-120-120"/>
<path class="st0" d="M540,600H180c-33.1,0-60-26.9-60-60s26.9-60,60-60h360c33.1,0,60,26.9,60,60S573.1,600,540,600z"/>
<path class="st0" d="M360,360v120"/>
</svg>
