<?xml version="1.0" encoding="utf-8"?>
<!-- Generator: Adobe Illustrator 26.0.0, SVG Export Plug-In . SVG Version: 6.00 Build 0)  -->
<svg version="1.1" id="图层_1" xmlns="http://www.w3.org/2000/svg" xmlns:xlink="http://www.w3.org/1999/xlink" x="0px" y="0px"
	 viewBox="0 0 720 900" style="enable-background:new 0 0 720 900;" xml:space="preserve">
<style type="text/css">
	.st0{fill:none;stroke:#000000;stroke-width:48;stroke-linecap:round;stroke-linejoin:round;stroke-miterlimit:10;}
</style>
<path class="st0" d="M60,660h60c33.1,0,60-26.9,60-60v-60"/>
<line class="st0" x1="240" y1="660" x2="480" y2="660"/>
<line class="st0" x1="180" y1="720" x2="540" y2="720"/>
<path class="st0" d="M600,780H180c-33.1,0-60,26.9-60,60"/>
<path class="st0" d="M180,600h360l0,0c0,33.2,26.8,60,60,60h60"/>
<path class="st0" d="M300,480V360c0-33.1-26.9-60-60-60H60"/>
<path class="st0" d="M660,480V360c0-33.1-26.9-60-60-60H420"/>
<line class="st0" x1="660" y1="360" x2="420" y2="360"/>
<line class="st0" x1="660" y1="420" x2="420" y2="420"/>
<line class="st0" x1="300" y1="360" x2="60" y2="360"/>
<line class="st0" x1="300" y1="420" x2="60" y2="420"/>
</svg>
