<?xml version="1.0" encoding="utf-8"?>
<!-- Generator: Adobe Illustrator 26.0.0, SVG Export Plug-In . SVG Version: 6.00 Build 0)  -->
<svg version="1.1" id="图层_1" xmlns="http://www.w3.org/2000/svg" xmlns:xlink="http://www.w3.org/1999/xlink" x="0px" y="0px"
	 viewBox="0 0 720 900" style="enable-background:new 0 0 720 900;" xml:space="preserve">
<style type="text/css">
	.st0{fill:none;stroke:#000000;stroke-width:48;stroke-linecap:round;stroke-linejoin:round;stroke-miterlimit:10;}
</style>
<path class="st0" d="M300,180c66.3,0,120,53.7,120,120"/>
<path class="st0" d="M300,300c66.3,0,120,53.7,120,120V180c0-66.3-53.7-120-120-120"/>
<path class="st0" d="M540,180c66.3,0,120,53.7,120,120"/>
<path class="st0" d="M540,300c66.3,0,120,53.7,120,120V180c0-66.3-53.7-120-120-120"/>
<path class="st0" d="M300,779.5h360"/>
<path class="st0" d="M300,600h360"/>
<path class="st0" d="M480,480c33.1,0,60,26.9,60,60l0,0v239.5"/>
<path class="st0" d="M360,479.5c-33.1,0-60,26.9-60,60V840"/>
<line class="st0" x1="300" y1="720" x2="660" y2="720"/>
<line class="st0" x1="300" y1="660" x2="660" y2="660"/>
</svg>
