<?xml version="1.0" encoding="utf-8"?>
<!-- Generator: Adobe Illustrator 26.0.0, SVG Export Plug-In . SVG Version: 6.00 Build 0)  -->
<svg version="1.1" id="图层_1" xmlns="http://www.w3.org/2000/svg" xmlns:xlink="http://www.w3.org/1999/xlink" x="0px" y="0px"
	 viewBox="0 0 720 900" style="enable-background:new 0 0 720 900;" xml:space="preserve">
<style type="text/css">
	.st0{fill:none;stroke:#000000;stroke-width:48;stroke-linecap:round;stroke-linejoin:round;stroke-miterlimit:10;}
</style>
<path class="st0" d="M420,779.5h240"/>
<path class="st0" d="M420,600h240"/>
<path class="st0" d="M540,480c33.1,0,60,26.9,60,60l0,0v239.5"/>
<path class="st0" d="M480,479.5c-33.1,0-60,26.9-60,60V840"/>
<line class="st0" x1="420" y1="720" x2="660" y2="720"/>
<line class="st0" x1="420" y1="660" x2="660" y2="660"/>
<path class="st0" d="M420,60c33.1,0,60,26.9,60,60v300"/>
<path class="st0" d="M420,180c33.1,0,60,26.9,60,60"/>
<path class="st0" d="M420,300c33.1,0,60,26.9,60,60"/>
<path class="st0" d="M660,420V120c0-33.1-26.9-60-60-60h-60"/>
<path class="st0" d="M660,240c0-33.1-26.9-60-60-60h-60"/>
<path class="st0" d="M660,360c0-33.1-26.9-60-60-60h-60"/>
</svg>
