<?xml version="1.0" encoding="utf-8"?>
<!-- Generator: Adobe Illustrator 26.0.0, SVG Export Plug-In . SVG Version: 6.00 Build 0)  -->
<svg version="1.1" id="图层_1" xmlns="http://www.w3.org/2000/svg" xmlns:xlink="http://www.w3.org/1999/xlink" x="0px" y="0px"
	 viewBox="0 0 720 900" style="enable-background:new 0 0 720 900;" xml:space="preserve">
<style type="text/css">
	.st0{fill:none;stroke:#000000;stroke-width:48;stroke-linecap:round;stroke-linejoin:round;stroke-miterlimit:10;}
</style>
<path class="st0" d="M300,120c0,33.1,26.9,60,60,60l0,0c33.1,0,60-26.9,60-60"/>
<line class="st0" x1="360" y1="60" x2="360" y2="300"/>
<line class="st0" x1="300" y1="420" x2="420" y2="420"/>
<line class="st0" x1="300" y1="660" x2="420" y2="660"/>
<line class="st0" x1="360" y1="540" x2="360" y2="840"/>
<path class="st0" d="M480,180c33.1,0,60-26.9,60-60V60"/>
<line class="st0" x1="660" y1="120" x2="540" y2="120"/>
<path class="st0" d="M600,300c33.1,0,60,26.9,60,60v480"/>
<path class="st0" d="M600,480c33.1,0,60,26.9,60,60"/>
<path class="st0" d="M600,660c33.1,0,60,26.9,60,60"/>
<path class="st0" d="M540,840V360c0-33.1-26.9-60-60-60"/>
<path class="st0" d="M540,540c0-33.1-26.9-60-60-60"/>
<path class="st0" d="M540,720c0-33.1-26.9-60-60-60"/>
<path class="st0" d="M360,540L360,540c-33.1,0-60-26.9-60-60V360c0-33.1,26.9-60,60-60h0c33.1,0,60,26.9,60,60v120
	C420,513.1,393.1,540,360,540z"/>
</svg>
