<?xml version="1.0" encoding="utf-8"?>
<!-- Generator: Adobe Illustrator 26.0.0, SVG Export Plug-In . SVG Version: 6.00 Build 0)  -->
<svg version="1.1" id="图层_1" xmlns="http://www.w3.org/2000/svg" xmlns:xlink="http://www.w3.org/1999/xlink" x="0px" y="0px"
	 viewBox="0 0 720 900" style="enable-background:new 0 0 720 900;" xml:space="preserve">
<style type="text/css">
	.st0{fill:none;stroke:#000000;stroke-width:48;stroke-linecap:round;stroke-linejoin:round;stroke-miterlimit:10;}
</style>
<path class="st0" d="M180,540v60c0,33.1,26.9,60,60,60h300"/>
<line class="st0" x1="240" y1="540" x2="540" y2="540"/>
<line class="st0" x1="180" y1="300" x2="540" y2="300"/>
<line class="st0" x1="300" y1="240" x2="300" y2="420"/>
<line class="st0" x1="60" y1="420" x2="660" y2="420"/>
<path class="st0" d="M420,240v60c0,99.4-80.6,180-180,180h-60"/>
<line class="st0" x1="240" y1="780" x2="480" y2="780"/>
<path class="st0" d="M540,840H180c-33.1,0-60-26.9-60-60v0c0-33.1,26.9-60,60-60h360c33.1,0,60,26.9,60,60v0
	C600,813.1,573.1,840,540,840z"/>
</svg>
