<?xml version="1.0" encoding="utf-8"?>
<!-- Generator: Adobe Illustrator 26.0.0, SVG Export Plug-In . SVG Version: 6.00 Build 0)  -->
<svg version="1.1" id="图层_1" xmlns="http://www.w3.org/2000/svg" xmlns:xlink="http://www.w3.org/1999/xlink" x="0px" y="0px"
	 viewBox="0 0 720 900" style="enable-background:new 0 0 720 900;" xml:space="preserve">
<style type="text/css">
	.st0{fill:none;stroke:#000000;stroke-width:48;stroke-linecap:round;stroke-linejoin:round;stroke-miterlimit:10;}
</style>
<path class="st0" d="M180,840V660c0-33.1-26.9-60-60-60l0,0c-33.1,0-60,26.9-60,60v180"/>
<path class="st0" d="M180,300c0,33.1-26.9,60-60,60l0,0c-33.1,0-60-26.9-60-60"/>
<line class="st0" x1="120" y1="240" x2="120" y2="840"/>
<line class="st0" x1="60" y1="420" x2="180" y2="420"/>
<line class="st0" x1="60" y1="540" x2="180" y2="540"/>
<path class="st0" d="M420,240v60c0,33.1-26.9,60-60,60h-60"/>
<path class="st0" d="M540,240v60c0,33.1-26.9,60-60,60l0,0c-33.1,0-60-26.9-60-60"/>
<path class="st0" d="M540,300c0,33.1,26.9,60,60,60h60"/>
<path class="st0" d="M420,420v60c0,33.1-26.9,60-60,60h-60"/>
<path class="st0" d="M540,420v60c0,33.1-26.9,60-60,60l0,0c-33.1,0-60-26.9-60-60"/>
<path class="st0" d="M540,480c0,33.1,26.9,60,60,60h60"/>
<line class="st0" x1="420" y1="720" x2="540" y2="720"/>
<path class="st0" d="M540,600H420c-66.3,0-120,53.7-120,120v0c0,66.3,53.7,120,120,120h120c66.3,0,120-53.7,120-120v0
	C660,653.7,606.3,600,540,600z"/>
</svg>
