<?xml version="1.0" encoding="utf-8"?>
<!-- Generator: Adobe Illustrator 26.0.0, SVG Export Plug-In . SVG Version: 6.00 Build 0)  -->
<svg version="1.1" id="图层_1" xmlns="http://www.w3.org/2000/svg" xmlns:xlink="http://www.w3.org/1999/xlink" x="0px" y="0px"
	 viewBox="0 0 720 900" style="enable-background:new 0 0 720 900;" xml:space="preserve">
<style type="text/css">
	.st0{fill:none;stroke:#000000;stroke-width:48;stroke-linecap:round;stroke-linejoin:round;stroke-miterlimit:10;}
</style>
<path class="st0" d="M540,360v120"/>
<path class="st0" d="M600,240h-60c-33.1,0-60-26.9-60-60v-60c0-33.1,26.9-60,60-60h60c33.1,0,60,26.9,60,60v60
	C660,213.1,633.1,240,600,240z"/>
<path class="st0" d="M600,840V660c0-33.1-26.9-60-60-60l0,0c-33.1,0-60-26.9-60-60s26.9-60,60-60h60c33.1,0,60-26.9,60-60
	s-26.9-60-60-60H480"/>
<path class="st0" d="M300,60v540c0,33.1,26.9,60,60,60h60"/>
<path class="st0" d="M240,60h180"/>
<path class="st0" d="M420,840V240c0-33.1-26.9-60-60-60h-60"/>
<path class="st0" d="M300,420h120"/>
</svg>
