<?xml version="1.0" encoding="utf-8"?>
<!-- Generator: Adobe Illustrator 26.0.0, SVG Export Plug-In . SVG Version: 6.00 Build 0)  -->
<svg version="1.1" id="图层_1" xmlns="http://www.w3.org/2000/svg" xmlns:xlink="http://www.w3.org/1999/xlink" x="0px" y="0px"
	 viewBox="0 0 720 900" style="enable-background:new 0 0 720 900;" xml:space="preserve">
<style type="text/css">
	.st0{fill:none;stroke:#000000;stroke-width:48;stroke-linecap:round;stroke-linejoin:round;stroke-miterlimit:10;}
</style>
<path class="st0" d="M300,540h120c33.2,0,60-26.9,60-60v-60"/>
<path class="st0" d="M600,720c33.2,0,60,26.8,60,60"/>
<path class="st0" d="M360,600v180c0,33.2-26.9,60-60,60"/>
<path class="st0" d="M360,720c33.1,0,60,26.8,60,60"/>
<line class="st0" x1="600" y1="600" x2="600" y2="840"/>
<path class="st0" d="M300,60v240c0,33.1,26.9,60,60,60h60"/>
<line class="st0" x1="240" y1="60" x2="480" y2="60"/>
<path class="st0" d="M420,420V180c0-33.1-26.9-60-60-60h-60"/>
<line class="st0" x1="300" y1="240" x2="420" y2="240"/>
<path class="st0" d="M540,60h120v120c0,66.3-53.7,120-120,120"/>
<path class="st0" d="M540,180v120c0,66.3,53.7,120,120,120"/>
<path class="st0" d="M480,480c33.1,0,60,26.9,60,60s-26.9,60-60,60v240"/>
</svg>
