<?xml version="1.0" encoding="utf-8"?>
<!-- Generator: Adobe Illustrator 26.0.0, SVG Export Plug-In . SVG Version: 6.00 Build 0)  -->
<svg version="1.1" id="图层_1" xmlns="http://www.w3.org/2000/svg" xmlns:xlink="http://www.w3.org/1999/xlink" x="0px" y="0px"
	 viewBox="0 0 720 900" style="enable-background:new 0 0 720 900;" xml:space="preserve">
<style type="text/css">
	.st0{fill:none;stroke:#000000;stroke-width:48;stroke-linecap:round;stroke-linejoin:round;stroke-miterlimit:10;}
</style>
<path class="st0" d="M240,300c0-66.3-53.7-120-120-120"/>
<path class="st0" d="M240,480c0-66.3-53.7-120-120-120"/>
<path class="st0" d="M60,600c33.2,0,60-26.8,60-60V150c0-49.7,40.3-90,90-90h0c49.7,0,90,40.3,90,90v390c0,33.1-26.9,60-60,60"/>
<line class="st0" x1="420" y1="240" x2="660" y2="240"/>
<path class="st0" d="M540,420c66.3,0,120,53.7,120,120v60"/>
<line class="st0" x1="660" y1="120" x2="660" y2="300"/>
<path class="st0" d="M540,60v420c0,66.3-53.7,120-120,120"/>
</svg>
