<?xml version="1.0" encoding="utf-8"?>
<!-- Generator: Adobe Illustrator 26.0.0, SVG Export Plug-In . SVG Version: 6.00 Build 0)  -->
<svg version="1.1" id="图层_1" xmlns="http://www.w3.org/2000/svg" xmlns:xlink="http://www.w3.org/1999/xlink" x="0px" y="0px"
	 viewBox="0 0 720 900" style="enable-background:new 0 0 720 900;" xml:space="preserve">
<style type="text/css">
	.st0{fill:none;stroke:#000000;stroke-width:48;stroke-linecap:round;stroke-linejoin:round;stroke-miterlimit:10;}
</style>
<path class="st0" d="M120,60v720c0,33.2-26.8,60-60,60"/>
<path class="st0" d="M600,60v720c0,33.2,26.8,60,60,60"/>
<line class="st0" x1="360" y1="120" x2="360" y2="60"/>
<line class="st0" x1="360" y1="300" x2="360" y2="240"/>
<path class="st0" d="M240,840V600c0-66.3,53.7-120,120-120h0c66.3,0,120,53.7,120,120v240"/>
<path class="st0" d="M240,600h120c33.1,0,60,26.8,60,60"/>
<path class="st0" d="M240,720h120c33.1,0,60,26.8,60,60"/>
<path class="st0" d="M420,420H300c-33.1,0-60-26.9-60-60v0c0-33.1,26.9-60,60-60h120c33.1,0,60,26.9,60,60v0
	C480,393.1,453.1,420,420,420z"/>
<path class="st0" d="M420,240H300c-33.1,0-60-26.9-60-60v0c0-33.1,26.9-60,60-60h120c33.1,0,60,26.9,60,60v0
	C480,213.1,453.1,240,420,240z"/>
</svg>
