<?xml version="1.0" encoding="utf-8"?>
<!-- Generator: Adobe Illustrator 26.0.0, SVG Export Plug-In . SVG Version: 6.00 Build 0)  -->
<svg version="1.1" id="图层_1" xmlns="http://www.w3.org/2000/svg" xmlns:xlink="http://www.w3.org/1999/xlink" x="0px" y="0px"
	 viewBox="0 0 720 900" style="enable-background:new 0 0 720 900;" xml:space="preserve">
<style type="text/css">
	.st0{fill:none;stroke:#000000;stroke-width:48;stroke-linecap:round;stroke-linejoin:round;stroke-miterlimit:10;}
</style>
<line class="st0" x1="420" y1="240" x2="660" y2="240"/>
<line class="st0" x1="600" y1="180" x2="600" y2="420"/>
<line class="st0" x1="480" y1="300" x2="480" y2="360"/>
<path class="st0" d="M300,300c33.2,0,60-26.9,60-60v-60"/>
<line class="st0" x1="480" y1="60" x2="480" y2="120"/>
<path class="st0" d="M660,120H300c-66.3,0-120,53.7-120,120v480c0,66.3-53.7,120-120,120"/>
<path class="st0" d="M300,840V600c0-66.3,53.7-120,120-120h120c66.3,0,120,53.7,120,120v240"/>
<path class="st0" d="M480,420v120c0,66.3-53.7,120-120,120h-60"/>
<line class="st0" x1="360" y1="420" x2="360" y2="240"/>
<path class="st0" d="M480,540c0,66.3,53.7,120,120,120h60"/>
<path class="st0" d="M660,780H540c-33.1,0-60-26.9-60-60c0,33.1-26.9,60-60,60H300"/>
</svg>
