<?xml version="1.0" encoding="utf-8"?>
<!-- Generator: Adobe Illustrator 26.0.0, SVG Export Plug-In . SVG Version: 6.00 Build 0)  -->
<svg version="1.1" id="图层_1" xmlns="http://www.w3.org/2000/svg" xmlns:xlink="http://www.w3.org/1999/xlink" x="0px" y="0px"
	 viewBox="0 0 720 900" style="enable-background:new 0 0 720 900;" xml:space="preserve">
<style type="text/css">
	.st0{fill:none;stroke:#000000;stroke-width:48;stroke-linecap:round;stroke-linejoin:round;stroke-miterlimit:10;}
</style>
<line class="st0" x1="60" y1="840" x2="300" y2="840"/>
<line class="st0" x1="180" y1="480" x2="180" y2="840"/>
<line class="st0" x1="60" y1="660" x2="300" y2="660"/>
<path class="st0" d="M300,120C167.4,120,60,227.4,60,360c0,66.3,53.7,120,120,120s120-53.7,120-120c0,0,0,0,0,0
	c0-132.6-107.4-240-240-240"/>
<line class="st0" x1="420" y1="120" x2="660" y2="120"/>
<line class="st0" x1="420" y1="240" x2="660" y2="240"/>
<line class="st0" x1="420" y1="360" x2="660" y2="360"/>
<line class="st0" x1="540" y1="60" x2="540" y2="360"/>
<path class="st0" d="M600,360v60c0,33.1,26.8,60,60,60"/>
<path class="st0" d="M480,360v60c0,33.1-26.9,60-60,60"/>
<path class="st0" d="M660,840c0-66.3-53.7-120-120-120s-120,53.7-120,120"/>
<path class="st0" d="M600,540c-33.1,0-60,26.9-60,60v240"/>
<line class="st0" x1="420" y1="660" x2="660" y2="660"/>
</svg>
