<?xml version="1.0" encoding="utf-8"?>
<!-- Generator: Adobe Illustrator 26.0.0, SVG Export Plug-In . SVG Version: 6.00 Build 0)  -->
<svg version="1.1" id="图层_1" xmlns="http://www.w3.org/2000/svg" xmlns:xlink="http://www.w3.org/1999/xlink" x="0px" y="0px"
	 viewBox="0 0 720 900" style="enable-background:new 0 0 720 900;" xml:space="preserve">
<style type="text/css">
	.st0{fill:none;stroke:#000000;stroke-width:48;stroke-linecap:round;stroke-linejoin:round;stroke-miterlimit:10;}
</style>
<path class="st0" d="M180,300H60"/>
<path class="st0" d="M180,480H60"/>
<line class="st0" x1="60" y1="660" x2="660" y2="660"/>
<path class="st0" d="M480,600v120c0,66.3,53.7,120,120,120"/>
<path class="st0" d="M240,600v120c0,66.3-53.7,120-120,120"/>
<path class="st0" d="M420,420H300c-33.1,0-60-26.9-60-60V240c0-33.1,26.9-60,60-60h120c33.1,0,60,26.9,60,60v120
	C480,393.1,453.1,420,420,420z"/>
<line class="st0" x1="360" y1="60" x2="360" y2="600"/>
<line class="st0" x1="240" y1="300" x2="480" y2="300"/>
<line class="st0" x1="240" y1="120" x2="480" y2="120"/>
<line class="st0" x1="240" y1="480" x2="480" y2="480"/>
<path class="st0" d="M60,600l0-420c0-66.3,53.7-120,120-120h0"/>
<path class="st0" d="M540,300h120"/>
<path class="st0" d="M540,480h120"/>
<path class="st0" d="M660,600l0-420c0-66.3-53.7-120-120-120h0"/>
</svg>
