<?xml version="1.0" encoding="utf-8"?>
<!-- Generator: Adobe Illustrator 26.0.0, SVG Export Plug-In . SVG Version: 6.00 Build 0)  -->
<svg version="1.1" id="图层_1" xmlns="http://www.w3.org/2000/svg" xmlns:xlink="http://www.w3.org/1999/xlink" x="0px" y="0px"
	 viewBox="0 0 720 900" style="enable-background:new 0 0 720 900;" xml:space="preserve">
<style type="text/css">
	.st0{fill:none;stroke:#000000;stroke-width:48;stroke-linecap:round;stroke-linejoin:round;stroke-miterlimit:10;}
</style>
<path class="st0" d="M300,600v60c0,33.1,26.9,60,60,60"/>
<line class="st0" x1="660" y1="540" x2="480" y2="540"/>
<path class="st0" d="M660,720h-60c-33.1,0-60-26.9-60-60l0-120"/>
<line class="st0" x1="600" y1="420" x2="600" y2="840"/>
<path class="st0" d="M300,360c0-33.1,26.9-60,60-60h240c33.1,0,60,26.9,60,60"/>
<line class="st0" x1="480" y1="60" x2="480" y2="179.9"/>
<path class="st0" d="M300,179.9c33.1,0,59.8-26.8,59.8-59.9l0,0c0-33.1,26.9-60,60-60H660"/>
<path class="st0" d="M660,180.1c-33.1,0-60-26.9-60-60.1V60"/>
<path class="st0" d="M300,540h60c33.1,0,60-26.9,60-60l0-60"/>
<path class="st0" d="M300,840h60c33.1,0,60-26.9,60-60V600"/>
</svg>
