<?xml version="1.0" encoding="utf-8"?>
<!-- Generator: Adobe Illustrator 26.0.0, SVG Export Plug-In . SVG Version: 6.00 Build 0)  -->
<svg version="1.1" id="图层_1" xmlns="http://www.w3.org/2000/svg" xmlns:xlink="http://www.w3.org/1999/xlink" x="0px" y="0px"
	 viewBox="0 0 720 900" style="enable-background:new 0 0 720 900;" xml:space="preserve">
<style type="text/css">
	.st0{fill:none;stroke:#000000;stroke-width:48;stroke-linecap:round;stroke-linejoin:round;stroke-miterlimit:10;}
</style>
<line class="st0" x1="600" y1="540" x2="360" y2="540"/>
<path class="st0" d="M600,720H480c-33.1,0-60-26.9-60-60V540"/>
<line class="st0" x1="540" y1="420" x2="540" y2="840"/>
<path class="st0" d="M120,540h60c66.3,0,120-53.7,120-120"/>
<path class="st0" d="M300,600v120c0,66.3-53.7,120-120,120h-60"/>
<path class="st0" d="M60,360c0-33.1,26.9-60,60-60h480c33.1,0,60,26.9,60,60"/>
<line class="st0" x1="360" y1="60" x2="360" y2="179.9"/>
<path class="st0" d="M120.2,179.9c33.1,0,59.8-26.8,59.8-59.9l0,0c0-33.1,26.9-60,60-60h360"/>
<path class="st0" d="M600,180.1c-33.1,0-60-26.9-60-60.1V60"/>
<line class="st0" x1="180" y1="480" x2="180" y2="780"/>
</svg>
