<?xml version="1.0" encoding="utf-8"?>
<!-- Generator: Adobe Illustrator 26.0.0, SVG Export Plug-In . SVG Version: 6.00 Build 0)  -->
<svg version="1.1" id="图层_1" xmlns="http://www.w3.org/2000/svg" xmlns:xlink="http://www.w3.org/1999/xlink" x="0px" y="0px"
	 viewBox="0 0 720 900" style="enable-background:new 0 0 720 900;" xml:space="preserve">
<style type="text/css">
	.st0{fill:none;stroke:#000000;stroke-width:48;stroke-linecap:round;stroke-linejoin:round;stroke-miterlimit:10;}
</style>
<path class="st0" d="M540,480h120v120c0,66.3-53.7,120-120,120"/>
<path class="st0" d="M540,600v120l0,0c0,66.2,53.8,120,120,120"/>
<path class="st0" d="M660,360V120c0-33.1-26.9-60-60-60l0,0c-33.1,0-60,26.9-60,60v240"/>
<line class="st0" x1="300" y1="480" x2="420" y2="480"/>
<line class="st0" x1="300" y1="300" x2="360" y2="300"/>
<line class="st0" x1="300" y1="660" x2="360" y2="660"/>
<path class="st0" d="M300,180v660"/>
<path class="st0" d="M300,60c0,33.2,26.8,60,60,60c33.1,0,60,26.9,60,60v600c0,33.1-26.9,60-60,60"/>
</svg>
