<?xml version="1.0" encoding="utf-8"?>
<!-- Generator: Adobe Illustrator 26.0.0, SVG Export Plug-In . SVG Version: 6.00 Build 0)  -->
<svg version="1.1" id="图层_1" xmlns="http://www.w3.org/2000/svg" xmlns:xlink="http://www.w3.org/1999/xlink" x="0px" y="0px"
	 viewBox="0 0 720 900" style="enable-background:new 0 0 720 900;" xml:space="preserve">
<style type="text/css">
	.st0{fill:none;stroke:#000000;stroke-width:48;stroke-linecap:round;stroke-linejoin:round;stroke-miterlimit:10;}
</style>
<line class="st0" x1="60" y1="300" x2="300" y2="300"/>
<line class="st0" x1="180" y1="240" x2="180" y2="360"/>
<line class="st0" x1="420" y1="300" x2="660" y2="300"/>
<line class="st0" x1="540" y1="240" x2="540" y2="360"/>
<path class="st0" d="M480,420H240c-66.3,0-120,53.7-120,120v0c0,66.3,53.7,120,120,120h240c66.3,0,120-53.7,120-120v0
	C600,473.7,546.3,420,480,420z"/>
<circle class="st0" cx="360" cy="540" r="120"/>
<path class="st0" d="M300,660l0,120c0,33.1-26.9,60-60,60H120"/>
<path class="st0" d="M420,660v120c0,33.1,26.9,60,60,60h120"/>
</svg>
