<?xml version="1.0" encoding="utf-8"?>
<!-- Generator: Adobe Illustrator 26.0.0, SVG Export Plug-In . SVG Version: 6.00 Build 0)  -->
<svg version="1.1" id="图层_1" xmlns="http://www.w3.org/2000/svg" xmlns:xlink="http://www.w3.org/1999/xlink" x="0px" y="0px"
	 viewBox="0 0 720 900" style="enable-background:new 0 0 720 900;" xml:space="preserve">
<style type="text/css">
	.st0{fill:none;stroke:#000000;stroke-width:48;stroke-linecap:round;stroke-linejoin:round;stroke-miterlimit:10;}
</style>
<line class="st0" x1="180" y1="360" x2="660" y2="360"/>
<path class="st0" d="M60,840c66.3,0,120-53.7,120-120V300"/>
<line class="st0" x1="540" y1="600" x2="660" y2="600"/>
<line class="st0" x1="540" y1="300" x2="660" y2="300"/>
<path class="st0" d="M660,840c-66.3,0-120-53.7-120-120l0,0V240"/>
<line class="st0" x1="240" y1="600" x2="480" y2="600"/>
<line class="st0" x1="240" y1="660" x2="480" y2="660"/>
<path class="st0" d="M420,780H300c-33.1,0-60-26.9-60-60V540c0-33.1,26.9-60,60-60h120c33.1,0,60,26.9,60,60v180
	C480,753.1,453.1,780,420,780z"/>
<line class="st0" x1="300" y1="780" x2="300" y2="840"/>
<line class="st0" x1="420" y1="780" x2="420" y2="840"/>
</svg>
