<?xml version="1.0" encoding="utf-8"?>
<!-- Generator: Adobe Illustrator 26.0.0, SVG Export Plug-In . SVG Version: 6.00 Build 0)  -->
<svg version="1.1" id="图层_1" xmlns="http://www.w3.org/2000/svg" xmlns:xlink="http://www.w3.org/1999/xlink" x="0px" y="0px"
	 viewBox="0 0 720 900" style="enable-background:new 0 0 720 900;" xml:space="preserve">
<style type="text/css">
	.st0{fill:none;stroke:#000000;stroke-width:48;stroke-linecap:round;stroke-linejoin:round;stroke-miterlimit:10;}
</style>
<path class="st0" d="M120,600h240v60c0,66.3-53.7,120-120,120H60"/>
<path class="st0" d="M180,660v60c0,66.3,53.7,120,120,120h120"/>
<path class="st0" d="M60,479.5h300c33.1,0,60,26.9,60,60"/>
<path class="st0" d="M60,300h300c33.1,0,60,26.9,60,60"/>
<path class="st0" d="M180,240c33.1,0,60,26.4,60,59.5l0,0v180"/>
<path class="st0" d="M120,239.5c-33.1,0-60,26.9-60,60V540"/>
<line class="st0" x1="60" y1="420" x2="360" y2="420"/>
<line class="st0" x1="60" y1="360" x2="360" y2="360"/>
<line class="st0" x1="60" y1="120" x2="180" y2="120"/>
<line class="st0" x1="120" y1="60" x2="120" y2="180"/>
<line class="st0" x1="300" y1="120" x2="420" y2="120"/>
<line class="st0" x1="360" y1="60" x2="360" y2="180"/>
</svg>
