<?xml version="1.0" encoding="utf-8"?>
<!-- Generator: Adobe Illustrator 26.0.0, SVG Export Plug-In . SVG Version: 6.00 Build 0)  -->
<svg version="1.1" id="图层_1" xmlns="http://www.w3.org/2000/svg" xmlns:xlink="http://www.w3.org/1999/xlink" x="0px" y="0px"
	 viewBox="0 0 720 900" style="enable-background:new 0 0 720 900;" xml:space="preserve">
<style type="text/css">
	.st0{fill:none;stroke:#000000;stroke-width:48;stroke-linecap:round;stroke-linejoin:round;stroke-miterlimit:10;}
</style>
<path class="st0" d="M300,600H180c-33.1,0-60-26.9-60-60V420c0-33.1,26.9-60,60-60h120c33.1,0,60,26.9,60,60v120
	C360,573.1,333.1,600,300,600z"/>
<line class="st0" x1="180" y1="360" x2="180" y2="300"/>
<line class="st0" x1="300" y1="300" x2="300" y2="360"/>
<line class="st0" x1="240" y1="360" x2="240" y2="840"/>
<line class="st0" x1="120" y1="480" x2="360" y2="480"/>
<line class="st0" x1="120" y1="720" x2="360" y2="720"/>
<path class="st0" d="M660,300H540c-33.1,0-60,26.9-60,60v480"/>
<line class="st0" x1="480" y1="420" x2="660" y2="420"/>
<line class="st0" x1="600" y1="420" x2="600" y2="840"/>
</svg>
