<?xml version="1.0" encoding="utf-8"?>
<!-- Generator: Adobe Illustrator 26.0.0, SVG Export Plug-In . SVG Version: 6.00 Build 0)  -->
<svg version="1.1" id="图层_1" xmlns="http://www.w3.org/2000/svg" xmlns:xlink="http://www.w3.org/1999/xlink" x="0px" y="0px"
	 viewBox="0 0 720 900" style="enable-background:new 0 0 720 900;" xml:space="preserve">
<style type="text/css">
	.st0{fill:none;stroke:#000000;stroke-width:48;stroke-linecap:round;stroke-linejoin:round;stroke-miterlimit:10;}
</style>
<path class="st0" d="M60,120h360c66.3,0,120,53.7,120,120v480c0,66.3,53.7,120,120,120"/>
<line class="st0" x1="60" y1="300" x2="420" y2="300"/>
<path class="st0" d="M360,600H120c-33.1,0-60-26.9-60-60l0,0c0-33.1,26.9-60,60-60h240c33.1,0,60,26.9,60,60l0,0
	C420,573.1,393.1,600,360,600z"/>
<path class="st0" d="M420,780L420,780c0,33.1-26.9,60-60,60H120c-33.1,0-60-26.9-60-60l0,0c0-33.1,26.9-60,60-60h60
	c33.1,0,60-26.9,60-60V360"/>
</svg>
