<?xml version="1.0" encoding="utf-8"?>
<!-- Generator: Adobe Illustrator 26.0.0, SVG Export Plug-In . SVG Version: 6.00 Build 0)  -->
<svg version="1.1" id="图层_1" xmlns="http://www.w3.org/2000/svg" xmlns:xlink="http://www.w3.org/1999/xlink" x="0px" y="0px"
	 viewBox="0 0 720 900" style="enable-background:new 0 0 720 900;" xml:space="preserve">
<style type="text/css">
	.st0{fill:none;stroke:#000000;stroke-width:48;stroke-linecap:round;stroke-linejoin:round;stroke-miterlimit:10;}
</style>
<path class="st0" d="M600,180H360c-33.1,0-60-26.9-60-60v0c0-33.1,26.9-60,60-60h240c33.1,0,60,26.9,60,60v0
	C660,153.1,633.1,180,600,180z"/>
<circle class="st0" cx="480" cy="120" r="60"/>
<line class="st0" x1="480" y1="300" x2="480" y2="240"/>
<path class="st0" d="M480,600H360c-33.1,0-60-26.9-60-60l0,0c0-33.1,26.9-60,60-60h120c33.1,0,60,26.9,60,60l0,0
	C540,573.1,513.1,600,480,600z"/>
<path class="st0" d="M540,720L540,720c0,33.1-26.9,60-60,60H360c-33.1,0-60-26.9-60-60l0,0c0-33.1,26.9-60,60-60l0,0
	c33.1,0,60-26.9,60-60V420"/>
<path class="st0" d="M600,840c33.1,0,60-26.9,60-60V420c0-66.3-53.7-120-120-120H360c-33.1,0-60,26.9-60,60"/>
</svg>
