<?xml version="1.0" encoding="utf-8"?>
<!-- Generator: Adobe Illustrator 26.0.0, SVG Export Plug-In . SVG Version: 6.00 Build 0)  -->
<svg version="1.1" id="图层_1" xmlns="http://www.w3.org/2000/svg" xmlns:xlink="http://www.w3.org/1999/xlink" x="0px" y="0px"
	 viewBox="0 0 720 900" style="enable-background:new 0 0 720 900;" xml:space="preserve">
<style type="text/css">
	.st0{fill:none;stroke:#000000;stroke-width:48;stroke-linecap:round;stroke-linejoin:round;stroke-miterlimit:10;}
</style>
<circle class="st0" cx="540" cy="180" r="60"/>
<line class="st0" x1="540" y1="420" x2="540" y2="360"/>
<path class="st0" d="M600,840c33.1,0,60-26.9,60-60V480c0-33.1-26.9-60-60-60H420"/>
<circle class="st0" cx="480" cy="600" r="60"/>
<path class="st0" d="M540,780c0,33.1-26.9,60-60,60s-60-26.9-60-60s26.9-60,60-60V480"/>
<circle class="st0" cx="540" cy="180" r="120"/>
<path class="st0" d="M60,420c0,33.1,26.9,60,60,60h120c33.1,0,60-26.9,60-60"/>
<line class="st0" x1="120" y1="480" x2="120" y2="840"/>
<line class="st0" x1="240" y1="480" x2="240" y2="840"/>
<line class="st0" x1="300" y1="540" x2="300" y2="780"/>
<line class="st0" x1="60" y1="540" x2="60" y2="780"/>
<line class="st0" x1="60" y1="840" x2="300" y2="840"/>
<line class="st0" x1="60" y1="180" x2="300" y2="180"/>
<line class="st0" x1="60" y1="60" x2="120" y2="60"/>
<line class="st0" x1="240" y1="60" x2="300" y2="60"/>
<line class="st0" x1="60" y1="300" x2="120" y2="300"/>
<path class="st0" d="M180,180v60c0,33.1,26.9,60,60,60h60"/>
</svg>
