<?xml version="1.0" encoding="utf-8"?>
<!-- Generator: Adobe Illustrator 26.0.0, SVG Export Plug-In . SVG Version: 6.00 Build 0)  -->
<svg version="1.1" id="图层_1" xmlns="http://www.w3.org/2000/svg" xmlns:xlink="http://www.w3.org/1999/xlink" x="0px" y="0px"
	 viewBox="0 0 720 900" style="enable-background:new 0 0 720 900;" xml:space="preserve">
<style type="text/css">
	.st0{fill:none;stroke:#000000;stroke-width:48;stroke-linecap:round;stroke-linejoin:round;stroke-miterlimit:10;}
</style>
<path class="st0" d="M240,60v120.2"/>
<path class="st0" d="M240,300.2V480"/>
<path class="st0" d="M479.8,300.2V480"/>
<path class="st0" d="M360,480V60"/>
<path class="st0" d="M360,180h59.8c33.2,0.1,60.2-26.8,60.2-60V60"/>
<path class="st0" d="M120,240.2V480"/>
<path class="st0" d="M60,240.2h60c33.1,0,60-26.9,60-60"/>
<path class="st0" d="M60,120h60c33.1,0,60-26.9,60-60"/>
<path class="st0" d="M600,240.2V480"/>
<path class="st0" d="M660,240.2h-60c-33.1,0-60-26.9-60-60"/>
<path class="st0" d="M660,120h-60c-33.1,0-60-26.9-60-60"/>
</svg>
