<?xml version="1.0" encoding="utf-8"?>
<!-- Generator: Adobe Illustrator 26.0.0, SVG Export Plug-In . SVG Version: 6.00 Build 0)  -->
<svg version="1.1" id="图层_1" xmlns="http://www.w3.org/2000/svg" xmlns:xlink="http://www.w3.org/1999/xlink" x="0px" y="0px"
	 viewBox="0 0 720 900" style="enable-background:new 0 0 720 900;" xml:space="preserve">
<style type="text/css">
	.st0{fill:none;stroke:#000000;stroke-width:48;stroke-linecap:round;stroke-linejoin:round;stroke-miterlimit:10;}
</style>
<line class="st0" x1="240" y1="600" x2="480" y2="600"/>
<path class="st0" d="M240,660V480c0-33.1,26.9-60,60-60h120c33.1,0,60,26.9,60,60v180"/>
<path class="st0" d="M240,300h120c33.1,0,60,26.9,60,60l0,0v60"/>
<line class="st0" x1="300" y1="300" x2="300" y2="360"/>
<line class="st0" x1="240" y1="540" x2="480" y2="540"/>
<line class="st0" x1="360" y1="420" x2="360" y2="660"/>
<line class="st0" x1="240" y1="780" x2="480" y2="780"/>
<path class="st0" d="M360,720v60c0,33.1-26.9,60-60,60h-60"/>
<line class="st0" x1="120" y1="600" x2="120" y2="840"/>
<path class="st0" d="M60,600h60c33.1,0,60-26.9,60-60v-60"/>
<path class="st0" d="M60,420h60c33.1,0,60-26.9,60-60v-60"/>
<line class="st0" x1="600" y1="600" x2="600" y2="840"/>
<path class="st0" d="M660,600h-60c-33.1,0-60-26.9-60-60v-60"/>
<path class="st0" d="M660,420h-60c-33.1,0-60-26.9-60-60v-60"/>
<path class="st0" d="M360,780c0,33.1,26.9,60,60,60h60"/>
</svg>
