<?xml version="1.0" encoding="utf-8"?>
<!-- Generator: Adobe Illustrator 26.0.0, SVG Export Plug-In . SVG Version: 6.00 Build 0)  -->
<svg version="1.1" id="图层_1" xmlns="http://www.w3.org/2000/svg" xmlns:xlink="http://www.w3.org/1999/xlink" x="0px" y="0px"
	 viewBox="0 0 720 900" style="enable-background:new 0 0 720 900;" xml:space="preserve">
<style type="text/css">
	.st0{fill:none;stroke:#000000;stroke-width:48;stroke-linecap:round;stroke-linejoin:round;stroke-miterlimit:10;}
</style>
<path class="st0" d="M360,240v60"/>
<path class="st0" d="M660,300H60"/>
<path class="st0" d="M180,600V420c0-33.1,26.9-60,60-60h240c33.1,0,60,26.9,60,60v180"/>
<line class="st0" x1="240" y1="600" x2="480" y2="600"/>
<line class="st0" x1="60" y1="480" x2="660" y2="480"/>
<path class="st0" d="M120,780c0-66.3,53.7-120,120-120v120c0,33.1,26.9,60,60,60h180"/>
<path class="st0" d="M420,780c33.1,0,60-26.8,60-60v-60c66.3,0,120,53.7,120,120"/>
</svg>
