<?xml version="1.0" encoding="utf-8"?>
<!-- Generator: Adobe Illustrator 26.0.0, SVG Export Plug-In . SVG Version: 6.00 Build 0)  -->
<svg version="1.1" id="图层_1" xmlns="http://www.w3.org/2000/svg" xmlns:xlink="http://www.w3.org/1999/xlink" x="0px" y="0px"
	 viewBox="0 0 720 900" style="enable-background:new 0 0 720 900;" xml:space="preserve">
<style type="text/css">
	.st0{fill:none;stroke:#000000;stroke-width:48;stroke-linecap:round;stroke-linejoin:round;stroke-miterlimit:10;}
</style>
<path class="st0" d="M600,600H480c-66.2,0-120-53.8-120-120"/>
<path class="st0" d="M120,600h120c66.2,0,120-53.8,120-120v-60"/>
<path class="st0" d="M120,840V540c0-33.1,26.9-60,60-60h360c33.1,0,60,26.9,60,60v300"/>
<path class="st0" d="M240,660v120c0,33.1,26.9,60,60,60h120c33.1,0,60-26.9,60-60V660"/>
<line class="st0" x1="240" y1="720" x2="480" y2="720"/>
<path class="st0" d="M120,300c0-66.3,53.7-120,120-120v120c0,33.1,26.9,60,60,60h180"/>
<path class="st0" d="M360,300h60c33.1,0,60-26.9,60-60v-60c66.3,0,120,53.7,120,120"/>
<line class="st0" x1="360" y1="60" x2="360" y2="120"/>
<line class="st0" x1="60" y1="120" x2="660" y2="120"/>
</svg>
