<?xml version="1.0" encoding="utf-8"?>
<!-- Generator: Adobe Illustrator 26.0.0, SVG Export Plug-In . SVG Version: 6.00 Build 0)  -->
<svg version="1.1" id="图层_1" xmlns="http://www.w3.org/2000/svg" xmlns:xlink="http://www.w3.org/1999/xlink" x="0px" y="0px"
	 viewBox="0 0 720 900" style="enable-background:new 0 0 720 900;" xml:space="preserve">
<style type="text/css">
	.st0{fill:none;stroke:#000000;stroke-width:48;stroke-linecap:round;stroke-linejoin:round;stroke-miterlimit:10;}
</style>
<path class="st0" d="M480,480c33.1,0,60,26.9,60,60s-26.9,60-60,60s-60-26.9-60-60S446.9,480,480,480z"/>
<path class="st0" d="M120,600h240"/>
<path class="st0" d="M180,480h120"/>
<path class="st0" d="M300,840v-60c0-33.2-26.9-60-60-60s-60,26.8-60,60v60"/>
<path class="st0" d="M240,720V360"/>
<path class="st0" d="M480,720c-33.1,0-60-26.9-60-60V420c0-33.1,26.9-60,60-60s60,26.9,60,60v240C540,693.1,513.1,720,480,720z"/>
<path class="st0" d="M420,780v60"/>
<path class="st0" d="M540,780c0,33.1,26.9,60,60,60"/>
</svg>
