<?xml version="1.0" encoding="utf-8"?>
<!-- Generator: Adobe Illustrator 26.0.0, SVG Export Plug-In . SVG Version: 6.00 Build 0)  -->
<svg version="1.1" id="图层_1" xmlns="http://www.w3.org/2000/svg" xmlns:xlink="http://www.w3.org/1999/xlink" x="0px" y="0px"
	 viewBox="0 0 720 900" style="enable-background:new 0 0 720 900;" xml:space="preserve">
<style type="text/css">
	.st0{fill:none;stroke:#000000;stroke-width:48;stroke-linecap:round;stroke-linejoin:round;stroke-miterlimit:10;}
</style>
<path class="st0" d="M300,360c0-33.1,26.9-60,60-60h240c33.1,0,60,26.9,60,60"/>
<path class="st0" d="M300,60v60c0,33.1,26.9,60,60,60l0,0"/>
<path class="st0" d="M660,60v60c0,33.1-26.9,60-60,60l0,0"/>
<line class="st0" x1="480" y1="60" x2="480" y2="180"/>
<circle class="st0" cx="480" cy="540" r="60"/>
<path class="st0" d="M660,840h-60c-33.2,0-60-26.8-60-60l0,0"/>
<path class="st0" d="M300,840h60c33.1,0,60-26.8,60-60l0,0"/>
<line class="st0" x1="420" y1="720" x2="420" y2="780"/>
<path class="st0" d="M540,660H420c-66.3,0-120-53.7-120-120v0c0-66.3,53.7-120,120-120h120c66.3,0,120,53.7,120,120v0
	C660,606.3,606.3,660,540,660z"/>
</svg>
