<?xml version="1.0" encoding="utf-8"?>
<!-- Generator: Adobe Illustrator 26.0.0, SVG Export Plug-In . SVG Version: 6.00 Build 0)  -->
<svg version="1.1" id="图层_1" xmlns="http://www.w3.org/2000/svg" xmlns:xlink="http://www.w3.org/1999/xlink" x="0px" y="0px"
	 viewBox="0 0 720 900" style="enable-background:new 0 0 720 900;" xml:space="preserve">
<style type="text/css">
	.st0{fill:none;stroke:#000000;stroke-width:48;stroke-linecap:round;stroke-linejoin:round;stroke-miterlimit:10;}
</style>
<path class="st0" d="M60,420h60c66.3,0,120-53.7,120-120v-60"/>
<path class="st0" d="M60,540h120c99.4,0,180-80.6,180-180v-60"/>
<path class="st0" d="M660,420h-60c-66.3,0-120-53.7-120-120v-60"/>
<path class="st0" d="M180,600v180c0,33.1,26.9,60,60,60h240c33.1,0,60-26.9,60-60V600"/>
<line class="st0" x1="180" y1="660" x2="540" y2="660"/>
<path class="st0" d="M660,540H540c-99.4,0-180-80.6-180-180"/>
</svg>
