<?xml version="1.0" encoding="utf-8"?>
<!-- Generator: Adobe Illustrator 26.0.0, SVG Export Plug-In . SVG Version: 6.00 Build 0)  -->
<svg version="1.1" id="图层_1" xmlns="http://www.w3.org/2000/svg" xmlns:xlink="http://www.w3.org/1999/xlink" x="0px" y="0px"
	 viewBox="0 0 720 900" style="enable-background:new 0 0 720 900;" xml:space="preserve">
<style type="text/css">
	.st0{fill:none;stroke:#000000;stroke-width:48;stroke-linecap:round;stroke-linejoin:round;stroke-miterlimit:10;}
</style>
<line class="st0" x1="60" y1="540" x2="420" y2="540"/>
<line class="st0" x1="60" y1="840" x2="420" y2="840"/>
<path class="st0" d="M300,720H180c-33.1,0-60-26.9-60-60l0,0c0-33.1,26.9-60,60-60h120c33.1,0,60,26.9,60,60l0,0
	C360,693.1,333.1,720,300,720z"/>
<line class="st0" x1="180" y1="720" x2="180" y2="840"/>
<line class="st0" x1="300" y1="720" x2="300" y2="840"/>
<path class="st0" d="M60,120v240c0,33.1,26.9,60,60,60h240c33.1,0,60-26.9,60-60V120"/>
<line class="st0" x1="240" y1="60" x2="240" y2="420"/>
<path class="st0" d="M120,180c0,33.1,26.9,60,60,60"/>
<path class="st0" d="M120,60c0,33.1,26.9,60,60,60"/>
<path class="st0" d="M120,300c0,33.1,26.9,60,60,60"/>
<line class="st0" x1="180" y1="60" x2="180" y2="420"/>
<path class="st0" d="M360,180c0,33.1-26.9,60-60,60"/>
<path class="st0" d="M360,60c0,33.1-26.9,60-60,60"/>
<path class="st0" d="M360,300c0,33.1-26.9,60-60,60"/>
<line class="st0" x1="300" y1="60" x2="300" y2="420"/>
</svg>
