<?xml version="1.0" encoding="utf-8"?>
<!-- Generator: Adobe Illustrator 26.0.0, SVG Export Plug-In . SVG Version: 6.00 Build 0)  -->
<svg version="1.1" id="图层_1" xmlns="http://www.w3.org/2000/svg" xmlns:xlink="http://www.w3.org/1999/xlink" x="0px" y="0px"
	 viewBox="0 0 720 900" style="enable-background:new 0 0 720 900;" xml:space="preserve">
<style type="text/css">
	.st0{fill:none;stroke:#000000;stroke-width:48;stroke-linecap:round;stroke-linejoin:round;stroke-miterlimit:10;}
</style>
<path class="st0" d="M300,480h180c33.1,0,60-26.9,60-60V120c0-33.1-26.9-60-60-60H360"/>
<line class="st0" x1="480" y1="600" x2="300" y2="600"/>
<path class="st0" d="M660,840c0-66.3-53.7-120-120-120H300"/>
<path class="st0" d="M300,840h120c33.1,0,60-26.9,60-60V480"/>
<path class="st0" d="M480,360H360c-33.1,0-60-26.9-60-60l0,0c0-33.1,26.9-60,60-60h240c33.1,0,60,26.9,60,60l0,0
	c0,33.1-26.9,60-60,60"/>
<line class="st0" x1="420" y1="60" x2="420" y2="180"/>
</svg>
