<?xml version="1.0" encoding="utf-8"?>
<!-- Generator: Adobe Illustrator 26.0.0, SVG Export Plug-In . SVG Version: 6.00 Build 0)  -->
<svg version="1.1" id="图层_1" xmlns="http://www.w3.org/2000/svg" xmlns:xlink="http://www.w3.org/1999/xlink" x="0px" y="0px"
	 viewBox="0 0 720 900" style="enable-background:new 0 0 720 900;" xml:space="preserve">
<style type="text/css">
	.st0{fill:none;stroke:#000000;stroke-width:48;stroke-linecap:round;stroke-linejoin:round;stroke-miterlimit:10;}
</style>
<path class="st0" d="M600,720H480c-33.1,0-60-26.9-60-60V420c0-33.1,26.9-60,60-60h120c33.1,0,60,26.9,60,60v240
	C660,693.1,633.1,720,600,720z"/>
<path class="st0" d="M420,480h240"/>
<path class="st0" d="M420,600h240"/>
<path class="st0" d="M420,840c33.1,0,60-26.9,60-60v-60"/>
<path class="st0" d="M660,840c-33.1,0-60-26.9-60-60v-60"/>
<path class="st0" d="M540,240v120"/>
<path class="st0" d="M420,240h240"/>
<path class="st0" d="M660,60c0,33.1-26.9,60-60,60H420c-66.3,0-120,53.7-120,120v540c0,33.2-26.9,60-60,60"/>
</svg>
