<?xml version="1.0" encoding="utf-8"?>
<!-- Generator: Adobe Illustrator 26.0.0, SVG Export Plug-In . SVG Version: 6.00 Build 0)  -->
<svg version="1.1" id="图层_1" xmlns="http://www.w3.org/2000/svg" xmlns:xlink="http://www.w3.org/1999/xlink" x="0px" y="0px"
	 viewBox="0 0 720 900" style="enable-background:new 0 0 720 900;" xml:space="preserve">
<style type="text/css">
	.st0{fill:none;stroke:#000000;stroke-width:48;stroke-linecap:round;stroke-linejoin:round;stroke-miterlimit:10;}
</style>
<path class="st0" d="M540,60v660c0,66.3,53.7,120,120,120"/>
<path class="st0" d="M660,60c0,33.1-26.9,60-60,60h-60"/>
<line class="st0" x1="120" y1="300" x2="360" y2="300"/>
<line class="st0" x1="120" y1="360" x2="360" y2="360"/>
<path class="st0" d="M300,780H180c-33.1,0-60-26.9-60-60V540c0-33.1,26.9-60,60-60h120c33.1,0,60,26.9,60,60v180
	C360,753.1,333.1,780,300,780z"/>
<line class="st0" x1="120" y1="600" x2="360" y2="600"/>
<line class="st0" x1="120" y1="660" x2="360" y2="660"/>
<path class="st0" d="M660,180H120c-33.2,0-60-26.9-60-60"/>
<line class="st0" x1="180" y1="780" x2="180" y2="840"/>
<line class="st0" x1="300" y1="780" x2="300" y2="840"/>
</svg>
