<?xml version="1.0" encoding="utf-8"?>
<!-- Generator: Adobe Illustrator 26.0.0, SVG Export Plug-In . SVG Version: 6.00 Build 0)  -->
<svg version="1.1" id="图层_1" xmlns="http://www.w3.org/2000/svg" xmlns:xlink="http://www.w3.org/1999/xlink" x="0px" y="0px"
	 viewBox="0 0 720 900" style="enable-background:new 0 0 720 900;" xml:space="preserve">
<style type="text/css">
	.st0{fill:none;stroke:#000000;stroke-width:48;stroke-linecap:round;stroke-linejoin:round;stroke-miterlimit:10;}
</style>
<path class="st0" d="M360,240v180c0,33.1-26.9,60-60,60H60"/>
<path class="st0" d="M300,420H180c-33.1,0-60-26.9-60-60V240"/>
<path class="st0" d="M300,300H120"/>
<path class="st0" d="M420,420h120c33.1,0,60-26.9,60-60V240"/>
<path class="st0" d="M420,300h180"/>
<path class="st0" d="M420,480h240"/>
<path class="st0" d="M480,780H240c-33.1,0-60-26.9-60-60V600c0-33.1,26.9-60,60-60h240c33.1,0,60,26.9,60,60v120
	C540,753.1,513.1,780,480,780z"/>
<path class="st0" d="M180,600h360"/>
<path class="st0" d="M180,720h360"/>
<path class="st0" d="M180,840h60c33.1,0,60-26.9,60-60"/>
<path class="st0" d="M540,840h-60c-33.1,0-60-26.9-60-60"/>
</svg>
