<?xml version="1.0" encoding="utf-8"?>
<!-- Generator: Adobe Illustrator 26.0.0, SVG Export Plug-In . SVG Version: 6.00 Build 0)  -->
<svg version="1.1" id="图层_1" xmlns="http://www.w3.org/2000/svg" xmlns:xlink="http://www.w3.org/1999/xlink" x="0px" y="0px"
	 viewBox="0 0 720 900" style="enable-background:new 0 0 720 900;" xml:space="preserve">
<style type="text/css">
	.st0{fill:none;stroke:#000000;stroke-width:48;stroke-linecap:round;stroke-linejoin:round;stroke-miterlimit:10;}
</style>
<line class="st0" x1="360" y1="60" x2="360" y2="120"/>
<line class="st0" x1="60" y1="120" x2="660" y2="120"/>
<path class="st0" d="M240,120c0,66.3,53.7,120,120,120s120-53.7,120-120"/>
<circle class="st0" cx="120" cy="240" r="60"/>
<circle class="st0" cx="600" cy="240" r="60"/>
<line class="st0" x1="360" y1="240" x2="360" y2="360"/>
<line class="st0" x1="120" y1="300" x2="120" y2="840"/>
<line class="st0" x1="600" y1="300" x2="600" y2="840"/>
<line class="st0" x1="120" y1="360" x2="600" y2="360"/>
<line class="st0" x1="120" y1="420" x2="600" y2="420"/>
<path class="st0" d="M420,780H300c-33.1,0-60-26.9-60-60V540c0-33.1,26.9-60,60-60h120c33.1,0,60,26.9,60,60v180
	C480,753.1,453.1,780,420,780z"/>
<line class="st0" x1="240" y1="600" x2="480" y2="600"/>
<line class="st0" x1="240" y1="660" x2="480" y2="660"/>
<line class="st0" x1="300" y1="780" x2="300" y2="840"/>
<line class="st0" x1="420" y1="780" x2="420" y2="840"/>
</svg>
