<?xml version="1.0" encoding="utf-8"?>
<!-- Generator: Adobe Illustrator 26.0.0, SVG Export Plug-In . SVG Version: 6.00 Build 0)  -->
<svg version="1.1" id="图层_1" xmlns="http://www.w3.org/2000/svg" xmlns:xlink="http://www.w3.org/1999/xlink" x="0px" y="0px"
	 viewBox="0 0 720 900" style="enable-background:new 0 0 720 900;" xml:space="preserve">
<style type="text/css">
	.st0{fill:none;stroke:#000000;stroke-width:48;stroke-linecap:round;stroke-linejoin:round;stroke-miterlimit:10;}
</style>
<path class="st0" d="M420,420c33.1,0,60-26.9,60-60V240"/>
<path class="st0" d="M600,780H480c-33.1,0-60-26.9-60-60V540c0-33.1,26.9-60,60-60h120c33.1,0,60,26.9,60,60v180
	C660,753.1,633.1,780,600,780z"/>
<line class="st0" x1="420" y1="600" x2="660" y2="600"/>
<line class="st0" x1="420" y1="660" x2="660" y2="660"/>
<path class="st0" d="M420,840c33.1,0,60-26.9,60-60"/>
<path class="st0" d="M660,840c-33.1,0-60-26.9-60-60"/>
<line class="st0" x1="180" y1="240" x2="180" y2="840"/>
<path class="st0" d="M60,840v-60c0-66.3,53.7-120,120-120s120,53.7,120,120v60"/>
<path class="st0" d="M240,540H120c-33.1,0-60-26.9-60-60l0,0c0-33.1,26.9-60,60-60h120c33.1,0,60,26.9,60,60l0,0
	C300,513.1,273.1,540,240,540z"/>
<path class="st0" d="M480,300h180v60c0,33.1-26.8,60-60,60"/>
<line class="st0" x1="60" y1="300" x2="300" y2="300"/>
</svg>
