<?xml version="1.0" encoding="utf-8"?>
<!-- Generator: Adobe Illustrator 26.0.0, SVG Export Plug-In . SVG Version: 6.00 Build 0)  -->
<svg version="1.1" id="图层_1" xmlns="http://www.w3.org/2000/svg" xmlns:xlink="http://www.w3.org/1999/xlink" x="0px" y="0px"
	 viewBox="0 0 720 900" style="enable-background:new 0 0 720 900;" xml:space="preserve">
<style type="text/css">
	.st0{fill:none;stroke:#000000;stroke-width:48;stroke-linecap:round;stroke-linejoin:round;stroke-miterlimit:10;}
</style>
<path class="st0" d="M480,60v60c0,33.1-26.9,60-60,60"/>
<path class="st0" d="M480,120h180v60c0,33.1-26.9,60-60,60H420"/>
<line class="st0" x1="420" y1="360" x2="660" y2="360"/>
<path class="st0" d="M540,180v60c0,33.1,26.9,60,60,60h60"/>
<path class="st0" d="M660,480H480c-33.1,0-60-26.9-60-60"/>
<line class="st0" x1="540" y1="360" x2="540" y2="540"/>
<path class="st0" d="M120,180v60c0,33.1,26.9,60,60,60s60-26.9,60-60v-60"/>
<line class="st0" x1="60" y1="180" x2="300" y2="180"/>
<line class="st0" x1="120" y1="60" x2="240" y2="60"/>
<line class="st0" x1="60" y1="360" x2="300" y2="360"/>
<path class="st0" d="M120,420v240c0,33.1,26.9,60,60,60l0,0c33.1,0,60-26.9,60-60V420"/>
<line class="st0" x1="120" y1="480" x2="240" y2="480"/>
<line class="st0" x1="120" y1="600" x2="240" y2="600"/>
<line class="st0" x1="60" y1="780" x2="300" y2="780"/>
<line class="st0" x1="180" y1="720" x2="180" y2="840"/>
<line class="st0" x1="180" y1="300" x2="180" y2="360"/>
<path class="st0" d="M600,780H480c-33.1,0-60-26.9-60-60V600c0-33.1,26.9-60,60-60h120c33.1,0,60,26.9,60,60v120
	C660,753.1,633.1,780,600,780z"/>
<line class="st0" x1="420" y1="600" x2="660" y2="600"/>
<line class="st0" x1="420" y1="720" x2="660" y2="720"/>
<line class="st0" x1="480" y1="780" x2="480" y2="840"/>
<line class="st0" x1="600" y1="780" x2="600" y2="840"/>
</svg>
