<?xml version="1.0" encoding="utf-8"?>
<!-- Generator: Adobe Illustrator 26.0.0, SVG Export Plug-In . SVG Version: 6.00 Build 0)  -->
<svg version="1.1" id="图层_1" xmlns="http://www.w3.org/2000/svg" xmlns:xlink="http://www.w3.org/1999/xlink" x="0px" y="0px"
	 viewBox="0 0 720 900" style="enable-background:new 0 0 720 900;" xml:space="preserve">
<style type="text/css">
	.st0{fill:none;stroke:#000000;stroke-width:48;stroke-linecap:round;stroke-linejoin:round;stroke-miterlimit:10;}
</style>
<path class="st0" d="M600,60v120"/>
<path class="st0" d="M660,120h-60"/>
<path class="st0" d="M540,180h120v180c0,66.3-53.7,120-120,120"/>
<path class="st0" d="M540,300l0,60.1c0,66.2,53.7,119.9,119.9,120"/>
<path class="st0" d="M60,300v120"/>
<path class="st0" d="M420,300v120"/>
<path class="st0" d="M420,240H300c-33.1,0-60-26.9-60-60"/>
<path class="st0" d="M60,240h120c33.1,0,60-26.9,60-60V60"/>
<path class="st0" d="M60,120h360"/>
<path class="st0" d="M300,300v120c0,33.1,26.9,60,60,60"/>
<path class="st0" d="M180,300v120c0,33.1-26.9,60-60,60"/>
</svg>
