<?xml version="1.0" encoding="utf-8"?>
<!-- Generator: Adobe Illustrator 26.0.0, SVG Export Plug-In . SVG Version: 6.00 Build 0)  -->
<svg version="1.1" id="图层_1" xmlns="http://www.w3.org/2000/svg" xmlns:xlink="http://www.w3.org/1999/xlink" x="0px" y="0px"
	 viewBox="0 0 720 900" style="enable-background:new 0 0 720 900;" xml:space="preserve">
<style type="text/css">
	.st0{fill:none;stroke:#000000;stroke-width:48;stroke-linecap:round;stroke-linejoin:round;stroke-miterlimit:10;}
</style>
<path class="st0" d="M240,660v120c0,33.1,26.9,60,60,60h360"/>
<path class="st0" d="M360,540v60c0,33.1-26.9,60-60,60"/>
<path class="st0" d="M300,840V480"/>
<path class="st0" d="M300,420V60"/>
<path class="st0" d="M240,240h120"/>
<path class="st0" d="M240,420h120"/>
<path class="st0" d="M420,240h240"/>
<path class="st0" d="M420,780V120"/>
<path class="st0" d="M480,780V660c0-66.3,53.7-120,120-120h60"/>
<line class="st0" x1="660" y1="60" x2="660" y2="180"/>
<path class="st0" d="M660,779.9c-33.1,0-59.9-26.8-59.9-59.9L600,60"/>
</svg>
