<?xml version="1.0" encoding="utf-8"?>
<!-- Generator: Adobe Illustrator 26.0.0, SVG Export Plug-In . SVG Version: 6.00 Build 0)  -->
<svg version="1.1" id="图层_1" xmlns="http://www.w3.org/2000/svg" xmlns:xlink="http://www.w3.org/1999/xlink" x="0px" y="0px"
	 viewBox="0 0 720 900" style="enable-background:new 0 0 720 900;" xml:space="preserve">
<style type="text/css">
	.st0{fill:none;stroke:#000000;stroke-width:48;stroke-linecap:round;stroke-linejoin:round;stroke-miterlimit:10;}
</style>
<path class="st0" d="M540,60v360c0,33.1,26.9,60,60,60h60v180c0,33.1-26.9,60-60,60h-60"/>
<path class="st0" d="M480,600c33.1,0,60,26.9,60,60v120c0,33.1,26.9,60,60,60h60"/>
<line class="st0" x1="480" y1="180" x2="660" y2="180"/>
<line class="st0" x1="480" y1="360" x2="660" y2="360"/>
<path class="st0" d="M360,480L360,480c-33.1,0-60-26.9-60-60V300c0-33.1,26.9-60,60-60l0,0c33.1,0,60,26.9,60,60v120
	C420,453.1,393.1,480,360,480z"/>
<line class="st0" x1="360" y1="60" x2="360" y2="840"/>
<line class="st0" x1="300" y1="360" x2="420" y2="360"/>
<line class="st0" x1="300" y1="120" x2="420" y2="120"/>
<line class="st0" x1="300" y1="600" x2="420" y2="600"/>
</svg>
