<?xml version="1.0" encoding="utf-8"?>
<!-- Generator: Adobe Illustrator 26.0.0, SVG Export Plug-In . SVG Version: 6.00 Build 0)  -->
<svg version="1.1" id="图层_1" xmlns="http://www.w3.org/2000/svg" xmlns:xlink="http://www.w3.org/1999/xlink" x="0px" y="0px"
	 viewBox="0 0 720 900" style="enable-background:new 0 0 720 900;" xml:space="preserve">
<style type="text/css">
	.st0{fill:none;stroke:#000000;stroke-width:48;stroke-linecap:round;stroke-linejoin:round;stroke-miterlimit:10;}
</style>
<path class="st0" d="M360,480L360,480c-33.1,0-60-26.9-60-60V300c0-33.1,26.9-60,60-60l0,0c33.1,0,60,26.9,60,60v120
	C420,453.1,393.1,480,360,480z"/>
<path class="st0" d="M360,60v780"/>
<path class="st0" d="M300,360h120"/>
<path class="st0" d="M300,120h120"/>
<path class="st0" d="M300,660h120"/>
<path class="st0" d="M540,180h60c33.1,0,60,26.9,60,60v60"/>
<path class="st0" d="M540,540h60c33.1,0,60,26.9,60,60v240"/>
<path class="st0" d="M480,840c33.1,0,60-26.8,60-60V300"/>
<path class="st0" d="M480,240c33.1,0,60-26.9,60-60V60"/>
</svg>
