<?xml version="1.0" encoding="utf-8"?>
<!-- Generator: Adobe Illustrator 26.0.0, SVG Export Plug-In . SVG Version: 6.00 Build 0)  -->
<svg version="1.1" id="图层_1" xmlns="http://www.w3.org/2000/svg" xmlns:xlink="http://www.w3.org/1999/xlink" x="0px" y="0px"
	 viewBox="0 0 720 900" style="enable-background:new 0 0 720 900;" xml:space="preserve">
<style type="text/css">
	.st0{fill:none;stroke:#000000;stroke-width:48;stroke-linecap:round;stroke-linejoin:round;stroke-miterlimit:10;}
</style>
<path class="st0" d="M600,660H120c-33.1,0-60,26.9-60,60v60c0,33.1,26.9,60,60,60h480c33.1,0,60-26.9,60-60v-60
	C660,686.9,633.1,660,600,660z"/>
<path class="st0" d="M420,420H300c-33.1,0-60-26.9-60-60V240c0-33.1,26.9-60,60-60h120c33.1,0,60,26.9,60,60v120
	C480,393.1,453.1,420,420,420z"/>
<line class="st0" x1="360" y1="60" x2="360" y2="660"/>
<line class="st0" x1="240" y1="300" x2="480" y2="300"/>
<line class="st0" x1="240" y1="120" x2="480" y2="120"/>
<line class="st0" x1="240" y1="540" x2="480" y2="540"/>
<line class="st0" x1="120" y1="120" x2="120" y2="60"/>
<line class="st0" x1="120" y1="240" x2="120" y2="300"/>
<line class="st0" x1="120" y1="420" x2="120" y2="600"/>
<path class="st0" d="M60,600l0.6-60.3c0-33,26.7-59.7,59.7-59.7s59.7,26.7,59.7,59.7V600"/>
<circle class="st0" cx="120" cy="180" r="60"/>
<circle class="st0" cx="120" cy="360" r="60"/>
<line class="st0" x1="600" y1="120" x2="600" y2="60"/>
<line class="st0" x1="600" y1="240" x2="600" y2="300"/>
<line class="st0" x1="600" y1="420" x2="600" y2="600"/>
<path class="st0" d="M540,600l0.6-60.3c0-33,26.7-59.7,59.7-59.7s59.7,26.7,59.7,59.7V600"/>
<circle class="st0" cx="600" cy="180" r="60"/>
<circle class="st0" cx="600" cy="360" r="60"/>
</svg>
