<?xml version="1.0" encoding="utf-8"?>
<!-- Generator: Adobe Illustrator 26.0.0, SVG Export Plug-In . SVG Version: 6.00 Build 0)  -->
<svg version="1.1" id="图层_1" xmlns="http://www.w3.org/2000/svg" xmlns:xlink="http://www.w3.org/1999/xlink" x="0px" y="0px"
	 viewBox="0 0 720 900" style="enable-background:new 0 0 720 900;" xml:space="preserve">
<style type="text/css">
	.st0{fill:none;stroke:#000000;stroke-width:48;stroke-linecap:round;stroke-linejoin:round;stroke-miterlimit:10;}
</style>
<path class="st0" d="M60,300h180c33.1,0,60,26.9,60,60v0c0,33.1-26.9,60-60,60H120c-33.1,0-60,26.9-60,60l0,360"/>
<path class="st0" d="M180,540v240c0,33.1,26.9,60,60,60l0,0c33.1,0,60-26.9,60-60V540"/>
<line class="st0" x1="180" y1="600" x2="300" y2="600"/>
<line class="st0" x1="120" y1="300" x2="120" y2="420"/>
<line class="st0" x1="540" y1="240" x2="540" y2="300"/>
<line class="st0" x1="420" y1="300" x2="660" y2="300"/>
<path class="st0" d="M420,540c0,33.1,26.9,60,60,60h120c33.1,0,60-26.9,60-60"/>
<path class="st0" d="M480,300v120c0,33.1,26.9,60,60,60l0,0c33.1,0,60-26.9,60-60V300"/>
<line class="st0" x1="420" y1="720" x2="660" y2="720"/>
<line class="st0" x1="540" y1="480" x2="540" y2="840"/>
</svg>
