<?xml version="1.0" encoding="utf-8"?>
<!-- Generator: Adobe Illustrator 26.0.0, SVG Export Plug-In . SVG Version: 6.00 Build 0)  -->
<svg version="1.1" id="图层_1" xmlns="http://www.w3.org/2000/svg" xmlns:xlink="http://www.w3.org/1999/xlink" x="0px" y="0px"
	 viewBox="0 0 720 900" style="enable-background:new 0 0 720 900;" xml:space="preserve">
<style type="text/css">
	.st0{fill:none;stroke:#000000;stroke-width:48;stroke-linecap:round;stroke-linejoin:round;stroke-miterlimit:10;}
</style>
<path class="st0" d="M60,300h180c33.1,0,60-26.9,60-60"/>
<path class="st0" d="M60,420h180c33.1,0,60-26.9,60-60"/>
<line class="st0" x1="180" y1="540" x2="180" y2="840"/>
<path class="st0" d="M60,540h180c33.1,0,60-26.9,60-60"/>
<path class="st0" d="M60,720v60c0,33.1,26.9,60,60,60h540"/>
<line class="st0" x1="180" y1="720" x2="300" y2="720"/>
<path class="st0" d="M600,600H480c-33.1,0-60-26.9-60-60V420c0-33.1,26.9-60,60-60h120c33.1,0,60,26.9,60,60v120
	C660,573.1,633.1,600,600,600z"/>
<line class="st0" x1="540" y1="240" x2="540" y2="780"/>
<line class="st0" x1="420" y1="480" x2="660" y2="480"/>
<line class="st0" x1="420" y1="300" x2="660" y2="300"/>
<line class="st0" x1="420" y1="720" x2="660" y2="720"/>
</svg>
