<?xml version="1.0" encoding="utf-8"?>
<!-- Generator: Adobe Illustrator 26.0.0, SVG Export Plug-In . SVG Version: 6.00 Build 0)  -->
<svg version="1.1" id="图层_1" xmlns="http://www.w3.org/2000/svg" xmlns:xlink="http://www.w3.org/1999/xlink" x="0px" y="0px"
	 viewBox="0 0 720 900" style="enable-background:new 0 0 720 900;" xml:space="preserve">
<style type="text/css">
	.st0{fill:none;stroke:#000000;stroke-width:48;stroke-linecap:round;stroke-linejoin:round;stroke-miterlimit:10;}
</style>
<path class="st0" d="M600,480L600,480c-33.1,0-60-26.9-60-60V300c0-33.1,26.9-60,60-60l0,0c33.1,0,60,26.9,60,60v120
	C660,453.1,633.1,480,600,480z"/>
<line class="st0" x1="600" y1="60" x2="600" y2="780"/>
<line class="st0" x1="540" y1="360" x2="660" y2="360"/>
<line class="st0" x1="540" y1="120" x2="660" y2="120"/>
<line class="st0" x1="540" y1="600" x2="660" y2="600"/>
<path class="st0" d="M420,120L420,120c33.1,0,60-26.9,60-60"/>
<line class="st0" x1="480" y1="420" x2="480" y2="840"/>
<path class="st0" d="M420,240L420,240c33.1,0,60-26.9,60-60"/>
<path class="st0" d="M420,360L420,360c33.1,0,60-26.9,60-60"/>
<path class="st0" d="M420,600v180c0,33.1,26.9,60,60,60h180"/>
</svg>
