<?xml version="1.0" encoding="utf-8"?>
<!-- Generator: Adobe Illustrator 26.0.0, SVG Export Plug-In . SVG Version: 6.00 Build 0)  -->
<svg version="1.1" id="图层_1" xmlns="http://www.w3.org/2000/svg" xmlns:xlink="http://www.w3.org/1999/xlink" x="0px" y="0px"
	 viewBox="0 0 720 900" style="enable-background:new 0 0 720 900;" xml:space="preserve">
<style type="text/css">
	.st0{fill:none;stroke:#000000;stroke-width:48;stroke-linecap:round;stroke-linejoin:round;stroke-miterlimit:10;}
</style>
<line class="st0" x1="60" y1="360" x2="420" y2="360"/>
<path class="st0" d="M240,240c0-99.4,80.6-180,180-180"/>
<path class="st0" d="M360,240c0-99.4-80.6-180-180-180"/>
<path class="st0" d="M60,540c33.1,0,60-26.9,60-60V240"/>
<path class="st0" d="M300,540L300,540c-66.3,0-120,53.7-120,120v60c0,66.3,53.7,120,120,120h0c66.3,0,120-53.7,120-120v-60
	C420,593.7,366.3,540,300,540z"/>
<line class="st0" x1="300" y1="420" x2="300" y2="540"/>
</svg>
