<?xml version="1.0" encoding="utf-8"?>
<!-- Generator: Adobe Illustrator 26.0.0, SVG Export Plug-In . SVG Version: 6.00 Build 0)  -->
<svg version="1.1" id="图层_1" xmlns="http://www.w3.org/2000/svg" xmlns:xlink="http://www.w3.org/1999/xlink" x="0px" y="0px"
	 viewBox="0 0 720 900" style="enable-background:new 0 0 720 900;" xml:space="preserve">
<style type="text/css">
	.st0{fill:none;stroke:#000000;stroke-width:48;stroke-linecap:round;stroke-linejoin:round;stroke-miterlimit:10;}
</style>
<line class="st0" x1="600" y1="420" x2="600" y2="540"/>
<path class="st0" d="M540,420h60c33.1,0,60,26.9,60,60l0,0c0,33.1-26.9,60-60,60l0,0c-33.1,0-60,26.9-60,60l0,0
	c0,33.1,26.9,60,60,60l0,0c33.1,0,60,26.9,60,60v120"/>
<path class="st0" d="M600,360L600,360c-33.1,0-60-26.9-60-60l0,0c0-33.1,26.9-60,60-60l0,0c33.1,0,60,26.9,60,60l0,0
	C660,333.1,633.1,360,600,360z"/>
<line class="st0" x1="300" y1="300" x2="420" y2="300"/>
<line class="st0" x1="360" y1="240" x2="360" y2="300"/>
<circle class="st0" cx="360" cy="420" r="60"/>
<path class="st0" d="M300,600c0-33.1,26.9-60,60-60s60,26.9,60,60s-26.9,60-60,60v120c0,33.1-26.9,60-60,60"/>
<line class="st0" x1="300" y1="720" x2="420" y2="720"/>
</svg>
