<?xml version="1.0" encoding="utf-8"?>
<!-- Generator: Adobe Illustrator 26.0.0, SVG Export Plug-In . SVG Version: 6.00 Build 0)  -->
<svg version="1.1" id="图层_1" xmlns="http://www.w3.org/2000/svg" xmlns:xlink="http://www.w3.org/1999/xlink" x="0px" y="0px"
	 viewBox="0 0 720 900" style="enable-background:new 0 0 720 900;" xml:space="preserve">
<style type="text/css">
	.st0{fill:none;stroke:#000000;stroke-width:48;stroke-linecap:round;stroke-linejoin:round;stroke-miterlimit:10;}
</style>
<path class="st0" d="M60,780V480c0-33.1,26.9-60,60-60h120c33.1,0,60,26.9,60,60v300c0,33.1-26.9,60-60,60H120
	C86.9,840,60,813.1,60,780z"/>
<line class="st0" x1="60" y1="300" x2="300" y2="300"/>
<path class="st0" d="M120,300v240c0,33.1-26.9,60-60,60"/>
<line class="st0" x1="60" y1="720" x2="300" y2="720"/>
<path class="st0" d="M240,300v240c0,33.1,26.9,60,60,60"/>
<path class="st0" d="M420,599.5h180c33.1,0,60,26.9,60,60"/>
<path class="st0" d="M420,419.5h180c33.1,0,60,26.9,60,60"/>
<path class="st0" d="M420,479.5h180"/>
<path class="st0" d="M420,539.5h180"/>
<path class="st0" d="M480,840c33.1,0,60-26.9,60-60v-60"/>
<path class="st0" d="M600,840c-33.1,0-60-26.9-60-60"/>
<path class="st0" d="M480,299.5c-33.1,0-60,26.8-60,60V660"/>
<path class="st0" d="M540,299.5V660"/>
<line class="st0" x1="420" y1="720" x2="420" y2="840"/>
<line class="st0" x1="660" y1="720" x2="660" y2="840"/>
</svg>
