<?xml version="1.0" encoding="utf-8"?>
<!-- Generator: Adobe Illustrator 26.0.0, SVG Export Plug-In . SVG Version: 6.00 Build 0)  -->
<svg version="1.1" id="图层_1" xmlns="http://www.w3.org/2000/svg" xmlns:xlink="http://www.w3.org/1999/xlink" x="0px" y="0px"
	 viewBox="0 0 720 900" style="enable-background:new 0 0 720 900;" xml:space="preserve">
<style type="text/css">
	.st0{fill:none;stroke:#000000;stroke-width:48;stroke-linecap:round;stroke-linejoin:round;stroke-miterlimit:10;}
</style>
<path class="st0" d="M300,300v60c0,33.1-26.9,60-60,60H120"/>
<path class="st0" d="M120,840V300h120"/>
<line class="st0" x1="120" y1="360" x2="300" y2="360"/>
<path class="st0" d="M420,300v60c0,33.1,26.9,60,60,60h120"/>
<path class="st0" d="M600,840V300H480"/>
<line class="st0" x1="600" y1="360" x2="420" y2="360"/>
<path class="st0" d="M240,779.5h240c33.1,0,60,26.9,60,60"/>
<path class="st0" d="M240,600h240c33.1,0,60,26.9,60,60"/>
<path class="st0" d="M360,480c33.1,0,60,26.4,60,59.5l0,0v240"/>
<path class="st0" d="M300,479.5c-33.1,0-60,26.9-60,60V840"/>
<line class="st0" x1="240" y1="720" x2="480" y2="720"/>
<line class="st0" x1="240" y1="660" x2="480" y2="660"/>
</svg>
