<?xml version="1.0" encoding="utf-8"?>
<!-- Generator: Adobe Illustrator 26.0.0, SVG Export Plug-In . SVG Version: 6.00 Build 0)  -->
<svg version="1.1" id="图层_1" xmlns="http://www.w3.org/2000/svg" xmlns:xlink="http://www.w3.org/1999/xlink" x="0px" y="0px"
	 viewBox="0 0 720 900" style="enable-background:new 0 0 720 900;" xml:space="preserve">
<style type="text/css">
	.st0{fill:none;stroke:#000000;stroke-width:48;stroke-linecap:round;stroke-linejoin:round;stroke-miterlimit:10;}
</style>
<path class="st0" d="M420,60v180c0,33.1-26.9,60-60,60h-60"/>
<path class="st0" d="M300,840V60h60"/>
<line class="st0" x1="300" y1="180" x2="420" y2="180"/>
<path class="st0" d="M540,60v180c0,33.1,26.9,60,60,60h60"/>
<path class="st0" d="M660,840V60h-60"/>
<line class="st0" x1="660" y1="180" x2="540" y2="180"/>
<path class="st0" d="M420,480v300c0,33.1,26.9,60,60,60h60"/>
<line class="st0" x1="360" y1="480" x2="360" y2="780"/>
<line class="st0" x1="600" y1="480" x2="600" y2="780"/>
<path class="st0" d="M480,419.7c33.3,0,60.3,27,60.3,60.3v240"/>
</svg>
