<?xml version="1.0" encoding="utf-8"?>
<!-- Generator: Adobe Illustrator 26.0.0, SVG Export Plug-In . SVG Version: 6.00 Build 0)  -->
<svg version="1.1" id="图层_1" xmlns="http://www.w3.org/2000/svg" xmlns:xlink="http://www.w3.org/1999/xlink" x="0px" y="0px"
	 viewBox="0 0 720 900" style="enable-background:new 0 0 720 900;" xml:space="preserve">
<style type="text/css">
	.st0{fill:none;stroke:#000000;stroke-width:48;stroke-linecap:round;stroke-linejoin:round;stroke-miterlimit:10;}
</style>
<line class="st0" x1="240" y1="120" x2="660" y2="120"/>
<path class="st0" d="M300,180h120c33.1,0,60-26.9,60-60V60"/>
<path class="st0" d="M360,300h120c33.2,0,60,26.9,60,60"/>
<path class="st0" d="M360,420h120c33.2,0,60,26.9,60,60"/>
<path class="st0" d="M600,480V300c0-33.1-26.9-60-60-60H360c-33.1,0-60,26.9-60,60v180"/>
<path class="st0" d="M180,60h-60c-33.1,0-60,26.9-60,60v360"/>
<path class="st0" d="M60,120h120v60c0,33.1-26.9,60-60,60H60"/>
<path class="st0" d="M60,300h120v60c0,33.1-26.9,60-60,60H60"/>
</svg>
