<?xml version="1.0" encoding="utf-8"?>
<!-- Generator: Adobe Illustrator 26.0.0, SVG Export Plug-In . SVG Version: 6.00 Build 0)  -->
<svg version="1.1" id="图层_1" xmlns="http://www.w3.org/2000/svg" xmlns:xlink="http://www.w3.org/1999/xlink" x="0px" y="0px"
	 viewBox="0 0 720 900" style="enable-background:new 0 0 720 900;" xml:space="preserve">
<style type="text/css">
	.st0{fill:none;stroke:#000000;stroke-width:48;stroke-linecap:round;stroke-linejoin:round;stroke-miterlimit:10;}
</style>
<path class="st0" d="M360,300h-60c-33.1,0-60,26.9-60,60v480"/>
<path class="st0" d="M240,420h120v60c0,33.1-26.9,60-60,60h-60"/>
<path class="st0" d="M240,600h120v60c0,33.1-26.9,60-60,60h-60"/>
<path class="st0" d="M480,240v60c0,33.1-26.9,60-60,60"/>
<path class="st0" d="M480,300h180v60c0,33.1-26.9,60-60,60H420"/>
<path class="st0" d="M540,360v60c0,33.1,26.9,60,60,60h60"/>
<line class="st0" x1="420" y1="480" x2="480" y2="480"/>
<path class="st0" d="M420,540c0,33.1,26.9,60,60,60h120c33.1,0,60-26.9,60-60"/>
<line class="st0" x1="540" y1="540" x2="540" y2="840"/>
<line class="st0" x1="420" y1="840" x2="660" y2="840"/>
<line class="st0" x1="420" y1="720" x2="660" y2="720"/>
</svg>
