<?xml version="1.0" encoding="utf-8"?>
<!-- Generator: Adobe Illustrator 26.0.0, SVG Export Plug-In . SVG Version: 6.00 Build 0)  -->
<svg version="1.1" id="图层_1" xmlns="http://www.w3.org/2000/svg" xmlns:xlink="http://www.w3.org/1999/xlink" x="0px" y="0px"
	 viewBox="0 0 720 900" style="enable-background:new 0 0 720 900;" xml:space="preserve">
<style type="text/css">
	.st0{fill:none;stroke:#000000;stroke-width:48;stroke-linecap:round;stroke-linejoin:round;stroke-miterlimit:10;}
</style>
<path class="st0" d="M240,540v60c0,33.1-26.9,60-60,60h-60"/>
<path class="st0" d="M420,360v60c0,33.1-26.9,60-60,60"/>
<path class="st0" d="M420,420h180v60c0,33.1-26.9,60-60,60H360"/>
<path class="st0" d="M480,480v60c0,33.1,26.9,60,60,60h60"/>
<path class="st0" d="M480,660v180"/>
<path class="st0" d="M360,840h240"/>
<path class="st0" d="M360,780h240"/>
<path class="st0" d="M360,660c0,33.1,26.9,60,60,60h120c33.1,0,60-26.9,60-60"/>
<line class="st0" x1="120" y1="540" x2="300" y2="540"/>
<path class="st0" d="M240,720v60c0,33.1-26.9,60-60,60h-60V480c0-33.1,26.9-60,60-60l0,0h60"/>
<line class="st0" x1="120" y1="720" x2="300" y2="720"/>
<line class="st0" x1="360" y1="600" x2="420" y2="600"/>
</svg>
