<?xml version="1.0" encoding="utf-8"?>
<!-- Generator: Adobe Illustrator 26.0.0, SVG Export Plug-In . SVG Version: 6.00 Build 0)  -->
<svg version="1.1" id="图层_1" xmlns="http://www.w3.org/2000/svg" xmlns:xlink="http://www.w3.org/1999/xlink" x="0px" y="0px"
	 viewBox="0 0 720 900" style="enable-background:new 0 0 720 900;" xml:space="preserve">
<style type="text/css">
	.st0{fill:none;stroke:#000000;stroke-width:48;stroke-linecap:round;stroke-linejoin:round;stroke-miterlimit:10;}
</style>
<path class="st0" d="M300,420h300c33.1,0,60,26.9,60,60"/>
<path class="st0" d="M300,540h300c33.1,0,60,26.9,60,60"/>
<path class="st0" d="M300,660h300c33.1,0,60,26.9,60,60"/>
<path class="st0" d="M300,780h300c33.1,0,60,26.9,60,60"/>
<path class="st0" d="M420,240c-66.3,0-120,53.7-120,120v480"/>
<path class="st0" d="M420,300c33.1,0,60,26.9,60,60v420"/>
<line class="st0" x1="300" y1="60" x2="300" y2="180"/>
<line class="st0" x1="300" y1="120" x2="660" y2="120"/>
<line class="st0" x1="660" y1="60" x2="660" y2="180"/>
<line class="st0" x1="480" y1="60" x2="480" y2="180"/>
</svg>
