<?xml version="1.0" encoding="utf-8"?>
<!-- Generator: Adobe Illustrator 26.0.0, SVG Export Plug-In . SVG Version: 6.00 Build 0)  -->
<svg version="1.1" id="图层_1" xmlns="http://www.w3.org/2000/svg" xmlns:xlink="http://www.w3.org/1999/xlink" x="0px" y="0px"
	 viewBox="0 0 720 900" style="enable-background:new 0 0 720 900;" xml:space="preserve">
<style type="text/css">
	.st0{fill:none;stroke:#000000;stroke-width:48;stroke-linecap:round;stroke-linejoin:round;stroke-miterlimit:10;}
</style>
<path class="st0" d="M420,420v60c0,33.1-26.9,60-60,60l0,0c-33.1,0-60-26.9-60-60v-60"/>
<path class="st0" d="M360,360v480"/>
<path class="st0" d="M600,540c33.1,0,60,26.9,60,60s-26.9,60-60,60s-60-26.9-60-60S566.9,540,600,540z"/>
<line class="st0" x1="300" y1="60" x2="660" y2="60"/>
<line class="st0" x1="480" y1="300" x2="480" y2="60"/>
<path class="st0" d="M300,300v-60c0-33.1,26.9-60,60-60h240c33.1,0,60,26.9,60,60v60"/>
<line class="st0" x1="360" y1="300" x2="420" y2="300"/>
<line class="st0" x1="540" y1="300" x2="600" y2="300"/>
<path class="st0" d="M300,840V720c0-33.1,26.9-60,60-60s60,26.9,60,60v120"/>
<path class="st0" d="M600,840L600,840c-33.1,0-60-26.9-60-60V420c0-33.1,26.9-60,60-60h0c33.1,0,60,26.9,60,60v360
	C660,813.1,633.1,840,600,840z"/>
</svg>
