<?xml version="1.0" encoding="utf-8"?>
<!-- Generator: Adobe Illustrator 26.0.0, SVG Export Plug-In . SVG Version: 6.00 Build 0)  -->
<svg version="1.1" id="图层_1" xmlns="http://www.w3.org/2000/svg" xmlns:xlink="http://www.w3.org/1999/xlink" x="0px" y="0px"
	 viewBox="0 0 720 900" style="enable-background:new 0 0 720 900;" xml:space="preserve">
<style type="text/css">
	.st0{fill:none;stroke:#000000;stroke-width:48;stroke-linecap:round;stroke-linejoin:round;stroke-miterlimit:10;}
</style>
<line class="st0" x1="420" y1="420" x2="420" y2="840"/>
<line class="st0" x1="540" y1="420" x2="540" y2="840"/>
<line class="st0" x1="300" y1="840" x2="660" y2="840"/>
<path class="st0" d="M540,60c66.3,0,120,53.7,120,120l0,0c0,66.3-53.7,120-120,120"/>
<line class="st0" x1="360" y1="60" x2="360" y2="180"/>
<line class="st0" x1="360" y1="120" x2="420" y2="120"/>
<path class="st0" d="M540,180c66.3,0,120,53.7,120,120v120"/>
<path class="st0" d="M300,420V240c0-33.1,26.9-60,60-60s60,26.9,60,60v120"/>
<line class="st0" x1="300" y1="300" x2="420" y2="300"/>
<line class="st0" x1="540" y1="480" x2="660" y2="480"/>
<line class="st0" x1="540" y1="600" x2="660" y2="600"/>
<line class="st0" x1="540" y1="720" x2="660" y2="720"/>
<line class="st0" x1="300" y1="480" x2="420" y2="480"/>
<line class="st0" x1="300" y1="600" x2="420" y2="600"/>
<line class="st0" x1="300" y1="720" x2="420" y2="720"/>
</svg>
