<?xml version="1.0" encoding="utf-8"?>
<!-- Generator: Adobe Illustrator 26.0.0, SVG Export Plug-In . SVG Version: 6.00 Build 0)  -->
<svg version="1.1" id="图层_1" xmlns="http://www.w3.org/2000/svg" xmlns:xlink="http://www.w3.org/1999/xlink" x="0px" y="0px"
	 viewBox="0 0 720 900" style="enable-background:new 0 0 720 900;" xml:space="preserve">
<style type="text/css">
	.st0{fill:none;stroke:#000000;stroke-width:48;stroke-linecap:round;stroke-linejoin:round;stroke-miterlimit:10;}
</style>
<path class="st0" d="M60,180h240"/>
<path class="st0" d="M120,60h120"/>
<path class="st0" d="M60,420h240"/>
<path class="st0" d="M120,540v240c0,33.1,26.9,60,60,60s60-26.9,60-60V540"/>
<path class="st0" d="M120,600h120"/>
<path class="st0" d="M240,180v60c0,33.1-26.9,60-60,60s-60-26.9-60-60v-60"/>
<path class="st0" d="M120,720h120"/>
<path class="st0" d="M180,300v120"/>
<path class="st0" d="M480,120V60"/>
<path class="st0" d="M600,840c33.1,0,60-26.9,60-60V240c0-66.3-53.7-120-120-120H420"/>
<path class="st0" d="M420,360h120"/>
<path class="st0" d="M420,660h120"/>
</svg>
