<?xml version="1.0" encoding="utf-8"?>
<!-- Generator: Adobe Illustrator 26.0.0, SVG Export Plug-In . SVG Version: 6.00 Build 0)  -->
<svg version="1.1" id="图层_1" xmlns="http://www.w3.org/2000/svg" xmlns:xlink="http://www.w3.org/1999/xlink" x="0px" y="0px"
	 viewBox="0 0 720 900" style="enable-background:new 0 0 720 900;" xml:space="preserve">
<style type="text/css">
	.st0{fill:none;stroke:#000000;stroke-width:48;stroke-linecap:round;stroke-linejoin:round;stroke-miterlimit:10;}
</style>
<line class="st0" x1="540" y1="540" x2="660" y2="540"/>
<line class="st0" x1="540" y1="300" x2="660" y2="300"/>
<line class="st0" x1="540" y1="600" x2="660" y2="600"/>
<path class="st0" d="M540,420h120v240c0,33.1-26.9,60-60,60l0,0c-33.1,0-60-26.9-60-60V420z"/>
<line class="st0" x1="600" y1="420" x2="600" y2="300"/>
<line class="st0" x1="540" y1="780" x2="540" y2="840"/>
<line class="st0" x1="660" y1="780" x2="660" y2="840"/>
<line class="st0" x1="60" y1="780" x2="420" y2="780"/>
<path class="st0" d="M60,360h300c33.1,0,60-26.9,60-60"/>
<line class="st0" x1="240" y1="420" x2="240" y2="300"/>
<path class="st0" d="M60,840h60c33.1,0,60-26.9,60-60"/>
<path class="st0" d="M420,840h-60c-33.1,0-60-26.9-60-60"/>
<path class="st0" d="M240,780L240,780c-66.3,0-120-53.7-120-120V540c0-66.3,53.7-120,120-120l0,0c66.3,0,120,53.7,120,120v120
	C360,726.3,306.3,780,240,780z"/>
<circle class="st0" cx="240" cy="600" r="60"/>
</svg>
