<?xml version="1.0" encoding="utf-8"?>
<!-- Generator: Adobe Illustrator 26.0.0, SVG Export Plug-In . SVG Version: 6.00 Build 0)  -->
<svg version="1.1" id="图层_1" xmlns="http://www.w3.org/2000/svg" xmlns:xlink="http://www.w3.org/1999/xlink" x="0px" y="0px"
	 viewBox="0 0 720 900" style="enable-background:new 0 0 720 900;" xml:space="preserve">
<style type="text/css">
	.st0{fill:none;stroke:#000000;stroke-width:48;stroke-linecap:round;stroke-linejoin:round;stroke-miterlimit:10;}
</style>
<line class="st0" x1="300" y1="420" x2="420" y2="420"/>
<line class="st0" x1="360" y1="360" x2="360" y2="420"/>
<path class="st0" d="M360,600L360,600c-33.1,0-60-26.9-60-60l0,0c0-33.1,26.9-60,60-60l0,0c33.1,0,60,26.9,60,60l0,0
	C420,573.1,393.1,600,360,600z"/>
<line class="st0" x1="360" y1="600" x2="360" y2="840"/>
<path class="st0" d="M540,180v420c0,33.1,26.9,60,60,60l0,0c33.1,0,60-26.9,60-60V180"/>
<line class="st0" x1="540" y1="360" x2="660" y2="360"/>
<line class="st0" x1="540" y1="60" x2="660" y2="60"/>
<line class="st0" x1="540" y1="540" x2="660" y2="540"/>
<line class="st0" x1="540" y1="240" x2="660" y2="240"/>
<line class="st0" x1="600" y1="240" x2="600" y2="60"/>
<line class="st0" x1="540" y1="720" x2="540" y2="840"/>
<line class="st0" x1="660" y1="780" x2="660" y2="840"/>
<line class="st0" x1="420" y1="660" x2="420" y2="840"/>
<line class="st0" x1="300" y1="660" x2="300" y2="840"/>
<path class="st0" d="M360,300L360,300c-33.1,0-60-26.9-60-60V120c0-33.1,26.9-60,60-60h0c33.1,0,60,26.9,60,60v120
	C420,273.1,393.1,300,360,300z"/>
<line class="st0" x1="300" y1="180" x2="420" y2="180"/>
</svg>
