<?xml version="1.0" encoding="utf-8"?>
<!-- Generator: Adobe Illustrator 26.0.0, SVG Export Plug-In . SVG Version: 6.00 Build 0)  -->
<svg version="1.1" id="图层_1" xmlns="http://www.w3.org/2000/svg" xmlns:xlink="http://www.w3.org/1999/xlink" x="0px" y="0px"
	 viewBox="0 0 720 900" style="enable-background:new 0 0 720 900;" xml:space="preserve">
<style type="text/css">
	.st0{fill:none;stroke:#000000;stroke-width:48;stroke-linecap:round;stroke-linejoin:round;stroke-miterlimit:10;}
</style>
<path class="st0" d="M300,180l77.5-77.5c56.6-56.6,148.4-56.6,205.1,0L660,180"/>
<line class="st0" x1="360" y1="240" x2="600" y2="240"/>
<line class="st0" x1="420" y1="720" x2="600" y2="720"/>
<line class="st0" x1="540" y1="720" x2="540" y2="660"/>
<line class="st0" x1="360" y1="480" x2="600" y2="480"/>
<path class="st0" d="M360,600h180c33.1,0,60-26.9,60-60V420c0-33.1-26.9-60-60-60H420c-33.1,0-60,26.9-60,60v360
	c0,33.1,26.9,60,60,60h180"/>
</svg>
