<?xml version="1.0" encoding="utf-8"?>
<!-- Generator: Adobe Illustrator 26.0.0, SVG Export Plug-In . SVG Version: 6.00 Build 0)  -->
<svg version="1.1" id="图层_1" xmlns="http://www.w3.org/2000/svg" xmlns:xlink="http://www.w3.org/1999/xlink" x="0px" y="0px"
	 viewBox="0 0 720 900" style="enable-background:new 0 0 720 900;" xml:space="preserve">
<style type="text/css">
	.st0{fill:none;stroke:#000000;stroke-width:48;stroke-linecap:round;stroke-linejoin:round;stroke-miterlimit:10;}
</style>
<path class="st0" d="M60,120c0,33.1,26.9,60,60,60h120c33.1,0,60-26.9,60-60"/>
<path class="st0" d="M60,420c0-66.3,53.7-120,120-120l0,0c66.3,0,120,53.7,120,120"/>
<path class="st0" d="M240,60c-33.1,0-60,26.9-60,60v300"/>
<path class="st0" d="M60,600h300"/>
<path class="st0" d="M60,540v240c0,33.1,26.9,60,60,60h120c33.1,0,60-26.9,60-60V540"/>
<path class="st0" d="M120,720h120"/>
<line class="st0" x1="420" y1="600" x2="660" y2="600"/>
<path class="st0" d="M420,720h180c33.1,0,60-26.9,60-60V540"/>
<path class="st0" d="M480,540v240c0,33.1,26.9,60,60,60h120"/>
<path class="st0" d="M420,180c0-33.1,26.9-60,60-60h180"/>
<path class="st0" d="M480,240h120c33.1,0,60,26.9,60,60v120c0,33.1-26.9,60-60,60H480c-33.1,0-60-26.9-60-60V300
	C420,266.9,446.9,240,480,240z"/>
<line class="st0" x1="420" y1="360" x2="660" y2="360"/>
<line class="st0" x1="540" y1="120" x2="540" y2="60"/>
</svg>
