<?xml version="1.0" encoding="utf-8"?>
<!-- Generator: Adobe Illustrator 26.0.0, SVG Export Plug-In . SVG Version: 6.00 Build 0)  -->
<svg version="1.1" id="图层_1" xmlns="http://www.w3.org/2000/svg" xmlns:xlink="http://www.w3.org/1999/xlink" x="0px" y="0px"
	 viewBox="0 0 720 900" style="enable-background:new 0 0 720 900;" xml:space="preserve">
<style type="text/css">
	.st0{fill:none;stroke:#000000;stroke-width:48;stroke-linecap:round;stroke-linejoin:round;stroke-miterlimit:10;}
</style>
<path class="st0" d="M240,540v180c0,66.3,53.7,120,120,120h120"/>
<path class="st0" d="M60,180v240c0,66.3,53.7,120,120,120h360c66.3,0,120-53.7,120-120V180"/>
<line class="st0" x1="240" y1="660" x2="480" y2="660"/>
<path class="st0" d="M240,60c0,165.7,134.3,300,300,300"/>
<path class="st0" d="M480,60c0,165.7-134.3,300-300,300"/>
<line class="st0" x1="300" y1="420" x2="420" y2="420"/>
<line class="st0" x1="180" y1="180" x2="180" y2="240"/>
<line class="st0" x1="540" y1="180" x2="540" y2="240"/>
<line class="st0" x1="360" y1="60" x2="360" y2="120"/>
</svg>
