<?xml version="1.0" encoding="utf-8"?>
<!-- Generator: Adobe Illustrator 26.0.0, SVG Export Plug-In . SVG Version: 6.00 Build 0)  -->
<svg version="1.1" id="图层_1" xmlns="http://www.w3.org/2000/svg" xmlns:xlink="http://www.w3.org/1999/xlink" x="0px" y="0px"
	 viewBox="0 0 720 900" style="enable-background:new 0 0 720 900;" xml:space="preserve">
<style type="text/css">
	.st0{fill:none;stroke:#000000;stroke-width:48;stroke-linecap:round;stroke-linejoin:round;stroke-miterlimit:10;}
</style>
<path class="st0" d="M60,120c0,33.1,26.9,60,60,60h120c33.1,0,60-26.9,60-60"/>
<path class="st0" d="M60,420c0-66.3,53.7-120,120-120l0,0c66.3,0,120,53.7,120,120"/>
<path class="st0" d="M240,60c-33.1,0-60,26.9-60,60v300"/>
<line class="st0" x1="60" y1="540" x2="300" y2="540"/>
<path class="st0" d="M240,600v60c0,33.2-26.9,60-60,60s-60,26.8-60,60v60"/>
<path class="st0" d="M120,480v180c0,33.2,26.9,60,60,60s60,26.8,60,60v60"/>
<path class="st0" d="M480,60v660c0,66.3-53.7,120-120,120"/>
<path class="st0" d="M540,720v60c0,33.1,26.9,60,60,60h60"/>
<path class="st0" d="M540,360H420c-33.1,0-60-26.9-60-60V180c0-33.1,26.9-60,60-60h120c33.1,0,60,26.9,60,60v120
	C600,333.1,573.1,360,540,360z"/>
<line class="st0" x1="360" y1="240" x2="600" y2="240"/>
<path class="st0" d="M600,480L600,480c-33.1,0-60,26.9-60,60v60c0,33.1,26.9,60,60,60l0,0c33.1,0,60-26.9,60-60v-60
	C660,506.9,633.1,480,600,480z"/>
<line class="st0" x1="600" y1="420" x2="600" y2="480"/>
</svg>
