<?xml version="1.0" encoding="utf-8"?>
<!-- Generator: Adobe Illustrator 26.0.0, SVG Export Plug-In . SVG Version: 6.00 Build 0)  -->
<svg version="1.1" id="图层_1" xmlns="http://www.w3.org/2000/svg" xmlns:xlink="http://www.w3.org/1999/xlink" x="0px" y="0px"
	 viewBox="0 0 720 900" style="enable-background:new 0 0 720 900;" xml:space="preserve">
<style type="text/css">
	.st0{fill:none;stroke:#000000;stroke-width:48;stroke-linecap:round;stroke-linejoin:round;stroke-miterlimit:10;}
</style>
<path class="st0" d="M180,540h60c33.1,0,60-26.9,60-60"/>
<path class="st0" d="M360,480l120,0c33.1,0,60,26.9,60,60"/>
<path class="st0" d="M600,840c-33.1,0-60-26.9-60-60"/>
<line class="st0" x1="420" y1="780" x2="420" y2="840"/>
<path class="st0" d="M120,840c33.1,0,60-26.9,60-60"/>
<line class="st0" x1="300" y1="780" x2="300" y2="840"/>
<path class="st0" d="M540,600H180c-33.1,0-60,26.9-60,60v0c0,33.1,26.9,60,60,60h360c33.1,0,60-26.9,60-60v0
	C600,626.9,573.1,600,540,600z"/>
<line class="st0" x1="600" y1="660" x2="120" y2="660"/>
<line class="st0" x1="360" y1="600" x2="360" y2="720"/>
</svg>
