<?xml version="1.0" encoding="utf-8"?>
<!-- Generator: Adobe Illustrator 26.0.0, SVG Export Plug-In . SVG Version: 6.00 Build 0)  -->
<svg version="1.1" id="图层_1" xmlns="http://www.w3.org/2000/svg" xmlns:xlink="http://www.w3.org/1999/xlink" x="0px" y="0px"
	 viewBox="0 0 720 900" style="enable-background:new 0 0 720 900;" xml:space="preserve">
<style type="text/css">
	.st0{fill:none;stroke:#000000;stroke-width:48;stroke-linecap:round;stroke-linejoin:round;stroke-miterlimit:10;}
</style>
<path class="st0" d="M120,240c99.4,0,180-80.6,180-180"/>
<path class="st0" d="M360,420c0,33.1-26.9,60-60,60H180c-33.1,0-60-26.9-60-60l0,0c0-33.1,26.9-60,60-60h120"/>
<path class="st0" d="M420,360h120c33.1,0,60,26.9,60,60l0,0c0,33.1-26.9,60-60,60H420c-33.1,0-60-26.9-60-60v-60"/>
<path class="st0" d="M540,480c33.1,0,60,26.9,60,60l0,0c0,33.1-26.9,60-60,60H420c-33.1,0-60-26.9-60-60c0,33.1-26.9,60-60,60H180
	c-33.1,0-60-26.9-60-60l0,0c0-33.1,26.9-60,60-60"/>
<path class="st0" d="M60,840c66.3,0,120-53.7,120-120"/>
<path class="st0" d="M240,840c33.1,0,60-26.9,60-60v-60"/>
<path class="st0" d="M660,840c-66.3,0-120-53.7-120-120"/>
<path class="st0" d="M480,840c-33.1,0-60-26.9-60-60v-60"/>
<path class="st0" d="M360,120h120c66.3,0,120,53.7,120,120"/>
</svg>
