<?xml version="1.0" encoding="utf-8"?>
<!-- Generator: Adobe Illustrator 26.0.0, SVG Export Plug-In . SVG Version: 6.00 Build 0)  -->
<svg version="1.1" id="图层_1" xmlns="http://www.w3.org/2000/svg" xmlns:xlink="http://www.w3.org/1999/xlink" x="0px" y="0px"
	 viewBox="0 0 720 900" style="enable-background:new 0 0 720 900;" xml:space="preserve">
<style type="text/css">
	.st0{fill:none;stroke:#000000;stroke-width:48;stroke-linecap:round;stroke-linejoin:round;stroke-miterlimit:10;}
</style>
<path class="st0" d="M300,420c33.1,0,60-26.9,60-60v-60"/>
<path class="st0" d="M660,480H540"/>
<path class="st0" d="M540,600h120"/>
<path class="st0" d="M540,720h120"/>
<path class="st0" d="M600,480v360"/>
<path class="st0" d="M660,300v60c0,33.1-26.9,60-60,60s-60-26.9-60-60v-60"/>
<path class="st0" d="M360,720L360,720c-33.1,0-60-26.9-60-60V540c0-33.1,26.9-60,60-60h0c33.1,0,60,26.9,60,60v120
	C420,693.1,393.1,720,360,720z"/>
<line class="st0" x1="300" y1="600" x2="420" y2="600"/>
<line class="st0" x1="360" y1="480" x2="360" y2="720"/>
<path class="st0" d="M300,840c0-33.1,26.9-60,60-60h60"/>
<line class="st0" x1="420" y1="360" x2="420" y2="420"/>
</svg>
