<?xml version="1.0" encoding="utf-8"?>
<!-- Generator: Adobe Illustrator 26.0.0, SVG Export Plug-In . SVG Version: 6.00 Build 0)  -->
<svg version="1.1" id="图层_1" xmlns="http://www.w3.org/2000/svg" xmlns:xlink="http://www.w3.org/1999/xlink" x="0px" y="0px"
	 viewBox="0 0 720 900" style="enable-background:new 0 0 720 900;" xml:space="preserve">
<style type="text/css">
	.st0{fill:none;stroke:#000000;stroke-width:48;stroke-linecap:round;stroke-linejoin:round;stroke-miterlimit:10;}
</style>
<path class="st0" d="M240,300H120c-33.1,0-60,26.9-60,60v420c0,33.1,26.9,60,60,60h120c33.1,0,60-26.9,60-60V360
	C300,326.9,273.1,300,240,300z"/>
<line class="st0" x1="180" y1="60" x2="180" y2="300"/>
<line class="st0" x1="180" y1="180" x2="300" y2="180"/>
<path class="st0" d="M300,660C167.5,660,60,552.5,60,420"/>
<path class="st0" d="M60,660c132.5,0,240-107.5,240-240"/>
<line class="st0" x1="120" y1="720" x2="240" y2="720"/>
<line class="st0" x1="120" y1="420" x2="240" y2="420"/>
<line class="st0" x1="420" y1="420" x2="660" y2="420"/>
<line class="st0" x1="420" y1="660" x2="660" y2="660"/>
<line class="st0" x1="420" y1="840" x2="660" y2="840"/>
<line class="st0" x1="540" y1="660" x2="540" y2="840"/>
<path class="st0" d="M420,540c66.3,0,120-53.7,120-120V180"/>
<line class="st0" x1="420" y1="180" x2="660" y2="180"/>
<line class="st0" x1="420" y1="300" x2="660" y2="300"/>
<line class="st0" x1="480" y1="180" x2="480" y2="60"/>
<line class="st0" x1="600" y1="180" x2="600" y2="60"/>
</svg>
