<?xml version="1.0" encoding="utf-8"?>
<!-- Generator: Adobe Illustrator 26.0.0, SVG Export Plug-In . SVG Version: 6.00 Build 0)  -->
<svg version="1.1" id="图层_1" xmlns="http://www.w3.org/2000/svg" xmlns:xlink="http://www.w3.org/1999/xlink" x="0px" y="0px"
	 viewBox="0 0 720 900" style="enable-background:new 0 0 720 900;" xml:space="preserve">
<style type="text/css">
	.st0{fill:none;stroke:#000000;stroke-width:48;stroke-linecap:round;stroke-linejoin:round;stroke-miterlimit:10;}
</style>
<line class="st0" x1="420" y1="60" x2="420" y2="121"/>
<path class="st0" d="M180,61.6c0.3,32.9,27.1,59.4,60,59.4h359c33.5,0,60.5-27.5,60-61"/>
<path class="st0" d="M360,121v300c0,33.1,26.9,60,60,60s60-26.9,60-60V121"/>
<path class="st0" d="M180,241h420c33.1,0,60,26.9,60,60l0,0c0,33.1-26.9,60-60,60H240c-33.1,0-60,26.9-60,60v299
	c0,66.3-53.7,120-120,120"/>
</svg>
