<?xml version="1.0" encoding="utf-8"?>
<!-- Generator: Adobe Illustrator 26.0.0, SVG Export Plug-In . SVG Version: 6.00 Build 0)  -->
<svg version="1.1" id="图层_1" xmlns="http://www.w3.org/2000/svg" xmlns:xlink="http://www.w3.org/1999/xlink" x="0px" y="0px"
	 viewBox="0 0 720 900" style="enable-background:new 0 0 720 900;" xml:space="preserve">
<style type="text/css">
	.st0{fill:none;stroke:#000000;stroke-width:48;stroke-linecap:round;stroke-linejoin:round;stroke-miterlimit:10;}
</style>
<line class="st0" x1="360" y1="240" x2="360" y2="300"/>
<path class="st0" d="M120,240.6c0.3,32.9,27.1,59.4,60,59.4h359c33.5,0,60.5-27.5,60-61"/>
<path class="st0" d="M300,300v240c0,33.1,26.9,60,60,60s60-26.9,60-60V300"/>
<path class="st0" d="M240,600v180c0,33.1,26.9,60,60,60h60"/>
<line class="st0" x1="240" y1="720" x2="360" y2="720"/>
<path class="st0" d="M480,600v180c0,33.1,26.9,60,60,60h60"/>
<line class="st0" x1="480" y1="720" x2="600" y2="720"/>
<path class="st0" d="M120,360h420c33.1,0,60,26.9,60,60v0c0,33.1-26.9,60-60,60H180c-33.1,0-60,26.9-60,60v240c0,33.1-26.9,60-60,60
	"/>
</svg>
