<?xml version="1.0" encoding="utf-8"?>
<!-- Generator: Adobe Illustrator 26.0.0, SVG Export Plug-In . SVG Version: 6.00 Build 0)  -->
<svg version="1.1" id="图层_1" xmlns="http://www.w3.org/2000/svg" xmlns:xlink="http://www.w3.org/1999/xlink" x="0px" y="0px"
	 viewBox="0 0 720 900" style="enable-background:new 0 0 720 900;" xml:space="preserve">
<style type="text/css">
	.st0{fill:none;stroke:#000000;stroke-width:48;stroke-linecap:round;stroke-linejoin:round;stroke-miterlimit:10;}
</style>
<path class="st0" d="M480,660h180"/>
<path class="st0" d="M480,180h180"/>
<path class="st0" d="M600,840V60"/>
<path class="st0" d="M540,60v780"/>
<path class="st0" d="M540,300h60"/>
<path class="st0" d="M540,540h60"/>
<line class="st0" x1="240" y1="60" x2="240" y2="180"/>
<path class="st0" d="M59.4,60l0.6,60.6c0.3,32.9,27.1,59.4,60,59.4h239c33.5,0,60.5-27.5,60-61l-1-59"/>
<path class="st0" d="M180,180v300c0,33.1,26.9,60,60,60s60-26.9,60-60V180"/>
<path class="st0" d="M120,600v180c0,33.1,26.9,60,60,60h60"/>
<line class="st0" x1="120" y1="720" x2="240" y2="720"/>
<path class="st0" d="M300,600v180c0,33.1,26.9,60,60,60h60"/>
<line class="st0" x1="300" y1="720" x2="420" y2="720"/>
<path class="st0" d="M60,300h300c33.1,0,60,26.9,60,60l0,0c0,33.1-26.9,60-60,60H120c-33.1,0-60,26.9-60,60v360"/>
</svg>
