<?xml version="1.0" encoding="utf-8"?>
<!-- Generator: Adobe Illustrator 26.0.0, SVG Export Plug-In . SVG Version: 6.00 Build 0)  -->
<svg version="1.1" id="图层_1" xmlns="http://www.w3.org/2000/svg" xmlns:xlink="http://www.w3.org/1999/xlink" x="0px" y="0px"
	 viewBox="0 0 720 900" style="enable-background:new 0 0 720 900;" xml:space="preserve">
<style type="text/css">
	.st0{fill:none;stroke:#000000;stroke-width:48;stroke-linecap:round;stroke-linejoin:round;stroke-miterlimit:10;}
</style>
<line class="st0" x1="120" y1="120" x2="600" y2="120"/>
<path class="st0" d="M480,60v180c0,33.1-26.9,60-60,60H300c-33.1,0-60-26.9-60-60V60"/>
<line class="st0" x1="60" y1="360" x2="660" y2="360"/>
<path class="st0" d="M360,360v360c0,66.3-53.7,120-120,120H120"/>
<path class="st0" d="M540,720H180c-33.1,0-60-26.9-60-60V540c0-33.1,26.9-60,60-60h360c33.1,0,60,26.9,60,60v120
	C600,693.1,573.1,720,540,720z"/>
<line class="st0" x1="120" y1="600" x2="600" y2="600"/>
<path class="st0" d="M360,720c0,66.3,53.7,120,120,120h120"/>
</svg>
