<?xml version="1.0" encoding="utf-8"?>
<!-- Generator: Adobe Illustrator 26.0.0, SVG Export Plug-In . SVG Version: 6.00 Build 0)  -->
<svg version="1.1" id="图层_1" xmlns="http://www.w3.org/2000/svg" xmlns:xlink="http://www.w3.org/1999/xlink" x="0px" y="0px"
	 viewBox="0 0 720 900" style="enable-background:new 0 0 720 900;" xml:space="preserve">
<style type="text/css">
	.st0{fill:none;stroke:#000000;stroke-width:48;stroke-linecap:round;stroke-linejoin:round;stroke-miterlimit:10;}
</style>
<path class="st0" d="M300,180h360"/>
<path class="st0" d="M540,60v180c0,33.1-26.9,60-60,60h0c-33.1,0-60-26.9-60-60V60"/>
<path class="st0" d="M300,360h360"/>
<path class="st0" d="M480,360v360c0,66.3-53.7,120-120,120h-60"/>
<path class="st0" d="M600,720H360c-33.1,0-60-26.9-60-60V540c0-33.1,26.9-60,60-60h240c33.1,0,60,26.9,60,60v120
	C660,693.1,633.1,720,600,720z"/>
<path class="st0" d="M300,600h360"/>
<path class="st0" d="M480,720c0,66.3,53.7,120,120,120h60"/>
</svg>
