<?xml version="1.0" encoding="utf-8"?>
<!-- Generator: Adobe Illustrator 26.0.0, SVG Export Plug-In . SVG Version: 6.00 Build 0)  -->
<svg version="1.1" id="图层_1" xmlns="http://www.w3.org/2000/svg" xmlns:xlink="http://www.w3.org/1999/xlink" x="0px" y="0px"
	 viewBox="0 0 720 900" style="enable-background:new 0 0 720 900;" xml:space="preserve">
<style type="text/css">
	.st0{fill:none;stroke:#000000;stroke-width:48;stroke-linecap:round;stroke-linejoin:round;stroke-miterlimit:10;}
</style>
<path class="st0" d="M300,480H180c-33.1,0-60-26.9-60-60l0,0c0-33.1,26.9-60,60-60h360c33.1,0,60,26.9,60,60l0,0
	c0,33.1-26.9,60-60,60H420"/>
<path class="st0" d="M300,360v420c0,33.1,26.9,60,60,60h60"/>
<path class="st0" d="M420,360v300c0,33.1-26.9,60-60,60h-60"/>
<line class="st0" x1="120" y1="660" x2="240" y2="660"/>
<line class="st0" x1="120" y1="180" x2="600" y2="180"/>
<path class="st0" d="M60,300h120c33.1,0,60-26.9,60-60v-60"/>
<path class="st0" d="M480,240L480,240c0,33.1,26.9,60,60,60h120"/>
<line class="st0" x1="120" y1="60" x2="600" y2="60"/>
<path class="st0" d="M180,540c-33.1,0-60,26.9-60,60v120c0,33.1,26.9,60,60,60"/>
<line class="st0" x1="600" y1="660" x2="480" y2="660"/>
<path class="st0" d="M540,540c33.1,0,60,26.9,60,60v120c0,33.1-26.9,60-60,60"/>
</svg>
