<?xml version="1.0" encoding="utf-8"?>
<!-- Generator: Adobe Illustrator 26.0.0, SVG Export Plug-In . SVG Version: 6.00 Build 0)  -->
<svg version="1.1" id="图层_1" xmlns="http://www.w3.org/2000/svg" xmlns:xlink="http://www.w3.org/1999/xlink" x="0px" y="0px"
	 viewBox="0 0 720 900" style="enable-background:new 0 0 720 900;" xml:space="preserve">
<style type="text/css">
	.st0{fill:none;stroke:#000000;stroke-width:48;stroke-linecap:round;stroke-linejoin:round;stroke-miterlimit:10;}
</style>
<line class="st0" x1="60" y1="179.9" x2="420" y2="179.9"/>
<line class="st0" x1="60" y1="419.9" x2="420" y2="419.9"/>
<line class="st0" x1="180" y1="359.9" x2="180" y2="419.9"/>
<line class="st0" x1="300" y1="359.9" x2="300" y2="419.9"/>
<line class="st0" x1="240" y1="59.9" x2="240" y2="179.9"/>
<path class="st0" d="M300,239.9H180c-33.1,0-60,26.9-60,60l0,0c0,33.1,26.9,60,60,60h120c33.1,0,60-26.9,60-60l0,0
	C360,266.8,333.1,239.9,300,239.9z"/>
<line class="st0" x1="120" y1="119.9" x2="360" y2="119.9"/>
<line class="st0" x1="540" y1="60" x2="540" y2="180"/>
<line class="st0" x1="660" y1="120" x2="540" y2="120"/>
<path class="st0" d="M480,180h180v120c0,33.1-26.9,60-60,60H480"/>
<path class="st0" d="M480,240c33.1,0,60,26.9,60,60v60c0,33.1,26.9,60,60,60h60"/>
</svg>
