<?xml version="1.0" encoding="utf-8"?>
<!-- Generator: Adobe Illustrator 26.0.0, SVG Export Plug-In . SVG Version: 6.00 Build 0)  -->
<svg version="1.1" id="图层_1" xmlns="http://www.w3.org/2000/svg" xmlns:xlink="http://www.w3.org/1999/xlink" x="0px" y="0px"
	 viewBox="0 0 720 900" style="enable-background:new 0 0 720 900;" xml:space="preserve">
<style type="text/css">
	.st0{fill:none;stroke:#000000;stroke-width:48;stroke-linecap:round;stroke-linejoin:round;stroke-miterlimit:10;}
</style>
<line class="st0" x1="180" y1="240" x2="60" y2="240"/>
<line class="st0" x1="300" y1="240" x2="420" y2="240"/>
<path class="st0" d="M180,60c-66.3,0-120,53.7-120,120v120c0,66.3,53.7,120,120,120h120c66.3,0,120-53.7,120-120V180
	c0-66.3-53.7-120-120-120"/>
<path class="st0" d="M60,480v300c0,33.1,26.9,60,60,60h60"/>
<line class="st0" x1="60" y1="600" x2="180" y2="600"/>
<line class="st0" x1="60" y1="720" x2="180" y2="720"/>
<path class="st0" d="M240,480v300c0,33.1,26.9,60,60,60h60"/>
<path class="st0" d="M420,480v300c0,33.1,26.9,60,60,60"/>
<line class="st0" x1="240" y1="600" x2="360" y2="600"/>
<line class="st0" x1="240" y1="720" x2="360" y2="720"/>
</svg>
