<?xml version="1.0" encoding="utf-8"?>
<!-- Generator: Adobe Illustrator 26.0.0, SVG Export Plug-In . SVG Version: 6.00 Build 0)  -->
<svg version="1.1" id="图层_1" xmlns="http://www.w3.org/2000/svg" xmlns:xlink="http://www.w3.org/1999/xlink" x="0px" y="0px"
	 viewBox="0 0 720 900" style="enable-background:new 0 0 720 900;" xml:space="preserve">
<style type="text/css">
	.st0{fill:none;stroke:#000000;stroke-width:48;stroke-linecap:round;stroke-linejoin:round;stroke-miterlimit:10;}
</style>
<line class="st0" x1="60" y1="660" x2="300" y2="660"/>
<line class="st0" x1="240" y1="660" x2="240" y2="840"/>
<line class="st0" x1="120" y1="660" x2="120" y2="840"/>
<path class="st0" d="M240,600H120c-33.1,0-60-26.9-60-60V420c0-33.1,26.9-60,60-60h120c33.1,0,60,26.9,60,60v120
	C300,573.1,273.1,600,240,600z"/>
<line class="st0" x1="60" y1="480" x2="300" y2="480"/>
<line class="st0" x1="180" y1="360" x2="180" y2="600"/>
<path class="st0" d="M60,60v180c0,33.1,26.9,60,60,60h120c33.1,0,60-26.9,60-60V60"/>
<line class="st0" x1="60" y1="180" x2="300" y2="180"/>
<line class="st0" x1="60" y1="240" x2="300" y2="240"/>
<line class="st0" x1="60" y1="120" x2="300" y2="120"/>
<line class="st0" x1="180" y1="60" x2="180" y2="120"/>
<line class="st0" x1="540" y1="60" x2="540" y2="420"/>
<path class="st0" d="M420,360c0-66.3,53.7-120,120-120s120,53.7,120,120"/>
<path class="st0" d="M420,60v60c0,33.1,26.9,60,60,60h120c33.1,0,60-26.9,60-60V60"/>
<path class="st0" d="M420,780V540c0-33.1,26.9-60,60-60h120c33.1,0,60,26.9,60,60v240"/>
<line class="st0" x1="420" y1="840" x2="660" y2="840"/>
<line class="st0" x1="420" y1="600" x2="660" y2="600"/>
<line class="st0" x1="420" y1="720" x2="660" y2="720"/>
</svg>
