<?xml version="1.0" encoding="utf-8"?>
<!-- Generator: Adobe Illustrator 26.0.0, SVG Export Plug-In . SVG Version: 6.00 Build 0)  -->
<svg version="1.1" id="图层_1" xmlns="http://www.w3.org/2000/svg" xmlns:xlink="http://www.w3.org/1999/xlink" x="0px" y="0px"
	 viewBox="0 0 720 900" style="enable-background:new 0 0 720 900;" xml:space="preserve">
<style type="text/css">
	.st0{fill:none;stroke:#000000;stroke-width:48;stroke-linecap:round;stroke-linejoin:round;stroke-miterlimit:10;}
</style>
<path class="st0" d="M480,720H240c-99.4,0-180-80.6-180-180v0c0-99.4,80.6-180,180-180h240c99.4,0,180,80.6,180,180v0
	C660,639.4,579.4,720,480,720z"/>
<line class="st0" x1="60" y1="540" x2="660" y2="540"/>
<path class="st0" d="M360,60L360,60c0,33.1-26.9,60-60,60H180c-33.1,0-60,26.9-60,60v0c0,33.1,26.9,60,60,60h120"/>
<path class="st0" d="M420,120h120c33.1,0,60,26.9,60,60v0c0,33.1-26.9,60-60,60H420c-33.1,0-60,26.9-60,60v0l0,0v420
	c0,66.3,53.7,120,120,120h180"/>
</svg>
