<?xml version="1.0" encoding="utf-8"?>
<!-- Generator: Adobe Illustrator 26.0.0, SVG Export Plug-In . SVG Version: 6.00 Build 0)  -->
<svg version="1.1" id="图层_1" xmlns="http://www.w3.org/2000/svg" xmlns:xlink="http://www.w3.org/1999/xlink" x="0px" y="0px"
	 viewBox="0 0 720 900" style="enable-background:new 0 0 720 900;" xml:space="preserve">
<style type="text/css">
	.st0{fill:none;stroke:#000000;stroke-width:48;stroke-linecap:round;stroke-linejoin:round;stroke-miterlimit:10;}
</style>
<path class="st0" d="M420,840V420c0-66.3,53.7-120,120-120l0,0c66.3,0,121.1-53.3,121.3-119.6c0.2-66.5-53.6-120.4-120-120.4H420"/>
<path class="st0" d="M480,420h120c33.1,0,60,26.9,60,60v120c0,66.3-53.7,120-120,120h-60"/>
<path class="st0" d="M480,600c33.1,0,60,26.9,60,60v60c0,66.3,53.7,120,120,120"/>
<path class="st0" d="M540,60v240"/>
</svg>
