<?xml version="1.0" encoding="utf-8"?>
<!-- Generator: Adobe Illustrator 26.0.0, SVG Export Plug-In . SVG Version: 6.00 Build 0)  -->
<svg version="1.1" id="图层_1" xmlns="http://www.w3.org/2000/svg" xmlns:xlink="http://www.w3.org/1999/xlink" x="0px" y="0px"
	 viewBox="0 0 720 900" style="enable-background:new 0 0 720 900;" xml:space="preserve">
<style type="text/css">
	.st0{fill:none;stroke:#000000;stroke-width:48;stroke-linecap:round;stroke-linejoin:round;stroke-miterlimit:10;}
</style>
<path class="st0" d="M600,360H360c-33.1,0-60-26.9-60-60V180c0-33.1,26.9-60,60-60h240c33.1,0,60,26.9,60,60v120
	C660,333.1,633.1,360,600,360z"/>
<line class="st0" x1="480" y1="120" x2="480" y2="60"/>
<path class="st0" d="M420,360v60c0,33.1-26.9,60-60,60h-60"/>
<path class="st0" d="M540,360v60c0,33.1,26.9,60,60,60h60"/>
<path class="st0" d="M360,540v60c0,33.1-26.9,60-60,60"/>
<path class="st0" d="M360,600h240v60c0,33.1-26.9,60-60,60H300"/>
<path class="st0" d="M420,660v120c0,33.1,26.9,60,60,60h180"/>
<path class="st0" d="M600,300h-60c-66.3,0-120-53.7-120-120"/>
<path class="st0" d="M360,300h60c66.3,0,120-53.7,120-120"/>
</svg>
