<?xml version="1.0" encoding="utf-8"?>
<!-- Generator: Adobe Illustrator 26.0.0, SVG Export Plug-In . SVG Version: 6.00 Build 0)  -->
<svg version="1.1" id="图层_1" xmlns="http://www.w3.org/2000/svg" xmlns:xlink="http://www.w3.org/1999/xlink" x="0px" y="0px"
	 viewBox="0 0 720 900" style="enable-background:new 0 0 720 900;" xml:space="preserve">
<style type="text/css">
	.st0{fill:none;stroke:#000000;stroke-width:48;stroke-linecap:round;stroke-linejoin:round;stroke-miterlimit:10;}
</style>
<path class="st0" d="M540,60v240"/>
<path class="st0" d="M420,180c33.1,0,60-26.9,60-60V60"/>
<path class="st0" d="M660,180c-33.2,0-60-26.9-60-60V60"/>
<path class="st0" d="M600,660H480c-33.1,0-60-26.9-60-60V360c0-33.1,26.9-60,60-60h120c33.1,0,60,26.9,60,60v240
	C660,633.1,633.1,660,600,660z"/>
<line class="st0" x1="420" y1="420" x2="660" y2="420"/>
<line class="st0" x1="420" y1="540" x2="660" y2="540"/>
<path class="st0" d="M480,660v120c0,33.1-26.9,60-60,60"/>
<path class="st0" d="M600,660v120c0,33.1,26.9,60,60,60"/>
</svg>
