<?xml version="1.0" encoding="utf-8"?>
<!-- Generator: Adobe Illustrator 26.0.0, SVG Export Plug-In . SVG Version: 6.00 Build 0)  -->
<svg version="1.1" id="图层_1" xmlns="http://www.w3.org/2000/svg" xmlns:xlink="http://www.w3.org/1999/xlink" x="0px" y="0px"
	 viewBox="0 0 720 900" style="enable-background:new 0 0 720 900;" xml:space="preserve">
<path d="M300,570h-30V450h30c16.6,0,30-13.4,30-30s-13.4-30-30-30h-30v-90c0-16.6-13.4-30-30-30s-30,13.4-30,30v90h-60v-90
	c0-16.6-13.4-30-30-30s-30,13.4-30,30v90H60c-16.6,0-30,13.4-30,30s13.4,30,30,30h30v120H60c-16.6,0-30,13.4-30,30s13.4,30,30,30h30
	v90c0,16.6,13.4,30,30,30s30-13.4,30-30v-90h60v90c0,16.6,13.4,30,30,30s30-13.4,30-30v-90h30c16.6,0,30-13.4,30-30
	S316.6,570,300,570z M150,570V450h60v120H150z"/>
</svg>
