<?xml version="1.0" encoding="utf-8"?>
<!-- Generator: Adobe Illustrator 26.0.0, SVG Export Plug-In . SVG Version: 6.00 Build 0)  -->
<svg version="1.1" id="图层_1" xmlns="http://www.w3.org/2000/svg" xmlns:xlink="http://www.w3.org/1999/xlink" x="0px" y="0px"
	 viewBox="0 0 720 900" style="enable-background:new 0 0 720 900;" xml:space="preserve">
<path d="M210,513V335.1c34.9,12.4,60,45.7,60,84.9c0,16.6,13.4,30,30,30s30-13.4,30-30c0-72.4-51.6-133-120-147v-33
	c0-16.6-13.4-30-30-30s-30,13.4-30,30v33C81.6,287,30,347.6,30,420c0,72.4,51.6,133,120,147v177.9c-34.9-12.4-60-45.7-60-84.9
	c0-16.6-13.4-30-30-30s-30,13.4-30,30c0,72.4,51.6,133,120,147v33c0,16.6,13.4,30,30,30s30-13.4,30-30v-33
	c68.4-13.9,120-74.5,120-147S278.4,527,210,513z M90,420c0-39.1,25.1-72.5,60-84.9v169.7C115.1,492.5,90,459.1,90,420z M210,744.9
	V575.1c34.9,12.4,60,45.7,60,84.9S244.9,732.5,210,744.9z"/>
</svg>
