<?xml version="1.0" encoding="utf-8"?>
<!-- Generator: Adobe Illustrator 26.0.0, SVG Export Plug-In . SVG Version: 6.00 Build 0)  -->
<svg version="1.1" id="图层_1" xmlns="http://www.w3.org/2000/svg" xmlns:xlink="http://www.w3.org/1999/xlink" x="0px" y="0px"
	 viewBox="0 0 720 900" style="enable-background:new 0 0 720 900;" xml:space="preserve">
<path d="M327.6,828.2l-31.4-73.4C317.3,729,330,695.9,330,660v-60c0-16.6-13.4-30-30-30s-30,13.4-30,30v60c0,8.8-1.3,17.3-3.6,25.3
	l-51.2-119.5C281,550,330,490.6,330,420c0-82.7-67.3-150-150-150h-60c-16.6,0-30,13.4-30,30s13.4,30,30,30h60c49.6,0,90,40.4,90,90
	c0,45.9-34.6,83.9-79.1,89.3l-43.4-101.2c-6.5-15.2-24.2-22.3-39.4-15.8C93,399,85.9,416.6,92.4,431.8l37.2,86.9
	C71.6,539.4,30,594.9,30,660c0,82.7,67.3,150,150,150c24.3,0,47.3-5.8,67.6-16.1l24.8,57.9c4.9,11.4,15.9,18.2,27.6,18.2
	c3.9,0,8-0.8,11.8-2.4C327,861,334.1,843.4,327.6,828.2z M180,750c-49.6,0-90-40.4-90-90c0-40.4,26.7-74.6,63.4-86l70.5,164.5
	C210.9,745.8,195.9,750,180,750z"/>
</svg>
