<?xml version="1.0" encoding="utf-8"?>
<!-- Generator: Adobe Illustrator 26.0.0, SVG Export Plug-In . SVG Version: 6.00 Build 0)  -->
<svg version="1.1" id="图层_1" xmlns="http://www.w3.org/2000/svg" xmlns:xlink="http://www.w3.org/1999/xlink" x="0px" y="0px"
	 viewBox="0 0 720 900" style="enable-background:new 0 0 720 900;" xml:space="preserve">
<path d="M222.4,480l98.8-98.8c11.7-11.7,11.7-30.7,0-42.4c-11.7-11.7-30.7-11.7-42.4,0L210,407.6V300c0-16.6-13.4-30-30-30
	s-30,13.4-30,30v107.6l-68.8-68.8c-11.7-11.7-30.7-11.7-42.4,0c-11.7,11.7-11.7,30.7,0,42.4l98.8,98.8l-98.8,98.8
	c-11.7,11.7-11.7,30.7,0,42.4c5.9,5.9,13.5,8.8,21.2,8.8s15.4-2.9,21.2-8.8l68.8-68.8V660c0,16.6,13.4,30,30,30s30-13.4,30-30V552.4
	l68.8,68.8c5.9,5.9,13.5,8.8,21.2,8.8s15.4-2.9,21.2-8.8c11.7-11.7,11.7-30.7,0-42.4L222.4,480z"/>
</svg>
