<?xml version="1.0" encoding="utf-8"?>
<!-- Generator: Adobe Illustrator 26.0.0, SVG Export Plug-In . SVG Version: 6.00 Build 0)  -->
<svg version="1.1" id="图层_1" xmlns="http://www.w3.org/2000/svg" xmlns:xlink="http://www.w3.org/1999/xlink" x="0px" y="0px"
	 viewBox="0 0 720 900" style="enable-background:new 0 0 720 900;" xml:space="preserve">
<g>
	<path d="M680.7,325.8L423.1,68.2c-35.1-35.1-92.1-35.1-127.2,0L38.3,325.8c-11.7,11.7-11.7,30.7,0,42.4c11.7,11.7,30.7,11.7,42.4,0
		l257.6-257.6c11.7-11.7,30.7-11.7,42.4,0l257.6,257.6c5.9,5.9,13.5,8.8,21.2,8.8s15.4-2.9,21.2-8.8
		C692.4,356.5,692.4,337.5,680.7,325.8z"/>
	<path d="M479.5,497c49.6,0,90-40.4,90-90v-60c0-16.6-13.4-30-30-30s-30,13.4-30,30v60c0,16.5-13.5,30-30,30h-90V317h90
		c16.6,0,30-13.4,30-30s-13.4-30-30-30h-240c-16.6,0-30,13.4-30,30s13.4,30,30,30h90v120h-90c-16.5,0-30-13.5-30-30v-60
		c0-16.6-13.4-30-30-30s-30,13.4-30,30v60c0,49.6,40.4,90,90,90h90v330c0,16.6,13.4,30,30,30s30-13.4,30-30V497H479.5z"/>
	<path d="M119.5,557c-16.6,0-30,13.4-30,30s13.4,30,30,30c49.6,0,90,40.4,90,90s-40.4,90-90,90c-16.6,0-30,13.4-30,30s13.4,30,30,30
		c82.7,0,150-67.3,150-150S202.2,557,119.5,557z"/>
	<path d="M599.5,617c16.6,0,30-13.4,30-30s-13.4-30-30-30c-82.7,0-150,67.3-150,150s67.3,150,150,150c16.6,0,30-13.4,30-30
		s-13.4-30-30-30c-49.6,0-90-40.4-90-90S549.9,617,599.5,617z"/>
</g>
</svg>
