<?xml version="1.0" encoding="utf-8"?>
<!-- Generator: Adobe Illustrator 26.0.0, SVG Export Plug-In . SVG Version: 6.00 Build 0)  -->
<svg version="1.1" id="图层_1" xmlns="http://www.w3.org/2000/svg" xmlns:xlink="http://www.w3.org/1999/xlink" x="0px" y="0px"
	 viewBox="0 0 720 900" style="enable-background:new 0 0 720 900;" xml:space="preserve">
<g>
	<path d="M270,240v-90h30c16.6,0,30-13.4,30-30s-13.4-30-30-30h-90V60c0-16.6-13.4-30-30-30s-30,13.4-30,30v30H60
		c-16.6,0-30,13.4-30,30s13.4,30,30,30h30v90c0,39.1,25.1,72.5,60,84.9v60c-34.9-12.4-60-45.7-60-84.9c0-16.6-13.4-30-30-30
		s-30,13.4-30,30c0,72.4,51.6,133,120,147v63H60c-16.6,0-30,13.4-30,30s13.4,30,30,30h90v63C81.6,647,30,707.6,30,780v60
		c0,16.6,13.4,30,30,30s30-13.4,30-30v-60c0-39.1,25.1-72.5,60-84.9V840c0,16.6,13.4,30,30,30s30-13.4,30-30V695.1
		c34.9,12.4,60,45.7,60,84.9v60c0,16.6,13.4,30,30,30s30-13.4,30-30v-60c0-72.4-51.6-133-120-147v-63h90c16.6,0,30-13.4,30-30
		s-13.4-30-30-30h-90v-63c68.4-13.9,120-74.5,120-147c0-16.6-13.4-30-30-30s-30,13.4-30,30c0,39.1-25.1,72.5-60,84.9v-60
		C244.9,312.5,270,279.1,270,240z M210,150v90c0,16.5-13.5,30-30,30s-30-13.5-30-30v-90H210z"/>
	<path d="M660,270H450v-90c0-16.5,13.5-30,30-30h120c49.6,0,90-40.4,90-90c0-16.6-13.4-30-30-30s-30,13.4-30,30
		c0,16.5-13.5,30-30,30H480c-49.6,0-90,40.4-90,90v660c0,16.6,13.4,30,30,30s30-13.4,30-30V330h210c16.6,0,30-13.4,30-30
		S676.6,270,660,270z"/>
	<path d="M600,390c-16.6,0-30,13.4-30,30v420c0,16.6,13.4,30,30,30s30-13.4,30-30V420C630,403.4,616.6,390,600,390z"/>
</g>
</svg>
