<?xml version="1.0" encoding="utf-8"?>
<!-- Generator: Adobe Illustrator 26.0.0, SVG Export Plug-In . SVG Version: 6.00 Build 0)  -->
<svg version="1.1" id="图层_1" xmlns="http://www.w3.org/2000/svg" xmlns:xlink="http://www.w3.org/1999/xlink" x="0px" y="0px"
	 viewBox="0 0 720 900" style="enable-background:new 0 0 720 900;" xml:space="preserve">
<g>
	<path d="M269.5,239.4v-90h30c16.6,0,30-13.4,30-30s-13.4-30-30-30h-90v-30c0-16.6-13.4-30-30-30s-30,13.4-30,30v30h-90
		c-16.6,0-30,13.4-30,30s13.4,30,30,30h30v90c0,39.1,25.1,72.5,60,84.9v60c-34.9-12.4-60-45.7-60-84.9c0-16.6-13.4-30-30-30
		s-30,13.4-30,30c0,72.4,51.6,133,120,147v63h-90c-16.6,0-30,13.4-30,30s13.4,30,30,30h90v63c-68.4,13.9-120,74.5-120,147v60
		c0,16.6,13.4,30,30,30s30-13.4,30-30v-60c0-39.1,25.1-72.5,60-84.9v144.9c0,16.6,13.4,30,30,30s30-13.4,30-30V694.5
		c34.9,12.4,60,45.7,60,84.9v60c0,16.6,13.4,30,30,30s30-13.4,30-30v-60c0-72.4-51.6-133-120-147v-63h90c16.6,0,30-13.4,30-30
		s-13.4-30-30-30h-90v-63c68.4-13.9,120-74.5,120-147c0-16.6-13.4-30-30-30s-30,13.4-30,30c0,39.1-25.1,72.5-60,84.9v-60
		C244.4,311.9,269.5,278.5,269.5,239.4z M209.5,149.4v90c0,16.5-13.5,30-30,30s-30-13.5-30-30v-90H209.5z"/>
	<path d="M659.5,269.4h-210v-90c0-16.5,13.5-30,30-30h120c49.6,0,90-40.4,90-90c0-16.6-13.4-30-30-30s-30,13.4-30,30
		c0,16.5-13.5,30-30,30h-120c-49.6,0-90,40.4-90,90v660c0,16.6,13.4,30,30,30s30-13.4,30-30v-510h210c16.6,0,30-13.4,30-30
		S676.1,269.4,659.5,269.4z"/>
	<path d="M599.5,389.4c-16.6,0-30,13.4-30,30v420c0,16.6,13.4,30,30,30s30-13.4,30-30v-420C629.5,402.8,616.1,389.4,599.5,389.4z"/>
</g>
</svg>
