<?xml version="1.0" encoding="utf-8"?>
<!-- Generator: Adobe Illustrator 26.0.0, SVG Export Plug-In . SVG Version: 6.00 Build 0)  -->
<svg version="1.1" id="图层_1" xmlns="http://www.w3.org/2000/svg" xmlns:xlink="http://www.w3.org/1999/xlink" x="0px" y="0px"
	 viewBox="0 0 720 900" style="enable-background:new 0 0 720 900;" xml:space="preserve">
<g>
	<path d="M206.5,89.4h93c16.6,0,30-13.4,30-30s-13.4-30-30-30h-120c-16.6,0-30,13.4-30,30c0,49.6-40.4,90-90,90
		c-16.6,0-30,13.4-30,30s13.4,30,30,30C131.9,209.4,192.5,157.8,206.5,89.4z"/>
	<path d="M479.5,749.4c-16.6,0-30,13.4-30,30s13.4,30,30,30c16.5,0,30,13.5,30,30c0,16.6,13.4,30,30,30s30-13.4,30-30
		C569.5,789.8,529.1,749.4,479.5,749.4z"/>
	<path d="M239.5,749.4c-49.6,0-90,40.4-90,90c0,16.6,13.4,30,30,30s30-13.4,30-30c0-16.5,13.5-30,30-30c16.6,0,30-13.4,30-30
		S256.1,749.4,239.5,749.4z"/>
	<path d="M539.5,629.4h-150v-60h90c16.6,0,30-13.4,30-30s-13.4-30-30-30h-90v-30c0-16.6-13.4-30-30-30s-30,13.4-30,30v30h-90
		c-16.5,0-30-13.5-30-30c0-16.6-13.4-30-30-30s-30,13.4-30,30c0,49.6,40.4,90,90,90h90v60h-90c-16.5,0-30-13.5-30-30
		c0-16.6-13.4-30-30-30s-30,13.4-30,30c0,49.6,40.4,90,90,90h90v150c0,16.6,13.4,30,30,30s30-13.4,30-30v-150h150
		c16.6,0,30-13.4,30-30S556.1,629.4,539.5,629.4z"/>
	<path d="M269.5,389.4v30c0,16.6,13.4,30,30,30s30-13.4,30-30v-30h30c16.6,0,30-13.4,30-30s-13.4-30-30-30h-30v-180h-90
		c-16.6,0-30,13.4-30,30s13.4,30,30,30h30v120h-30h-60c-16.5,0-30-13.5-30-30c0-16.6-13.4-30-30-30s-30,13.4-30,30
		c0,49.6,40.4,90,90,90H269.5z"/>
	<path d="M260.7,278.2l-60-60c-11.7-11.7-30.7-11.7-42.4,0c-11.7,11.7-11.7,30.7,0,42.4l60,60c5.9,5.9,13.5,8.8,21.2,8.8
		s15.4-2.9,21.2-8.8C272.4,308.9,272.4,289.9,260.7,278.2z"/>
	<path d="M659.5,29.4h-60c-49.6,0-90,40.4-90,90v30h-90c-16.6,0-30,13.4-30,30s13.4,30,30,30h150v30c0,24.6-5.9,47.7-16.4,68.2
		c-16.3-23.1-43.2-38.2-73.6-38.2h-60c-16.6,0-30,13.4-30,30s13.4,30,30,30h60c16.5,0,30,13.4,30,29.9c-25.1,18.9-56.3,30.1-90,30.1
		c-16.6,0-30,13.4-30,30s13.4,30,30,30c32.4,0,63.1-7.4,90.5-20.5c4.8,45.2,43.1,80.5,89.5,80.5c16.6,0,30-13.4,30-30
		s-13.4-30-30-30c-16.5,0-30-13.5-30-30v-33.2c37.1-37.9,60-89.7,60-146.8v-90h-60v-30c0-16.5,13.5-30,30-30h60
		c16.6,0,30-13.4,30-30S676.1,29.4,659.5,29.4z"/>
</g>
</svg>
