<?xml version="1.0" encoding="utf-8"?>
<!-- Generator: Adobe Illustrator 26.0.0, SVG Export Plug-In . SVG Version: 6.00 Build 0)  -->
<svg version="1.1" id="图层_1" xmlns="http://www.w3.org/2000/svg" xmlns:xlink="http://www.w3.org/1999/xlink" x="0px" y="0px"
	 viewBox="0 0 720 900" style="enable-background:new 0 0 720 900;" xml:space="preserve">
<g>
	<path d="M207,90h93c16.6,0,30-13.4,30-30s-13.4-30-30-30H180c-16.6,0-30,13.4-30,30c0,49.6-40.4,90-90,90c-16.6,0-30,13.4-30,30
		s13.4,30,30,30C132.4,210,193,158.4,207,90z"/>
	<path d="M480,750c-16.6,0-30,13.4-30,30s13.4,30,30,30c16.5,0,30,13.5,30,30c0,16.6,13.4,30,30,30s30-13.4,30-30
		C570,790.4,529.6,750,480,750z"/>
	<path d="M240,750c-49.6,0-90,40.4-90,90c0,16.6,13.4,30,30,30s30-13.4,30-30c0-16.5,13.5-30,30-30c16.6,0,30-13.4,30-30
		S256.6,750,240,750z"/>
	<path d="M540,630H390v-60h90c16.6,0,30-13.4,30-30s-13.4-30-30-30h-90v-30c0-16.6-13.4-30-30-30s-30,13.4-30,30v30h-90
		c-16.5,0-30-13.5-30-30c0-16.6-13.4-30-30-30s-30,13.4-30,30c0,49.6,40.4,90,90,90h90v60h-90c-16.5,0-30-13.5-30-30
		c0-16.6-13.4-30-30-30s-30,13.4-30,30c0,49.6,40.4,90,90,90h90v150c0,16.6,13.4,30,30,30s30-13.4,30-30V690h150
		c16.6,0,30-13.4,30-30S556.6,630,540,630z"/>
	<path d="M270,390v30c0,16.6,13.4,30,30,30s30-13.4,30-30v-30h30c16.6,0,30-13.4,30-30s-13.4-30-30-30h-30V180c0-16.6-13.4-30-30-30
		h-60c-16.6,0-30,13.4-30,30s13.4,30,30,30h30v120h-30h-60c-16.5,0-30-13.5-30-30c0-16.6-13.4-30-30-30s-30,13.4-30,30
		c0,49.6,40.4,90,90,90H270z"/>
	<path d="M261.2,278.8l-60-60c-11.7-11.7-30.7-11.7-42.4,0c-11.7,11.7-11.7,30.7,0,42.4l60,60c5.9,5.9,13.5,8.8,21.2,8.8
		s15.4-2.9,21.2-8.8C272.9,309.5,272.9,290.5,261.2,278.8z"/>
	<path d="M660,30h-60c-49.6,0-90,40.4-90,90v30h-90c-16.6,0-30,13.4-30,30s13.4,30,30,30h150v30c0,24.6-5.9,47.7-16.4,68.2
		C537.3,285.1,510.4,270,480,270h-60c-16.6,0-30,13.4-30,30s13.4,30,30,30h60c16.5,0,30,13.4,30,29.9c-25.1,18.9-56.3,30.1-90,30.1
		c-16.6,0-30,13.4-30,30s13.4,30,30,30c32.4,0,63.1-7.4,90.5-20.5c4.8,45.2,43.1,80.5,89.5,80.5c16.6,0,30-13.4,30-30
		s-13.4-30-30-30c-16.5,0-30-13.5-30-30v-33.2c37.1-37.9,60-89.7,60-146.8v-60c0-16.6-13.4-30-30-30h-30v-30c0-16.5,13.5-30,30-30
		h60c16.6,0,30-13.4,30-30S676.6,30,660,30z"/>
</g>
</svg>
