<?xml version="1.0" encoding="utf-8"?>
<!-- Generator: Adobe Illustrator 26.0.0, SVG Export Plug-In . SVG Version: 6.00 Build 0)  -->
<svg version="1.1" id="图层_1" xmlns="http://www.w3.org/2000/svg" xmlns:xlink="http://www.w3.org/1999/xlink" x="0px" y="0px"
	 viewBox="0 0 720 900" style="enable-background:new 0 0 720 900;" xml:space="preserve">
<g>
	<path d="M120,90h120c16.6,0,30-13.4,30-30s-13.4-30-30-30H120c-16.6,0-30,13.4-30,30S103.4,90,120,90z"/>
	<path d="M300,150H60c-16.6,0-30,13.4-30,30s13.4,30,30,30h240c16.6,0,30-13.4,30-30S316.6,150,300,150z"/>
	<path d="M300,270H60c-16.6,0-30,13.4-30,30s13.4,30,30,30h240c16.6,0,30-13.4,30-30S316.6,270,300,270z"/>
	<path d="M300,390H60c-16.6,0-30,13.4-30,30s13.4,30,30,30h240c16.6,0,30-13.4,30-30S316.6,390,300,390z"/>
	<path d="M660,390h-30V240c0-49.6-40.4-90-90-90h-30V90h150c16.6,0,30-13.4,30-30s-13.4-30-30-30H420c-16.6,0-30,13.4-30,30
		s13.4,30,30,30h30v60h-30c-16.6,0-30,13.4-30,30s13.4,30,30,30h30v180h-30c-16.6,0-30,13.4-30,30s13.4,30,30,30h240
		c16.6,0,30-13.4,30-30S676.6,390,660,390z M510,210h30c16.5,0,30,13.5,30,30v150h-60V210z"/>
	<path d="M240,510c-16.6,0-30,13.4-30,30v30h-60v-30c0-16.6-13.4-30-30-30s-30,13.4-30,30v240c0,49.6,40.4,90,90,90s90-40.4,90-90
		V540C270,523.4,256.6,510,240,510z M180,810c-16.5,0-30-13.5-30-30V630h60v150C210,796.5,196.5,810,180,810z"/>
	<path d="M660,510c-16.6,0-30,13.4-30,30v30H450v-30c0-16.6-13.4-30-30-30s-30,13.4-30,30v240c0,49.6,40.4,90,90,90h120
		c49.6,0,90-40.4,90-90V540C690,523.4,676.6,510,660,510z M600,810H480c-16.5,0-30-13.5-30-30V630h180v150
		C630,796.5,616.5,810,600,810z"/>
</g>
</svg>
