<?xml version="1.0" encoding="utf-8"?>
<!-- Generator: Adobe Illustrator 26.0.0, SVG Export Plug-In . SVG Version: 6.00 Build 0)  -->
<svg version="1.1" id="图层_1" xmlns="http://www.w3.org/2000/svg" xmlns:xlink="http://www.w3.org/1999/xlink" x="0px" y="0px"
	 viewBox="0 0 720 900" style="enable-background:new 0 0 720 900;" xml:space="preserve">
<style type="text/css">
	.st0{fill:none;stroke:#000000;stroke-width:48;stroke-linecap:round;stroke-miterlimit:10;}
</style>
<path class="st0" d="M60,300l197.1-197.1c56.8-56.8,149-56.8,205.9,0L660,300"/>
<line class="st0" x1="240" y1="300" x2="480" y2="300"/>
<path class="st0" d="M180,360v60c0,33.1,26.9,60,60,60h240c33.1,0,60-26.9,60-60v-60"/>
<line class="st0" x1="360" y1="300" x2="360" y2="840"/>
<path class="st0" d="M120,600c66.3,0,120,53.7,120,120s-53.7,120-120,120"/>
<path class="st0" d="M600,600c-66.3,0-120,53.7-120,120s53.7,120,120,120"/>
</svg>
