<?xml version="1.0" encoding="utf-8"?>
<!-- Generator: Adobe Illustrator 26.0.0, SVG Export Plug-In . SVG Version: 6.00 Build 0)  -->
<svg version="1.1" id="图层_1" xmlns="http://www.w3.org/2000/svg" xmlns:xlink="http://www.w3.org/1999/xlink" x="0px" y="0px"
	 viewBox="0 0 720 900" style="enable-background:new 0 0 720 900;" xml:space="preserve">
<style type="text/css">
	.st0{fill:none;stroke:#000000;stroke-width:48;stroke-linecap:round;stroke-linejoin:round;stroke-miterlimit:10;}
</style>
<path class="st0" d="M60,240c33.2,0,60-26.9,60-60V60"/>
<path class="st0" d="M120,180c33.1,0,60,26.9,60,60s-26.9,60-60,60v540"/>
<line class="st0" x1="300" y1="60" x2="660" y2="60"/>
<path class="st0" d="M300,840c99.4,0,180-80.6,180-180V60"/>
<path class="st0" d="M300,600v60c0,99.4,80.6,180,180,180h180"/>
<line class="st0" x1="300" y1="360" x2="660" y2="360"/>
<path class="st0" d="M300,180h360v240c0,33.1-26.9,60-60,60H360c-33.1,0-60-26.9-60-60V180z"/>
</svg>
