<?xml version="1.0" encoding="utf-8"?>
<!-- Generator: Adobe Illustrator 26.0.0, SVG Export Plug-In . SVG Version: 6.00 Build 0)  -->
<svg version="1.1" id="图层_1" xmlns="http://www.w3.org/2000/svg" xmlns:xlink="http://www.w3.org/1999/xlink" x="0px" y="0px"
	 viewBox="0 0 720 900" style="enable-background:new 0 0 720 900;" xml:space="preserve">
<style type="text/css">
	.st0{fill:none;stroke:#000000;stroke-width:48;stroke-linecap:round;stroke-linejoin:round;stroke-miterlimit:10;}
</style>
<line class="st0" x1="360" y1="60" x2="360" y2="120"/>
<line class="st0" x1="660" y1="120" x2="60" y2="120"/>
<path class="st0" d="M540,180v180c0,33.1-26.9,60-60,60H240c-33.1,0-60-26.9-60-60V180"/>
<line class="st0" x1="180" y1="240" x2="540" y2="240"/>
<path class="st0" d="M60,720c0-99.4,80.6-180,180-180v180c0,66.3,53.7,120,120,120h120"/>
<path class="st0" d="M360,720c66.3,0,120-53.7,120-120v-60c99.4,0,180,80.6,180,180"/>
</svg>
