<?xml version="1.0" encoding="utf-8"?>
<!-- Generator: Adobe Illustrator 26.0.0, SVG Export Plug-In . SVG Version: 6.00 Build 0)  -->
<svg version="1.1" id="图层_1" xmlns="http://www.w3.org/2000/svg" xmlns:xlink="http://www.w3.org/1999/xlink" x="0px" y="0px"
	 viewBox="0 0 720 900" style="enable-background:new 0 0 720 900;" xml:space="preserve">
<style type="text/css">
	.st0{fill:none;stroke:#000000;stroke-width:48;stroke-linecap:round;stroke-linejoin:round;stroke-miterlimit:10;}
</style>
<line class="st0" x1="120" y1="480" x2="300" y2="480"/>
<line class="st0" x1="120" y1="600" x2="300" y2="600"/>
<path class="st0" d="M60,838.6c33.1,0,60-25.5,60-58.6V300l0,0h60c66.3,0,120,53.7,120,120v360c0,33.1-26.9,60-60,60"/>
<line class="st0" x1="480" y1="480" x2="660" y2="480"/>
<line class="st0" x1="480" y1="600" x2="660" y2="600"/>
<path class="st0" d="M420,838.6c33.1,0,60-25.5,60-58.6V300l0,0h60c66.3,0,120,53.7,120,120v360c0,33.1-26.9,60-60,60"/>
<line class="st0" x1="360" y1="60" x2="360" y2="180"/>
<path class="st0" d="M120,60v60c0,33.1,26.9,60,60,60h360c33.1,0,60-26.9,60-60V60"/>
</svg>
