<?xml version="1.0" encoding="utf-8"?>
<!-- Generator: Adobe Illustrator 26.0.0, SVG Export Plug-In . SVG Version: 6.00 Build 0)  -->
<svg version="1.1" id="图层_1" xmlns="http://www.w3.org/2000/svg" xmlns:xlink="http://www.w3.org/1999/xlink" x="0px" y="0px"
	 viewBox="0 0 720 900" style="enable-background:new 0 0 720 900;" xml:space="preserve">
<style type="text/css">
	.st0{fill:none;stroke:#000000;stroke-width:48;stroke-linecap:round;stroke-linejoin:round;stroke-miterlimit:10;}
</style>
<line class="st0" x1="420" y1="60" x2="420" y2="120"/>
<path class="st0" d="M660,120H240c-33.1,0-60,26.9-60,60v600c0,33.1-26.9,60-60,60H60"/>
<line class="st0" x1="300" y1="240" x2="660" y2="240"/>
<path class="st0" d="M600,420c0-66.3-53.7-120-120-120s-120,53.7-120,120"/>
<line class="st0" x1="480" y1="300" x2="480" y2="180"/>
<path class="st0" d="M660,480H300v180c0,33.1,26.9,60,60,60h240c33.1,0,60-26.9,60-60V480z"/>
<line class="st0" x1="300" y1="600" x2="660" y2="600"/>
<path class="st0" d="M480,420v360c0,33.1,26.9,60,60,60h120"/>
</svg>
