<?xml version="1.0" encoding="utf-8"?>
<!-- Generator: Adobe Illustrator 26.0.0, SVG Export Plug-In . SVG Version: 6.00 Build 0)  -->
<svg version="1.1" id="图层_1" xmlns="http://www.w3.org/2000/svg" xmlns:xlink="http://www.w3.org/1999/xlink" x="0px" y="0px"
	 viewBox="0 0 720 900" style="enable-background:new 0 0 720 900;" xml:space="preserve">
<style type="text/css">
	.st0{fill:none;stroke:#000000;stroke-width:48;stroke-linecap:round;stroke-linejoin:round;stroke-miterlimit:10;}
</style>
<line class="st0" x1="60" y1="180" x2="180" y2="180"/>
<path class="st0" d="M120,60v780"/>
<path class="st0" d="M180,600V420c0-33.1-26.9-60-60-60s-60,26.9-60,60v180"/>
<line class="st0" x1="300" y1="180" x2="420" y2="180"/>
<path class="st0" d="M360,60v780"/>
<path class="st0" d="M420,600V420c0-33.1-26.9-60-60-60s-60,26.9-60,60v180"/>
<path class="st0" d="M660,60c0,66.3-53.7,120-120,120"/>
<path class="st0" d="M660,240c0,66.3-53.7,120-120,120"/>
<path class="st0" d="M540,840V660c0-33.1,26.9-60,60-60s60-26.9,60-60v-60"/>
</svg>
