<?xml version="1.0" encoding="utf-8"?>
<!-- Generator: Adobe Illustrator 26.0.0, SVG Export Plug-In . SVG Version: 6.00 Build 0)  -->
<svg version="1.1" id="图层_1" xmlns="http://www.w3.org/2000/svg" xmlns:xlink="http://www.w3.org/1999/xlink" x="0px" y="0px"
	 viewBox="0 0 720 900" style="enable-background:new 0 0 720 900;" xml:space="preserve">
<style type="text/css">
	.st0{fill:none;stroke:#000000;stroke-width:48;stroke-linecap:round;stroke-linejoin:round;stroke-miterlimit:10;}
</style>
<path class="st0" d="M480,600H240c-33.1,0-60-26.9-60-60V360h360v180C540,573.1,513.1,600,480,600z"/>
<line class="st0" x1="180" y1="480" x2="540" y2="480"/>
<line class="st0" x1="360" y1="360" x2="360" y2="600"/>
<path class="st0" d="M180,60v60c0,33.1-26.9,60-60,60"/>
<path class="st0" d="M60,240h420c33.1,0,60-26.9,60-60v-60H180"/>
<path class="st0" d="M300,120v120c0,33.1,26.9,60,60,60h300"/>
<path class="st0" d="M180,660v60c0,66.3,53.7,120,120,120h180c33.1,0,60-26.9,60-60"/>
<path class="st0" d="M360,660c33.1,0,60,26.8,60,60"/>
<path class="st0" d="M120,660c-33.1,0-60,26.9-60,60v60c0,33.1,26.9,60,60,60"/>
<path class="st0" d="M600,660c33.1,0,60,26.9,60,60v60c0,33.1-26.9,60-60,60"/>
</svg>
