<?xml version="1.0" encoding="utf-8"?>
<!-- Generator: Adobe Illustrator 26.0.0, SVG Export Plug-In . SVG Version: 6.00 Build 0)  -->
<svg version="1.1" id="图层_1" xmlns="http://www.w3.org/2000/svg" xmlns:xlink="http://www.w3.org/1999/xlink" x="0px" y="0px"
	 viewBox="0 0 720 900" style="enable-background:new 0 0 720 900;" xml:space="preserve">
<style type="text/css">
	.st0{fill:none;stroke:#000000;stroke-width:48;stroke-linecap:round;stroke-linejoin:round;stroke-miterlimit:10;}
</style>
<line class="st0" x1="60" y1="180" x2="300" y2="180"/>
<line class="st0" x1="60" y1="480" x2="300" y2="480"/>
<line class="st0" x1="120" y1="300" x2="240" y2="300"/>
<path class="st0" d="M60,840c33.2,0,60-26.8,60-60l0-300"/>
<path class="st0" d="M120,600h120c33.1,0,60,26.9,60,60v120c0,33.1-26.9,60-60,60"/>
<line class="st0" x1="480" y1="60" x2="480" y2="300"/>
<path class="st0" d="M480,180h120c33.1,0,60-26.9,60-60V60"/>
<path class="st0" d="M420,300h240v240c0,66.3-53.7,120-120,120H420"/>
<path class="st0" d="M420,480c0,0,30,0,60,0c33.1,0,60,26.9,60,60v240c0,33.1,26.9,60,60,60h60"/>
<line class="st0" x1="180" y1="60" x2="180" y2="480"/>
</svg>
