<?xml version="1.0" encoding="utf-8"?>
<!-- Generator: Adobe Illustrator 26.0.0, SVG Export Plug-In . SVG Version: 6.00 Build 0)  -->
<svg version="1.1" id="图层_1" xmlns="http://www.w3.org/2000/svg" xmlns:xlink="http://www.w3.org/1999/xlink" x="0px" y="0px"
	 viewBox="0 0 720 900" style="enable-background:new 0 0 720 900;" xml:space="preserve">
<style type="text/css">
	.st0{fill:none;stroke:#000000;stroke-width:48;stroke-linecap:round;stroke-linejoin:round;stroke-miterlimit:10;}
</style>
<path class="st0" d="M600,60v720c0,33.1,26.9,60,60,60"/>
<line class="st0" x1="660" y1="240" x2="300" y2="240"/>
<path class="st0" d="M660,480H540c-33.1,0-60,26.9-60,60v300"/>
<line class="st0" x1="360" y1="360" x2="360" y2="840"/>
<line class="st0" x1="360" y1="480" x2="420" y2="480"/>
<line class="st0" x1="300" y1="120" x2="480" y2="120"/>
<line class="st0" x1="600" y1="120" x2="660" y2="120"/>
<polyline class="st0" points="420,840 300,840 300,600 "/>
<line class="st0" x1="120" y1="60" x2="120" y2="120"/>
<line class="st0" x1="60" y1="180" x2="180" y2="180"/>
<path class="st0" d="M180,840V540c0-33.1-26.9-60-60-60s-60-26.9-60-60V240"/>
<path class="st0" d="M60,840V540c0-33.1,26.9-60,60-60s60-26.9,60-60V240"/>
</svg>
