<?xml version="1.0" encoding="utf-8"?>
<!-- Generator: Adobe Illustrator 26.0.0, SVG Export Plug-In . SVG Version: 6.00 Build 0)  -->
<svg version="1.1" id="图层_1" xmlns="http://www.w3.org/2000/svg" xmlns:xlink="http://www.w3.org/1999/xlink" x="0px" y="0px"
	 viewBox="0 0 720 900" style="enable-background:new 0 0 720 900;" xml:space="preserve">
<style type="text/css">
	.st0{fill:none;stroke:#000000;stroke-width:48;stroke-linecap:round;stroke-linejoin:round;stroke-miterlimit:10;}
</style>
<path class="st0" d="M520,300H200c-44.2,0-80-26.9-80-60V60h240h240v180C600,273.1,564.2,300,520,300z"/>
<line class="st0" x1="120" y1="180" x2="600" y2="180"/>
<path class="st0" d="M60,480c0,33.1,26.9,60,60,60c0,0,480,0,480,0c33.1,0,60-26.9,60-60"/>
<line class="st0" x1="300" y1="300" x2="300" y2="540"/>
<line class="st0" x1="420" y1="300" x2="420" y2="540"/>
<path class="st0" d="M60,780c0-99.4,80.6-180,180-180"/>
<path class="st0" d="M660,780c0-99.4-80.6-180-180-180"/>
<line class="st0" x1="360" y1="540" x2="360" y2="840"/>
<path class="st0" d="M240,720c0-33.1,26.9-60,60-60"/>
<path class="st0" d="M240,840c0-33.1,26.9-60,60-60"/>
<path class="st0" d="M480,720c0-33.1-26.9-60-60-60"/>
<path class="st0" d="M480,840c0-33.1-26.9-60-60-60"/>
<path class="st0" d="M120,360c0,33.1,26.9,60,60,60c0,0,360,0,360,0c33.1,0,60-26.9,60-60"/>
</svg>
