<?xml version="1.0" encoding="utf-8"?>
<!-- Generator: Adobe Illustrator 26.0.0, SVG Export Plug-In . SVG Version: 6.00 Build 0)  -->
<svg version="1.1" id="图层_1" xmlns="http://www.w3.org/2000/svg" xmlns:xlink="http://www.w3.org/1999/xlink" x="0px" y="0px"
	 viewBox="0 0 720 900" style="enable-background:new 0 0 720 900;" xml:space="preserve">
<style type="text/css">
	.st0{fill:none;stroke:#000000;stroke-width:48;stroke-linecap:round;stroke-linejoin:round;stroke-miterlimit:10;}
</style>
<line class="st0" x1="480" y1="60" x2="480" y2="240"/>
<line class="st0" x1="300" y1="540" x2="660" y2="540"/>
<path class="st0" d="M480,240L480,240c-99.4,0-180,80.6-180,180v360c0,33.1,26.9,60,60,60h240c33.1,0,60-26.9,60-60V420
	C660,320.6,579.4,240,480,240z"/>
<line class="st0" x1="60" y1="180" x2="180" y2="180"/>
<path class="st0" d="M120,60v780"/>
<path class="st0" d="M180,600V420c0-33.1-26.9-60-60-60s-60,26.9-60,60v180"/>
</svg>
