<?xml version="1.0" encoding="utf-8"?>
<!-- Generator: Adobe Illustrator 26.0.0, SVG Export Plug-In . SVG Version: 6.00 Build 0)  -->
<svg version="1.1" id="图层_1" xmlns="http://www.w3.org/2000/svg" xmlns:xlink="http://www.w3.org/1999/xlink" x="0px" y="0px"
	 viewBox="0 0 720 900" style="enable-background:new 0 0 720 900;" xml:space="preserve">
<style type="text/css">
	.st0{fill:none;stroke:#000000;stroke-width:48;stroke-linecap:round;stroke-linejoin:round;stroke-miterlimit:10;}
</style>
<path class="st0" d="M120,180h180"/>
<path class="st0" d="M480,180h180"/>
<path class="st0" d="M180,60c-33.1,0-60,26.9-60,60v120c0,33.1,26.9,60,60,60h60"/>
<path class="st0" d="M540,60c-33.1,0-60,26.9-60,60v120c0,33.1,26.9,60,60,60h60"/>
<path class="st0" d="M180,480c-66.3,0-120,53.7-120,120v120c0,33.1,26.9,60,60,60"/>
<path class="st0" d="M240,540v180c0,66.3,53.7,120,120,120h120c33.1,0,60-26.9,60-60"/>
<path class="st0" d="M300,420c66.3,0,120,53.7,120,120"/>
<path class="st0" d="M600,600c33.2,0,60,26.9,60,60v120c0,33.2-26.8,60-60,60"/>
<path class="st0" d="M180,840c198.9,0,360-161.1,360-360"/>
</svg>
