<?xml version="1.0" encoding="utf-8"?>
<!-- Generator: Adobe Illustrator 26.0.0, SVG Export Plug-In . SVG Version: 6.00 Build 0)  -->
<svg version="1.1" id="图层_1" xmlns="http://www.w3.org/2000/svg" xmlns:xlink="http://www.w3.org/1999/xlink" x="0px" y="0px"
	 viewBox="0 0 720 900" style="enable-background:new 0 0 720 900;" xml:space="preserve">
<style type="text/css">
	.st0{fill:none;stroke:#000000;stroke-width:48;stroke-linecap:round;stroke-linejoin:round;stroke-miterlimit:10;}
</style>
<path class="st0" d="M120,180h180"/>
<path class="st0" d="M480,180h180"/>
<path class="st0" d="M180,60c-33.1,0-60,26.9-60,60v120c0,33.1,26.9,60,60,60h60"/>
<path class="st0" d="M540,60c-33.1,0-60,26.9-60,60v120c0,33.1,26.9,60,60,60h60"/>
<line class="st0" x1="60" y1="420" x2="660" y2="420"/>
<path class="st0" d="M660,540c0,66.3-53.7,120-120,120H420"/>
<path class="st0" d="M660,780c0,33.1-26.9,60-60,60H480c-33.1,0-60-26.9-60-60V480"/>
<path class="st0" d="M60,600c99.4,0,180-80.6,180-180"/>
<path class="st0" d="M120,660c33.1,0,60,26.9,60,60"/>
<path class="st0" d="M120,840c99.4,0,180-80.6,180-180c0-33.1-26.9-60-60-60"/>
</svg>
