<?xml version="1.0" encoding="utf-8"?>
<!-- Generator: Adobe Illustrator 26.0.0, SVG Export Plug-In . SVG Version: 6.00 Build 0)  -->
<svg version="1.1" id="图层_1" xmlns="http://www.w3.org/2000/svg" xmlns:xlink="http://www.w3.org/1999/xlink" x="0px" y="0px"
	 viewBox="0 0 720 900" style="enable-background:new 0 0 720 900;" xml:space="preserve">
<style type="text/css">
	.st0{fill:none;stroke:#000000;stroke-width:48;stroke-linecap:round;stroke-linejoin:round;stroke-miterlimit:10;}
</style>
<line class="st0" x1="60" y1="120" x2="300" y2="120"/>
<line class="st0" x1="60" y1="360" x2="300" y2="360"/>
<line class="st0" x1="120" y1="240" x2="240" y2="240"/>
<path class="st0" d="M60,600c33.2,0,60-26.8,60-60V360"/>
<line class="st0" x1="480" y1="60" x2="480" y2="240"/>
<path class="st0" d="M480,120h120c33.1,0,60-26.9,60-60"/>
<path class="st0" d="M420,240h240v120c0,66.3-53.7,120-120,120H420"/>
<path class="st0" d="M420,360c0,0,30,0,60,0c33.1,0,60,26.9,60,60v120c0,33.1,26.9,60,60,60h60"/>
<path class="st0" d="M60,840c66.3,0,120-53.7,120-120"/>
<path class="st0" d="M240,840c33.1,0,60-26.9,60-60v-60"/>
<path class="st0" d="M660,840c-66.3,0-120-53.7-120-120"/>
<path class="st0" d="M480,840c-33.1,0-60-26.9-60-60v-60"/>
<path class="st0" d="M120,480h120c33.1,0,60,26.9,60,60s-26.9,60-60,60"/>
<line class="st0" x1="180" y1="60" x2="180" y2="360"/>
</svg>
