<?xml version="1.0" encoding="utf-8"?>
<!-- Generator: Adobe Illustrator 26.0.0, SVG Export Plug-In . SVG Version: 6.00 Build 0)  -->
<svg version="1.1" id="图层_1" xmlns="http://www.w3.org/2000/svg" xmlns:xlink="http://www.w3.org/1999/xlink" x="0px" y="0px"
	 viewBox="0 0 720 900" style="enable-background:new 0 0 720 900;" xml:space="preserve">
<style type="text/css">
	.st0{fill:none;stroke:#000000;stroke-width:48;stroke-linecap:round;stroke-linejoin:round;stroke-miterlimit:10;}
</style>
<path class="st0" d="M600,300H360c-33.1,0-60-26.9-60-60V60h180h180v180C660,273.1,633.1,300,600,300z"/>
<line class="st0" x1="300" y1="180" x2="660" y2="180"/>
<line class="st0" x1="420" y1="300" x2="420" y2="540"/>
<line class="st0" x1="540" y1="300" x2="540" y2="540"/>
<path class="st0" d="M300,660c0-33.1,26.9-60,60-60"/>
<path class="st0" d="M660,660c0-33.1-26.9-60-60-60"/>
<line class="st0" x1="480" y1="540" x2="480" y2="840"/>
<path class="st0" d="M420,660c-33.1,0-60,26.9-60,60"/>
<path class="st0" d="M360,840c0-33.1,26.9-60,60-60"/>
<path class="st0" d="M600,720c0-33.1-26.9-60-60-60"/>
<path class="st0" d="M600,840c0-33.1-26.9-60-60-60"/>
<path class="st0" d="M300,360c0,33.1,26.9,60,60,60c0,0,240,0,240,0c33.1,0,60-26.9,60-60"/>
<path class="st0" d="M300,480c0,33.1,26.9,60,60,60c0,0,240,0,240,0c33.1,0,60-26.9,60-60"/>
<path class="st0" d="M60,840V660c0-33.1,26.9-60,60-60h0c33.1,0,60,26.9,60,60v180"/>
<line class="st0" x1="120" y1="600" x2="120" y2="60"/>
<line class="st0" x1="60" y1="180" x2="60" y2="360"/>
<line class="st0" x1="180" y1="180" x2="180" y2="360"/>
</svg>
