<?xml version="1.0" encoding="utf-8"?>
<!-- Generator: Adobe Illustrator 26.0.0, SVG Export Plug-In . SVG Version: 6.00 Build 0)  -->
<svg version="1.1" id="图层_1" xmlns="http://www.w3.org/2000/svg" xmlns:xlink="http://www.w3.org/1999/xlink" x="0px" y="0px"
	 viewBox="0 0 720 900" style="enable-background:new 0 0 720 900;" xml:space="preserve">
<style type="text/css">
	.st0{fill:none;stroke:#000000;stroke-width:48;stroke-linecap:round;stroke-linejoin:round;stroke-miterlimit:10;}
</style>
<line class="st0" x1="60" y1="180" x2="180" y2="180"/>
<path class="st0" d="M60,300c33.2,0,60-26.9,60-60v-60"/>
<line class="st0" x1="180" y1="420" x2="60" y2="420"/>
<path class="st0" d="M180,360v180c0,33.1-26.9,60-60,60s-60-26.9-60-60V360"/>
<path class="st0" d="M615,360H345c-24.8,0-45-26.9-45-60V120h360v180C660,333.1,639.8,360,615,360z"/>
<line class="st0" x1="300" y1="240" x2="660" y2="240"/>
<path class="st0" d="M480,60v240c0,99.4-80.6,180-180,180"/>
<line class="st0" x1="300" y1="600" x2="660" y2="600"/>
<path class="st0" d="M480,840V600c0-66.3,53.7-120,120-120"/>
</svg>
