<?xml version="1.0" encoding="utf-8"?>
<!-- Generator: Adobe Illustrator 26.0.0, SVG Export Plug-In . SVG Version: 6.00 Build 0)  -->
<svg version="1.1" id="图层_1" xmlns="http://www.w3.org/2000/svg" xmlns:xlink="http://www.w3.org/1999/xlink" x="0px" y="0px"
	 viewBox="0 0 720 900" style="enable-background:new 0 0 720 900;" xml:space="preserve">
<style type="text/css">
	.st0{fill:none;stroke:#000000;stroke-width:48;stroke-linecap:round;stroke-linejoin:round;stroke-miterlimit:10;}
</style>
<line class="st0" x1="60" y1="480" x2="660" y2="480"/>
<path class="st0" d="M60,840c66.3,0,120-53.7,120-120V480"/>
<path class="st0" d="M600,600v180c0,33.1-26.9,60-60,60H360c-33.1,0-60-26.9-60-60V600"/>
<line class="st0" x1="300" y1="660" x2="600" y2="660"/>
<line class="st0" x1="60" y1="120" x2="300" y2="120"/>
<line class="st0" x1="60" y1="240" x2="300" y2="240"/>
<line class="st0" x1="60" y1="360" x2="300" y2="360"/>
<line class="st0" x1="180" y1="120" x2="180" y2="360"/>
<path class="st0" d="M420,360V180c0-33.1,26.9-60,60-60h120c33.1,0,60,26.9,60,60v180H420z"/>
<line class="st0" x1="540" y1="120" x2="540" y2="60"/>
<line class="st0" x1="420" y1="240" x2="660" y2="240"/>
</svg>
