<?xml version="1.0" encoding="utf-8"?>
<!-- Generator: Adobe Illustrator 26.0.0, SVG Export Plug-In . SVG Version: 6.00 Build 0)  -->
<svg version="1.1" id="图层_1" xmlns="http://www.w3.org/2000/svg" xmlns:xlink="http://www.w3.org/1999/xlink" x="0px" y="0px"
	 viewBox="0 0 720 900" style="enable-background:new 0 0 720 900;" xml:space="preserve">
<style type="text/css">
	.st0{fill:none;stroke:#000000;stroke-width:48;stroke-linecap:round;stroke-linejoin:round;stroke-miterlimit:10;}
</style>
<path class="st0" d="M120,120h180"/>
<path class="st0" d="M60,180c33.1,0,60-26.9,60-60V60"/>
<line class="st0" x1="240" y1="120" x2="240" y2="180"/>
<path class="st0" d="M480,120h180"/>
<path class="st0" d="M420,180c33.1,0,60-26.9,60-60V60"/>
<line class="st0" x1="600" y1="120" x2="600" y2="180"/>
<path class="st0" d="M480,300c0,33.1-26.9,60-60,60H240"/>
<path class="st0" d="M540,420c0,33.1-26.9,60-60,60H180"/>
<path class="st0" d="M600,600c0,33.1-26.9,60-60,60H120"/>
<path class="st0" d="M360,360v360c0,66.3,53.7,120,120,120h120c33.1,0,60-26.9,60-60"/>
</svg>
