<?xml version="1.0" encoding="utf-8"?>
<!-- Generator: Adobe Illustrator 26.0.0, SVG Export Plug-In . SVG Version: 6.00 Build 0)  -->
<svg version="1.1" id="图层_1" xmlns="http://www.w3.org/2000/svg" xmlns:xlink="http://www.w3.org/1999/xlink" x="0px" y="0px"
	 viewBox="0 0 720 900" style="enable-background:new 0 0 720 900;" xml:space="preserve">
<style type="text/css">
	.st0{fill:none;stroke:#000000;stroke-width:48;stroke-linecap:round;stroke-miterlimit:10;}
</style>
<path class="st0" d="M180,60c0,66.2-53.8,120-120,120"/>
<path class="st0" d="M480,780c33.1,0,60,26.9,60,60"/>
<path class="st0" d="M180,840c0-33.1,26.9-60,60-60"/>
<path class="st0" d="M480,540H240c-33.1,0-60-26.9-60-60l0,0"/>
<path class="st0" d="M540,660H240c-33.1,0-60-26.9-60-60l0,0"/>
<path class="st0" d="M120,300c0,33.1,26.9,60,60,60h120"/>
<line class="st0" x1="360" y1="660" x2="360" y2="840"/>
<path class="st0" d="M300,420V240c0-33.1-26.9-60-60-60h0"/>
<path class="st0" d="M240,300c-33.1,0-60-26.9-60-60"/>
<path class="st0" d="M420,60c0,33.1,26.9,60,60,60h180"/>
<path class="st0" d="M420,360h60c66.3,0,120-53.7,120-120V120"/>
<path class="st0" d="M600,420h-60c-33.1,0-60-26.9-60-60V240c0-33.1-26.9-60-60-60"/>
<line class="st0" x1="180" y1="120" x2="300" y2="120"/>
</svg>
