<?xml version="1.0" encoding="utf-8"?>
<!-- Generator: Adobe Illustrator 26.0.0, SVG Export Plug-In . SVG Version: 6.00 Build 0)  -->
<svg version="1.1" id="图层_1" xmlns="http://www.w3.org/2000/svg" xmlns:xlink="http://www.w3.org/1999/xlink" x="0px" y="0px"
	 viewBox="0 0 720 900" style="enable-background:new 0 0 720 900;" xml:space="preserve">
<style type="text/css">
	.st0{fill:none;stroke:#000000;stroke-width:48;stroke-linecap:round;stroke-linejoin:round;stroke-miterlimit:10;}
</style>
<line class="st0" x1="60" y1="120" x2="300" y2="120"/>
<line class="st0" x1="180" y1="60" x2="180" y2="180"/>
<line class="st0" x1="420" y1="120" x2="660" y2="120"/>
<line class="st0" x1="540" y1="60" x2="540" y2="180"/>
<path class="st0" d="M120,720h180"/>
<path class="st0" d="M480,720h180"/>
<path class="st0" d="M180,600c-33.1,0-60,26.9-60,60v120c0,33.1,26.9,60,60,60h60"/>
<path class="st0" d="M540,600c-33.1,0-60,26.9-60,60v120c0,33.1,26.9,60,60,60h60"/>
<path class="st0" d="M540,300H180c-33.1,0-60,26.9-60,60v180h480V360C600,326.9,573.1,300,540,300z"/>
<line class="st0" x1="360" y1="300" x2="360" y2="240"/>
<path class="st0" d="M420,360c0,66.3-53.7,120-120,120h-60"/>
<path class="st0" d="M300,360c0,66.3,53.7,120,120,120h60"/>
</svg>
