<?xml version="1.0" encoding="utf-8"?>
<!-- Generator: Adobe Illustrator 26.0.0, SVG Export Plug-In . SVG Version: 6.00 Build 0)  -->
<svg version="1.1" id="图层_1" xmlns="http://www.w3.org/2000/svg" xmlns:xlink="http://www.w3.org/1999/xlink" x="0px" y="0px"
	 viewBox="0 0 720 900" style="enable-background:new 0 0 720 900;" xml:space="preserve">
<style type="text/css">
	.st0{fill:none;stroke:#000000;stroke-width:48;stroke-linecap:round;stroke-linejoin:round;stroke-miterlimit:10;}
</style>
<line class="st0" x1="60" y1="120" x2="300" y2="120"/>
<line class="st0" x1="180" y1="60" x2="180" y2="180"/>
<line class="st0" x1="420" y1="120" x2="660" y2="120"/>
<line class="st0" x1="540" y1="60" x2="540" y2="180"/>
<line class="st0" x1="60" y1="420" x2="180" y2="420"/>
<line class="st0" x1="60" y1="540" x2="180" y2="540"/>
<path class="st0" d="M540,540H360c-33.1,0-60-26.9-60-60V300h300v180C600,513.1,573.1,540,540,540z"/>
<line class="st0" x1="300" y1="420" x2="600" y2="420"/>
<path class="st0" d="M360,600c0,33.2-26.9,60-60,60"/>
<path class="st0" d="M540,780c0-33.1-26.9-60-60-60s-60,26.9-60,60"/>
<path class="st0" d="M300,720v60c0,33.1,26.9,60,60,60h180"/>
<path class="st0" d="M600,840c33.1,0,60-26.9,60-60l0,0V660H420"/>
<line class="st0" x1="120" y1="240" x2="120" y2="300"/>
<line class="st0" x1="60" y1="300" x2="180" y2="300"/>
<path class="st0" d="M60,660v120c0,33.1,26.9,60,60,60l0,0c33.1,0,60-26.9,60-60V660"/>
<line class="st0" x1="60" y1="720" x2="180" y2="720"/>
</svg>
