<?xml version="1.0" encoding="utf-8"?>
<!-- Generator: Adobe Illustrator 26.0.0, SVG Export Plug-In . SVG Version: 6.00 Build 0)  -->
<svg version="1.1" id="图层_1" xmlns="http://www.w3.org/2000/svg" xmlns:xlink="http://www.w3.org/1999/xlink" x="0px" y="0px"
	 viewBox="0 0 720 900" style="enable-background:new 0 0 720 900;" xml:space="preserve">
<style type="text/css">
	.st0{fill:none;stroke:#000000;stroke-width:48;stroke-linecap:round;stroke-linejoin:round;stroke-miterlimit:10;}
</style>
<line class="st0" x1="120" y1="120" x2="120" y2="240"/>
<line class="st0" x1="240" y1="120" x2="240" y2="240"/>
<path class="st0" d="M240,360c0,99.4-80.6,180-180,180"/>
<path class="st0" d="M240,540c0,99.4-80.6,180-180,180"/>
<path class="st0" d="M300,60c0,33.1-26.9,60-60,60H60"/>
<path class="st0" d="M60,300c0-33.1,26.9-60,60-60h180"/>
<path class="st0" d="M240,240v540l0,0c0,33.1-26.9,60-60,60h-60"/>
<line class="st0" x1="480" y1="360" x2="480" y2="600"/>
<path class="st0" d="M540,60c-66.3,0-120,53.7-120,120l0,0c0,33.1,26.9,60,60,60h120c33.1,0,60,26.9,60,60v480c0,33.1-26.9,60-60,60
	h-60"/>
</svg>
