<?xml version="1.0" encoding="utf-8"?>
<!-- Generator: Adobe Illustrator 26.0.0, SVG Export Plug-In . SVG Version: 6.00 Build 0)  -->
<svg version="1.1" id="图层_1" xmlns="http://www.w3.org/2000/svg" xmlns:xlink="http://www.w3.org/1999/xlink" x="0px" y="0px"
	 viewBox="0 0 720 900" style="enable-background:new 0 0 720 900;" xml:space="preserve">
<style type="text/css">
	.st0{fill:none;stroke:#000000;stroke-width:48;stroke-linecap:round;stroke-linejoin:round;stroke-miterlimit:10;}
</style>
<path class="st0" d="M300,180h300c33.1,0,60,26.9,60,60v420c0,33.1-26.9,60-60,60"/>
<path class="st0" d="M660,840H60l0,0c66.3,0,120-53.7,120-120c0-60,0-240,0-240H60V360h60c33.1,0,60-26.9,60-60V180H60"/>
<path class="st0" d="M540,60c-33.1,0-60,26.9-60,60v480c0,66.3-53.7,120-120,120"/>
<line class="st0" x1="60" y1="60" x2="180" y2="60"/>
</svg>
