<?xml version="1.0" encoding="utf-8"?>
<!-- Generator: Adobe Illustrator 26.0.0, SVG Export Plug-In . SVG Version: 6.00 Build 0)  -->
<svg version="1.1" id="图层_1" xmlns="http://www.w3.org/2000/svg" xmlns:xlink="http://www.w3.org/1999/xlink" x="0px" y="0px"
	 viewBox="0 0 720 900" style="enable-background:new 0 0 720 900;" xml:space="preserve">
<style type="text/css">
	.st0{fill:none;stroke:#000000;stroke-width:48;stroke-linecap:round;stroke-linejoin:round;stroke-miterlimit:10;}
</style>
<path class="st0" d="M660,840H60l0,0c66.3,0,120-53.7,120-120c0-60,0-240,0-240H60V360h60c33.1,0,60-26.9,60-60V180H60"/>
<line class="st0" x1="60" y1="60" x2="180" y2="60"/>
<path class="st0" d="M300,720V120h120v120c0,33.1-26.9,60-60,60h-60"/>
<polyline class="st0" points="360,480 420,480 420,660 360,660 "/>
<line class="st0" x1="600" y1="60" x2="600" y2="120"/>
<line class="st0" x1="540" y1="480" x2="660" y2="480"/>
<line class="st0" x1="600" y1="720" x2="600" y2="300"/>
<path class="st0" d="M540,180v60c0,33.1,26.9,60,60,60s60-26.9,60-60v-60"/>
<path class="st0" d="M540,360h120"/>
<line class="st0" x1="540" y1="120" x2="660" y2="120"/>
</svg>
