<?xml version="1.0" encoding="utf-8"?>
<!-- Generator: Adobe Illustrator 26.0.0, SVG Export Plug-In . SVG Version: 6.00 Build 0)  -->
<svg version="1.1" id="图层_1" xmlns="http://www.w3.org/2000/svg" xmlns:xlink="http://www.w3.org/1999/xlink" x="0px" y="0px"
	 viewBox="0 0 720 900" style="enable-background:new 0 0 720 900;" xml:space="preserve">
<style type="text/css">
	.st0{fill:none;stroke:#000000;stroke-width:48;stroke-linecap:round;stroke-linejoin:round;stroke-miterlimit:10;}
</style>
<line class="st0" x1="60" y1="360" x2="420" y2="360"/>
<path class="st0" d="M300,240H180c-33.1,0-60-26.9-60-60V60h240v120C360,213.1,333.1,240,300,240z"/>
<path class="st0" d="M240,720L240,720c-33.1,0-60-26.9-60-60v-60h120v60C300,693.1,273.1,720,240,720z"/>
<path class="st0" d="M300,840H180c-66.3,0-120-53.7-120-120V480h360v240C420,786.3,366.3,840,300,840z"/>
<line class="st0" x1="240" y1="240" x2="240" y2="480"/>
<path class="st0" d="M540,840V60h120v180c0,66.3-53.7,120-120,120l0,0l0,0c66.3,0,120,53.7,120,120v60c0,33.1-26.9,60-60,60h-60"/>
</svg>
