<?xml version="1.0" encoding="utf-8"?>
<!-- Generator: Adobe Illustrator 26.0.0, SVG Export Plug-In . SVG Version: 6.00 Build 0)  -->
<svg version="1.1" id="图层_1" xmlns="http://www.w3.org/2000/svg" xmlns:xlink="http://www.w3.org/1999/xlink" x="0px" y="0px"
	 viewBox="0 0 720 900" style="enable-background:new 0 0 720 900;" xml:space="preserve">
<style type="text/css">
	.st0{fill:none;stroke:#000000;stroke-width:48;stroke-linecap:round;stroke-linejoin:round;stroke-miterlimit:10;}
</style>
<path class="st0" d="M60,240c33.1,0,60-26.9,60-60V60"/>
<line class="st0" x1="180" y1="120" x2="120" y2="120"/>
<line class="st0" x1="60" y1="360" x2="180" y2="360"/>
<line class="st0" x1="60" y1="540" x2="180" y2="540"/>
<path class="st0" d="M180,840c-33.1,0-60-26.9-60-60V360"/>
<path class="st0" d="M540,600H420c-66.3,0-120-53.7-120-120V120c0-33.1,26.9-60,60-60h240c33.1,0,60,26.9,60,60v360
	C660,546.3,606.3,600,540,600z"/>
<line class="st0" x1="300" y1="180" x2="660" y2="180"/>
<line class="st0" x1="300" y1="360" x2="660" y2="360"/>
<path class="st0" d="M300,840h60c33.1,0,60-26.9,60-60V600"/>
<path class="st0" d="M660,840h-60c-33.1,0-60-26.9-60-60V600"/>
</svg>
