<?xml version="1.0" encoding="utf-8"?>
<!-- Generator: Adobe Illustrator 26.0.0, SVG Export Plug-In . SVG Version: 6.00 Build 0)  -->
<svg version="1.1" id="图层_1" xmlns="http://www.w3.org/2000/svg" xmlns:xlink="http://www.w3.org/1999/xlink" x="0px" y="0px"
	 viewBox="0 0 720 900" style="enable-background:new 0 0 720 900;" xml:space="preserve">
<style type="text/css">
	.st0{fill:none;stroke:#000000;stroke-width:48;stroke-linecap:round;stroke-linejoin:round;stroke-miterlimit:10;}
</style>
<line class="st0" x1="420" y1="60" x2="540" y2="60"/>
<line class="st0" x1="300" y1="180" x2="660" y2="180"/>
<path class="st0" d="M480,360c-33.1,0-60-26.9-60-60V180"/>
<path class="st0" d="M480,360c33.2,0,60-26.9,60-60V180"/>
<path class="st0" d="M660,420c0-33.1-26.9-60-60-60H360c-33.1,0-60,26.9-60,60"/>
<path class="st0" d="M420,480v120c0,33.1,26.9,60,60,60h60c33.1,0,60,26.9,60,60v60c0,33.1-26.9,60-60,60h-60"/>
<path class="st0" d="M300,840c66.3,0,120-53.7,120-120"/>
<path class="st0" d="M300,480c0,33.1,26.9,60,60,60h300"/>
<path class="st0" d="M60,240c33.1,0,60-26.9,60-60V60"/>
<line class="st0" x1="180" y1="120" x2="120" y2="120"/>
<line class="st0" x1="60" y1="360" x2="180" y2="360"/>
<line class="st0" x1="60" y1="540" x2="180" y2="540"/>
<path class="st0" d="M180,840c-33.1,0-60-26.9-60-60V360"/>
</svg>
