<?xml version="1.0" encoding="utf-8"?>
<!-- Generator: Adobe Illustrator 26.0.0, SVG Export Plug-In . SVG Version: 6.00 Build 0)  -->
<svg version="1.1" id="图层_1" xmlns="http://www.w3.org/2000/svg" xmlns:xlink="http://www.w3.org/1999/xlink" x="0px" y="0px"
	 viewBox="0 0 720 900" style="enable-background:new 0 0 720 900;" xml:space="preserve">
<style type="text/css">
	.st0{fill:none;stroke:#000000;stroke-width:48;stroke-linecap:round;stroke-linejoin:round;stroke-miterlimit:10;}
</style>
<path class="st0" d="M660,60h-60v120"/>
<path class="st0" d="M540,180h120v60c0,66.3-53.7,180-120,180"/>
<path class="st0" d="M540,300v120c0,33.1,26.9,60,60,60h60"/>
<path class="st0" d="M60,480V240c0-33.1,26.9-60,60-60h240c33.1,0,60,26.9,60,60v240"/>
<line class="st0" x1="240" y1="480" x2="240" y2="60"/>
<path class="st0" d="M120,420c33.1,0,60-26.9,60-60v-60"/>
<path class="st0" d="M360,420c-33.1,0-60-26.9-60-60v-60"/>
<path class="st0" d="M60,60c33.1,0,60,26.9,60,60"/>
<path class="st0" d="M420,60c-33.1,0-60,26.9-60,60"/>
<path class="st0" d="M600,660H120v120h480V660z"/>
<line class="st0" x1="120" y1="720" x2="600" y2="720"/>
<line class="st0" x1="360" y1="660" x2="360" y2="780"/>
<line class="st0" x1="60" y1="840" x2="660" y2="840"/>
<path class="st0" d="M540,600H180c33.1,0,60-26.9,60-60"/>
</svg>
