<?xml version="1.0" encoding="utf-8"?>
<!-- Generator: Adobe Illustrator 26.0.0, SVG Export Plug-In . SVG Version: 6.00 Build 0)  -->
<svg version="1.1" id="图层_1" xmlns="http://www.w3.org/2000/svg" xmlns:xlink="http://www.w3.org/1999/xlink" x="0px" y="0px"
	 viewBox="0 0 720 900" style="enable-background:new 0 0 720 900;" xml:space="preserve">
<path d="M300,576h-36V444h36c13.3,0,24-10.7,24-24s-10.7-24-24-24h-36v-96c0-13.3-10.7-24-24-24s-24,10.7-24,24v96h-72v-96
	c0-13.3-10.7-24-24-24s-24,10.7-24,24v96H60c-13.3,0-24,10.7-24,24s10.7,24,24,24h36v132H60c-13.3,0-24,10.7-24,24s10.7,24,24,24h36
	v96c0,13.3,10.7,24,24,24s24-10.7,24-24v-96h72v96c0,13.3,10.7,24,24,24s24-10.7,24-24v-96h36c13.3,0,24-10.7,24-24
	S313.3,576,300,576z M144,576V444h72v132H144z"/>
</svg>
