<?xml version="1.0" encoding="utf-8"?>
<!-- Generator: Adobe Illustrator 26.0.0, SVG Export Plug-In . SVG Version: 6.00 Build 0)  -->
<svg version="1.1" id="图层_1" xmlns="http://www.w3.org/2000/svg" xmlns:xlink="http://www.w3.org/1999/xlink" x="0px" y="0px"
	 viewBox="0 0 720 900" style="enable-background:new 0 0 720 900;" xml:space="preserve">
<path d="M204,518V327c41.4,10.7,72,48.3,72,93c0,13.3,10.7,24,24,24s24-10.7,24-24c0-71.2-52-130.5-120-142v-38
	c0-13.3-10.7-24-24-24s-24,10.7-24,24v38C88,289.5,36,348.8,36,420c0,71.2,52,130.5,120,142v191c-41.4-10.7-72-48.3-72-93
	c0-13.3-10.7-24-24-24s-24,10.7-24,24c0,71.2,52,130.5,120,142v38c0,13.3,10.7,24,24,24s24-10.7,24-24v-38c68-11.5,120-70.8,120-142
	S272,529.5,204,518z M84,420c0-44.7,30.6-82.3,72-93V513C114.6,502.3,84,464.7,84,420z M204,753V567c41.4,10.7,72,48.3,72,93
	S245.4,742.3,204,753z"/>
</svg>
