<?xml version="1.0" encoding="utf-8"?>
<!-- Generator: Adobe Illustrator 26.0.0, SVG Export Plug-In . SVG Version: 6.00 Build 0)  -->
<svg version="1.1" id="图层_1" xmlns="http://www.w3.org/2000/svg" xmlns:xlink="http://www.w3.org/1999/xlink" x="0px" y="0px"
	 viewBox="0 0 720 900" style="enable-background:new 0 0 720 900;" xml:space="preserve">
<g>
	<path d="M120,504c46.3,0,84-37.7,84-84c0-46.3-37.7-84-84-84s-84,37.7-84,84C36,466.3,73.7,504,120,504z M120,384
		c19.9,0,36,16.1,36,36s-16.1,36-36,36s-36-16.1-36-36S100.1,384,120,384z"/>
	<path d="M240,696c-46.3,0-84,37.7-84,84s37.7,84,84,84s84-37.7,84-84S286.3,696,240,696z M240,816c-19.9,0-36-16.1-36-36
		s16.1-36,36-36s36,16.1,36,36S259.9,816,240,816z"/>
	<path d="M313.3,400c-11-7.4-25.9-4.4-33.3,6.7l-240,360c-7.4,11-4.4,25.9,6.7,33.3c4.1,2.7,8.7,4,13.3,4c7.8,0,15.4-3.8,20-10.7
		l240-360C327.3,422.3,324.3,407.4,313.3,400z"/>
</g>
</svg>
