<?xml version="1.0" encoding="utf-8"?>
<!-- Generator: Adobe Illustrator 26.0.0, SVG Export Plug-In . SVG Version: 6.00 Build 0)  -->
<svg version="1.1" id="图层_1" xmlns="http://www.w3.org/2000/svg" xmlns:xlink="http://www.w3.org/1999/xlink" x="0px" y="0px"
	 viewBox="0 0 720 900" style="enable-background:new 0 0 720 900;" xml:space="preserve">
<path d="M322.1,830.5l-32.9-76.7c21.7-25.2,34.8-58,34.8-93.8v-60c0-13.3-10.7-24-24-24s-24,10.7-24,24v60c0,14.8-3.4,28.8-9.3,41.3
	l-59.9-139.8C273.4,548.9,324,490.3,324,420c0-79.4-64.6-144-144-144h-60c-13.3,0-24,10.7-24,24s10.7,24,24,24h60
	c52.9,0,96,43.1,96,96c0,50.5-39.2,92.1-88.9,95.7l-45.1-105.2c-5.2-12.2-19.3-17.8-31.5-12.6c-12.2,5.2-17.8,19.3-12.6,31.5
	l39.8,92.9C78.9,540.4,36,595.3,36,660c0,79.4,64.6,144,144,144c25.6,0,49.7-6.7,70.5-18.5l27.4,64c3.9,9.1,12.8,14.6,22.1,14.6
	c3.2,0,6.4-0.6,9.4-1.9C321.6,856.8,327.3,842.7,322.1,830.5z M180,756c-52.9,0-96-43.1-96-96c0-44.9,31-82.8,72.8-93.2L231.5,741
	C216.6,750.5,198.9,756,180,756z"/>
</svg>
