<?xml version="1.0" encoding="utf-8"?>
<!-- Generator: Adobe Illustrator 26.0.0, SVG Export Plug-In . SVG Version: 6.00 Build 0)  -->
<svg version="1.1" id="图层_1" xmlns="http://www.w3.org/2000/svg" xmlns:xlink="http://www.w3.org/1999/xlink" x="0px" y="0px"
	 viewBox="0 0 720 900" style="enable-background:new 0 0 720 900;" xml:space="preserve">
<path d="M213.9,480l103-103c9.4-9.4,9.4-24.6,0-33.9c-9.4-9.4-24.6-9.4-33.9,0l-79,79V300c0-13.3-10.7-24-24-24s-24,10.7-24,24
	v122.1l-79-79c-9.4-9.4-24.6-9.4-33.9,0c-9.4,9.4-9.4,24.6,0,33.9l103,103L43,583c-9.4,9.4-9.4,24.6,0,33.9c4.7,4.7,10.8,7,17,7
	s12.3-2.3,17-7l79-79V660c0,13.3,10.7,24,24,24s24-10.7,24-24V537.9l79,79c4.7,4.7,10.8,7,17,7s12.3-2.3,17-7
	c9.4-9.4,9.4-24.6,0-33.9L213.9,480z"/>
</svg>
