<?xml version="1.0" encoding="utf-8"?>
<!-- Generator: Adobe Illustrator 26.0.0, SVG Export Plug-In . SVG Version: 6.00 Build 0)  -->
<svg version="1.1" id="图层_1" xmlns="http://www.w3.org/2000/svg" xmlns:xlink="http://www.w3.org/1999/xlink" x="0px" y="0px"
	 viewBox="0 0 720 900" style="enable-background:new 0 0 720 900;" xml:space="preserve">
<g>
	<path d="M677,283L497.2,103.3c-75.7-75.7-198.8-75.7-274.4,0L43,283c-9.4,9.4-9.4,24.6,0,33.9c4.7,4.7,10.8,7,17,7s12.3-2.3,17-7
		l179.7-179.7c56.9-56.9,149.6-56.9,206.6,0L643,317c9.4,9.4,24.6,9.4,33.9,0C686.3,307.6,686.3,292.4,677,283z"/>
	<path d="M480,504c46.3,0,84-37.7,84-84v-60c0-13.3-10.7-24-24-24s-24,10.7-24,24v60c0,19.9-16.1,36-36,36h-96V324h96
		c13.3,0,24-10.7,24-24s-10.7-24-24-24H240c-13.3,0-24,10.7-24,24s10.7,24,24,24h96v132h-96c-19.9,0-36-16.1-36-36v-60
		c0-13.3-10.7-24-24-24s-24,10.7-24,24v60c0,46.3,37.7,84,84,84h96v336c0,13.3,10.7,24,24,24s24-10.7,24-24V504H480z"/>
	<path d="M120,576c-13.3,0-24,10.7-24,24s10.7,24,24,24c52.9,0,96,43.1,96,96s-43.1,96-96,96c-13.3,0-24,10.7-24,24s10.7,24,24,24
		c79.4,0,144-64.6,144-144S199.4,576,120,576z"/>
	<path d="M600,624c13.3,0,24-10.7,24-24s-10.7-24-24-24c-79.4,0-144,64.6-144,144s64.6,144,144,144c13.3,0,24-10.7,24-24
		s-10.7-24-24-24c-52.9,0-96-43.1-96-96S547.1,624,600,624z"/>
</g>
</svg>
