<?xml version="1.0" encoding="utf-8"?>
<!-- Generator: Adobe Illustrator 26.0.0, SVG Export Plug-In . SVG Version: 6.00 Build 0)  -->
<svg version="1.1" id="图层_1" xmlns="http://www.w3.org/2000/svg" xmlns:xlink="http://www.w3.org/1999/xlink" x="0px" y="0px"
	 viewBox="0 0 720 900" style="enable-background:new 0 0 720 900;" xml:space="preserve">
<g>
	<path d="M264,240v-96h36c13.3,0,24-10.7,24-24s-10.7-24-24-24h-96V60c0-13.3-10.7-24-24-24s-24,10.7-24,24v36H60
		c-13.3,0-24,10.7-24,24s10.7,24,24,24h36v96c0,38,25.3,70.1,60,80.5V393c-41.4-10.7-72-48.3-72-93c0-13.3-10.7-24-24-24
		s-24,10.7-24,24c0,71.2,52,130.5,120,142v74H60c-13.3,0-24,10.7-24,24s10.7,24,24,24h96v74C88,649.5,36,708.8,36,780v60
		c0,13.3,10.7,24,24,24s24-10.7,24-24v-60c0-44.7,30.6-82.3,72-93v153c0,13.3,10.7,24,24,24s24-10.7,24-24V687
		c41.4,10.7,72,48.3,72,93v60c0,13.3,10.7,24,24,24s24-10.7,24-24v-60c0-71.2-52-130.5-120-142v-74h96c13.3,0,24-10.7,24-24
		s-10.7-24-24-24h-96v-74c68-11.5,120-70.8,120-142c0-13.3-10.7-24-24-24s-24,10.7-24,24c0,44.7-30.6,82.3-72,93v-72.5
		C238.7,310.1,264,278,264,240z M144,240v-96h72v96c0,19.9-16.1,36-36,36S144,259.9,144,240z"/>
	<path d="M660,276H444v-96c0-19.9,16.1-36,36-36h120c46.3,0,84-37.7,84-84c0-13.3-10.7-24-24-24s-24,10.7-24,24
		c0,19.9-16.1,36-36,36H480c-46.3,0-84,37.7-84,84v660c0,13.3,10.7,24,24,24s24-10.7,24-24V324h216c13.3,0,24-10.7,24-24
		S673.3,276,660,276z"/>
	<path d="M600,396c-13.3,0-24,10.7-24,24v420c0,13.3,10.7,24,24,24s24-10.7,24-24V420C624,406.7,613.3,396,600,396z"/>
</g>
</svg>
