<?xml version="1.0" encoding="utf-8"?>
<!-- Generator: Adobe Illustrator 26.0.0, SVG Export Plug-In . SVG Version: 6.00 Build 0)  -->
<svg version="1.1" id="图层_1" xmlns="http://www.w3.org/2000/svg" xmlns:xlink="http://www.w3.org/1999/xlink" x="0px" y="0px"
	 viewBox="0 0 720 900" style="enable-background:new 0 0 720 900;" xml:space="preserve">
<g>
	<path d="M120,84h120c13.3,0,24-10.7,24-24s-10.7-24-24-24H120c-13.3,0-24,10.7-24,24S106.7,84,120,84z"/>
	<path d="M300,156H60c-13.3,0-24,10.7-24,24s10.7,24,24,24h240c13.3,0,24-10.7,24-24S313.3,156,300,156z"/>
	<path d="M300,276H60c-13.3,0-24,10.7-24,24s10.7,24,24,24h240c13.3,0,24-10.7,24-24S313.3,276,300,276z"/>
	<path d="M300,396H60c-13.3,0-24,10.7-24,24s10.7,24,24,24h240c13.3,0,24-10.7,24-24S313.3,396,300,396z"/>
	<path d="M660,396h-36V240c0-46.3-37.7-84-84-84h-36V84h156c13.3,0,24-10.7,24-24s-10.7-24-24-24H420c-13.3,0-24,10.7-24,24
		s10.7,24,24,24h36v72h-36c-13.3,0-24,10.7-24,24s10.7,24,24,24h36v192h-36c-13.3,0-24,10.7-24,24s10.7,24,24,24h240
		c13.3,0,24-10.7,24-24S673.3,396,660,396z M504,204h36c19.9,0,36,16.1,36,36v156h-72V204z"/>
	<path d="M240,516c-13.3,0-24,10.7-24,24v36h-72v-36c0-13.3-10.7-24-24-24s-24,10.7-24,24v240c0,46.3,37.7,84,84,84s84-37.7,84-84
		V540C264,526.7,253.3,516,240,516z M180,816c-19.9,0-36-16.1-36-36V624h72v156C216,799.9,199.9,816,180,816z"/>
	<path d="M660,516c-13.3,0-24,10.7-24,24v36H444v-36c0-13.3-10.7-24-24-24s-24,10.7-24,24v240c0,46.3,37.7,84,84,84h120
		c46.3,0,84-37.7,84-84V540C684,526.7,673.3,516,660,516z M600,816H480c-19.9,0-36-16.1-36-36V624h192v156
		C636,799.9,619.9,816,600,816z"/>
</g>
</svg>
